<?xml version="1.0" encoding="UTF-8" standalone="no"?>
<svg
   xmlns:dc="http://purl.org/dc/elements/1.1/"
   xmlns:cc="http://creativecommons.org/ns#"
   xmlns:rdf="http://www.w3.org/1999/02/22-rdf-syntax-ns#"
   xmlns:svg="http://www.w3.org/2000/svg"
   xmlns="http://www.w3.org/2000/svg"
   xmlns:sodipodi="http://sodipodi.sourceforge.net/DTD/sodipodi-0.dtd"
   xmlns:inkscape="http://www.inkscape.org/namespaces/inkscape"
   version="1.1"
   viewBox="0 0 960 440"
   stroke-miterlimit="10"
   id="svg191"
   sodipodi:docname="events.svg"
   width="960"
   height="440"
   style="fill:none;stroke:none;stroke-linecap:square;stroke-miterlimit:10"
   inkscape:version="0.92.2 (5c3e80d, 2017-08-06)">
  <metadata
     id="metadata197">
    <rdf:RDF>
      <cc:Work
         rdf:about="">
        <dc:format>image/svg+xml</dc:format>
        <dc:type
           rdf:resource="http://purl.org/dc/dcmitype/StillImage" />
        <dc:title></dc:title>
      </cc:Work>
    </rdf:RDF>
  </metadata>
  <defs
     id="defs195">
    <clipPath
       id="g2721e673cf_0_127.0-3">
      <path
         style="clip-rule:nonzero"
         inkscape:connector-curvature="0"
         d="M 0,0 H 960 V 540 H 0 Z"
         id="path2-6" />
    </clipPath>
    <radialGradient
       id="g2721e673cf_0_127.1"
       gradientUnits="userSpaceOnUse"
       gradientTransform="matrix(8.3242235,0,0,8.3242235,139.27664,29.831803)"
       spreadMethod="pad"
       cx="28.417044"
       cy="34.44614"
       fx="28.417044"
       fy="34.44614"
       r="8.3242235">
      <stop
         offset="0.0"
         stop-color="#dddddd"
         id="stop7" />
      <stop
         offset="1.0"
         stop-color="#919191"
         id="stop9" />
    </radialGradient>
    <radialGradient
       id="g2721e673cf_0_127.2"
       gradientUnits="userSpaceOnUse"
       gradientTransform="matrix(7.9341225,0,0,7.9341225,139.27664,29.831803)"
       spreadMethod="pad"
       cx="30.068773"
       cy="34.623436"
       fx="30.068773"
       fy="34.623436"
       r="7.9341226">
      <stop
         offset="0.0"
         stop-color="#dcecd5"
         id="stop24" />
      <stop
         offset="1.0"
         stop-color="#93bc81"
         id="stop26" />
    </radialGradient>
    <radialGradient
       id="g2721e673cf_0_127.3"
       gradientUnits="userSpaceOnUse"
       gradientTransform="matrix(8.3242235,0,0,8.3242235,139.27664,29.831803)"
       spreadMethod="pad"
       cx="57.803814"
       cy="34.064297"
       fx="57.803814"
       fy="34.064297"
       r="8.3242235">
      <stop
         offset="0.0"
         stop-color="#dddddd"
         id="stop45" />
      <stop
         offset="1.0"
         stop-color="#919191"
         id="stop47" />
    </radialGradient>
    <radialGradient
       id="g2721e673cf_0_127.4"
       gradientUnits="userSpaceOnUse"
       gradientTransform="matrix(7.9341225,0,0,7.9341225,139.27664,29.831803)"
       spreadMethod="pad"
       cx="60.900417"
       cy="34.222816"
       fx="60.900417"
       fy="34.222816"
       r="7.9341226">
      <stop
         offset="0.0"
         stop-color="#dcecd5"
         id="stop62" />
      <stop
         offset="1.0"
         stop-color="#93bc81"
         id="stop64" />
    </radialGradient>
    <radialGradient
       id="g2721e673cf_0_127.5"
       gradientUnits="userSpaceOnUse"
       gradientTransform="matrix(8.3242235,0,0,8.3242235,139.27664,29.831803)"
       spreadMethod="pad"
       cx="83.327934"
       cy="34.3703"
       fx="83.327934"
       fy="34.3703"
       r="8.3242235">
      <stop
         offset="0.0"
         stop-color="#dddddd"
         id="stop83" />
      <stop
         offset="1.0"
         stop-color="#919191"
         id="stop85" />
    </radialGradient>
    <radialGradient
       id="g2721e673cf_0_127.6"
       gradientUnits="userSpaceOnUse"
       gradientTransform="matrix(7.9341225,0,0,7.9341225,139.27664,29.831803)"
       spreadMethod="pad"
       cx="87.679497"
       cy="34.543865"
       fx="87.679497"
       fy="34.543865"
       r="7.9341226">
      <stop
         offset="0.0"
         stop-color="#dcecd5"
         id="stop100" />
      <stop
         offset="1.0"
         stop-color="#93bc81"
         id="stop102" />
    </radialGradient>
    <radialGradient
       id="radialGradient232"
       gradientUnits="userSpaceOnUse"
       gradientTransform="scale(8.3242235)"
       spreadMethod="pad"
       cx="28.417044"
       cy="34.44614"
       fx="28.417044"
       fy="34.44614"
       r="8.3242235">
      <stop
         offset="0.0"
         stop-color="#dddddd"
         id="stop228" />
      <stop
         offset="1.0"
         stop-color="#919191"
         id="stop230" />
    </radialGradient>
    <radialGradient
       id="radialGradient244"
       gradientUnits="userSpaceOnUse"
       gradientTransform="scale(7.9341225)"
       spreadMethod="pad"
       cx="30.068773"
       cy="34.623436"
       fx="30.068773"
       fy="34.623436"
       r="7.9341226">
      <stop
         offset="0.0"
         stop-color="#dcecd5"
         id="stop240" />
      <stop
         offset="1.0"
         stop-color="#93bc81"
         id="stop242" />
    </radialGradient>
    <radialGradient
       id="radialGradient258"
       gradientUnits="userSpaceOnUse"
       gradientTransform="scale(8.3242235)"
       spreadMethod="pad"
       cx="57.803814"
       cy="34.064297"
       fx="57.803814"
       fy="34.064297"
       r="8.3242235">
      <stop
         offset="0.0"
         stop-color="#dddddd"
         id="stop254" />
      <stop
         offset="1.0"
         stop-color="#919191"
         id="stop256" />
    </radialGradient>
    <radialGradient
       id="radialGradient270"
       gradientUnits="userSpaceOnUse"
       gradientTransform="scale(7.9341225)"
       spreadMethod="pad"
       cx="60.900417"
       cy="34.222816"
       fx="60.900417"
       fy="34.222816"
       r="7.9341226">
      <stop
         offset="0.0"
         stop-color="#dcecd5"
         id="stop266" />
      <stop
         offset="1.0"
         stop-color="#93bc81"
         id="stop268" />
    </radialGradient>
    <radialGradient
       id="radialGradient284"
       gradientUnits="userSpaceOnUse"
       gradientTransform="scale(8.3242235)"
       spreadMethod="pad"
       cx="83.327934"
       cy="34.3703"
       fx="83.327934"
       fy="34.3703"
       r="8.3242235">
      <stop
         offset="0.0"
         stop-color="#dddddd"
         id="stop280" />
      <stop
         offset="1.0"
         stop-color="#919191"
         id="stop282" />
    </radialGradient>
    <radialGradient
       id="radialGradient296"
       gradientUnits="userSpaceOnUse"
       gradientTransform="scale(7.9341225)"
       spreadMethod="pad"
       cx="87.679497"
       cy="34.543865"
       fx="87.679497"
       fy="34.543865"
       r="7.9341226">
      <stop
         offset="0.0"
         stop-color="#dcecd5"
         id="stop292" />
      <stop
         offset="1.0"
         stop-color="#93bc81"
         id="stop294" />
    </radialGradient>
    <defs
       id="defs12">
      <radialGradient
         r="8.3242235"
         fy="34.44614"
         fx="28.417044"
         cy="34.44614"
         cx="28.417044"
         spreadMethod="pad"
         gradientTransform="scale(8.3242235)"
         gradientUnits="userSpaceOnUse"
         id="radialGradient504">
        <stop
           id="stop500"
           stop-color="#dddddd"
           offset="0.0" />
        <stop
           id="stop502"
           stop-color="#919191"
           offset="1.0" />
      </radialGradient>
    </defs>
    <defs
       id="defs29">
      <radialGradient
         r="7.9341226"
         fy="34.623436"
         fx="30.068773"
         cy="34.623436"
         cx="30.068773"
         spreadMethod="pad"
         gradientTransform="scale(7.9341225)"
         gradientUnits="userSpaceOnUse"
         id="radialGradient516">
        <stop
           id="stop512"
           stop-color="#dcecd5"
           offset="0.0" />
        <stop
           id="stop514"
           stop-color="#93bc81"
           offset="1.0" />
      </radialGradient>
    </defs>
    <defs
       id="defs50">
      <radialGradient
         r="8.3242235"
         fy="34.064297"
         fx="57.803814"
         cy="34.064297"
         cx="57.803814"
         spreadMethod="pad"
         gradientTransform="scale(8.3242235)"
         gradientUnits="userSpaceOnUse"
         id="radialGradient530">
        <stop
           id="stop526"
           stop-color="#dddddd"
           offset="0.0" />
        <stop
           id="stop528"
           stop-color="#919191"
           offset="1.0" />
      </radialGradient>
    </defs>
    <defs
       id="defs67">
      <radialGradient
         r="7.9341226"
         fy="34.222816"
         fx="60.900417"
         cy="34.222816"
         cx="60.900417"
         spreadMethod="pad"
         gradientTransform="scale(7.9341225)"
         gradientUnits="userSpaceOnUse"
         id="radialGradient542">
        <stop
           id="stop538"
           stop-color="#dcecd5"
           offset="0.0" />
        <stop
           id="stop540"
           stop-color="#93bc81"
           offset="1.0" />
      </radialGradient>
    </defs>
    <defs
       id="defs88">
      <radialGradient
         r="8.3242235"
         fy="34.3703"
         fx="83.327934"
         cy="34.3703"
         cx="83.327934"
         spreadMethod="pad"
         gradientTransform="scale(8.3242235)"
         gradientUnits="userSpaceOnUse"
         id="radialGradient556">
        <stop
           id="stop552"
           stop-color="#dddddd"
           offset="0.0" />
        <stop
           id="stop554"
           stop-color="#919191"
           offset="1.0" />
      </radialGradient>
    </defs>
    <defs
       id="defs105">
      <radialGradient
         r="7.9341226"
         fy="34.543865"
         fx="87.679497"
         cy="34.543865"
         cx="87.679497"
         spreadMethod="pad"
         gradientTransform="scale(7.9341225)"
         gradientUnits="userSpaceOnUse"
         id="radialGradient568">
        <stop
           id="stop564"
           stop-color="#dcecd5"
           offset="0.0" />
        <stop
           id="stop566"
           stop-color="#93bc81"
           offset="1.0" />
      </radialGradient>
    </defs>
  </defs>
  <sodipodi:namedview
     pagecolor="#ffffff"
     bordercolor="#666666"
     borderopacity="1"
     objecttolerance="10"
     gridtolerance="10"
     guidetolerance="10"
     inkscape:pageopacity="0"
     inkscape:pageshadow="2"
     inkscape:window-width="1920"
     inkscape:window-height="966"
     id="namedview193"
     showgrid="false"
     inkscape:zoom="0.50381358"
     inkscape:cx="710.48801"
     inkscape:cy="97.692643"
     inkscape:window-x="0"
     inkscape:window-y="27"
     inkscape:window-maximized="1"
     inkscape:current-layer="svg191" />
  <clipPath
     id="g2721e673cf_0_127.0">
    <path
       d="M 0,0 H 960 V 540 H 0 Z"
       id="path2"
       inkscape:connector-curvature="0"
       style="clip-rule:nonzero" />
  </clipPath>
  <g
     id="g778"
     transform="matrix(1.5673079,0,0,1.7405706,-467.70139,-238.63772)">
    <path
       style="fill:url(#g2721e673cf_0_127.1);fill-rule:evenodd"
       inkscape:connector-curvature="0"
       d="m 310.65147,300.88197 v 0 c 0,-4.33191 29.17984,-7.8436 65.17499,-7.8436 35.99513,0 65.17497,3.51169 65.17497,7.8436 v 31.37442 c 0,4.33191 -29.17984,7.8436 -65.17497,7.8436 -35.99515,0 -65.17499,-3.51169 -65.17499,-7.8436 z"
       id="path14" />
    <path
       style="fill:#000000;fill-opacity:0;fill-rule:evenodd"
       inkscape:connector-curvature="0"
       d="m 441.00144,300.88197 v 0 c 0,4.33191 -29.17984,7.8436 -65.17497,7.8436 -35.99515,0 -65.17499,-3.51169 -65.17499,-7.8436"
       id="path16" />
    <path
       style="fill:#000000;fill-opacity:0;fill-rule:evenodd"
       inkscape:connector-curvature="0"
       d="m 310.65147,300.88197 v 0 c 0,-4.33191 29.17984,-7.8436 65.17499,-7.8436 35.99513,0 65.17497,3.51169 65.17497,7.8436 v 31.37442 c 0,4.33191 -29.17984,7.8436 -65.17497,7.8436 -35.99515,0 -65.17499,-3.51169 -65.17499,-7.8436 z"
       id="path18" />
    <path
       style="fill-rule:evenodd;stroke:#595959;stroke-width:4;stroke-linecap:butt;stroke-linejoin:round"
       inkscape:connector-curvature="0"
       d="m 441.00144,300.88197 v 0 c 0,4.33191 -29.17984,7.8436 -65.17497,7.8436 -35.99515,0 -65.17499,-3.51169 -65.17499,-7.8436"
       id="path20" />
    <path
       style="fill-rule:evenodd;stroke:#595959;stroke-width:4;stroke-linecap:butt;stroke-linejoin:round"
       inkscape:connector-curvature="0"
       d="m 310.65147,300.88197 v 0 c 0,-4.33191 29.17984,-7.8436 65.17499,-7.8436 35.99513,0 65.17497,3.51169 65.17497,7.8436 v 31.37442 c 0,4.33191 -29.17984,7.8436 -65.17497,7.8436 -35.99515,0 -65.17499,-3.51169 -65.17499,-7.8436 z"
       id="path22" />
    <path
       style="fill:url(#g2721e673cf_0_127.2);fill-rule:evenodd"
       inkscape:connector-curvature="0"
       d="m 328.35882,298.5949 v 0 c -0.97427,-2.80661 2.22446,-5.58502 8.23883,-7.15619 6.01439,-1.5712 13.78964,-1.65961 20.02643,-0.22775 v 0 c 2.20926,-1.63187 6.25285,-2.75858 10.90767,-3.03931 4.65481,-0.2807 9.37413,0.31754 12.73044,1.61377 v 0 c 1.88202,-1.47958 5.57736,-2.47366 9.77476,-2.62948 4.19739,-0.15586 8.3028,0.54861 10.85941,1.86337 v 0 c 3.40011,-1.56833 8.80978,-2.22867 13.88821,-1.69528 5.07843,0.53341 8.91351,2.16473 9.84573,4.18814 v 0 c 4.16575,0.4454 7.63569,1.57769 9.51337,3.10437 1.87766,1.52664 1.97885,3.29788 0.27741,4.85605 v 0 c 4.10202,2.0928 5.06158,4.88143 2.5206,7.32522 -2.54099,2.44382 -8.20075,4.17563 -14.86719,4.54917 -0.047,2.29357 -3.25589,4.39816 -8.3898,5.50253 -5.13394,1.10434 -11.39124,1.03604 -16.36005,-0.17859 -2.11647,2.74698 -8.07359,4.76816 -15.29768,5.19034 -7.22409,0.42221 -14.42009,-0.83029 -18.47905,-3.21637 -4.97545,1.17608 -10.94557,1.51489 -16.56363,0.93997 -5.61806,-0.57495 -10.41081,-2.01517 -13.29712,-3.99582 v 0 c -5.08428,0.23322 -10.00008,-0.79938 -12.3077,-2.58533 -2.30761,-1.78592 -1.51582,-3.94503 1.98243,-5.40576 v 0 c -4.53531,-1.04638 -6.84951,-3.12274 -5.73581,-5.14636 1.11369,-2.02362 5.40289,-3.53592 10.63096,-3.74832 z"
       id="path31" />
    <path
       style="fill:#000000;fill-opacity:0;fill-rule:evenodd"
       inkscape:connector-curvature="0"
       d="m 323.36317,307.59776 v 0 c 2.14023,0.49377 4.61269,0.71777 7.08542,0.64191 m 3.23875,7.34933 c 1.06336,-0.0488 2.10565,-0.15207 3.10001,-0.30722 m 26.75923,3.36295 c -0.74789,-0.43967 -1.37408,-0.90946 -1.86787,-1.40143 m 35.6459,-0.57263 v 0 c 0.38587,-0.50083 0.63587,-1.01627 0.74585,-1.53775 m 24.00305,-3.78598 c 0.05,-2.4419 -3.48806,-4.67771 -9.0946,-5.7471 m 21.4411,-6.12705 c -0.90796,0.83151 -2.29407,1.56912 -4.04962,2.15503 m -5.7403,-10.11566 v 0 c 0.1547,0.33575 0.22629,0.6766 0.21381,1.01776 m -23.94739,-3.5105 v 0 c -0.84814,0.39121 -1.5469,0.8284 -2.07455,1.29794 m -18.55979,-0.53201 v 0 c -0.45199,0.35535 -0.78952,0.73135 -1.00479,1.11939 m -22.63367,0.30618 v 0 c 1.31971,0.30298 2.54061,0.66766 3.6359,1.086 m -31.90079,6.29797 v 0 c 0.13428,0.38684 0.34645,0.76889 0.63452,1.14261"
       id="path33" />
    <path
       style="fill-rule:evenodd;stroke:#595959;stroke-width:4;stroke-linecap:butt;stroke-linejoin:round"
       inkscape:connector-curvature="0"
       d="m 328.35882,298.5949 v 0 c -0.97427,-2.80661 2.22446,-5.58502 8.23883,-7.15619 6.01439,-1.5712 13.78964,-1.65961 20.02643,-0.22775 v 0 c 2.20926,-1.63187 6.25285,-2.75858 10.90767,-3.03931 4.65481,-0.2807 9.37413,0.31754 12.73044,1.61377 v 0 c 1.88202,-1.47958 5.57736,-2.47366 9.77476,-2.62948 4.19739,-0.15586 8.3028,0.54861 10.85941,1.86337 v 0 c 3.40011,-1.56833 8.80978,-2.22867 13.88821,-1.69528 5.07843,0.53341 8.91351,2.16473 9.84573,4.18814 v 0 c 4.16575,0.4454 7.63569,1.57769 9.51337,3.10437 1.87766,1.52664 1.97885,3.29788 0.27741,4.85605 v 0 c 4.10202,2.0928 5.06158,4.88143 2.5206,7.32522 -2.54099,2.44382 -8.20075,4.17563 -14.86719,4.54917 -0.047,2.29357 -3.25589,4.39816 -8.3898,5.50253 -5.13394,1.10434 -11.39124,1.03604 -16.36005,-0.17859 -2.11647,2.74698 -8.07359,4.76816 -15.29768,5.19034 -7.22409,0.42221 -14.42009,-0.83029 -18.47905,-3.21637 -4.97545,1.17608 -10.94557,1.51489 -16.56363,0.93997 -5.61806,-0.57495 -10.41081,-2.01517 -13.29712,-3.99582 v 0 c -5.08428,0.23322 -10.00008,-0.79938 -12.3077,-2.58533 -2.30761,-1.78592 -1.51582,-3.94503 1.98243,-5.40576 v 0 c -4.53531,-1.04638 -6.84951,-3.12274 -5.73581,-5.14636 1.11369,-2.02362 5.40289,-3.53592 10.63096,-3.74832 z"
       id="path35" />
    <path
       style="fill-rule:evenodd;stroke:#595959;stroke-width:4;stroke-linecap:butt;stroke-linejoin:round"
       inkscape:connector-curvature="0"
       d="m 323.36317,307.59776 v 0 c 2.14023,0.49377 4.61269,0.71777 7.08542,0.64191 m 3.23875,7.34933 c 1.06336,-0.0488 2.10565,-0.15207 3.10001,-0.30722 m 26.75923,3.36295 c -0.74789,-0.43967 -1.37408,-0.90946 -1.86787,-1.40143 m 35.6459,-0.57263 v 0 c 0.38587,-0.50083 0.63587,-1.01627 0.74585,-1.53775 m 24.00305,-3.78598 c 0.05,-2.4419 -3.48806,-4.67771 -9.0946,-5.7471 m 21.4411,-6.12705 c -0.90796,0.83151 -2.29407,1.56912 -4.04962,2.15503 m -5.7403,-10.11566 v 0 c 0.1547,0.33575 0.22629,0.6766 0.21381,1.01776 m -23.94739,-3.5105 v 0 c -0.84814,0.39121 -1.5469,0.8284 -2.07455,1.29794 m -18.55979,-0.53201 v 0 c -0.45199,0.35535 -0.78952,0.73135 -1.00479,1.11939 m -22.63367,0.30618 v 0 c 1.31971,0.30298 2.54061,0.66766 3.6359,1.086 m -31.90079,6.29797 v 0 c 0.13428,0.38684 0.34645,0.76889 0.63452,1.14261"
       id="path37" />
    <path
       style="fill:#000000;fill-opacity:0;fill-rule:evenodd"
       inkscape:connector-curvature="0"
       d="m 434.69694,304.95445 v 0 c -8.47827,8.84097 -30.65863,15.02875 -56.49385,15.76034 -25.83521,0.73163 -50.41664,-4.13189 -62.60945,-12.38748 l 57.51263,-11.07126 z"
       id="path39" />
    <path
       style="fill:#000000;fill-opacity:0;fill-rule:evenodd"
       inkscape:connector-curvature="0"
       d="m 434.69694,304.95445 v 0 c -8.47827,8.84097 -30.65863,15.02875 -56.49385,15.76034 -25.83521,0.73163 -50.41664,-4.13189 -62.60945,-12.38748"
       id="path41" />
    <path
       style="fill-rule:evenodd;stroke:#595959;stroke-width:4;stroke-linecap:butt;stroke-linejoin:round"
       inkscape:connector-curvature="0"
       d="m 434.69694,304.95445 v 0 c -8.47827,8.84097 -30.65863,15.02875 -56.49385,15.76034 -25.83521,0.73163 -50.41664,-4.13189 -62.60945,-12.38748"
       id="path43" />
    <path
       style="fill:url(#g2721e673cf_0_127.3);fill-rule:evenodd"
       inkscape:connector-curvature="0"
       d="m 555.27354,297.7034 v 0 c 0,-4.33191 29.17984,-7.84363 65.17499,-7.84363 35.99512,0 65.17499,3.51172 65.17499,7.84363 v 31.37442 c 0,4.33191 -29.17987,7.8436 -65.17499,7.8436 -35.99515,0 -65.17499,-3.51169 -65.17499,-7.8436 z"
       id="path52" />
    <path
       style="fill:#000000;fill-opacity:0;fill-rule:evenodd"
       inkscape:connector-curvature="0"
       d="m 685.6235,297.7034 v 0 c 0,4.33188 -29.17987,7.8436 -65.17499,7.8436 -35.99515,0 -65.17499,-3.51172 -65.17499,-7.8436"
       id="path54" />
    <path
       style="fill:#000000;fill-opacity:0;fill-rule:evenodd"
       inkscape:connector-curvature="0"
       d="m 555.27354,297.7034 v 0 c 0,-4.33191 29.17984,-7.84363 65.17499,-7.84363 35.99512,0 65.17499,3.51172 65.17499,7.84363 v 31.37442 c 0,4.33191 -29.17987,7.8436 -65.17499,7.8436 -35.99515,0 -65.17499,-3.51169 -65.17499,-7.8436 z"
       id="path56" />
    <path
       style="fill-rule:evenodd;stroke:#595959;stroke-width:4;stroke-linecap:butt;stroke-linejoin:round"
       inkscape:connector-curvature="0"
       d="m 685.6235,297.7034 v 0 c 0,4.33188 -29.17987,7.8436 -65.17499,7.8436 -35.99515,0 -65.17499,-3.51172 -65.17499,-7.8436"
       id="path58" />
    <path
       style="fill-rule:evenodd;stroke:#595959;stroke-width:4;stroke-linecap:butt;stroke-linejoin:round"
       inkscape:connector-curvature="0"
       d="m 555.27354,297.7034 v 0 c 0,-4.33191 29.17984,-7.84363 65.17499,-7.84363 35.99512,0 65.17499,3.51172 65.17499,7.84363 v 31.37442 c 0,4.33191 -29.17987,7.8436 -65.17499,7.8436 -35.99515,0 -65.17499,-3.51169 -65.17499,-7.8436 z"
       id="path60" />
    <path
       style="fill:url(#g2721e673cf_0_127.4);fill-rule:evenodd"
       inkscape:connector-curvature="0"
       d="m 572.98086,295.41633 v 0 c -0.97427,-2.80664 2.22446,-5.58502 8.23883,-7.15619 6.01441,-1.5712 13.78964,-1.65961 20.02643,-0.22775 v 0 c 2.20926,-1.6319 6.25287,-2.75859 10.90768,-3.03932 4.65482,-0.28072 9.37412,0.31753 12.73044,1.61378 v 0 c 1.88199,-1.47958 5.57736,-2.47366 9.77475,-2.62952 4.19739,-0.15583 8.3028,0.54862 10.85941,1.86341 v 0 c 3.40011,-1.56836 8.80981,-2.2287 13.88824,-1.6953 5.07843,0.5334 8.91345,2.16475 9.8457,4.18813 v 0 c 4.16571,0.44543 7.63569,1.57772 9.51337,3.10437 1.87769,1.52667 1.97888,3.29788 0.27741,4.85608 v 0 c 4.10205,2.0928 5.06158,4.88143 2.52063,7.32522 -2.54102,2.44379 -8.20081,4.1756 -14.86725,4.54913 -0.0469,2.29361 -3.25586,4.3982 -8.38977,5.50254 -5.13391,1.10437 -11.39124,1.03607 -16.36005,-0.17859 -2.11645,2.74698 -8.07358,4.76819 -15.29767,5.19037 -7.22409,0.42218 -14.4201,-0.83032 -18.47906,-3.2164 -4.97544,1.17611 -10.94556,1.51492 -16.56363,0.93997 -5.61804,-0.57492 -10.4108,-2.01517 -13.29712,-3.99582 v 0 c -5.08426,0.23325 -10.00006,-0.79935 -12.30768,-2.5853 -2.30762,-1.78595 -1.51584,-3.94503 1.98242,-5.40576 v 0 c -4.53531,-1.04638 -6.84952,-3.12277 -5.73581,-5.14639 1.11368,-2.02362 5.4029,-3.53592 10.63095,-3.74829 z"
       id="path69" />
    <path
       style="fill:#000000;fill-opacity:0;fill-rule:evenodd"
       inkscape:connector-curvature="0"
       d="m 567.98524,304.41917 v 0 c 2.14023,0.4938 4.61267,0.7178 7.08542,0.64191 m 3.23874,7.34936 c 1.06335,-0.0488 2.10565,-0.15207 3.1,-0.30722 m 26.75925,3.36295 c -0.74789,-0.43967 -1.37408,-0.90949 -1.86789,-1.40143 m 35.64591,-0.57263 v 0 c 0.38586,-0.50083 0.63586,-1.01627 0.74585,-1.53775 m 24.00308,-3.78601 c 0.05,-2.44187 -3.4881,-4.67771 -9.09461,-5.74711 m 21.4411,-6.12701 c -0.90795,0.83151 -2.29406,1.56912 -4.04962,2.15503 m -5.74035,-10.11569 v 0 c 0.15472,0.33578 0.22631,0.6766 0.2138,1.01776 m -23.94732,-3.5105 v 0 c -0.84818,0.39124 -1.54694,0.82843 -2.07459,1.29794 m -18.55978,-0.53198 v 0 c -0.452,0.35535 -0.78952,0.73136 -1.00479,1.11939 m -22.63367,0.30618 v 0 c 1.3197,0.30298 2.54062,0.66763 3.63589,1.086 m -31.90078,6.29797 v 0 c 0.13427,0.38681 0.34646,0.76889 0.63452,1.14258"
       id="path71" />
    <path
       style="fill-rule:evenodd;stroke:#595959;stroke-width:4;stroke-linecap:butt;stroke-linejoin:round"
       inkscape:connector-curvature="0"
       d="m 572.98086,295.41633 v 0 c -0.97427,-2.80664 2.22446,-5.58502 8.23883,-7.15619 6.01441,-1.5712 13.78964,-1.65961 20.02643,-0.22775 v 0 c 2.20926,-1.6319 6.25287,-2.75859 10.90768,-3.03932 4.65482,-0.28072 9.37412,0.31753 12.73044,1.61378 v 0 c 1.88199,-1.47958 5.57736,-2.47366 9.77475,-2.62952 4.19739,-0.15583 8.3028,0.54862 10.85941,1.86341 v 0 c 3.40011,-1.56836 8.80981,-2.2287 13.88824,-1.6953 5.07843,0.5334 8.91345,2.16475 9.8457,4.18813 v 0 c 4.16571,0.44543 7.63569,1.57772 9.51337,3.10437 1.87769,1.52667 1.97888,3.29788 0.27741,4.85608 v 0 c 4.10205,2.0928 5.06158,4.88143 2.52063,7.32522 -2.54102,2.44379 -8.20081,4.1756 -14.86725,4.54913 -0.0469,2.29361 -3.25586,4.3982 -8.38977,5.50254 -5.13391,1.10437 -11.39124,1.03607 -16.36005,-0.17859 -2.11645,2.74698 -8.07358,4.76819 -15.29767,5.19037 -7.22409,0.42218 -14.4201,-0.83032 -18.47906,-3.2164 -4.97544,1.17611 -10.94556,1.51492 -16.56363,0.93997 -5.61804,-0.57492 -10.4108,-2.01517 -13.29712,-3.99582 v 0 c -5.08426,0.23325 -10.00006,-0.79935 -12.30768,-2.5853 -2.30762,-1.78595 -1.51584,-3.94503 1.98242,-5.40576 v 0 c -4.53531,-1.04638 -6.84952,-3.12277 -5.73581,-5.14639 1.11368,-2.02362 5.4029,-3.53592 10.63095,-3.74829 z"
       id="path73" />
    <path
       style="fill-rule:evenodd;stroke:#595959;stroke-width:4;stroke-linecap:butt;stroke-linejoin:round"
       inkscape:connector-curvature="0"
       d="m 567.98524,304.41917 v 0 c 2.14023,0.4938 4.61267,0.7178 7.08542,0.64191 m 3.23874,7.34936 c 1.06335,-0.0488 2.10565,-0.15207 3.1,-0.30722 m 26.75925,3.36295 c -0.74789,-0.43967 -1.37408,-0.90949 -1.86789,-1.40143 m 35.64591,-0.57263 v 0 c 0.38586,-0.50083 0.63586,-1.01627 0.74585,-1.53775 m 24.00308,-3.78601 c 0.05,-2.44187 -3.4881,-4.67771 -9.09461,-5.74711 m 21.4411,-6.12701 c -0.90795,0.83151 -2.29406,1.56912 -4.04962,2.15503 m -5.74035,-10.11569 v 0 c 0.15472,0.33578 0.22631,0.6766 0.2138,1.01776 m -23.94732,-3.5105 v 0 c -0.84818,0.39124 -1.54694,0.82843 -2.07459,1.29794 m -18.55978,-0.53198 v 0 c -0.452,0.35535 -0.78952,0.73136 -1.00479,1.11939 m -22.63367,0.30618 v 0 c 1.3197,0.30298 2.54062,0.66763 3.63589,1.086 m -31.90078,6.29797 v 0 c 0.13427,0.38681 0.34646,0.76889 0.63452,1.14258"
       id="path75" />
    <path
       style="fill:#000000;fill-opacity:0;fill-rule:evenodd"
       inkscape:connector-curvature="0"
       d="m 679.319,301.7759 v 0 c -8.47833,8.84097 -30.65866,15.02872 -56.49387,15.76034 -25.8352,0.73163 -50.41665,-4.13189 -62.60946,-12.38748 l 57.51263,-11.07129 z"
       id="path77" />
    <path
       style="fill:#000000;fill-opacity:0;fill-rule:evenodd"
       inkscape:connector-curvature="0"
       d="m 679.319,301.7759 v 0 c -8.47833,8.84097 -30.65866,15.02872 -56.49387,15.76034 -25.8352,0.73163 -50.41665,-4.13189 -62.60946,-12.38748"
       id="path79" />
    <path
       style="fill-rule:evenodd;stroke:#595959;stroke-width:4;stroke-linecap:butt;stroke-linejoin:round"
       inkscape:connector-curvature="0"
       d="m 679.319,301.7759 v 0 c -8.47833,8.84097 -30.65866,15.02872 -56.49387,15.76034 -25.8352,0.73163 -50.41665,-4.13189 -62.60946,-12.38748"
       id="path81" />
    <path
       style="fill:url(#g2721e673cf_0_127.5);fill-rule:evenodd"
       inkscape:connector-curvature="0"
       d="m 767.74204,300.25065 v 0 c 0,-4.33191 29.17981,-7.84363 65.17499,-7.84363 35.99512,0 65.17499,3.51172 65.17499,7.84363 v 31.37442 c 0,4.33191 -29.17987,7.8436 -65.17499,7.8436 -35.99518,0 -65.17499,-3.51169 -65.17499,-7.8436 z"
       id="path90" />
    <path
       style="fill:#000000;fill-opacity:0;fill-rule:evenodd"
       inkscape:connector-curvature="0"
       d="m 898.09201,300.25065 v 0 c 0,4.33191 -29.17987,7.8436 -65.17499,7.8436 -35.99518,0 -65.17499,-3.51169 -65.17499,-7.8436"
       id="path92" />
    <path
       style="fill:#000000;fill-opacity:0;fill-rule:evenodd"
       inkscape:connector-curvature="0"
       d="m 767.74204,300.25065 v 0 c 0,-4.33191 29.17981,-7.84363 65.17499,-7.84363 35.99512,0 65.17499,3.51172 65.17499,7.84363 v 31.37442 c 0,4.33191 -29.17987,7.8436 -65.17499,7.8436 -35.99518,0 -65.17499,-3.51169 -65.17499,-7.8436 z"
       id="path94" />
    <path
       style="fill-rule:evenodd;stroke:#595959;stroke-width:4;stroke-linecap:butt;stroke-linejoin:round"
       inkscape:connector-curvature="0"
       d="m 898.09201,300.25065 v 0 c 0,4.33191 -29.17987,7.8436 -65.17499,7.8436 -35.99518,0 -65.17499,-3.51169 -65.17499,-7.8436"
       id="path96" />
    <path
       style="fill-rule:evenodd;stroke:#595959;stroke-width:4;stroke-linecap:butt;stroke-linejoin:round"
       inkscape:connector-curvature="0"
       d="m 767.74204,300.25065 v 0 c 0,-4.33191 29.17981,-7.84363 65.17499,-7.84363 35.99512,0 65.17499,3.51172 65.17499,7.84363 v 31.37442 c 0,4.33191 -29.17987,7.8436 -65.17499,7.8436 -35.99518,0 -65.17499,-3.51169 -65.17499,-7.8436 z"
       id="path98" />
    <path
       style="fill:url(#g2721e673cf_0_127.6);fill-rule:evenodd"
       inkscape:connector-curvature="0"
       d="m 785.44934,297.96357 v 0 c -0.97424,-2.80664 2.22449,-5.58502 8.23883,-7.15619 6.01441,-1.5712 13.78967,-1.65961 20.02643,-0.22775 v 0 c 2.20929,-1.6319 6.25287,-2.75861 10.90765,-3.03931 4.65485,-0.28073 9.37415,0.31751 12.73047,1.61377 v 0 c 1.88202,-1.47958 5.57733,-2.47366 9.77478,-2.62952 4.19739,-0.15582 8.3028,0.54862 10.85938,1.86341 v 0 c 3.40014,-1.56836 8.80981,-2.2287 13.88824,-1.69528 5.07843,0.53338 8.91345,2.16473 9.8457,4.18811 v 0 c 4.16572,0.44543 7.63569,1.57772 9.51337,3.10437 1.87769,1.52667 1.97888,3.29788 0.27741,4.85608 v 0 c 4.10205,2.0928 5.06158,4.88143 2.52063,7.32522 -2.54102,2.44382 -8.20081,4.1756 -14.86725,4.54917 -0.0469,2.29357 -3.25586,4.39816 -8.38977,5.5025 -5.13391,1.10437 -11.39124,1.03607 -16.36005,-0.17859 -2.11645,2.74698 -8.07361,4.76819 -15.29767,5.19037 -7.22412,0.42218 -14.4201,-0.83032 -18.47906,-3.21637 -4.97547,1.17608 -10.94556,1.51489 -16.5636,0.93994 -5.6181,-0.57492 -10.41083,-2.01517 -13.29712,-3.99579 v 0 c -5.08429,0.23322 -10.00012,-0.79938 -12.30774,-2.58533 -2.30762,-1.78595 -1.51581,-3.94503 1.98242,-5.40576 v 0 c -4.53528,-1.04638 -6.84948,-3.12277 -5.73578,-5.14639 1.11371,-2.02362 5.4029,-3.53592 10.63092,-3.74829 z"
       id="path107" />
    <path
       style="fill:#000000;fill-opacity:0;fill-rule:evenodd"
       inkscape:connector-curvature="0"
       d="m 780.4537,306.9664 v 0 c 2.14026,0.4938 4.61273,0.7178 7.08545,0.64194 m 3.23871,7.34933 c 1.06341,-0.0488 2.10571,-0.15207 3.10003,-0.30722 m 26.75922,3.36295 c -0.74786,-0.43967 -1.37408,-0.90949 -1.86786,-1.40143 m 35.64588,-0.57263 v 0 c 0.38586,-0.50083 0.63592,-1.01627 0.74584,-1.53775 m 24.00312,-3.78601 c 0.05,-2.44187 -3.4881,-4.67768 -9.09461,-5.74707 m 21.44104,-6.12705 c -0.90796,0.83151 -2.294,1.56912 -4.04956,2.15503 m -5.74035,-10.11569 v 0 c 0.15472,0.33578 0.22631,0.6766 0.2138,1.01776 m -23.94732,-3.5105 v 0 c -0.84815,0.39124 -1.54694,0.82843 -2.07459,1.29798 m -18.55975,-0.53202 v 0 c -0.45203,0.35535 -0.78955,0.73136 -1.00482,1.11939 m -22.63367,0.30618 v 0 c 1.3197,0.30298 2.54059,0.66763 3.63586,1.086 m -31.90075,6.29797 v 0 c 0.13427,0.38684 0.34643,0.76889 0.63452,1.14261"
       id="path109" />
    <path
       style="fill-rule:evenodd;stroke:#595959;stroke-width:4;stroke-linecap:butt;stroke-linejoin:round"
       inkscape:connector-curvature="0"
       d="m 785.44934,297.96357 v 0 c -0.97424,-2.80664 2.22449,-5.58502 8.23883,-7.15619 6.01441,-1.5712 13.78967,-1.65961 20.02643,-0.22775 v 0 c 2.20929,-1.6319 6.25287,-2.75861 10.90765,-3.03931 4.65485,-0.28073 9.37415,0.31751 12.73047,1.61377 v 0 c 1.88202,-1.47958 5.57733,-2.47366 9.77478,-2.62952 4.19739,-0.15582 8.3028,0.54862 10.85938,1.86341 v 0 c 3.40014,-1.56836 8.80981,-2.2287 13.88824,-1.69528 5.07843,0.53338 8.91345,2.16473 9.8457,4.18811 v 0 c 4.16572,0.44543 7.63569,1.57772 9.51337,3.10437 1.87769,1.52667 1.97888,3.29788 0.27741,4.85608 v 0 c 4.10205,2.0928 5.06158,4.88143 2.52063,7.32522 -2.54102,2.44382 -8.20081,4.1756 -14.86725,4.54917 -0.0469,2.29357 -3.25586,4.39816 -8.38977,5.5025 -5.13391,1.10437 -11.39124,1.03607 -16.36005,-0.17859 -2.11645,2.74698 -8.07361,4.76819 -15.29767,5.19037 -7.22412,0.42218 -14.4201,-0.83032 -18.47906,-3.21637 -4.97547,1.17608 -10.94556,1.51489 -16.5636,0.93994 -5.6181,-0.57492 -10.41083,-2.01517 -13.29712,-3.99579 v 0 c -5.08429,0.23322 -10.00012,-0.79938 -12.30774,-2.58533 -2.30762,-1.78595 -1.51581,-3.94503 1.98242,-5.40576 v 0 c -4.53528,-1.04638 -6.84948,-3.12277 -5.73578,-5.14639 1.11371,-2.02362 5.4029,-3.53592 10.63092,-3.74829 z"
       id="path111" />
    <path
       style="fill-rule:evenodd;stroke:#595959;stroke-width:4;stroke-linecap:butt;stroke-linejoin:round"
       inkscape:connector-curvature="0"
       d="m 780.4537,306.9664 v 0 c 2.14026,0.4938 4.61273,0.7178 7.08545,0.64194 m 3.23871,7.34933 c 1.06341,-0.0488 2.10571,-0.15207 3.10003,-0.30722 m 26.75922,3.36295 c -0.74786,-0.43967 -1.37408,-0.90949 -1.86786,-1.40143 m 35.64588,-0.57263 v 0 c 0.38586,-0.50083 0.63592,-1.01627 0.74584,-1.53775 m 24.00312,-3.78601 c 0.05,-2.44187 -3.4881,-4.67768 -9.09461,-5.74707 m 21.44104,-6.12705 c -0.90796,0.83151 -2.294,1.56912 -4.04956,2.15503 m -5.74035,-10.11569 v 0 c 0.15472,0.33578 0.22631,0.6766 0.2138,1.01776 m -23.94732,-3.5105 v 0 c -0.84815,0.39124 -1.54694,0.82843 -2.07459,1.29798 m -18.55975,-0.53202 v 0 c -0.45203,0.35535 -0.78955,0.73136 -1.00482,1.11939 m -22.63367,0.30618 v 0 c 1.3197,0.30298 2.54059,0.66763 3.63586,1.086 m -31.90075,6.29797 v 0 c 0.13427,0.38684 0.34643,0.76889 0.63452,1.14261"
       id="path113" />
    <path
       style="fill:#000000;fill-opacity:0;fill-rule:evenodd"
       inkscape:connector-curvature="0"
       d="m 891.7875,304.32313 v 0 c -8.47833,8.84097 -30.65869,15.02872 -56.4939,15.76034 -25.8352,0.73163 -50.41662,-4.13189 -62.60943,-12.38748 L 830.1968,296.6247 Z"
       id="path115" />
    <path
       style="fill:#000000;fill-opacity:0;fill-rule:evenodd"
       inkscape:connector-curvature="0"
       d="m 891.7875,304.32313 v 0 c -8.47833,8.84097 -30.65869,15.02872 -56.4939,15.76034 -25.8352,0.73163 -50.41662,-4.13189 -62.60943,-12.38748"
       id="path117" />
    <path
       style="fill-rule:evenodd;stroke:#595959;stroke-width:4;stroke-linecap:butt;stroke-linejoin:round"
       inkscape:connector-curvature="0"
       d="m 891.7875,304.32313 v 0 c -8.47833,8.84097 -30.65869,15.02872 -56.4939,15.76034 -25.8352,0.73163 -50.41662,-4.13189 -62.60943,-12.38748"
       id="path119" />
    <path
       style="fill:#000000;fill-opacity:0;fill-rule:evenodd"
       inkscape:connector-curvature="0"
       d="m 438.18494,304.418 122.01575,0.7244"
       id="path121" />
    <path
       style="fill-rule:evenodd;stroke:#0000ff;stroke-width:4;stroke-linecap:butt;stroke-linejoin:round"
       inkscape:connector-curvature="0"
       d="m 438.18494,304.418 122.01575,0.7244"
       id="path123" />
    <path
       style="fill:#000000;fill-opacity:0;fill-rule:evenodd"
       inkscape:connector-curvature="0"
       d="m 679.319,301.7759 95.59052,2.01575"
       id="path125" />
    <path
       style="fill-rule:evenodd;stroke:#0000ff;stroke-width:4;stroke-linecap:butt;stroke-linejoin:round"
       inkscape:connector-curvature="0"
       d="m 679.319,301.7759 95.59052,2.01575"
       id="path127" />
    <path
       style="fill:#000000;fill-opacity:0;fill-rule:evenodd"
       inkscape:connector-curvature="0"
       d="m 305.32393,138.36461 h 157.32283 v 93.29134 H 305.32393 Z"
       id="path129" />
    <path
       style="fill-rule:evenodd;stroke:#000000;stroke-width:3;stroke-linecap:butt;stroke-linejoin:round"
       inkscape:connector-curvature="0"
       d="m 305.32393,138.36461 h 157.32283 v 93.29134 H 305.32393 Z"
       id="path131" />
    <path
       style="fill:#000000;fill-rule:nonzero"
       inkscape:connector-curvature="0"
       d="m 314.29268,165.2846 5.23437,-13.59375 h 1.9375 l 5.5625,13.59375 h -2.04687 l -1.59375,-4.125 h -5.6875 l -1.48438,4.125 z m 3.92187,-5.57813 h 4.60938 l -1.40625,-3.78125 q -0.65625,-1.70312 -0.96875,-2.8125 -0.26563,1.3125 -0.73438,2.59375 z m 16.19358,5.57813 v -1.25 q -0.9375,1.46875 -2.75,1.46875 -1.17188,0 -2.17188,-0.64063 -0.98437,-0.65625 -1.53125,-1.8125 -0.53125,-1.17187 -0.53125,-2.6875 0,-1.46875 0.48438,-2.67187 0.5,-1.20313 1.46875,-1.84375 0.98437,-0.64063 2.20312,-0.64063 0.89063,0 1.57813,0.375 0.70312,0.375 1.14062,0.98438 v -4.875 h 1.65625 v 13.59375 z m -5.28125,-4.92188 q 0,1.89063 0.79687,2.82813 0.8125,0.9375 1.89063,0.9375 1.09375,0 1.85937,-0.89063 0.76563,-0.89062 0.76563,-2.73437 0,-2.01563 -0.78125,-2.95313 -0.78125,-0.95312 -1.92188,-0.95312 -1.10937,0 -1.85937,0.90625 -0.75,0.90625 -0.75,2.85937 z m 15.65696,4.92188 v -1.25 q -0.9375,1.46875 -2.75,1.46875 -1.17187,0 -2.17187,-0.64063 -0.98438,-0.65625 -1.53125,-1.8125 -0.53125,-1.17187 -0.53125,-2.6875 0,-1.46875 0.48437,-2.67187 0.5,-1.20313 1.46875,-1.84375 0.98438,-0.64063 2.20313,-0.64063 0.89062,0 1.57812,0.375 0.70313,0.375 1.14063,0.98438 v -4.875 h 1.65625 v 13.59375 z m -5.28125,-4.92188 q 0,1.89063 0.79688,2.82813 0.8125,0.9375 1.89062,0.9375 1.09375,0 1.85938,-0.89063 0.76562,-0.89062 0.76562,-2.73437 0,-2.01563 -0.78125,-2.95313 -0.78125,-0.95312 -1.92187,-0.95312 -1.10938,0 -1.85938,0.90625 -0.75,0.90625 -0.75,2.85937 z m 9.28197,-6.76562 v -1.90625 h 1.67188 v 1.90625 z m 0,11.6875 v -9.85938 h 1.67188 v 9.85938 z m 4.1292,0 v -9.85938 h 1.5 v 1.40625 q 1.09375,-1.625 3.14062,-1.625 0.89063,0 1.64063,0.32813 0.75,0.3125 1.10937,0.84375 0.375,0.51562 0.53125,1.21875 0.0937,0.46875 0.0937,1.625 v 6.0625 h -1.67187 v -6 q 0,-1.01563 -0.20313,-1.51563 -0.1875,-0.51562 -0.6875,-0.8125 -0.5,-0.29687 -1.17187,-0.29687 -1.0625,0 -1.84375,0.67187 -0.76563,0.67188 -0.76563,2.57813 v 5.375 z m 10.07884,0.8125 1.60938,0.25 q 0.10937,0.75 0.57812,1.09375 0.60938,0.45312 1.6875,0.45312 1.17188,0 1.79688,-0.46875 0.625,-0.45312 0.85937,-1.28125 0.125,-0.51562 0.10938,-2.15625 -1.09375,1.29688 -2.71875,1.29688 -2.03125,0 -3.15625,-1.46875 -1.10938,-1.46875 -1.10938,-3.51563 0,-1.40625 0.51563,-2.59375 0.51562,-1.20312 1.48437,-1.84375 0.96875,-0.65625 2.26563,-0.65625 1.75,0 2.875,1.40625 v -1.1875 h 1.54687 v 8.51563 q 0,2.3125 -0.46875,3.26562 -0.46875,0.96875 -1.48437,1.51563 -1.01563,0.5625 -2.5,0.5625 -1.76563,0 -2.85938,-0.79688 -1.07812,-0.79687 -1.03125,-2.39062 z m 1.375,-5.92188 q 0,1.95313 0.76563,2.84375 0.78125,0.89063 1.9375,0.89063 1.14062,0 1.92187,-0.89063 0.78125,-0.89062 0.78125,-2.78125 0,-1.8125 -0.8125,-2.71875 -0.79687,-0.92187 -1.92187,-0.92187 -1.10938,0 -1.89063,0.90625 -0.78125,0.89062 -0.78125,2.67187 z m 14.88715,5.10938 v -8.54688 h -1.48438 v -1.3125 h 1.48438 v -1.04687 q 0,-0.98438 0.17187,-1.46875 0.23438,-0.65625 0.84375,-1.04688 0.60938,-0.40625 1.70313,-0.40625 0.70312,0 1.5625,0.15625 l -0.25,1.46875 q -0.51563,-0.0937 -0.98438,-0.0937 -0.76562,0 -1.07812,0.32813 -0.3125,0.3125 -0.3125,1.20312 v 0.90625 h 1.92187 v 1.3125 H 380.911 v 8.54688 z m 4.79268,-11.6875 v -1.90625 h 1.67187 v 1.90625 z m 0,11.6875 v -9.85938 h 1.67187 v 9.85938 z m 4.09794,0 v -13.59375 h 1.67188 v 13.59375 z m 10.92607,-3.17188 1.71875,0.21875 q -0.40625,1.5 -1.51562,2.34375 -1.09375,0.82813 -2.8125,0.82813 -2.15625,0 -3.42188,-1.32813 -1.26562,-1.32812 -1.26562,-3.73437 0,-2.48438 1.26562,-3.85938 1.28125,-1.375 3.32813,-1.375 1.98437,0 3.23437,1.34375 1.25,1.34375 1.25,3.79688 0,0.14062 -0.0156,0.4375 h -7.34375 q 0.0937,1.625 0.92187,2.48437 0.82813,0.85938 2.0625,0.85938 0.90625,0 1.54688,-0.46875 0.65625,-0.48438 1.04687,-1.54688 z m -5.48437,-2.70312 h 5.5 q -0.10938,-1.23438 -0.625,-1.85938 -0.79688,-0.96875 -2.07813,-0.96875 -1.14062,0 -1.9375,0.78125 -0.78125,0.76563 -0.85937,2.04688 z m 8.43823,2.9375 1.65625,-0.26563 q 0.14062,1 0.76562,1.53125 0.64063,0.51563 1.78125,0.51563 1.15625,0 1.70313,-0.46875 0.5625,-0.46875 0.5625,-1.09375 0,-0.5625 -0.48438,-0.89063 -0.34375,-0.21875 -1.70312,-0.5625 -1.84375,-0.46875 -2.5625,-0.79687 -0.70313,-0.34375 -1.07813,-0.9375 -0.35937,-0.60938 -0.35937,-1.32813 0,-0.65625 0.29687,-1.21875 0.3125,-0.5625 0.82813,-0.9375 0.39062,-0.28125 1.0625,-0.48437 0.67187,-0.20313 1.4375,-0.20313 1.17187,0 2.04687,0.34375 0.875,0.32813 1.28125,0.90625 0.42188,0.5625 0.57813,1.51563 l -1.625,0.21875 q -0.10938,-0.75 -0.65625,-1.17188 -0.53125,-0.4375 -1.5,-0.4375 -1.15625,0 -1.64063,0.39063 -0.48437,0.375 -0.48437,0.875 0,0.32812 0.20312,0.59375 0.20313,0.26562 0.64063,0.4375 0.25,0.0937 1.46875,0.4375 1.76562,0.46875 2.46875,0.76562 0.70312,0.29688 1.09375,0.875 0.40625,0.57813 0.40625,1.4375 0,0.82813 -0.48438,1.57813 -0.48437,0.73437 -1.40625,1.14062 -0.92187,0.39063 -2.07812,0.39063 -1.92188,0 -2.9375,-0.79688 -1,-0.79687 -1.28125,-2.35937 z"
       id="path133" />
    <path
       style="fill:#000000;fill-rule:nonzero"
       inkscape:connector-curvature="0"
       d="m 315.6208,187.2846 v -13.59375 h 2.75 v 13.59375 z m 14.21455,0 h -2.60937 v -5.03125 q 0,-1.59375 -0.17188,-2.0625 -0.15625,-0.46875 -0.53125,-0.71875 -0.375,-0.26563 -0.90625,-0.26563 -0.6875,0 -1.23437,0.375 -0.53125,0.35938 -0.73438,0.98438 -0.1875,0.60937 -0.1875,2.25 v 4.46875 h -2.60937 v -9.85938 h 2.42187 v 1.45313 q 1.29688,-1.67188 3.25,-1.67188 0.85938,0 1.57813,0.3125 0.71875,0.3125 1.07812,0.79688 0.35938,0.48437 0.5,1.09375 0.15625,0.60937 0.15625,1.75 z m 2.19286,0.65625 2.96875,0.35937 q 0.0781,0.51563 0.34375,0.70313 0.375,0.28125 1.17187,0.28125 1.03125,0 1.53125,-0.29688 0.34375,-0.20312 0.51563,-0.65625 0.125,-0.32812 0.125,-1.20312 v -1.4375 q -1.17188,1.59375 -2.95313,1.59375 -1.98437,0 -3.14062,-1.67188 -0.90625,-1.32812 -0.90625,-3.3125 0,-2.46875 1.1875,-3.78125 1.1875,-1.3125 2.96875,-1.3125 1.82812,0 3.01562,1.60938 v -1.39063 h 2.4375 v 8.84375 q 0,1.75 -0.29687,2.60938 -0.28125,0.85937 -0.79688,1.34375 -0.51562,0.5 -1.39062,0.78125 -0.85938,0.28125 -2.1875,0.28125 -2.51563,0 -3.5625,-0.85938 -1.04688,-0.85937 -1.04688,-2.17187 0,-0.14063 0.0156,-0.3125 z m 2.32812,-5.78125 q 0,1.5625 0.60938,2.29687 0.60937,0.71875 1.5,0.71875 0.95312,0 1.60937,-0.73437 0.65625,-0.75 0.65625,-2.21875 0,-1.53125 -0.64062,-2.26563 -0.625,-0.75 -1.57813,-0.75 -0.9375,0 -1.54687,0.73438 -0.60938,0.71875 -0.60938,2.21875 z m 11.80224,5.125 h -2.60938 v -9.85938 h 2.42188 v 1.40625 q 0.625,-0.98437 1.10937,-1.29687 0.5,-0.32813 1.14063,-0.32813 0.89062,0 1.71875,0.5 l -0.8125,2.26563 q -0.65625,-0.42188 -1.21875,-0.42188 -0.54688,0 -0.9375,0.29688 -0.375,0.29687 -0.59375,1.09375 -0.21875,0.78125 -0.21875,3.29687 z m 10.46339,-3.14063 2.60937,0.4375 q -0.5,1.4375 -1.59375,2.1875 -1.07812,0.73438 -2.70312,0.73438 -2.5625,0 -3.79688,-1.67188 -0.96875,-1.34375 -0.96875,-3.40625 0,-2.4375 1.26563,-3.82812 1.28125,-1.39063 3.25,-1.39063 2.1875,0 3.45312,1.45313 1.28125,1.45312 1.23438,4.45312 h -6.53125 q 0.0156,1.15625 0.625,1.8125 0.60937,0.64063 1.5,0.64063 0.60937,0 1.03125,-0.32813 0.42187,-0.34375 0.625,-1.09375 z m 0.15625,-2.625 q -0.0312,-1.14062 -0.59375,-1.71875 -0.54688,-0.59375 -1.34375,-0.59375 -0.85938,0 -1.40625,0.625 -0.5625,0.60938 -0.54688,1.6875 z m 13.56322,5.76563 h -2.42188 v -1.45313 q -0.60937,0.84375 -1.4375,1.26563 -0.8125,0.40625 -1.64062,0.40625 -1.70313,0 -2.92188,-1.35938 -1.20312,-1.375 -1.20312,-3.82812 0,-2.5 1.17187,-3.79688 1.1875,-1.3125 2.98438,-1.3125 1.65625,0 2.85937,1.375 v -4.89062 h 2.60938 z m -6.96875,-5.14063 q 0,1.57813 0.4375,2.28125 0.64062,1.01563 1.76562,1.01563 0.90625,0 1.53125,-0.76563 0.625,-0.76562 0.625,-2.28125 0,-1.70312 -0.60937,-2.4375 -0.60938,-0.75 -1.5625,-0.75 -0.9375,0 -1.5625,0.73438 -0.625,0.73437 -0.625,2.20312 z m 9.31785,-6.04687 v -2.40625 h 2.60938 v 2.40625 z m 0,11.1875 v -9.85938 h 2.60938 v 9.85938 z m 10.88643,-3.14063 2.60938,0.4375 q -0.5,1.4375 -1.59375,2.1875 -1.07813,0.73438 -2.70313,0.73438 -2.5625,0 -3.79687,-1.67188 -0.96875,-1.34375 -0.96875,-3.40625 0,-2.4375 1.26562,-3.82812 1.28125,-1.39063 3.25,-1.39063 2.1875,0 3.45313,1.45313 1.28125,1.45312 1.23437,4.45312 h -6.53125 q 0.0156,1.15625 0.625,1.8125 0.60938,0.64063 1.5,0.64063 0.60938,0 1.03125,-0.32813 0.42188,-0.34375 0.625,-1.09375 z m 0.15625,-2.625 q -0.0312,-1.14062 -0.59375,-1.71875 -0.54687,-0.59375 -1.34375,-0.59375 -0.85937,0 -1.40625,0.625 -0.5625,0.60938 -0.54687,1.6875 z m 13.48511,5.76563 h -2.60939 v -5.03125 q 0,-1.59375 -0.17188,-2.0625 -0.15625,-0.46875 -0.53125,-0.71875 -0.375,-0.26563 -0.90625,-0.26563 -0.6875,0 -1.23437,0.375 -0.53125,0.35938 -0.73438,0.98438 -0.1875,0.60937 -0.1875,2.25 v 4.46875 h -2.60937 v -9.85938 h 2.42187 v 1.45313 q 1.29688,-1.67188 3.25,-1.67188 0.85938,0 1.57814,0.3125 0.71875,0.3125 1.07813,0.79688 0.35937,0.48437 0.5,1.09375 0.15625,0.60937 0.15625,1.75 z m 6.94284,-9.85938 v 2.07813 h -1.78125 v 3.98437 q 0,1.20313 0.0469,1.40625 0.0625,0.1875 0.23438,0.32813 0.1875,0.125 0.45312,0.125 0.35938,0 1.04688,-0.25 l 0.21875,2.01562 q -0.90625,0.39063 -2.0625,0.39063 -0.70313,0 -1.26563,-0.23438 -0.5625,-0.23437 -0.82812,-0.60937 -0.26563,-0.375 -0.375,-1.01563 -0.0781,-0.45312 -0.0781,-1.84375 v -4.29687 h -1.20312 v -2.07813 h 1.20312 v -1.95312 l 2.60938,-1.51563 v 3.46875 z m 0.7908,7.04688 2.60938,-0.39063 q 0.17187,0.75 0.67187,1.15625 0.51563,0.39063 1.4375,0.39063 1,0 1.51563,-0.375 0.34375,-0.26563 0.34375,-0.70313 0,-0.29687 -0.1875,-0.48437 -0.1875,-0.1875 -0.875,-0.34375 -3.14063,-0.70313 -4,-1.26563 -1.15625,-0.79687 -1.15625,-2.21875 0,-1.28125 1,-2.15625 1.01562,-0.875 3.14062,-0.875 2.03125,0 3,0.65625 0.98438,0.65625 1.35938,1.95313 l -2.45313,0.45312 q -0.15625,-0.57812 -0.60937,-0.875 -0.4375,-0.3125 -1.25,-0.3125 -1.03125,0 -1.46875,0.29688 -0.29688,0.20312 -0.29688,0.51562 0,0.28125 0.25,0.48438 0.35938,0.25 2.4375,0.73437 2.07813,0.46875 2.90625,1.15625 0.82813,0.6875 0.82813,1.9375 0,1.35938 -1.14063,2.32813 -1.125,0.96875 -3.34375,0.96875 -2.01562,0 -3.1875,-0.8125 -1.17187,-0.8125 -1.53125,-2.21875 z m 11.28198,2.8125 v -2.60938 h 2.60938 v 2.60938 z m 9.69892,-9.85938 v 2.07813 h -1.78125 v 3.98437 q 0,1.20313 0.0469,1.40625 0.0625,0.1875 0.23438,0.32813 0.1875,0.125 0.45312,0.125 0.35938,0 1.04688,-0.25 l 0.21875,2.01562 q -0.90625,0.39063 -2.0625,0.39063 -0.70313,0 -1.26563,-0.23438 -0.5625,-0.23437 -0.82812,-0.60937 -0.26563,-0.375 -0.375,-1.01563 -0.0781,-0.45312 -0.0781,-1.84375 v -4.29687 h -1.20312 v -2.07813 h 1.20312 v -1.95312 l 2.60938,-1.51563 v 3.46875 z m 0.44705,9.85938 3.5625,-5.07813 -3.40625,-4.78125 h 3.17187 l 1.75,2.71875 1.82813,-2.71875 h 3.0625 l -3.32813,4.67188 3.64063,5.1875 h -3.20313 l -2,-3.04688 -2.03125,3.04688 z m 16.14136,-9.85938 v 2.07813 h -1.78125 v 3.98437 q 0,1.20313 0.0469,1.40625 0.0625,0.1875 0.23438,0.32813 0.1875,0.125 0.45312,0.125 0.35938,0 1.04688,-0.25 l 0.21875,2.01562 q -0.90625,0.39063 -2.0625,0.39063 -0.70313,0 -1.26563,-0.23438 -0.5625,-0.23437 -0.82812,-0.60937 -0.26563,-0.375 -0.375,-1.01563 -0.0781,-0.45312 -0.0781,-1.84375 v -4.29687 h -1.20312 v -2.07813 h 1.20312 v -1.95312 l 2.60938,-1.51563 v 3.46875 z"
       id="path135" />
    <path
       style="fill:#000000;fill-rule:nonzero"
       inkscape:connector-curvature="0"
       d="m 315.6833,198.0971 v -2.40625 h 2.60937 v 2.40625 z m 0,11.1875 v -9.85938 h 2.60937 v 9.85938 z m 14.15205,0 h -2.60937 v -5.03125 q 0,-1.59375 -0.17188,-2.0625 -0.15625,-0.46875 -0.53125,-0.71875 -0.375,-0.26563 -0.90625,-0.26563 -0.6875,0 -1.23437,0.375 -0.53125,0.35938 -0.73438,0.98438 -0.1875,0.60937 -0.1875,2.25 v 4.46875 h -2.60937 v -9.85938 h 2.42187 v 1.45313 q 1.29688,-1.67188 3.25,-1.67188 0.85938,0 1.57813,0.3125 0.71875,0.3125 1.07812,0.79688 0.35938,0.48437 0.5,1.09375 0.15625,0.60937 0.15625,1.75 z m 1.52098,-2.8125 2.60938,-0.39063 q 0.17187,0.75 0.67187,1.15625 0.51563,0.39063 1.4375,0.39063 1,0 1.51563,-0.375 0.34375,-0.26563 0.34375,-0.70313 0,-0.29687 -0.1875,-0.48437 -0.1875,-0.1875 -0.875,-0.34375 -3.14063,-0.70313 -4,-1.26563 -1.15625,-0.79687 -1.15625,-2.21875 0,-1.28125 1,-2.15625 1.01562,-0.875 3.14062,-0.875 2.03125,0 3,0.65625 0.98438,0.65625 1.35938,1.95313 l -2.45313,0.45312 q -0.15625,-0.57812 -0.60937,-0.875 -0.4375,-0.3125 -1.25,-0.3125 -1.03125,0 -1.46875,0.29688 -0.29688,0.20312 -0.29688,0.51562 0,0.28125 0.25,0.48438 0.35938,0.25 2.4375,0.73437 2.07813,0.46875 2.90625,1.15625 0.82813,0.6875 0.82813,1.9375 0,1.35938 -1.14063,2.32813 -1.125,0.96875 -3.34375,0.96875 -2.01562,0 -3.1875,-0.8125 -1.17187,-0.8125 -1.53125,-2.21875 z m 15.7976,-7.04688 v 2.07813 h -1.78125 v 3.98437 q 0,1.20313 0.0469,1.40625 0.0625,0.1875 0.23438,0.32813 0.1875,0.125 0.45312,0.125 0.35938,0 1.04688,-0.25 l 0.21875,2.01562 q -0.90625,0.39063 -2.0625,0.39063 -0.70313,0 -1.26563,-0.23438 -0.5625,-0.23437 -0.82812,-0.60937 -0.26563,-0.375 -0.375,-1.01563 -0.0781,-0.45312 -0.0781,-1.84375 v -4.29687 h -1.20312 v -2.07813 h 1.20312 v -1.95312 l 2.60938,-1.51563 v 3.46875 z m 4.19705,9.85938 h -2.60938 v -9.85938 h 2.42188 v 1.40625 q 0.625,-0.98437 1.10937,-1.29687 0.5,-0.32813 1.14063,-0.32813 0.89062,0 1.71875,0.5 l -0.8125,2.26563 q -0.65625,-0.42188 -1.21875,-0.42188 -0.54688,0 -0.9375,0.29688 -0.375,0.29687 -0.59375,1.09375 -0.21875,0.78125 -0.21875,3.29687 z m 11.24464,0 v -1.46875 q -0.53125,0.78125 -1.40625,1.23437 -0.875,0.45313 -1.85937,0.45313 -0.98438,0 -1.78125,-0.4375 -0.78125,-0.4375 -1.14063,-1.21875 -0.34375,-0.79688 -0.34375,-2.1875 v -6.23438 h 2.60938 v 4.53125 q 0,2.07813 0.14062,2.54688 0.14063,0.46875 0.51563,0.75 0.39062,0.26562 0.96875,0.26562 0.67187,0 1.20312,-0.35937 0.53125,-0.375 0.71875,-0.90625 0.1875,-0.54688 0.1875,-2.67188 v -4.15625 h 2.60938 v 9.85938 z m 13.50536,-6.9375 -2.5625,0.46875 q -0.14063,-0.78125 -0.59375,-1.17188 -0.45313,-0.39062 -1.1875,-0.39062 -0.98438,0 -1.5625,0.67187 -0.57813,0.67188 -0.57813,2.25 0,1.76563 0.57813,2.48438 0.59375,0.71875 1.59375,0.71875 0.75,0 1.21875,-0.42188 0.46875,-0.42187 0.67187,-1.45312 l 2.54688,0.4375 q -0.39063,1.76562 -1.53125,2.67187 -1.125,0.89063 -3.03125,0.89063 -2.15625,0 -3.45313,-1.35938 -1.28125,-1.35937 -1.28125,-3.78125 0,-2.4375 1.29688,-3.79687 1.29687,-1.35938 3.48437,-1.35938 1.79688,0 2.85938,0.78125 1.0625,0.76563 1.53125,2.35938 z m 6.29759,-2.92188 v 2.07813 h -1.78125 v 3.98437 q 0,1.20313 0.0469,1.40625 0.0625,0.1875 0.23437,0.32813 0.1875,0.125 0.45313,0.125 0.35937,0 1.04687,-0.25 l 0.21875,2.01562 q -0.90625,0.39063 -2.0625,0.39063 -0.70312,0 -1.26562,-0.23438 -0.5625,-0.23437 -0.82813,-0.60937 -0.26562,-0.375 -0.375,-1.01563 -0.0781,-0.45312 -0.0781,-1.84375 v -4.29687 h -1.20313 v -2.07813 h 1.20313 v -1.95312 l 2.60937,-1.51563 v 3.46875 z m 1.69705,-1.32812 v -2.40625 h 2.60938 v 2.40625 z m 0,11.1875 v -9.85938 h 2.60938 v 9.85938 z m 4.58956,-5.0625 q 0,-1.29688 0.64062,-2.51563 0.64063,-1.21875 1.8125,-1.85937 1.17188,-0.64063 2.60938,-0.64063 2.25,0 3.67187,1.45313 1.42188,1.45312 1.42188,3.67187 0,2.23438 -1.4375,3.70313 -1.4375,1.46875 -3.625,1.46875 -1.35938,0 -2.59375,-0.60938 -1.21875,-0.60937 -1.85938,-1.79687 -0.64062,-1.1875 -0.64062,-2.875 z m 2.67187,0.14062 q 0,1.46875 0.6875,2.25 0.70313,0.76563 1.71875,0.76563 1.01563,0 1.70313,-0.76563 0.70312,-0.78125 0.70312,-2.26562 0,-1.45313 -0.70312,-2.23438 -0.6875,-0.78125 -1.70313,-0.78125 -1.01562,0 -1.71875,0.78125 -0.6875,0.78125 -0.6875,2.25 z m 18.28662,4.92188 h -2.60937 v -5.03125 q 0,-1.59375 -0.17188,-2.0625 -0.15625,-0.46875 -0.53125,-0.71875 -0.375,-0.26563 -0.90625,-0.26563 -0.6875,0 -1.23437,0.375 -0.53125,0.35938 -0.73438,0.98438 -0.1875,0.60937 -0.1875,2.25 v 4.46875 h -2.60937 v -9.85938 h 2.42187 v 1.45313 q 1.29688,-1.67188 3.25,-1.67188 0.85938,0 1.57813,0.3125 0.71875,0.3125 1.07812,0.79688 0.35938,0.48437 0.5,1.09375 0.15625,0.60937 0.15625,1.75 z m 1.52097,-2.8125 2.60937,-0.39063 q 0.17188,0.75 0.67188,1.15625 0.51562,0.39063 1.4375,0.39063 1,0 1.51562,-0.375 0.34375,-0.26563 0.34375,-0.70313 0,-0.29687 -0.1875,-0.48437 -0.1875,-0.1875 -0.875,-0.34375 -3.14062,-0.70313 -4,-1.26563 -1.15625,-0.79687 -1.15625,-2.21875 0,-1.28125 1,-2.15625 1.01563,-0.875 3.14063,-0.875 2.03125,0 3,0.65625 0.98437,0.65625 1.35937,1.95313 l -2.45312,0.45312 q -0.15625,-0.57812 -0.60938,-0.875 -0.4375,-0.3125 -1.25,-0.3125 -1.03125,0 -1.46875,0.29688 -0.29687,0.20312 -0.29687,0.51562 0,0.28125 0.25,0.48438 0.35937,0.25 2.4375,0.73437 2.07812,0.46875 2.90625,1.15625 0.82812,0.6875 0.82812,1.9375 0,1.35938 -1.14062,2.32813 -1.125,0.96875 -3.34375,0.96875 -2.01563,0 -3.1875,-0.8125 -1.17188,-0.8125 -1.53125,-2.21875 z m 11.28198,2.8125 v -2.60938 h 2.60938 v 2.60938 z m 9.69891,-9.85938 v 2.07813 h -1.78125 v 3.98437 q 0,1.20313 0.0469,1.40625 0.0625,0.1875 0.23437,0.32813 0.1875,0.125 0.45313,0.125 0.35937,0 1.04687,-0.25 l 0.21875,2.01562 q -0.90625,0.39063 -2.0625,0.39063 -0.70312,0 -1.26562,-0.23438 -0.5625,-0.23437 -0.82813,-0.60937 -0.26562,-0.375 -0.375,-1.01563 -0.0781,-0.45312 -0.0781,-1.84375 v -4.29687 h -1.20313 v -2.07813 h 1.20313 v -1.95312 l 2.60937,-1.51563 v 3.46875 z m 0.44706,9.85938 3.5625,-5.07813 -3.40625,-4.78125 h 3.17187 l 1.75,2.71875 1.82813,-2.71875 h 3.0625 l -3.32813,4.67188 3.64063,5.1875 h -3.20313 l -2,-3.04688 -2.03125,3.04688 z m 16.14135,-9.85938 v 2.07813 h -1.78125 v 3.98437 q 0,1.20313 0.0469,1.40625 0.0625,0.1875 0.23437,0.32813 0.1875,0.125 0.45313,0.125 0.35937,0 1.04687,-0.25 l 0.21875,2.01562 q -0.90625,0.39063 -2.0625,0.39063 -0.70312,0 -1.26562,-0.23438 -0.5625,-0.23437 -0.82813,-0.60937 -0.26562,-0.375 -0.375,-1.01563 -0.0781,-0.45312 -0.0781,-1.84375 v -4.29687 h -1.20313 v -2.07813 h 1.20313 v -1.95312 l 2.60937,-1.51563 v 3.46875 z"
       id="path137" />
    <path
       style="fill:#000000;fill-opacity:0;fill-rule:evenodd"
       inkscape:connector-curvature="0"
       d="m 543.78584,140.76355 h 148.81888 v 93.29134 H 543.78584 Z"
       id="path139" />
    <path
       style="fill-rule:evenodd;stroke:#000000;stroke-width:3;stroke-linecap:butt;stroke-linejoin:round"
       inkscape:connector-curvature="0"
       d="m 543.78584,140.76355 h 148.81888 v 93.29134 H 543.78584 Z"
       id="path141" />
    <path
       style="fill:#000000;fill-rule:nonzero"
       inkscape:connector-curvature="0"
       d="M 554.19208,167.68356 V 154.0898 h 2.71875 l 3.21875,9.62501 q 0.4375,1.34375 0.64062,2.01563 0.23438,-0.75 0.73438,-2.1875 l 3.25,-9.45314 h 2.42187 v 13.59376 h -1.73437 v -11.39063 l -3.95313,11.39063 h -1.625 l -3.9375,-11.57813 v 11.57813 z m 14.75955,-4.92187 q 0,-2.73438 1.53125,-4.0625 1.26563,-1.09376 3.09375,-1.09376 2.03125,0 3.3125,1.34376 1.29688,1.32812 1.29688,3.67187 0,1.90625 -0.57813,3 -0.5625,1.07813 -1.65625,1.6875 -1.07812,0.59375 -2.375,0.59375 -2.0625,0 -3.34375,-1.32812 -1.28125,-1.32813 -1.28125,-3.8125 z m 1.71875,0 q 0,1.89062 0.82813,2.82812 0.82812,0.9375 2.07812,0.9375 1.25,0 2.0625,-0.9375 0.82813,-0.95312 0.82813,-2.89062 0,-1.82813 -0.82813,-2.76563 -0.82812,-0.9375 -2.0625,-0.9375 -1.25,0 -2.07812,0.9375 -0.82813,0.9375 -0.82813,2.82813 z m 15.67261,4.92187 v -1.25 q -0.9375,1.46875 -2.75,1.46875 -1.17188,0 -2.17188,-0.64062 -0.98437,-0.65625 -1.53125,-1.8125 -0.53125,-1.17188 -0.53125,-2.6875 0,-1.46875 0.48438,-2.67188 0.5,-1.20312 1.46875,-1.84375 0.98437,-0.64063 2.20312,-0.64063 0.89063,0 1.57813,0.37501 0.70312,0.375 1.14062,0.98437 v -4.87501 h 1.65625 v 13.59376 z m -5.28125,-4.92187 q 0,1.89062 0.79687,2.82812 0.8125,0.9375 1.89063,0.9375 1.09375,0 1.85937,-0.89062 0.76563,-0.89063 0.76563,-2.73438 0,-2.01562 -0.78125,-2.95312 -0.78125,-0.95313 -1.92188,-0.95313 -1.10937,0 -1.85937,0.90625 -0.75,0.90625 -0.75,2.85938 z m 9.28195,-6.76564 v -1.90625 h 1.67188 v 1.90625 z m 0,11.68751 v -9.85938 h 1.67188 v 9.85938 z m 4.53546,0 v -8.54687 h -1.48437 v -1.31251 h 1.48437 v -1.04688 q 0,-0.98437 0.17188,-1.46875 0.23437,-0.65625 0.84375,-1.04687 0.60937,-0.40625 1.70312,-0.40625 0.70313,0 1.5625,0.15625 l -0.25,1.46875 q -0.51562,-0.0937 -0.98437,-0.0937 -0.76563,0 -1.07813,0.32812 -0.3125,0.3125 -0.3125,1.20313 v 0.90625 h 1.92188 v 1.31251 h -1.92188 v 8.54687 z m 4.79267,-11.68751 v -1.90625 h 1.67187 v 1.90625 z m 0,11.68751 v -9.85938 h 1.67187 v 9.85938 z m 10.87921,-3.17187 1.71875,0.21875 q -0.40625,1.5 -1.51563,2.34375 -1.09375,0.82812 -2.8125,0.82812 -2.15625,0 -3.42187,-1.32812 -1.26563,-1.32813 -1.26563,-3.73438 0,-2.48437 1.26563,-3.85937 1.28125,-1.37501 3.32812,-1.37501 1.98438,0 3.23438,1.34376 1.25,1.34375 1.25,3.79687 0,0.14063 -0.0156,0.4375 h -7.34375 q 0.0937,1.625 0.92188,2.48438 0.82812,0.85937 2.0625,0.85937 0.90625,0 1.54687,-0.46875 0.65625,-0.48437 1.04688,-1.54687 z m -5.48438,-2.70313 h 5.5 q -0.10937,-1.23437 -0.625,-1.85937 -0.79687,-0.96875 -2.07812,-0.96875 -1.14063,0 -1.9375,0.78125 -0.78125,0.76562 -0.85938,2.04687 z m 15.5007,5.875 v -1.25 q -0.9375,1.46875 -2.75,1.46875 -1.17187,0 -2.17187,-0.64062 -0.98438,-0.65625 -1.53125,-1.8125 -0.53125,-1.17188 -0.53125,-2.6875 0,-1.46875 0.48437,-2.67188 0.5,-1.20312 1.46875,-1.84375 0.98438,-0.64063 2.20313,-0.64063 0.89062,0 1.57812,0.37501 0.70313,0.375 1.14063,0.98437 v -4.87501 h 1.65625 v 13.59376 z m -5.28125,-4.92187 q 0,1.89062 0.79688,2.82812 0.8125,0.9375 1.89062,0.9375 1.09375,0 1.85938,-0.89062 0.76562,-0.89063 0.76562,-2.73438 0,-2.01562 -0.78125,-2.95312 -0.78125,-0.95313 -1.92187,-0.95313 -1.10938,0 -1.85938,0.90625 -0.75,0.90625 -0.75,2.85938 z"
       id="path143" />
    <path
       style="fill:#000000;fill-rule:nonzero"
       inkscape:connector-curvature="0"
       d="m 554.0827,189.68356 v -13.59375 h 2.75 v 13.59375 z m 14.21457,0 h -2.60938 v -5.03125 q 0,-1.59375 -0.17187,-2.0625 -0.15625,-0.46875 -0.53125,-0.71875 -0.375,-0.26562 -0.90625,-0.26562 -0.6875,0 -1.23438,0.375 -0.53125,0.35937 -0.73437,0.98437 -0.1875,0.60938 -0.1875,2.25 v 4.46875 h -2.60938 v -9.85937 h 2.42188 v 1.45312 q 1.29687,-1.67187 3.25,-1.67187 0.85937,0 1.57812,0.3125 0.71875,0.3125 1.07813,0.79687 0.35937,0.48438 0.5,1.09375 0.15625,0.60938 0.15625,1.75 z m 2.19284,0.65625 2.96875,0.35938 q 0.0781,0.51562 0.34375,0.70312 0.375,0.28125 1.17187,0.28125 1.03125,0 1.53125,-0.29687 0.34375,-0.20313 0.51563,-0.65625 0.125,-0.32813 0.125,-1.20313 v -1.4375 q -1.17188,1.59375 -2.95313,1.59375 -1.98437,0 -3.14062,-1.67187 -0.90625,-1.32813 -0.90625,-3.3125 0,-2.46875 1.1875,-3.78125 1.1875,-1.3125 2.96875,-1.3125 1.82812,0 3.01562,1.60937 v -1.39062 h 2.4375 v 8.84375 q 0,1.75 -0.29687,2.60937 -0.28125,0.85938 -0.79688,1.34375 -0.51562,0.5 -1.39062,0.78125 -0.85938,0.28125 -2.1875,0.28125 -2.51563,0 -3.5625,-0.85937 -1.04688,-0.85938 -1.04688,-2.17188 0,-0.14062 0.0156,-0.3125 z m 2.32812,-5.78125 q 0,1.5625 0.60938,2.29688 0.60937,0.71875 1.5,0.71875 0.95312,0 1.60937,-0.73438 0.65625,-0.75 0.65625,-2.21875 0,-1.53125 -0.64062,-2.26562 -0.625,-0.75 -1.57813,-0.75 -0.9375,0 -1.54687,0.73437 -0.60938,0.71875 -0.60938,2.21875 z m 11.80225,5.125 h -2.60937 v -9.85937 h 2.42187 v 1.40625 q 0.625,-0.98438 1.10938,-1.29688 0.5,-0.32812 1.14062,-0.32812 0.89063,0 1.71875,0.5 l -0.8125,2.26562 q -0.65625,-0.42187 -1.21875,-0.42187 -0.54687,0 -0.9375,0.29687 -0.375,0.29688 -0.59375,1.09375 -0.21875,0.78125 -0.21875,3.29688 z m 10.46338,-3.14062 2.60937,0.4375 q -0.5,1.4375 -1.59375,2.1875 -1.07812,0.73437 -2.70312,0.73437 -2.5625,0 -3.79688,-1.67187 -0.96875,-1.34375 -0.96875,-3.40625 0,-2.4375 1.26563,-3.82813 1.28125,-1.39062 3.25,-1.39062 2.1875,0 3.45312,1.45312 1.28125,1.45313 1.23438,4.45313 h -6.53125 q 0.0156,1.15625 0.625,1.8125 0.60937,0.64062 1.5,0.64062 0.60937,0 1.03125,-0.32812 0.42187,-0.34375 0.625,-1.09375 z m 0.15625,-2.625 q -0.0312,-1.14063 -0.59375,-1.71875 -0.54688,-0.59375 -1.34375,-0.59375 -0.85938,0 -1.40625,0.625 -0.5625,0.60937 -0.54688,1.6875 z m 13.56323,5.76562 h -2.42187 v -1.45312 q -0.60938,0.84375 -1.4375,1.26562 -0.8125,0.40625 -1.64063,0.40625 -1.70312,0 -2.92187,-1.35937 -1.20313,-1.375 -1.20313,-3.82813 0,-2.5 1.17188,-3.79687 1.1875,-1.3125 2.98437,-1.3125 1.65625,0 2.85938,1.375 v -4.89063 h 2.60937 z m -6.96875,-5.14062 q 0,1.57812 0.4375,2.28125 0.64063,1.01562 1.76563,1.01562 0.90625,0 1.53125,-0.76562 0.625,-0.76563 0.625,-2.28125 0,-1.70313 -0.60938,-2.4375 -0.60937,-0.75 -1.5625,-0.75 -0.9375,0 -1.5625,0.73437 -0.625,0.73438 -0.625,2.20313 z m 9.31784,-6.04688 v -2.40625 h 2.60938 v 2.40625 z m 0,11.1875 v -9.85937 h 2.60938 v 9.85937 z m 10.88645,-3.14062 2.60937,0.4375 q -0.5,1.4375 -1.59375,2.1875 -1.07812,0.73437 -2.70312,0.73437 -2.5625,0 -3.79688,-1.67187 -0.96875,-1.34375 -0.96875,-3.40625 0,-2.4375 1.26563,-3.82813 1.28125,-1.39062 3.25,-1.39062 2.1875,0 3.45312,1.45312 1.28125,1.45313 1.23438,4.45313 h -6.53125 q 0.0156,1.15625 0.625,1.8125 0.60937,0.64062 1.5,0.64062 0.60937,0 1.03125,-0.32812 0.42187,-0.34375 0.625,-1.09375 z m 0.15625,-2.625 q -0.0312,-1.14063 -0.59375,-1.71875 -0.54688,-0.59375 -1.34375,-0.59375 -0.85938,0 -1.40625,0.625 -0.5625,0.60937 -0.54688,1.6875 z m 13.48507,5.76562 h -2.60937 v -5.03125 q 0,-1.59375 -0.17188,-2.0625 -0.15625,-0.46875 -0.53125,-0.71875 -0.375,-0.26562 -0.90625,-0.26562 -0.6875,0 -1.23437,0.375 -0.53125,0.35937 -0.73438,0.98437 -0.1875,0.60938 -0.1875,2.25 v 4.46875 h -2.60937 v -9.85937 h 2.42187 v 1.45312 q 1.29688,-1.67187 3.25,-1.67187 0.85938,0 1.57813,0.3125 0.71875,0.3125 1.07812,0.79687 0.35938,0.48438 0.5,1.09375 0.15625,0.60938 0.15625,1.75 z m 6.94287,-9.85937 v 2.07812 h -1.78125 v 3.98438 q 0,1.20312 0.0469,1.40625 0.0625,0.1875 0.23437,0.32812 0.1875,0.125 0.45313,0.125 0.35937,0 1.04687,-0.25 l 0.21875,2.01563 q -0.90625,0.39062 -2.0625,0.39062 -0.70312,0 -1.26562,-0.23437 -0.5625,-0.23438 -0.82813,-0.60938 -0.26562,-0.375 -0.375,-1.01562 -0.0781,-0.45313 -0.0781,-1.84375 v -4.29688 h -1.20313 v -2.07812 h 1.20313 v -1.95313 l 2.60937,-1.51562 v 3.46875 z m 0.79081,7.04687 2.60937,-0.39062 q 0.17188,0.75 0.67188,1.15625 0.51562,0.39062 1.4375,0.39062 1,0 1.51562,-0.375 0.34375,-0.26562 0.34375,-0.70312 0,-0.29688 -0.1875,-0.48438 -0.1875,-0.1875 -0.875,-0.34375 -3.14062,-0.70312 -4,-1.26562 -1.15625,-0.79688 -1.15625,-2.21875 0,-1.28125 1,-2.15625 1.01563,-0.875 3.14063,-0.875 2.03125,0 3,0.65625 0.98434,0.65625 1.35934,1.95312 l -2.45309,0.45313 q -0.15625,-0.57813 -0.60938,-0.875 -0.4375,-0.3125 -1.25,-0.3125 -1.03125,0 -1.46875,0.29687 -0.29687,0.20313 -0.29687,0.51563 0,0.28125 0.25,0.48437 0.35937,0.25 2.4375,0.73438 2.07812,0.46875 2.90622,1.15625 0.82812,0.6875 0.82812,1.9375 0,1.35937 -1.14062,2.32812 -1.12497,0.96875 -3.34372,0.96875 -2.01563,0 -3.1875,-0.8125 -1.17188,-0.8125 -1.53125,-2.21875 z m 11.28195,2.8125 v -2.60937 h 2.60937 v 2.60937 z m 9.69891,-9.85937 v 2.07812 h -1.78125 v 3.98438 q 0,1.20312 0.0469,1.40625 0.0625,0.1875 0.23437,0.32812 0.1875,0.125 0.45313,0.125 0.35937,0 1.04687,-0.25 l 0.21875,2.01563 q -0.90625,0.39062 -2.0625,0.39062 -0.70312,0 -1.26562,-0.23437 -0.5625,-0.23438 -0.82813,-0.60938 -0.26562,-0.375 -0.375,-1.01562 -0.0781,-0.45313 -0.0781,-1.84375 v -4.29688 h -1.20313 v -2.07812 h 1.20313 v -1.95313 l 2.60937,-1.51562 v 3.46875 z m 0.44709,9.85937 3.5625,-5.07812 -3.40625,-4.78125 h 3.17187 l 1.75,2.71875 1.82813,-2.71875 h 3.0625 l -3.32813,4.67187 3.64063,5.1875 h -3.20313 l -2,-3.04687 -2.03125,3.04687 z m 16.14135,-9.85937 v 2.07812 h -1.78125 v 3.98438 q 0,1.20312 0.0469,1.40625 0.0625,0.1875 0.23437,0.32812 0.1875,0.125 0.45313,0.125 0.35937,0 1.04687,-0.25 l 0.21875,2.01563 q -0.90625,0.39062 -2.0625,0.39062 -0.70312,0 -1.26562,-0.23437 -0.5625,-0.23438 -0.82813,-0.60938 -0.26562,-0.375 -0.375,-1.01562 -0.0781,-0.45313 -0.0781,-1.84375 v -4.29688 h -1.20313 v -2.07812 h 1.20313 v -1.95313 l 2.60937,-1.51562 v 3.46875 z"
       id="path145" />
    <path
       style="fill:#000000;fill-rule:nonzero"
       inkscape:connector-curvature="0"
       d="m 557.69208,210.18356 0.23437,1.48438 q -0.70312,0.14062 -1.26562,0.14062 -0.90625,0 -1.40625,-0.28125 -0.5,-0.29687 -0.70313,-0.75 -0.20312,-0.46875 -0.20312,-1.98437 v -5.65625 h -1.23438 v -1.3125 h 1.23438 v -2.4375 l 1.65625,-1 v 3.4375 h 1.6875 v 1.3125 h -1.6875 v 5.75 q 0,0.71875 0.0781,0.92187 0.0937,0.20313 0.29688,0.32813 0.20312,0.125 0.57812,0.125 0.26563,0 0.73438,-0.0781 z m 0.90207,-3.42187 q 0,-2.73438 1.53125,-4.0625 1.26562,-1.09375 3.09375,-1.09375 2.03125,0 3.3125,1.34375 1.29687,1.32812 1.29687,3.67187 0,1.90625 -0.57812,3 -0.5625,1.07813 -1.65625,1.6875 -1.07813,0.59375 -2.375,0.59375 -2.0625,0 -3.34375,-1.32812 -1.28125,-1.32813 -1.28125,-3.8125 z m 1.71875,0 q 0,1.89062 0.82812,2.82812 0.82813,0.9375 2.07813,0.9375 1.25,0 2.0625,-0.9375 0.82812,-0.95312 0.82812,-2.89062 0,-1.82813 -0.82812,-2.76563 -0.82813,-0.9375 -2.0625,-0.9375 -1.25,0 -2.07813,0.9375 -0.82812,0.9375 -0.82812,2.82813 z m 20.90277,3.70312 q -0.9375,0.79688 -1.79687,1.125 -0.85938,0.3125 -1.84375,0.3125 -1.60938,0 -2.48438,-0.78125 -0.875,-0.79687 -0.875,-2.03125 0,-0.73437 0.32813,-1.32812 0.32812,-0.59375 0.85937,-0.95313 0.53125,-0.35937 1.20313,-0.54687 0.5,-0.14063 1.48437,-0.25 2.03125,-0.25 2.98438,-0.57813 0,-0.34375 0,-0.4375 0,-1.01562 -0.46875,-1.4375 -0.64063,-0.5625 -1.90625,-0.5625 -1.17188,0 -1.73438,0.40625 -0.5625,0.40625 -0.82812,1.46875 l -1.64063,-0.23437 q 0.23438,-1.04688 0.73438,-1.6875 0.51562,-0.64063 1.46875,-0.98438 0.96875,-0.35937 2.25,-0.35937 1.26562,0 2.04687,0.29687 0.78125,0.29688 1.15625,0.75 0.375,0.45313 0.51563,1.14063 0.0937,0.42187 0.0937,1.53125 v 2.23437 q 0,2.32813 0.0937,2.95313 0.10937,0.60937 0.4375,1.17187 h -1.75 q -0.26563,-0.51562 -0.32813,-1.21875 z m -0.14062,-3.71875 q -0.90625,0.35938 -2.73438,0.625 -1.03125,0.14063 -1.45312,0.32813 -0.42188,0.1875 -0.65625,0.54687 -0.23438,0.35938 -0.23438,0.79688 0,0.67187 0.5,1.125 0.51563,0.4375 1.48438,0.4375 0.96875,0 1.71875,-0.42188 0.75,-0.4375 1.10937,-1.15625 0.26563,-0.57812 0.26563,-1.67187 z m 10.46945,4.9375 v -1.25 q -0.9375,1.46875 -2.75,1.46875 -1.17188,0 -2.17188,-0.64062 -0.98437,-0.65625 -1.53125,-1.8125 -0.53125,-1.17188 -0.53125,-2.6875 0,-1.46875 0.48438,-2.67188 0.5,-1.20312 1.46875,-1.84375 0.98437,-0.64062 2.20312,-0.64062 0.89063,0 1.57813,0.375 0.70312,0.375 1.14062,0.98437 v -4.875 h 1.65625 v 13.59375 z m -5.28125,-4.92187 q 0,1.89062 0.79687,2.82812 0.8125,0.9375 1.89063,0.9375 1.09375,0 1.85937,-0.89062 0.76563,-0.89063 0.76563,-2.73438 0,-2.01562 -0.78125,-2.95312 -0.78125,-0.95313 -1.92188,-0.95313 -1.10937,0 -1.85937,0.90625 -0.75,0.90625 -0.75,2.85938 z m 15.65698,4.92187 v -1.25 q -0.9375,1.46875 -2.75,1.46875 -1.17188,0 -2.17188,-0.64062 -0.98437,-0.65625 -1.53125,-1.8125 -0.53125,-1.17188 -0.53125,-2.6875 0,-1.46875 0.48438,-2.67188 0.5,-1.20312 1.46875,-1.84375 0.98437,-0.64062 2.20312,-0.64062 0.89063,0 1.57813,0.375 0.70312,0.375 1.14062,0.98437 v -4.875 h 1.65625 v 13.59375 z m -5.28125,-4.92187 q 0,1.89062 0.79687,2.82812 0.8125,0.9375 1.89063,0.9375 1.09375,0 1.85937,-0.89062 0.76563,-0.89063 0.76563,-2.73438 0,-2.01562 -0.78125,-2.95312 -0.78125,-0.95313 -1.92188,-0.95313 -1.10937,0 -1.85937,0.90625 -0.75,0.90625 -0.75,2.85938 z m 13.82465,0 q 0,-2.73438 1.53125,-4.0625 1.26562,-1.09375 3.09375,-1.09375 2.03125,0 3.3125,1.34375 1.29687,1.32812 1.29687,3.67187 0,1.90625 -0.57812,3 -0.5625,1.07813 -1.65625,1.6875 -1.07813,0.59375 -2.375,0.59375 -2.0625,0 -3.34375,-1.32812 -1.28125,-1.32813 -1.28125,-3.8125 z m 1.71875,0 q 0,1.89062 0.82812,2.82812 0.82813,0.9375 2.07813,0.9375 1.25,0 2.0625,-0.9375 0.82812,-0.95312 0.82812,-2.89062 0,-1.82813 -0.82812,-2.76563 -0.82813,-0.9375 -2.0625,-0.9375 -1.25,0 -2.07813,0.9375 -0.82812,0.9375 -0.82812,2.82813 z m 9.28195,4.92187 v -9.85937 h 1.5 v 1.40625 q 1.09375,-1.625 3.14062,-1.625 0.89063,0 1.64063,0.32812 0.75,0.3125 1.10937,0.84375 0.375,0.51563 0.53125,1.21875 0.0937,0.46875 0.0937,1.625 v 6.0625 h -1.67187 v -6 q 0,-1.01562 -0.20313,-1.51562 -0.1875,-0.51563 -0.6875,-0.8125 -0.5,-0.29688 -1.17187,-0.29688 -1.0625,0 -1.84375,0.67188 -0.76563,0.67187 -0.76563,2.57812 v 5.375 z m 10.39135,-11.6875 v -1.90625 h 1.67188 v 1.90625 z m 0,11.6875 v -9.85937 h 1.67188 v 9.85937 z m 3.50419,-4.92187 q 0,-2.73438 1.53125,-4.0625 1.26562,-1.09375 3.09375,-1.09375 2.03125,0 3.3125,1.34375 1.29687,1.32812 1.29687,3.67187 0,1.90625 -0.57812,3 -0.5625,1.07813 -1.65625,1.6875 -1.07813,0.59375 -2.375,0.59375 -2.0625,0 -3.34375,-1.32812 -1.28125,-1.32813 -1.28125,-3.8125 z m 1.71875,0 q 0,1.89062 0.82812,2.82812 0.82813,0.9375 2.07813,0.9375 1.25,0 2.0625,-0.9375 0.82812,-0.95312 0.82812,-2.89062 0,-1.82813 -0.82812,-2.76563 -0.82813,-0.9375 -2.0625,-0.9375 -1.25,0 -2.07813,0.9375 -0.82812,0.9375 -0.82812,2.82813 z m 9.28198,4.92187 v -9.85937 h 1.5 v 1.40625 q 1.09375,-1.625 3.14062,-1.625 0.8906,0 1.6406,0.32812 0.75,0.3125 1.10937,0.84375 0.375,0.51563 0.53125,1.21875 0.0937,0.46875 0.0937,1.625 v 6.0625 h -1.67187 v -6 q 0,-1.01562 -0.20313,-1.51562 -0.1875,-0.51563 -0.6875,-0.8125 -0.5,-0.29688 -1.17184,-0.29688 -1.0625,0 -1.84375,0.67188 -0.76563,0.67187 -0.76563,2.57812 v 5.375 z"
       id="path147" />
    <path
       style="fill:#000000;fill-opacity:0;fill-rule:evenodd"
       inkscape:connector-curvature="0"
       d="m 749.05618,141.07852 h 157.32281 v 93.29134 H 749.05618 Z"
       id="path149" />
    <path
       style="fill-rule:evenodd;stroke:#000000;stroke-width:3;stroke-linecap:butt;stroke-linejoin:round"
       inkscape:connector-curvature="0"
       d="m 749.05618,141.07852 h 157.32281 v 93.29134 H 749.05618 Z"
       id="path151" />
    <path
       style="fill:#000000;fill-rule:nonzero"
       inkscape:connector-curvature="0"
       d="m 759.46244,167.99852 v -13.59375 h 2.71875 l 3.21875,9.625 q 0.4375,1.34375 0.64062,2.01562 0.23438,-0.75 0.73438,-2.1875 l 3.25,-9.45312 h 2.42187 v 13.59375 h -1.73437 v -11.39063 l -3.95313,11.39063 h -1.625 l -3.9375,-11.57813 v 11.57813 z m 14.75952,-4.92188 q 0,-2.73437 1.53125,-4.0625 1.26563,-1.09375 3.09375,-1.09375 2.03125,0 3.3125,1.34375 1.29688,1.32813 1.29688,3.67188 0,1.90625 -0.57813,3 -0.5625,1.07812 -1.65625,1.6875 -1.07812,0.59375 -2.375,0.59375 -2.0625,0 -3.34375,-1.32813 -1.28125,-1.32812 -1.28125,-3.8125 z m 1.71875,0 q 0,1.89063 0.82813,2.82813 0.82812,0.9375 2.07812,0.9375 1.25,0 2.0625,-0.9375 0.82813,-0.95313 0.82813,-2.89063 0,-1.82812 -0.82813,-2.76562 -0.82812,-0.9375 -2.0625,-0.9375 -1.25,0 -2.07812,0.9375 -0.82813,0.9375 -0.82813,2.82812 z m 15.67261,4.92188 v -1.25 q -0.9375,1.46875 -2.75,1.46875 -1.17188,0 -2.17188,-0.64063 -0.98437,-0.65625 -1.53125,-1.8125 -0.53125,-1.17187 -0.53125,-2.6875 0,-1.46875 0.48438,-2.67187 0.5,-1.20313 1.46875,-1.84375 0.98437,-0.64063 2.20312,-0.64063 0.89063,0 1.57813,0.375 0.70312,0.375 1.14062,0.98438 v -4.875 h 1.65625 v 13.59375 z m -5.28125,-4.92188 q 0,1.89063 0.79687,2.82813 0.8125,0.9375 1.89063,0.9375 1.09375,0 1.85937,-0.89063 0.76563,-0.89062 0.76563,-2.73437 0,-2.01563 -0.78125,-2.95313 -0.78125,-0.95312 -1.92188,-0.95312 -1.10937,0 -1.85937,0.90625 -0.75,0.90625 -0.75,2.85937 z m 9.28198,-6.76562 v -1.90625 h 1.67188 v 1.90625 z m 0,11.6875 v -9.85938 h 1.67188 v 9.85938 z m 4.53546,0 v -8.54688 h -1.48437 v -1.3125 h 1.48437 v -1.04687 q 0,-0.98438 0.17188,-1.46875 0.23437,-0.65625 0.84375,-1.04688 0.60937,-0.40625 1.70312,-0.40625 0.70313,0 1.5625,0.15625 l -0.25,1.46875 q -0.51562,-0.0937 -0.98437,-0.0937 -0.76563,0 -1.07813,0.32813 -0.3125,0.3125 -0.3125,1.20312 v 0.90625 h 1.92188 v 1.3125 h -1.92188 v 8.54688 z m 4.79267,-11.6875 v -1.90625 h 1.67187 v 1.90625 z m 0,11.6875 v -9.85938 h 1.67187 v 9.85938 z m 10.87921,-3.17188 1.71875,0.21875 q -0.40625,1.5 -1.51563,2.34375 -1.09375,0.82813 -2.8125,0.82813 -2.15625,0 -3.42187,-1.32813 -1.26563,-1.32812 -1.26563,-3.73437 0,-2.48438 1.26563,-3.85938 1.28125,-1.375 3.32812,-1.375 1.98438,0 3.23438,1.34375 1.25,1.34375 1.25,3.79688 0,0.14062 -0.0156,0.4375 h -7.34375 q 0.0937,1.625 0.92188,2.48437 0.82812,0.85938 2.0625,0.85938 0.90625,0 1.54687,-0.46875 0.65625,-0.48438 1.04688,-1.54688 z m -5.48438,-2.70312 h 5.5 q -0.10937,-1.23438 -0.625,-1.85938 -0.79687,-0.96875 -2.07812,-0.96875 -1.14063,0 -1.9375,0.78125 -0.78125,0.76563 -0.85938,2.04688 z m 15.50067,5.875 v -1.25 q -0.9375,1.46875 -2.75,1.46875 -1.17187,0 -2.17187,-0.64063 -0.98438,-0.65625 -1.53125,-1.8125 -0.53125,-1.17187 -0.53125,-2.6875 0,-1.46875 0.48437,-2.67187 0.5,-1.20313 1.46875,-1.84375 0.98438,-0.64063 2.20313,-0.64063 0.89062,0 1.57812,0.375 0.70313,0.375 1.14063,0.98438 v -4.875 h 1.65625 v 13.59375 z m -5.28125,-4.92188 q 0,1.89063 0.79688,2.82813 0.8125,0.9375 1.89062,0.9375 1.09375,0 1.85938,-0.89063 0.76562,-0.89062 0.76562,-2.73437 0,-2.01563 -0.78125,-2.95313 -0.78125,-0.95312 -1.92187,-0.95312 -1.10938,0 -1.85938,0.90625 -0.75,0.90625 -0.75,2.85937 z"
       id="path153" />
    <path
       style="fill:#000000;fill-rule:nonzero"
       inkscape:connector-curvature="0"
       d="m 759.41554,178.81102 v -2.40625 h 2.60938 v 2.40625 z m 0,11.1875 v -9.85938 h 2.60938 v 9.85938 z m 14.15204,0 h -2.60938 v -5.03125 q 0,-1.59375 -0.17187,-2.0625 -0.15625,-0.46875 -0.53125,-0.71875 -0.375,-0.26563 -0.90625,-0.26563 -0.6875,0 -1.23438,0.375 -0.53125,0.35938 -0.73437,0.98438 -0.1875,0.60937 -0.1875,2.25 v 4.46875 h -2.60938 v -9.85938 h 2.42188 v 1.45313 q 1.29687,-1.67188 3.25,-1.67188 0.85937,0 1.57812,0.3125 0.71875,0.3125 1.07813,0.79688 0.35937,0.48437 0.5,1.09375 0.15625,0.60937 0.15625,1.75 z m 1.521,-2.8125 2.60937,-0.39063 q 0.17188,0.75 0.67188,1.15625 0.51562,0.39063 1.4375,0.39063 1,0 1.51562,-0.375 0.34375,-0.26563 0.34375,-0.70313 0,-0.29687 -0.1875,-0.48437 -0.1875,-0.1875 -0.875,-0.34375 -3.14062,-0.70313 -4,-1.26563 -1.15625,-0.79687 -1.15625,-2.21875 0,-1.28125 1,-2.15625 1.01563,-0.875 3.14063,-0.875 2.03125,0 3,0.65625 0.98437,0.65625 1.35937,1.95313 l -2.45312,0.45312 q -0.15625,-0.57812 -0.60938,-0.875 -0.4375,-0.3125 -1.25,-0.3125 -1.03125,0 -1.46875,0.29688 -0.29687,0.20312 -0.29687,0.51562 0,0.28125 0.25,0.48438 0.35937,0.25 2.4375,0.73437 2.07812,0.46875 2.90625,1.15625 0.82812,0.6875 0.82812,1.9375 0,1.35938 -1.14062,2.32813 -1.125,0.96875 -3.34375,0.96875 -2.01563,0 -3.1875,-0.8125 -1.17188,-0.8125 -1.53125,-2.21875 z m 15.7976,-7.04688 v 2.07813 h -1.78125 v 3.98437 q 0,1.20313 0.0469,1.40625 0.0625,0.1875 0.23437,0.32813 0.1875,0.125 0.45313,0.125 0.35937,0 1.04687,-0.25 l 0.21875,2.01562 q -0.90625,0.39063 -2.0625,0.39063 -0.70312,0 -1.26562,-0.23438 -0.5625,-0.23437 -0.82813,-0.60937 -0.26562,-0.375 -0.375,-1.01563 -0.0781,-0.45312 -0.0781,-1.84375 v -4.29687 h -1.20313 v -2.07813 h 1.20313 v -1.95312 l 2.60937,-1.51563 v 3.46875 z m 4.19702,9.85938 h -2.60937 v -9.85938 h 2.42187 v 1.40625 q 0.625,-0.98437 1.10938,-1.29687 0.5,-0.32813 1.14062,-0.32813 0.89063,0 1.71875,0.5 l -0.8125,2.26563 q -0.65625,-0.42188 -1.21875,-0.42188 -0.54687,0 -0.9375,0.29688 -0.375,0.29687 -0.59375,1.09375 -0.21875,0.78125 -0.21875,3.29687 z m 11.24463,0 v -1.46875 q -0.53125,0.78125 -1.40625,1.23437 -0.875,0.45313 -1.85937,0.45313 -0.98438,0 -1.78125,-0.4375 -0.78125,-0.4375 -1.14063,-1.21875 -0.34375,-0.79688 -0.34375,-2.1875 v -6.23438 h 2.60938 v 4.53125 q 0,2.07813 0.14062,2.54688 0.14063,0.46875 0.51563,0.75 0.39062,0.26562 0.96875,0.26562 0.67187,0 1.20312,-0.35937 0.53125,-0.375 0.71875,-0.90625 0.1875,-0.54688 0.1875,-2.67188 v -4.15625 h 2.60938 v 9.85938 z m 13.50537,-6.9375 -2.5625,0.46875 q -0.14062,-0.78125 -0.59375,-1.17188 -0.45312,-0.39062 -1.1875,-0.39062 -0.98437,0 -1.5625,0.67187 -0.57812,0.67188 -0.57812,2.25 0,1.76563 0.57812,2.48438 0.59375,0.71875 1.59375,0.71875 0.75,0 1.21875,-0.42188 0.46875,-0.42187 0.67188,-1.45312 l 2.54687,0.4375 q -0.39062,1.76562 -1.53125,2.67187 -1.125,0.89063 -3.03125,0.89063 -2.15625,0 -3.45312,-1.35938 -1.28125,-1.35937 -1.28125,-3.78125 0,-2.4375 1.29687,-3.79687 1.29688,-1.35938 3.48438,-1.35938 1.79687,0 2.85937,0.78125 1.0625,0.76563 1.53125,2.35938 z m 6.29761,-2.92188 v 2.07813 h -1.78125 v 3.98437 q 0,1.20313 0.0469,1.40625 0.0625,0.1875 0.23437,0.32813 0.1875,0.125 0.45313,0.125 0.35937,0 1.04687,-0.25 l 0.21875,2.01562 q -0.90625,0.39063 -2.0625,0.39063 -0.70312,0 -1.26562,-0.23438 -0.5625,-0.23437 -0.82813,-0.60937 -0.26562,-0.375 -0.375,-1.01563 -0.0781,-0.45312 -0.0781,-1.84375 v -4.29687 h -1.20313 v -2.07813 h 1.20313 v -1.95312 l 2.60937,-1.51563 v 3.46875 z m 1.69702,-1.32812 v -2.40625 h 2.60938 v 2.40625 z m 0,11.1875 v -9.85938 h 2.60938 v 9.85938 z m 4.5896,-5.0625 q 0,-1.29688 0.64063,-2.51563 0.64062,-1.21875 1.8125,-1.85937 1.17187,-0.64063 2.60937,-0.64063 2.25,0 3.67188,1.45313 1.42187,1.45312 1.42187,3.67187 0,2.23438 -1.4375,3.70313 -1.4375,1.46875 -3.625,1.46875 -1.35937,0 -2.59375,-0.60938 -1.21875,-0.60937 -1.85937,-1.79687 -0.64063,-1.1875 -0.64063,-2.875 z m 2.67188,0.14062 q 0,1.46875 0.6875,2.25 0.70312,0.76563 1.71875,0.76563 1.01562,0 1.70312,-0.76563 0.70313,-0.78125 0.70313,-2.26562 0,-1.45313 -0.70313,-2.23438 -0.6875,-0.78125 -1.70312,-0.78125 -1.01563,0 -1.71875,0.78125 -0.6875,0.78125 -0.6875,2.25 z m 18.28656,4.92188 h -2.60938 v -5.03125 q 0,-1.59375 -0.17187,-2.0625 -0.15625,-0.46875 -0.53125,-0.71875 -0.375,-0.26563 -0.90625,-0.26563 -0.6875,0 -1.23438,0.375 -0.53125,0.35938 -0.73437,0.98438 -0.1875,0.60937 -0.1875,2.25 v 4.46875 h -2.60938 v -9.85938 h 2.42188 v 1.45313 q 1.29687,-1.67188 3.25,-1.67188 0.85937,0 1.57812,0.3125 0.71875,0.3125 1.07813,0.79688 0.35937,0.48437 0.5,1.09375 0.15625,0.60937 0.15625,1.75 z m 1.52099,-2.8125 2.60938,-0.39063 q 0.17187,0.75 0.67187,1.15625 0.51563,0.39063 1.4375,0.39063 1,0 1.51563,-0.375 0.34375,-0.26563 0.34375,-0.70313 0,-0.29687 -0.1875,-0.48437 -0.1875,-0.1875 -0.875,-0.34375 -3.14063,-0.70313 -4,-1.26563 -1.15625,-0.79687 -1.15625,-2.21875 0,-1.28125 1,-2.15625 1.01562,-0.875 3.14062,-0.875 2.03125,0 3,0.65625 0.98438,0.65625 1.35938,1.95313 l -2.45313,0.45312 q -0.15625,-0.57812 -0.60937,-0.875 -0.4375,-0.3125 -1.25,-0.3125 -1.03125,0 -1.46875,0.29688 -0.29688,0.20312 -0.29688,0.51562 0,0.28125 0.25,0.48438 0.35938,0.25 2.4375,0.73437 2.07813,0.46875 2.90625,1.15625 0.82813,0.6875 0.82813,1.9375 0,1.35938 -1.14063,2.32813 -1.125,0.96875 -3.34375,0.96875 -2.01562,0 -3.1875,-0.8125 -1.17187,-0.8125 -1.53125,-2.21875 z m 11.28199,2.8125 v -2.60938 h 2.60937 v 2.60938 z m 9.69891,-9.85938 v 2.07813 h -1.78125 v 3.98437 q 0,1.20313 0.0469,1.40625 0.0625,0.1875 0.23438,0.32813 0.1875,0.125 0.45312,0.125 0.35938,0 1.04688,-0.25 l 0.21875,2.01562 q -0.90625,0.39063 -2.0625,0.39063 -0.70313,0 -1.26563,-0.23438 -0.5625,-0.23437 -0.82812,-0.60937 -0.26563,-0.375 -0.375,-1.01563 -0.0781,-0.45312 -0.0781,-1.84375 v -4.29687 h -1.20312 v -2.07813 h 1.20312 v -1.95312 l 2.60938,-1.51563 v 3.46875 z m 0.44708,9.85938 3.5625,-5.07813 -3.40625,-4.78125 h 3.17188 l 1.75,2.71875 1.82812,-2.71875 h 3.0625 l -3.32812,4.67188 3.64062,5.1875 h -3.20312 l -2,-3.04688 -2.03125,3.04688 z m 16.1413,-9.85938 v 2.07813 h -1.78125 v 3.98437 q 0,1.20313 0.0469,1.40625 0.0625,0.1875 0.23438,0.32813 0.1875,0.125 0.45312,0.125 0.35938,0 1.04688,-0.25 l 0.21875,2.01562 q -0.90625,0.39063 -2.0625,0.39063 -0.70313,0 -1.26563,-0.23438 -0.5625,-0.23437 -0.82812,-0.60937 -0.26563,-0.375 -0.375,-1.01563 -0.0781,-0.45312 -0.0781,-1.84375 v -4.29687 h -1.20312 v -2.07813 h 1.20312 v -1.95312 l 2.60938,-1.51563 v 3.46875 z"
       id="path155" />
    <path
       style="fill:#000000;fill-rule:nonzero"
       inkscape:connector-curvature="0"
       d="m 762.96244,210.49852 0.23437,1.48437 q -0.70312,0.14063 -1.26562,0.14063 -0.90625,0 -1.40625,-0.28125 -0.5,-0.29688 -0.70313,-0.75 -0.20312,-0.46875 -0.20312,-1.98438 v -5.65625 h -1.23438 v -1.3125 h 1.23438 v -2.4375 l 1.65625,-1 v 3.4375 h 1.6875 v 1.3125 h -1.6875 v 5.75 q 0,0.71875 0.0781,0.92188 0.0937,0.20312 0.29688,0.32812 0.20312,0.125 0.57812,0.125 0.26563,0 0.73438,-0.0781 z m 0.90204,-3.42188 q 0,-2.73437 1.53125,-4.0625 1.26562,-1.09375 3.09375,-1.09375 2.03125,0 3.3125,1.34375 1.29687,1.32813 1.29687,3.67188 0,1.90625 -0.57812,3 -0.5625,1.07812 -1.65625,1.6875 -1.07813,0.59375 -2.375,0.59375 -2.0625,0 -3.34375,-1.32813 -1.28125,-1.32812 -1.28125,-3.8125 z m 1.71875,0 q 0,1.89063 0.82812,2.82813 0.82813,0.9375 2.07813,0.9375 1.25,0 2.0625,-0.9375 0.82812,-0.95313 0.82812,-2.89063 0,-1.82812 -0.82812,-2.76562 -0.82813,-0.9375 -2.0625,-0.9375 -1.25,0 -2.07813,0.9375 -0.82812,0.9375 -0.82812,2.82812 z m 20.90277,3.70313 q -0.9375,0.79687 -1.79688,1.125 -0.85937,0.3125 -1.84375,0.3125 -1.60937,0 -2.48437,-0.78125 -0.875,-0.79688 -0.875,-2.03125 0,-0.73438 0.32812,-1.32813 0.32813,-0.59375 0.85938,-0.95312 0.53125,-0.35938 1.20312,-0.54688 0.5,-0.14062 1.48438,-0.25 2.03125,-0.25 2.98437,-0.57812 0,-0.34375 0,-0.4375 0,-1.01563 -0.46875,-1.4375 -0.64062,-0.5625 -1.90625,-0.5625 -1.17187,0 -1.73437,0.40625 -0.5625,0.40625 -0.82813,1.46875 l -1.64062,-0.23438 q 0.23437,-1.04687 0.73437,-1.6875 0.51563,-0.64062 1.46875,-0.98437 0.96875,-0.35938 2.25,-0.35938 1.26563,0 2.04688,0.29688 0.78125,0.29687 1.15625,0.75 0.375,0.45312 0.51562,1.14062 0.0937,0.42188 0.0937,1.53125 v 2.23438 q 0,2.32812 0.0937,2.95312 0.10938,0.60938 0.4375,1.17188 h -1.75 q -0.26562,-0.51563 -0.32812,-1.21875 z m -0.14063,-3.71875 q -0.90625,0.35937 -2.73437,0.625 -1.03125,0.14062 -1.45313,0.32812 -0.42187,0.1875 -0.65625,0.54688 -0.23437,0.35937 -0.23437,0.79687 0,0.67188 0.5,1.125 0.51562,0.4375 1.48437,0.4375 0.96875,0 1.71875,-0.42187 0.75,-0.4375 1.10938,-1.15625 0.26562,-0.57813 0.26562,-1.67188 z m 10.46949,4.9375 v -1.25 q -0.9375,1.46875 -2.75,1.46875 -1.17188,0 -2.17188,-0.64063 -0.98437,-0.65625 -1.53125,-1.8125 -0.53125,-1.17187 -0.53125,-2.6875 0,-1.46875 0.48438,-2.67187 0.5,-1.20313 1.46875,-1.84375 0.98437,-0.64063 2.20312,-0.64063 0.89063,0 1.57813,0.375 0.70312,0.375 1.14062,0.98438 v -4.875 h 1.65625 v 13.59375 z m -5.28125,-4.92188 q 0,1.89063 0.79687,2.82813 0.8125,0.9375 1.89063,0.9375 1.09375,0 1.85937,-0.89063 0.76563,-0.89062 0.76563,-2.73437 0,-2.01563 -0.78125,-2.95313 -0.78125,-0.95312 -1.92188,-0.95312 -1.10937,0 -1.85937,0.90625 -0.75,0.90625 -0.75,2.85937 z m 15.65698,4.92188 v -1.25 q -0.9375,1.46875 -2.75,1.46875 -1.17188,0 -2.17188,-0.64063 -0.98437,-0.65625 -1.53125,-1.8125 -0.53125,-1.17187 -0.53125,-2.6875 0,-1.46875 0.48438,-2.67187 0.5,-1.20313 1.46875,-1.84375 0.98437,-0.64063 2.20312,-0.64063 0.89063,0 1.57813,0.375 0.70312,0.375 1.14062,0.98438 v -4.875 h 1.65625 v 13.59375 z m -5.28125,-4.92188 q 0,1.89063 0.79687,2.82813 0.8125,0.9375 1.89063,0.9375 1.09375,0 1.85937,-0.89063 0.76563,-0.89062 0.76563,-2.73437 0,-2.01563 -0.78125,-2.95313 -0.78125,-0.95312 -1.92188,-0.95312 -1.10937,0 -1.85937,0.90625 -0.75,0.90625 -0.75,2.85937 z m 21.19964,1.75 1.71875,0.21875 q -0.40625,1.5 -1.51562,2.34375 -1.09375,0.82813 -2.8125,0.82813 -2.15625,0 -3.42188,-1.32813 -1.26562,-1.32812 -1.26562,-3.73437 0,-2.48438 1.26562,-3.85938 1.28125,-1.375 3.32813,-1.375 1.98437,0 3.23437,1.34375 1.25,1.34375 1.25,3.79688 0,0.14062 -0.0156,0.4375 h -7.34375 q 0.0937,1.625 0.92187,2.48437 0.82813,0.85938 2.0625,0.85938 0.90625,0 1.54688,-0.46875 0.65625,-0.48438 1.04687,-1.54688 z m -5.48437,-2.70312 h 5.5 q -0.10938,-1.23438 -0.625,-1.85938 -0.79688,-0.96875 -2.07813,-0.96875 -1.14062,0 -1.9375,0.78125 -0.78125,0.76563 -0.85937,2.04688 z m 9.11005,5.875 v -9.85938 h 1.5 v 1.40625 q 1.09375,-1.625 3.14062,-1.625 0.89063,0 1.64063,0.32813 0.75,0.3125 1.10937,0.84375 0.375,0.51562 0.53125,1.21875 0.0937,0.46875 0.0937,1.625 v 6.0625 h -1.67187 v -6 q 0,-1.01563 -0.20313,-1.51563 -0.1875,-0.51562 -0.6875,-0.8125 -0.5,-0.29687 -1.17187,-0.29687 -1.0625,0 -1.84375,0.67187 -0.76563,0.67188 -0.76563,2.57813 v 5.375 z m 10.37573,-11.65625 v -1.9375 h 1.65625 v 1.9375 z m -2.125,15.48437 0.3125,-1.42187 q 0.5,0.125 0.79687,0.125 0.51563,0 0.76563,-0.34375 0.25,-0.32813 0.25,-1.6875 v -10.35938 h 1.65625 v 10.39063 q 0,1.82812 -0.46875,2.54687 -0.59375,0.92188 -2,0.92188 -0.67188,0 -1.3125,-0.17188 z m 5.64483,-8.75 q 0,-2.73437 1.53125,-4.0625 1.26563,-1.09375 3.09375,-1.09375 2.03125,0 3.3125,1.34375 1.29688,1.32813 1.29688,3.67188 0,1.90625 -0.57813,3 -0.5625,1.07812 -1.65625,1.6875 -1.07812,0.59375 -2.375,0.59375 -2.0625,0 -3.34375,-1.32813 -1.28125,-1.32812 -1.28125,-3.8125 z m 1.71875,0 q 0,1.89063 0.82813,2.82813 0.82812,0.9375 2.07812,0.9375 1.25,0 2.0625,-0.9375 0.82813,-0.95313 0.82813,-2.89063 0,-1.82812 -0.82813,-2.76562 -0.82812,-0.9375 -2.0625,-0.9375 -1.25,0 -2.07812,0.9375 -0.82813,0.9375 -0.82813,2.82812 z m 9.20386,8.71875 -0.17187,-1.5625 q 0.54687,0.14063 0.95312,0.14063 0.54688,0 0.875,-0.1875 0.34375,-0.1875 0.5625,-0.51563 0.15625,-0.25 0.5,-1.25 0.0469,-0.14062 0.15625,-0.40625 l -3.73437,-9.875 h 1.79687 l 2.04688,5.71875 q 0.40625,1.07813 0.71875,2.28125 0.28125,-1.15625 0.6875,-2.25 l 2.09375,-5.75 h 1.67187 l -3.75,10.03125 q -0.59375,1.625 -0.9375,2.23438 -0.4375,0.82812 -1.01562,1.20312 -0.57813,0.39063 -1.375,0.39063 -0.48438,0 -1.07813,-0.20313 z"
       id="path157" />
    <path
       style="fill:#000000;fill-opacity:0;fill-rule:evenodd"
       inkscape:connector-curvature="0"
       d="m 315.92756,232.88804 h 133.07085 v 37.25984 H 315.92756 Z"
       id="path159" />
    <path
       style="fill-rule:evenodd;stroke:#0000ff;stroke-width:3;stroke-linecap:butt;stroke-linejoin:round"
       inkscape:connector-curvature="0"
       d="m 315.92756,232.88804 h 133.07085 v 37.25984 H 315.92756 Z"
       id="path161" />
    <path
       style="fill:#0000ff;fill-rule:nonzero"
       inkscape:connector-curvature="0"
       d="m 356.21972,251.5942 -2.35938,-0.4375 q 0.39063,-1.42187 1.35938,-2.10937 0.98437,-0.6875 2.90625,-0.6875 1.73437,0 2.59375,0.42187 0.85937,0.40625 1.20312,1.04688 0.34375,0.625 0.34375,2.32812 l -0.0312,3.04688 q 0,1.29687 0.125,1.92187 0.125,0.60938 0.46875,1.3125 h -2.57812 q -0.0937,-0.26562 -0.25,-0.76562 -0.0625,-0.23438 -0.0937,-0.3125 -0.65625,0.65625 -1.42188,0.98437 -0.76562,0.3125 -1.625,0.3125 -1.51562,0 -2.40625,-0.8125 -0.875,-0.82812 -0.875,-2.09375 0,-0.84375 0.39063,-1.48437 0.40625,-0.65625 1.125,-1 0.71875,-0.35938 2.07812,-0.625 1.82813,-0.32813 2.53125,-0.625 v -0.26563 q 0,-0.75 -0.375,-1.0625 -0.35937,-0.32812 -1.39062,-0.32812 -0.70313,0 -1.09375,0.28125 -0.39063,0.26562 -0.625,0.95312 z m 3.48437,2.10938 q -0.5,0.17187 -1.59375,0.40625 -1.07812,0.23437 -1.40625,0.45312 -0.51562,0.35938 -0.51562,0.92188 0,0.54687 0.40625,0.95312 0.40625,0.39063 1.04687,0.39063 0.70313,0 1.34375,-0.46875 0.46875,-0.35938 0.625,-0.85938 0.0937,-0.34375 0.0937,-1.28125 z m 4.39135,-6.26563 v -2.42187 h 8.90625 v 1.90625 q -1.09375,1.07812 -2.23438,3.10937 -1.14062,2.03125 -1.75,4.32813 -0.59375,2.28125 -0.57812,4.07812 h -2.51563 q 0.0625,-2.82812 1.15625,-5.75 1.10938,-2.9375 2.9375,-5.25 z m 19.96948,11 h -2.42188 v -1.45312 q -0.60937,0.84375 -1.4375,1.26562 -0.81251,0.40625 -1.64064,0.40625 -1.70312,0 -2.92187,-1.35937 -1.20313,-1.375 -1.20313,-3.82813 0,-2.5 1.17188,-3.79687 1.1875,-1.3125 2.98437,-1.3125 1.65627,0 2.85939,1.375 v -4.89063 h 2.60938 z m -6.96877,-5.14062 q 0,1.57812 0.4375,2.28125 0.64063,1.01562 1.76563,1.01562 0.90626,0 1.53126,-0.76562 0.625,-0.76563 0.625,-2.28125 0,-1.70313 -0.60937,-2.4375 -0.60938,-0.75 -1.56252,-0.75 -0.9375,0 -1.5625,0.73437 -0.625,0.73438 -0.625,2.20313 z m 8.17725,-4.71875 h 1.45312 v -0.73438 q 0,-1.25 0.26563,-1.85937 0.26562,-0.60938 0.96875,-0.98438 0.71875,-0.39062 1.79687,-0.39062 1.10938,0 2.1875,0.32812 l -0.35937,1.8125 q -0.625,-0.14062 -1.20313,-0.14062 -0.5625,0 -0.8125,0.26562 -0.23437,0.26563 -0.23437,1.01563 v 0.6875 h 1.9375 v 2.0625 h -1.9375 v 7.79687 h -2.60938 v -7.79687 h -1.45312 z m 13.05643,6.71875 2.60937,0.4375 q -0.5,1.4375 -1.59375,2.1875 -1.07812,0.73437 -2.70312,0.73437 -2.5625,0 -3.79688,-1.67187 -0.96875,-1.34375 -0.96875,-3.40625 0,-2.4375 1.26563,-3.82813 1.28125,-1.39062 3.25,-1.39062 2.1875,0 3.45312,1.45312 1.28125,1.45313 1.23438,4.45313 h -6.53125 q 0.0156,1.15625 0.625,1.8125 0.60937,0.64062 1.5,0.64062 0.60937,0 1.03125,-0.32812 0.42187,-0.34375 0.625,-1.09375 z m 0.15625,-2.625 q -0.0312,-1.14063 -0.59375,-1.71875 -0.54688,-0.59375 -1.34375,-0.59375 -0.85938,0 -1.40625,0.625 -0.5625,0.60937 -0.54688,1.6875 z m 4.0007,2.26562 2.59375,-0.26562 q 0.10937,0.875 0.65625,1.39062 0.54687,0.51563 1.26562,0.51563 0.8125,0 1.375,-0.65625 0.57813,-0.67188 0.57813,-2 0,-1.25 -0.5625,-1.875 -0.5625,-0.625 -1.46875,-0.625 -1.10938,0 -2,0.98437 l -2.125,-0.3125 1.34375,-7.07812 h 6.89062 v 2.45312 h -4.92187 l -0.40625,2.29688 q 0.875,-0.42188 1.78125,-0.42188 1.73437,0 2.9375,1.26563 1.20312,1.25 1.20312,3.26562 0,1.67188 -0.96875,3 -1.32812,1.79688 -3.6875,1.79688 -1.875,0 -3.0625,-1.01563 -1.1875,-1.01562 -1.42187,-2.71875 z"
       id="path163" />
    <path
       style="fill:#000000;fill-opacity:0;fill-rule:evenodd"
       inkscape:connector-curvature="0"
       d="m 554.24777,233.287 h 133.07086 v 37.25984 H 554.24777 Z"
       id="path165" />
    <path
       style="fill-rule:evenodd;stroke:#0000ff;stroke-width:3;stroke-linecap:butt;stroke-linejoin:round"
       inkscape:connector-curvature="0"
       d="m 554.24777,233.287 h 133.07086 v 37.25984 H 554.24777 Z"
       id="path167" />
    <path
       style="fill:#0000ff;fill-rule:nonzero"
       inkscape:connector-curvature="0"
       d="m 592.70294,251.49316 q -1.01562,-0.42188 -1.48437,-1.17188 -0.45313,-0.75 -0.45313,-1.64062 0,-1.51563 1.0625,-2.5 1.0625,-1 3.03125,-1 1.9375,0 3,1 1.07813,0.98437 1.07813,2.5 0,0.95312 -0.5,1.6875 -0.48438,0.73437 -1.375,1.125 1.125,0.45312 1.71875,1.32812 0.59375,0.875 0.59375,2.01563 0,1.89062 -1.20313,3.0625 -1.20312,1.17187 -3.20312,1.17187 -1.85938,0 -3.07813,-0.96875 -1.46875,-1.15625 -1.46875,-3.15625 0,-1.09375 0.54688,-2.01562 0.54687,-0.9375 1.73437,-1.4375 z m 0.53125,-2.625 q 0,0.78125 0.4375,1.21875 0.45313,0.4375 1.1875,0.4375 0.73438,0 1.17188,-0.4375 0.45312,-0.4375 0.45312,-1.21875 0,-0.73438 -0.4375,-1.17188 -0.4375,-0.45312 -1.17187,-0.45312 -0.75,0 -1.20313,0.45312 -0.4375,0.4375 -0.4375,1.17188 z m -0.23437,5.82812 q 0,1.07813 0.54687,1.6875 0.54688,0.59375 1.375,0.59375 0.8125,0 1.34375,-0.57812 0.53125,-0.57813 0.53125,-1.67188 0,-0.95312 -0.54687,-1.53125 -0.53125,-0.57812 -1.35938,-0.57812 -0.95312,0 -1.42187,0.65625 -0.46875,0.65625 -0.46875,1.42187 z m 16.64132,1.71875 v 2.42188 h -9.14062 q 0.15625,-1.375 0.89062,-2.59375 0.75,-1.23438 2.9375,-3.26563 1.76563,-1.64062 2.15625,-2.23437 0.54688,-0.79688 0.54688,-1.59375 0,-0.875 -0.46875,-1.34375 -0.46875,-0.46875 -1.29688,-0.46875 -0.8125,0 -1.29687,0.5 -0.48438,0.48437 -0.5625,1.625 l -2.59375,-0.25 q 0.23437,-2.15625 1.45312,-3.09375 1.21875,-0.9375 3.0625,-0.9375 2.01563,0 3.15625,1.09375 1.15625,1.07812 1.15625,2.6875 0,0.92187 -0.32812,1.75 -0.32813,0.82812 -1.04688,1.73437 -0.46875,0.60938 -1.70312,1.75 -1.23438,1.125 -1.5625,1.5 -0.32813,0.35938 -0.53125,0.71875 z m 1.62573,-0.71875 2.53125,-0.28125 q 0.0937,0.76563 0.48438,1.14063 0.39062,0.375 1.03125,0.375 0.79687,0 1.35937,-0.73438 0.57813,-0.75 0.73438,-3.09375 -0.98438,1.14063 -2.46875,1.14063 -1.59375,0 -2.76563,-1.23438 -1.15625,-1.23437 -1.15625,-3.23437 0,-2.0625 1.21875,-3.32813 1.23438,-1.26562 3.14063,-1.26562 2.0625,0 3.39059,1.60937 1.32813,1.59375 1.32813,5.25 0,3.73438 -1.39063,5.39063 -1.37497,1.64062 -3.59372,1.64062 -1.59375,0 -2.57812,-0.84375 -0.98438,-0.84375 -1.26563,-2.53125 z m 5.90625,-5.70312 q 0,-1.26563 -0.57812,-1.95313 -0.57813,-0.70312 -1.34375,-0.70312 -0.71875,0 -1.20313,0.57812 -0.48437,0.5625 -0.48437,1.85938 0,1.32812 0.51562,1.95312 0.53125,0.60938 1.3125,0.60938 0.75,0 1.26563,-0.59375 0.51562,-0.59375 0.51562,-1.75 z m 6.65696,1.5 q -1.01563,-0.42188 -1.48438,-1.17188 -0.45312,-0.75 -0.45312,-1.64062 0,-1.51563 1.0625,-2.5 1.0625,-1 3.03125,-1 1.9375,0 3,1 1.07812,0.98437 1.07812,2.5 0,0.95312 -0.5,1.6875 -0.48437,0.73437 -1.375,1.125 1.125,0.45312 1.71875,1.32812 0.59375,0.875 0.59375,2.01563 0,1.89062 -1.20312,3.0625 -1.20313,1.17187 -3.20313,1.17187 -1.85937,0 -3.07812,-0.96875 -1.46875,-1.15625 -1.46875,-3.15625 0,-1.09375 0.54687,-2.01562 0.54688,-0.9375 1.73438,-1.4375 z m 0.53125,-2.625 q 0,0.78125 0.4375,1.21875 0.45312,0.4375 1.1875,0.4375 0.73437,0 1.17187,-0.4375 0.45313,-0.4375 0.45313,-1.21875 0,-0.73438 -0.4375,-1.17188 -0.4375,-0.45312 -1.17188,-0.45312 -0.75,0 -1.20312,0.45312 -0.4375,0.4375 -0.4375,1.17188 z m -0.23438,5.82812 q 0,1.07813 0.54688,1.6875 0.54687,0.59375 1.375,0.59375 0.8125,0 1.34375,-0.57812 0.53125,-0.57813 0.53125,-1.67188 0,-0.95312 -0.54688,-1.53125 -0.53125,-0.57812 -1.35937,-0.57812 -0.95313,0 -1.42188,0.65625 -0.46875,0.65625 -0.46875,1.42187 z m 14.51633,4.14063 h -2.60938 v -9.82813 q -1.4375,1.34375 -3.375,1.98438 v -2.375 q 1.03125,-0.32813 2.21875,-1.25 1.20313,-0.9375 1.64063,-2.1875 h 2.125 z m 9.95386,-3.14063 2.60937,0.4375 q -0.5,1.4375 -1.59375,2.1875 -1.07812,0.73438 -2.70312,0.73438 -2.5625,0 -3.79688,-1.67188 -0.96875,-1.34375 -0.96875,-3.40625 0,-2.4375 1.26563,-3.82812 1.28125,-1.39063 3.25,-1.39063 2.1875,0 3.45312,1.45313 1.28125,1.45312 1.23438,4.45312 h -6.53125 q 0.0156,1.15625 0.625,1.8125 0.60937,0.64063 1.5,0.64063 0.60937,0 1.03125,-0.32813 0.42187,-0.34375 0.625,-1.09375 z m 0.15625,-2.625 q -0.0312,-1.14062 -0.59375,-1.71875 -0.54688,-0.59375 -1.34375,-0.59375 -0.85938,0 -1.40625,0.625 -0.5625,0.60938 -0.54688,1.6875 z"
       id="path169" />
    <path
       style="fill:#000000;fill-opacity:0;fill-rule:evenodd"
       inkscape:connector-curvature="0"
       d="M 760.74118,236.49171 H 893.8121 v 37.25984 H 760.74118 Z"
       id="path171" />
    <path
       style="fill-rule:evenodd;stroke:#0000ff;stroke-width:3;stroke-linecap:butt;stroke-linejoin:round"
       inkscape:connector-curvature="0"
       d="M 760.74118,236.49171 H 893.8121 v 37.25984 H 760.74118 Z"
       id="path173" />
    <path
       style="fill:#0000ff;fill-rule:nonzero"
       inkscape:connector-curvature="0"
       d="m 796.45187,251.04164 v -2.42187 h 8.90625 v 1.90625 q -1.09375,1.07812 -2.23437,3.10937 -1.14063,2.03125 -1.75,4.32813 -0.59375,2.28125 -0.57813,4.07812 H 798.28 q 0.0625,-2.82812 1.15625,-5.75 1.10937,-2.9375 2.9375,-5.25 z m 10.28198,7.39063 2.51563,-0.3125 q 0.125,0.96875 0.65625,1.48437 0.53125,0.5 1.28125,0.5 0.79687,0 1.34375,-0.60937 0.5625,-0.60938 0.5625,-1.64063 0,-0.98437 -0.53125,-1.5625 -0.53125,-0.57812 -1.28125,-0.57812 -0.5,0 -1.20313,0.20312 l 0.28125,-2.125 q 1.0625,0.0156 1.60938,-0.46875 0.5625,-0.48437 0.5625,-1.29687 0,-0.6875 -0.40625,-1.09375 -0.40625,-0.40625 -1.07813,-0.40625 -0.67187,0 -1.14062,0.46875 -0.46875,0.46875 -0.57813,1.35937 l -2.40625,-0.42187 q 0.25,-1.23438 0.75,-1.96875 0.51563,-0.73438 1.42188,-1.15625 0.90625,-0.42188 2.03125,-0.42188 1.90625,0 3.07812,1.21875 0.95313,1 0.95313,2.26563 0,1.79687 -1.95313,2.85937 1.15625,0.25 1.85938,1.125 0.70312,0.875 0.70312,2.10938 0,1.78125 -1.3125,3.04687 -1.29687,1.26563 -3.25,1.26563 -1.84375,0 -3.0625,-1.0625 -1.21875,-1.0625 -1.40625,-2.78125 z m 19.61005,-3.32813 -2.5625,0.46875 q -0.14063,-0.78125 -0.59375,-1.17187 -0.45313,-0.39063 -1.1875,-0.39063 -0.98438,0 -1.5625,0.67188 -0.57813,0.67187 -0.57813,2.25 0,1.76562 0.57813,2.48437 0.59375,0.71875 1.59375,0.71875 0.75,0 1.21875,-0.42187 0.46875,-0.42188 0.67187,-1.45313 l 2.54688,0.4375 q -0.39063,1.76563 -1.53125,2.67188 -1.125,0.89062 -3.03125,0.89062 -2.15625,0 -3.45313,-1.35937 -1.28125,-1.35938 -1.28125,-3.78125 0,-2.4375 1.29688,-3.79688 1.29687,-1.35937 3.48437,-1.35937 1.79688,0 2.85938,0.78125 1.0625,0.76562 1.53125,2.35937 z m 1.23511,-4.0625 v -2.42187 h 8.90625 v 1.90625 q -1.09375,1.07812 -2.23438,3.10937 -1.14062,2.03125 -1.75,4.32813 -0.59375,2.28125 -0.57812,4.07812 h -2.51563 q 0.0625,-2.82812 1.15625,-5.75 1.10938,-2.9375 2.9375,-5.25 z m 19.1726,8.57813 v 2.42187 h -9.14062 q 0.15625,-1.375 0.89062,-2.59375 0.75,-1.23437 2.9375,-3.26562 1.76563,-1.64063 2.15625,-2.23438 0.54688,-0.79687 0.54688,-1.59375 0,-0.875 -0.46875,-1.34375 -0.46875,-0.46875 -1.29688,-0.46875 -0.8125,0 -1.29687,0.5 -0.48438,0.48438 -0.5625,1.625 l -2.59375,-0.25 q 0.23437,-2.15625 1.45312,-3.09375 1.21875,-0.9375 3.0625,-0.9375 2.01563,0 3.15625,1.09375 1.15625,1.07813 1.15625,2.6875 0,0.92188 -0.32812,1.75 -0.32813,0.82813 -1.04688,1.73438 -0.46875,0.60937 -1.70312,1.75 -1.23438,1.125 -1.5625,1.5 -0.32813,0.35937 -0.53125,0.71875 z m 2.0163,2.42187 v -13.59375 h 2.60937 v 4.89063 q 1.20313,-1.375 2.85938,-1.375 1.79687,0 2.96875,1.3125 1.1875,1.29687 1.1875,3.73437 0,2.53125 -1.20313,3.89063 -1.20312,1.35937 -2.92187,1.35937 -0.84375,0 -1.67188,-0.42187 -0.8125,-0.42188 -1.40625,-1.25 v 1.45312 z m 2.59375,-5.14062 q 0,1.53125 0.48437,2.26562 0.67188,1.03125 1.79688,1.03125 0.85937,0 1.46875,-0.73437 0.60937,-0.73438 0.60937,-2.32813 0,-1.6875 -0.60937,-2.42187 -0.60938,-0.75 -1.57813,-0.75 -0.9375,0 -1.5625,0.73437 -0.60937,0.71875 -0.60937,2.20313 z"
       id="path175" />
    <path
       style="fill:#000000;fill-opacity:0;fill-rule:evenodd"
       inkscape:connector-curvature="0"
       d="m 354.82651,343.67695 h 39.27559 v 47.65353 h -39.27559 z"
       id="path177" />
    <path
       style="fill:#000000;fill-rule:nonzero"
       inkscape:connector-curvature="0"
       d="m 377.2436,376.0437 h -3.29688 v -12.40625 q -1.8125,1.6875 -4.25,2.48438 v -2.98438 q 1.28125,-0.42187 2.79688,-1.59375 1.51562,-1.1875 2.07812,-2.75 h 2.67188 z"
       id="path179" />
    <path
       style="fill:#000000;fill-opacity:0;fill-rule:evenodd"
       inkscape:connector-curvature="0"
       d="m 604.32257,343.67695 h 39.2756 v 47.65353 h -39.2756 z"
       id="path181" />
    <path
       style="fill:#000000;fill-rule:nonzero"
       inkscape:connector-curvature="0"
       d="m 629.42714,372.9812 v 3.0625 h -11.54687 q 0.1875,-1.73437 1.125,-3.28125 0.9375,-1.5625 3.70312,-4.125 2.23438,-2.07812 2.73438,-2.8125 0.6875,-1.01562 0.6875,-2.01562 0,-1.10938 -0.59375,-1.6875 -0.59375,-0.59375 -1.64063,-0.59375 -1.03125,0 -1.64062,0.625 -0.60938,0.60937 -0.70313,2.04687 l -3.28125,-0.32812 q 0.29688,-2.71875 1.84375,-3.89063 1.54688,-1.1875 3.85938,-1.1875 2.54687,0 4,1.375 1.45312,1.35938 1.45312,3.40625 0,1.15625 -0.42187,2.20313 -0.40625,1.04687 -1.3125,2.20312 -0.59375,0.76563 -2.15625,2.20313 -1.5625,1.42187 -1.98438,1.89062 -0.40625,0.46875 -0.65625,0.90625 z"
       id="path183" />
    <path
       style="fill:#000000;fill-opacity:0;fill-rule:evenodd"
       inkscape:connector-curvature="0"
       d="m 816.62179,343.67695 h 39.27557 v 47.65353 h -39.27557 z"
       id="path185" />
    <path
       style="fill:#000000;fill-rule:nonzero"
       inkscape:connector-curvature="0"
       d="m 830.49197,371.4812 3.1875,-0.39062 q 0.15625,1.21875 0.8125,1.875 0.67187,0.64062 1.625,0.64062 1.01562,0 1.70312,-0.76562 0.70313,-0.78125 0.70313,-2.09375 0,-1.25 -0.67188,-1.96875 -0.65625,-0.73438 -1.625,-0.73438 -0.625,0 -1.5,0.25 l 0.35938,-2.6875 q 1.32812,0.0469 2.03125,-0.5625 0.70312,-0.625 0.70312,-1.64062 0,-0.875 -0.51562,-1.39063 -0.51563,-0.51562 -1.35938,-0.51562 -0.84375,0 -1.45312,0.59375 -0.59375,0.57812 -0.71875,1.70312 l -3.03125,-0.51562 q 0.3125,-1.5625 0.95312,-2.48438 0.64063,-0.9375 1.78125,-1.46875 1.14063,-0.53125 2.5625,-0.53125 2.42188,0 3.89063,1.54688 1.20312,1.26562 1.20312,2.85937 0,2.26563 -2.46875,3.60938 1.46875,0.3125 2.34375,1.42187 0.89063,1.09375 0.89063,2.65625 0,2.26563 -1.65625,3.85938 -1.64063,1.59375 -4.10938,1.59375 -2.32812,0 -3.85937,-1.34375 -1.53125,-1.34375 -1.78125,-3.51563 z"
       id="path187" />
  </g>
</svg>
