<?xml version="1.0" standalone="yes"?>

<svg version="1.1" viewBox="0.0 0.0 960.0 540.0" fill="none" stroke="none" stroke-linecap="square" stroke-miterlimit="10" xmlns="http://www.w3.org/2000/svg" xmlns:xlink="http://www.w3.org/1999/xlink"><clipPath id="g2721e673cf_0_127.0"><path d="m0 0l960.0 0l0 540.0l-960.0 0l0 -540.0z" clip-rule="nonzero"></path></clipPath><g clip-path="url(#g2721e673cf_0_127.0)"><path fill="#ffffff" d="m0 0l960.0 0l0 540.0l-960.0 0z" fill-rule="evenodd"></path><defs><radialGradient id="g2721e673cf_0_127.1" gradientUnits="userSpaceOnUse" gradientTransform="matrix(8.324223510661291 0.0 0.0 8.324223510661291 0.0 0.0)" spreadMethod="pad" cx="28.417042780903238" cy="34.44614174191649" fx="28.417042780903238" fy="34.44614174191649" r="8.324223518371582"><stop offset="0.0" stop-color="#dddddd"></stop><stop offset="1.0" stop-color="#919191"></stop></radialGradient></defs><path fill="url(#g2721e673cf_0_127.1)" d="m171.37483 271.05017l0 0c0 -4.331909 29.17984 -7.8435974 65.17499 -7.8435974c35.995132 0 65.17497 3.5116882 65.17497 7.8435974l0 31.37442c0 4.331909 -29.17984 7.8435974 -65.17497 7.8435974c-35.995148 0 -65.17499 -3.5116882 -65.17499 -7.8435974z" fill-rule="evenodd"></path><path fill="#000000" fill-opacity="0.0" d="m301.7248 271.05017l0 0c0 4.331909 -29.17984 7.8435974 -65.17497 7.8435974c-35.995148 0 -65.17499 -3.5116882 -65.17499 -7.8435974" fill-rule="evenodd"></path><path fill="#000000" fill-opacity="0.0" d="m171.37483 271.05017l0 0c0 -4.331909 29.17984 -7.8435974 65.17499 -7.8435974c35.995132 0 65.17497 3.5116882 65.17497 7.8435974l0 31.37442c0 4.331909 -29.17984 7.8435974 -65.17497 7.8435974c-35.995148 0 -65.17499 -3.5116882 -65.17499 -7.8435974z" fill-rule="evenodd"></path><path stroke="#595959" stroke-width="4.0" stroke-linejoin="round" stroke-linecap="butt" d="m301.7248 271.05017l0 0c0 4.331909 -29.17984 7.8435974 -65.17497 7.8435974c-35.995148 0 -65.17499 -3.5116882 -65.17499 -7.8435974" fill-rule="evenodd"></path><path stroke="#595959" stroke-width="4.0" stroke-linejoin="round" stroke-linecap="butt" d="m171.37483 271.05017l0 0c0 -4.331909 29.17984 -7.8435974 65.17499 -7.8435974c35.995132 0 65.17497 3.5116882 65.17497 7.8435974l0 31.37442c0 4.331909 -29.17984 7.8435974 -65.17497 7.8435974c-35.995148 0 -65.17499 -3.5116882 -65.17499 -7.8435974z" fill-rule="evenodd"></path><defs><radialGradient id="g2721e673cf_0_127.2" gradientUnits="userSpaceOnUse" gradientTransform="matrix(7.934122535095037 0.0 0.0 7.934122535095037 0.0 0.0)" spreadMethod="pad" cx="30.06877313888127" cy="34.623435393330794" fx="30.06877313888127" fy="34.623435393330794" r="7.934122562408447"><stop offset="0.0" stop-color="#dcecd5"></stop><stop offset="1.0" stop-color="#93bc81"></stop></radialGradient></defs><path fill="url(#g2721e673cf_0_127.2)" d="m189.08218 268.7631l0 0c-0.9742737 -2.80661 2.2244568 -5.585022 8.238831 -7.156189c6.014389 -1.5711975 13.789642 -1.6596069 20.026428 -0.22775269l0 0c2.209259 -1.6318665 6.2528534 -2.7585754 10.907669 -3.0393066c4.6548157 -0.28070068 9.37413 0.3175354 12.730438 1.6137695l0 0c1.882019 -1.4795837 5.577362 -2.4736633 9.774765 -2.629486c4.1973877 -0.15585327 8.302795 0.5486145 10.8594055 1.8633728l0 0c3.400116 -1.5683289 8.809784 -2.2286682 13.888214 -1.695282c5.07843 0.53341675 8.913513 2.164734 9.845734 4.188141l0 0c4.165741 0.44540405 7.635681 1.5776978 9.513367 3.10437c1.877655 1.5266418 1.9788513 3.297882 0.2774048 4.8560486l0 0c4.1020203 2.092804 5.0615845 4.881439 2.5205994 7.325226c-2.540985 2.4438171 -8.200745 4.1756287 -14.8671875 4.549164c-0.04699707 2.293579 -3.25589 4.398163 -8.389801 5.502533c-5.1339417 1.1043396 -11.391235 1.0360413 -16.360046 -0.17858887c-2.1164703 2.7469788 -8.073593 4.768158 -15.297684 5.190338c-7.2240906 0.4222107 -14.42009 -0.83029175 -18.47905 -3.2163696c-4.9754486 1.1760864 -10.945572 1.5148926 -16.56363 0.9399719c-5.6180573 -0.5749512 -10.410812 -2.0151672 -13.297119 -3.995819l0 0c-5.0842743 0.23321533 -10.000076 -0.79937744 -12.3076935 -2.5853271c-2.3076172 -1.7859192 -1.5158234 -3.9450378 1.9824219 -5.4057617l0 0c-4.535309 -1.0463867 -6.8495026 -3.1227417 -5.7358093 -5.1463623c1.1136932 -2.0236206 5.402893 -3.5359192 10.630966 -3.7483215z" fill-rule="evenodd"></path><path fill="#000000" fill-opacity="0.0" d="m184.08653 277.76596l0 0c2.1402283 0.4937744 4.612686 0.71777344 7.0854187 0.64190674m3.2387543 7.3493347c1.0633545 -0.04876709 2.1056519 -0.15206909 3.100006 -0.30722046m26.759232 3.3629456c-0.7478943 -0.43966675 -1.3740845 -0.90945435 -1.8678741 -1.4014282m35.645905 -0.57263184l0 0c0.38586426 -0.500824 0.63586426 -1.0162659 0.7458496 -1.5377502m24.003052 -3.7859802c0.05001831 -2.4418945 -3.4880676 -4.677704 -9.0946045 -5.747101m21.441101 -6.1270447c-0.907959 0.83151245 -2.2940674 1.5691223 -4.0496216 2.1550293m-5.7402954 -10.115662l0 0c0.1546936 0.3357544 0.22628784 0.6766052 0.21380615 1.0177612m-23.947388 -3.510498l0 0c-0.84814453 0.39120483 -1.5469055 0.82839966 -2.0745544 1.2979431m-18.559784 -0.53201294l0 0c-0.45199585 0.35534668 -0.78952026 0.73135376 -1.0047913 1.1193848m-22.633667 0.30618286l0 0c1.3197021 0.30297852 2.5406036 0.6676636 3.6358948 1.0859985m-31.900787 6.2979736l0 0c0.13427734 0.38684082 0.3464508 0.7688904 0.6345215 1.1426086" fill-rule="evenodd"></path><path stroke="#595959" stroke-width="4.0" stroke-linejoin="round" stroke-linecap="butt" d="m189.08218 268.7631l0 0c-0.9742737 -2.80661 2.2244568 -5.585022 8.238831 -7.156189c6.014389 -1.5711975 13.789642 -1.6596069 20.026428 -0.22775269l0 0c2.209259 -1.6318665 6.2528534 -2.7585754 10.907669 -3.0393066c4.6548157 -0.28070068 9.37413 0.3175354 12.730438 1.6137695l0 0c1.882019 -1.4795837 5.577362 -2.4736633 9.774765 -2.629486c4.1973877 -0.15585327 8.302795 0.5486145 10.8594055 1.8633728l0 0c3.400116 -1.5683289 8.809784 -2.2286682 13.888214 -1.695282c5.07843 0.53341675 8.913513 2.164734 9.845734 4.188141l0 0c4.165741 0.44540405 7.635681 1.5776978 9.513367 3.10437c1.877655 1.5266418 1.9788513 3.297882 0.2774048 4.8560486l0 0c4.1020203 2.092804 5.0615845 4.881439 2.5205994 7.325226c-2.540985 2.4438171 -8.200745 4.1756287 -14.8671875 4.549164c-0.04699707 2.293579 -3.25589 4.398163 -8.389801 5.502533c-5.1339417 1.1043396 -11.391235 1.0360413 -16.360046 -0.17858887c-2.1164703 2.7469788 -8.073593 4.768158 -15.297684 5.190338c-7.2240906 0.4222107 -14.42009 -0.83029175 -18.47905 -3.2163696c-4.9754486 1.1760864 -10.945572 1.5148926 -16.56363 0.9399719c-5.6180573 -0.5749512 -10.410812 -2.0151672 -13.297119 -3.995819l0 0c-5.0842743 0.23321533 -10.000076 -0.79937744 -12.3076935 -2.5853271c-2.3076172 -1.7859192 -1.5158234 -3.9450378 1.9824219 -5.4057617l0 0c-4.535309 -1.0463867 -6.8495026 -3.1227417 -5.7358093 -5.1463623c1.1136932 -2.0236206 5.402893 -3.5359192 10.630966 -3.7483215z" fill-rule="evenodd"></path><path stroke="#595959" stroke-width="4.0" stroke-linejoin="round" stroke-linecap="butt" d="m184.08653 277.76596l0 0c2.1402283 0.4937744 4.612686 0.71777344 7.0854187 0.64190674m3.2387543 7.3493347c1.0633545 -0.04876709 2.1056519 -0.15206909 3.100006 -0.30722046m26.759232 3.3629456c-0.7478943 -0.43966675 -1.3740845 -0.90945435 -1.8678741 -1.4014282m35.645905 -0.57263184l0 0c0.38586426 -0.500824 0.63586426 -1.0162659 0.7458496 -1.5377502m24.003052 -3.7859802c0.05001831 -2.4418945 -3.4880676 -4.677704 -9.0946045 -5.747101m21.441101 -6.1270447c-0.907959 0.83151245 -2.2940674 1.5691223 -4.0496216 2.1550293m-5.7402954 -10.115662l0 0c0.1546936 0.3357544 0.22628784 0.6766052 0.21380615 1.0177612m-23.947388 -3.510498l0 0c-0.84814453 0.39120483 -1.5469055 0.82839966 -2.0745544 1.2979431m-18.559784 -0.53201294l0 0c-0.45199585 0.35534668 -0.78952026 0.73135376 -1.0047913 1.1193848m-22.633667 0.30618286l0 0c1.3197021 0.30297852 2.5406036 0.6676636 3.6358948 1.0859985m-31.900787 6.2979736l0 0c0.13427734 0.38684082 0.3464508 0.7688904 0.6345215 1.1426086" fill-rule="evenodd"></path><path fill="#000000" fill-opacity="0.0" d="m295.4203 275.12265l0 0c-8.4782715 8.840973 -30.65863 15.028748 -56.49385 15.760345c-25.835205 0.7316284 -50.41664 -4.131897 -62.60945 -12.387482l57.512634 -11.071259z" fill-rule="evenodd"></path><path fill="#000000" fill-opacity="0.0" d="m295.4203 275.12265l0 0c-8.4782715 8.840973 -30.65863 15.028748 -56.49385 15.760345c-25.835205 0.7316284 -50.41664 -4.131897 -62.60945 -12.387482" fill-rule="evenodd"></path><path stroke="#595959" stroke-width="4.0" stroke-linejoin="round" stroke-linecap="butt" d="m295.4203 275.12265l0 0c-8.4782715 8.840973 -30.65863 15.028748 -56.49385 15.760345c-25.835205 0.7316284 -50.41664 -4.131897 -62.60945 -12.387482" fill-rule="evenodd"></path><defs><radialGradient id="g2721e673cf_0_127.3" gradientUnits="userSpaceOnUse" gradientTransform="matrix(8.324223510661291 0.0 0.0 8.324223510661291 0.0 0.0)" spreadMethod="pad" cx="57.80381344255036" cy="34.06429581213448" fx="57.80381344255036" fy="34.06429581213448" r="8.324223518371582"><stop offset="0.0" stop-color="#dddddd"></stop><stop offset="1.0" stop-color="#919191"></stop></radialGradient></defs><path fill="url(#g2721e673cf_0_127.3)" d="m415.9969 267.8716l0 0c0 -4.331909 29.17984 -7.843628 65.17499 -7.843628c35.995117 0 65.17499 3.5117188 65.17499 7.843628l0 31.37442c0 4.331909 -29.17987 7.8435974 -65.17499 7.8435974c-35.995148 0 -65.17499 -3.5116882 -65.17499 -7.8435974z" fill-rule="evenodd"></path><path fill="#000000" fill-opacity="0.0" d="m546.34686 267.8716l0 0c0 4.3318787 -29.17987 7.8435974 -65.17499 7.8435974c-35.995148 0 -65.17499 -3.5117188 -65.17499 -7.8435974" fill-rule="evenodd"></path><path fill="#000000" fill-opacity="0.0" d="m415.9969 267.8716l0 0c0 -4.331909 29.17984 -7.843628 65.17499 -7.843628c35.995117 0 65.17499 3.5117188 65.17499 7.843628l0 31.37442c0 4.331909 -29.17987 7.8435974 -65.17499 7.8435974c-35.995148 0 -65.17499 -3.5116882 -65.17499 -7.8435974z" fill-rule="evenodd"></path><path stroke="#595959" stroke-width="4.0" stroke-linejoin="round" stroke-linecap="butt" d="m546.34686 267.8716l0 0c0 4.3318787 -29.17987 7.8435974 -65.17499 7.8435974c-35.995148 0 -65.17499 -3.5117188 -65.17499 -7.8435974" fill-rule="evenodd"></path><path stroke="#595959" stroke-width="4.0" stroke-linejoin="round" stroke-linecap="butt" d="m415.9969 267.8716l0 0c0 -4.331909 29.17984 -7.843628 65.17499 -7.843628c35.995117 0 65.17499 3.5117188 65.17499 7.843628l0 31.37442c0 4.331909 -29.17987 7.8435974 -65.17499 7.8435974c-35.995148 0 -65.17499 -3.5116882 -65.17499 -7.8435974z" fill-rule="evenodd"></path><defs><radialGradient id="g2721e673cf_0_127.4" gradientUnits="userSpaceOnUse" gradientTransform="matrix(7.934122535095037 0.0 0.0 7.934122535095037 0.0 0.0)" spreadMethod="pad" cx="60.900417868598616" cy="34.22281505351603" fx="60.900417868598616" fy="34.22281505351603" r="7.934122562408447"><stop offset="0.0" stop-color="#dcecd5"></stop><stop offset="1.0" stop-color="#93bc81"></stop></radialGradient></defs><path fill="url(#g2721e673cf_0_127.4)" d="m433.70422 265.58453l0 0c-0.9742737 -2.8066406 2.2244568 -5.585022 8.238831 -7.156189c6.0144043 -1.5711975 13.789642 -1.6596069 20.026428 -0.22775269l0 0c2.209259 -1.631897 6.2528687 -2.7585907 10.907684 -3.039322c4.6548157 -0.28071594 9.374115 0.3175354 12.730438 1.6137848l0 0c1.8819885 -1.4795837 5.577362 -2.4736633 9.77475 -2.6295166c4.1973877 -0.15583801 8.302795 0.5486145 10.8594055 1.8634033l0 0c3.400116 -1.5683594 8.809814 -2.2286987 13.888245 -1.6952972c5.07843 0.5334015 8.913452 2.1647491 9.845703 4.1881256l0 0c4.1657104 0.44543457 7.635681 1.5777283 9.513367 3.10437c1.8776855 1.5266724 1.9788818 3.297882 0.2774048 4.856079l0 0c4.102051 2.092804 5.0615845 4.881439 2.52063 7.325226c-2.5410156 2.4437866 -8.200806 4.175598 -14.867249 4.5491333c-0.046936035 2.2936096 -3.2558594 4.3981934 -8.3897705 5.502533c-5.133911 1.1043701 -11.391235 1.0360718 -16.360046 -0.17858887c-2.116455 2.7469788 -8.073578 4.7681885 -15.297668 5.1903687c-7.2240906 0.42218018 -14.420105 -0.83032227 -18.479065 -3.2164001c-4.9754333 1.176117 -10.945557 1.5149231 -16.56363 0.9399719c-5.618042 -0.57492065 -10.410797 -2.0151672 -13.297119 -3.995819l0 0c-5.084259 0.23324585 -10.000061 -0.7993469 -12.307678 -2.5852966c-2.3076172 -1.7859497 -1.5158386 -3.9450378 1.9824219 -5.4057617l0 0c-4.535309 -1.0463867 -6.849518 -3.1227722 -5.7358093 -5.146393c1.113678 -2.0236206 5.402893 -3.5359192 10.630951 -3.748291z" fill-rule="evenodd"></path><path fill="#000000" fill-opacity="0.0" d="m428.7086 274.58737l0 0c2.1402283 0.49380493 4.612671 0.71780396 7.0854187 0.64190674m3.238739 7.349365c1.0633545 -0.048797607 2.1056519 -0.15206909 3.100006 -0.30722046m26.759247 3.3629456c-0.7478943 -0.43966675 -1.3740845 -0.90948486 -1.8678894 -1.4014282m35.645905 -0.57263184l0 0c0.38586426 -0.500824 0.63586426 -1.0162659 0.7458496 -1.5377502m24.003082 -3.7860107c0.049987793 -2.441864 -3.4880981 -4.677704 -9.0946045 -5.747101m21.441101 -6.127014c-0.907959 0.83151245 -2.2940674 1.5691223 -4.0496216 2.1550293m-5.7403564 -10.115692l0 0c0.15472412 0.3357849 0.22631836 0.6766052 0.21380615 1.0177612m-23.947327 -3.510498l0 0c-0.84817505 0.39123535 -1.546936 0.8284302 -2.074585 1.2979431m-18.559784 -0.5319824l0 0c-0.45199585 0.35534668 -0.78952026 0.73135376 -1.0047913 1.1193848m-22.633667 0.30618286l0 0c1.3197021 0.30297852 2.540619 0.66763306 3.6358948 1.0859985m-31.900787 6.2979736l0 0c0.13427734 0.3868103 0.34646606 0.7688904 0.6345215 1.1425781" fill-rule="evenodd"></path><path stroke="#595959" stroke-width="4.0" stroke-linejoin="round" stroke-linecap="butt" d="m433.70422 265.58453l0 0c-0.9742737 -2.8066406 2.2244568 -5.585022 8.238831 -7.156189c6.0144043 -1.5711975 13.789642 -1.6596069 20.026428 -0.22775269l0 0c2.209259 -1.631897 6.2528687 -2.7585907 10.907684 -3.039322c4.6548157 -0.28071594 9.374115 0.3175354 12.730438 1.6137848l0 0c1.8819885 -1.4795837 5.577362 -2.4736633 9.77475 -2.6295166c4.1973877 -0.15583801 8.302795 0.5486145 10.8594055 1.8634033l0 0c3.400116 -1.5683594 8.809814 -2.2286987 13.888245 -1.6952972c5.07843 0.5334015 8.913452 2.1647491 9.845703 4.1881256l0 0c4.1657104 0.44543457 7.635681 1.5777283 9.513367 3.10437c1.8776855 1.5266724 1.9788818 3.297882 0.2774048 4.856079l0 0c4.102051 2.092804 5.0615845 4.881439 2.52063 7.325226c-2.5410156 2.4437866 -8.200806 4.175598 -14.867249 4.5491333c-0.046936035 2.2936096 -3.2558594 4.3981934 -8.3897705 5.502533c-5.133911 1.1043701 -11.391235 1.0360718 -16.360046 -0.17858887c-2.116455 2.7469788 -8.073578 4.7681885 -15.297668 5.1903687c-7.2240906 0.42218018 -14.420105 -0.83032227 -18.479065 -3.2164001c-4.9754333 1.176117 -10.945557 1.5149231 -16.56363 0.9399719c-5.618042 -0.57492065 -10.410797 -2.0151672 -13.297119 -3.995819l0 0c-5.084259 0.23324585 -10.000061 -0.7993469 -12.307678 -2.5852966c-2.3076172 -1.7859497 -1.5158386 -3.9450378 1.9824219 -5.4057617l0 0c-4.535309 -1.0463867 -6.849518 -3.1227722 -5.7358093 -5.146393c1.113678 -2.0236206 5.402893 -3.5359192 10.630951 -3.748291z" fill-rule="evenodd"></path><path stroke="#595959" stroke-width="4.0" stroke-linejoin="round" stroke-linecap="butt" d="m428.7086 274.58737l0 0c2.1402283 0.49380493 4.612671 0.71780396 7.0854187 0.64190674m3.238739 7.349365c1.0633545 -0.048797607 2.1056519 -0.15206909 3.100006 -0.30722046m26.759247 3.3629456c-0.7478943 -0.43966675 -1.3740845 -0.90948486 -1.8678894 -1.4014282m35.645905 -0.57263184l0 0c0.38586426 -0.500824 0.63586426 -1.0162659 0.7458496 -1.5377502m24.003082 -3.7860107c0.049987793 -2.441864 -3.4880981 -4.677704 -9.0946045 -5.747101m21.441101 -6.127014c-0.907959 0.83151245 -2.2940674 1.5691223 -4.0496216 2.1550293m-5.7403564 -10.115692l0 0c0.15472412 0.3357849 0.22631836 0.6766052 0.21380615 1.0177612m-23.947327 -3.510498l0 0c-0.84817505 0.39123535 -1.546936 0.8284302 -2.074585 1.2979431m-18.559784 -0.5319824l0 0c-0.45199585 0.35534668 -0.78952026 0.73135376 -1.0047913 1.1193848m-22.633667 0.30618286l0 0c1.3197021 0.30297852 2.540619 0.66763306 3.6358948 1.0859985m-31.900787 6.2979736l0 0c0.13427734 0.3868103 0.34646606 0.7688904 0.6345215 1.1425781" fill-rule="evenodd"></path><path fill="#000000" fill-opacity="0.0" d="m540.04236 271.9441l0 0c-8.4783325 8.840973 -30.65866 15.028717 -56.493866 15.760345c-25.835205 0.7316284 -50.416656 -4.131897 -62.609467 -12.387482l57.512634 -11.071289z" fill-rule="evenodd"></path><path fill="#000000" fill-opacity="0.0" d="m540.04236 271.9441l0 0c-8.4783325 8.840973 -30.65866 15.028717 -56.493866 15.760345c-25.835205 0.7316284 -50.416656 -4.131897 -62.609467 -12.387482" fill-rule="evenodd"></path><path stroke="#595959" stroke-width="4.0" stroke-linejoin="round" stroke-linecap="butt" d="m540.04236 271.9441l0 0c-8.4783325 8.840973 -30.65866 15.028717 -56.493866 15.760345c-25.835205 0.7316284 -50.416656 -4.131897 -62.609467 -12.387482" fill-rule="evenodd"></path><defs><radialGradient id="g2721e673cf_0_127.5" gradientUnits="userSpaceOnUse" gradientTransform="matrix(8.324223510661291 0.0 0.0 8.324223510661291 0.0 0.0)" spreadMethod="pad" cx="83.32793634300921" cy="34.370299620324616" fx="83.32793634300921" fy="34.370299620324616" r="8.324223518371582"><stop offset="0.0" stop-color="#dddddd"></stop><stop offset="1.0" stop-color="#919191"></stop></radialGradient></defs><path fill="url(#g2721e673cf_0_127.5)" d="m628.4654 270.41885l0 0c0 -4.331909 29.17981 -7.843628 65.17499 -7.843628c35.995117 0 65.17499 3.5117188 65.17499 7.843628l0 31.37442c0 4.331909 -29.17987 7.8435974 -65.17499 7.8435974c-35.99518 0 -65.17499 -3.5116882 -65.17499 -7.8435974z" fill-rule="evenodd"></path><path fill="#000000" fill-opacity="0.0" d="m758.81537 270.41885l0 0c0 4.331909 -29.17987 7.8435974 -65.17499 7.8435974c-35.99518 0 -65.17499 -3.5116882 -65.17499 -7.8435974" fill-rule="evenodd"></path><path fill="#000000" fill-opacity="0.0" d="m628.4654 270.41885l0 0c0 -4.331909 29.17981 -7.843628 65.17499 -7.843628c35.995117 0 65.17499 3.5117188 65.17499 7.843628l0 31.37442c0 4.331909 -29.17987 7.8435974 -65.17499 7.8435974c-35.99518 0 -65.17499 -3.5116882 -65.17499 -7.8435974z" fill-rule="evenodd"></path><path stroke="#595959" stroke-width="4.0" stroke-linejoin="round" stroke-linecap="butt" d="m758.81537 270.41885l0 0c0 4.331909 -29.17987 7.8435974 -65.17499 7.8435974c-35.99518 0 -65.17499 -3.5116882 -65.17499 -7.8435974" fill-rule="evenodd"></path><path stroke="#595959" stroke-width="4.0" stroke-linejoin="round" stroke-linecap="butt" d="m628.4654 270.41885l0 0c0 -4.331909 29.17981 -7.843628 65.17499 -7.843628c35.995117 0 65.17499 3.5117188 65.17499 7.843628l0 31.37442c0 4.331909 -29.17987 7.8435974 -65.17499 7.8435974c-35.99518 0 -65.17499 -3.5116882 -65.17499 -7.8435974z" fill-rule="evenodd"></path><defs><radialGradient id="g2721e673cf_0_127.6" gradientUnits="userSpaceOnUse" gradientTransform="matrix(7.934122535095037 0.0 0.0 7.934122535095037 0.0 0.0)" spreadMethod="pad" cx="87.6794981004951" cy="34.543864304169894" fx="87.6794981004951" fy="34.543864304169894" r="7.934122562408447"><stop offset="0.0" stop-color="#dcecd5"></stop><stop offset="1.0" stop-color="#93bc81"></stop></radialGradient></defs><path fill="url(#g2721e673cf_0_127.6)" d="m646.1727 268.13177l0 0c-0.97424316 -2.8066406 2.2244873 -5.585022 8.238831 -7.156189c6.0144043 -1.5711975 13.789673 -1.6596069 20.026428 -0.22775269l0 0c2.2092896 -1.631897 6.2528687 -2.758606 10.907654 -3.0393066c4.654846 -0.2807312 9.3741455 0.31750488 12.730469 1.6137695l0 0c1.882019 -1.4795837 5.5773315 -2.4736633 9.77478 -2.6295166c4.1973877 -0.15582275 8.302795 0.5486145 10.859375 1.8634033l0 0c3.4001465 -1.5683594 8.809814 -2.2286987 13.888245 -1.695282c5.07843 0.53338623 8.913452 2.164734 9.845703 4.1881104l0 0c4.1657104 0.44543457 7.635681 1.5777283 9.513367 3.10437c1.8776855 1.5266724 1.9788818 3.297882 0.2774048 4.856079l0 0c4.102051 2.092804 5.0615845 4.881439 2.52063 7.325226c-2.5410156 2.4438171 -8.200806 4.175598 -14.867249 4.549164c-0.046936035 2.293579 -3.2558594 4.398163 -8.3897705 5.5025024c-5.133911 1.1043701 -11.391235 1.0360718 -16.360046 -0.17858887c-2.116455 2.7469788 -8.073608 4.7681885 -15.297668 5.1903687c-7.224121 0.42218018 -14.420105 -0.83032227 -18.479065 -3.2163696c-4.975464 1.1760864 -10.945557 1.5148926 -16.563599 0.9399414c-5.618103 -0.57492065 -10.410828 -2.0151672 -13.297119 -3.9957886l0 0c-5.0842896 0.23321533 -10.000122 -0.79937744 -12.307739 -2.5853271c-2.3076172 -1.7859497 -1.5158081 -3.9450378 1.9824219 -5.4057617l0 0c-4.5352783 -1.0463867 -6.8494873 -3.1227722 -5.735779 -5.146393c1.1137085 -2.0236206 5.402893 -3.5359192 10.63092 -3.748291z" fill-rule="evenodd"></path><path fill="#000000" fill-opacity="0.0" d="m641.17706 277.1346l0 0c2.1402588 0.49380493 4.612732 0.71780396 7.085449 0.64193726m3.2387085 7.3493347c1.0634155 -0.048797607 2.105713 -0.15206909 3.1000366 -0.30722046m26.759216 3.3629456c-0.74786377 -0.43966675 -1.3740845 -0.90948486 -1.8678589 -1.4014282m35.645874 -0.57263184l0 0c0.38586426 -0.500824 0.6359253 -1.0162659 0.7458496 -1.5377502m24.003113 -3.7860107c0.049987793 -2.441864 -3.4880981 -4.6776733 -9.0946045 -5.7470703m21.44104 -6.1270447c-0.907959 0.83151245 -2.2940063 1.5691223 -4.0495605 2.1550293m-5.7403564 -10.115692l0 0c0.15472412 0.3357849 0.22631836 0.6766052 0.21380615 1.0177612m-23.947327 -3.510498l0 0c-0.84814453 0.39123535 -1.546936 0.8284302 -2.074585 1.2979736m-18.559753 -0.53201294l0 0c-0.45202637 0.35534668 -0.7895508 0.73135376 -1.0048218 1.1193848m-22.633667 0.30618286l0 0c1.3197021 0.30297852 2.5405884 0.66763306 3.6358643 1.0859985m-31.900757 6.2979736l0 0c0.13427734 0.38684082 0.34643555 0.7688904 0.6345215 1.1426086" fill-rule="evenodd"></path><path stroke="#595959" stroke-width="4.0" stroke-linejoin="round" stroke-linecap="butt" d="m646.1727 268.13177l0 0c-0.97424316 -2.8066406 2.2244873 -5.585022 8.238831 -7.156189c6.0144043 -1.5711975 13.789673 -1.6596069 20.026428 -0.22775269l0 0c2.2092896 -1.631897 6.2528687 -2.758606 10.907654 -3.0393066c4.654846 -0.2807312 9.3741455 0.31750488 12.730469 1.6137695l0 0c1.882019 -1.4795837 5.5773315 -2.4736633 9.77478 -2.6295166c4.1973877 -0.15582275 8.302795 0.5486145 10.859375 1.8634033l0 0c3.4001465 -1.5683594 8.809814 -2.2286987 13.888245 -1.695282c5.07843 0.53338623 8.913452 2.164734 9.845703 4.1881104l0 0c4.1657104 0.44543457 7.635681 1.5777283 9.513367 3.10437c1.8776855 1.5266724 1.9788818 3.297882 0.2774048 4.856079l0 0c4.102051 2.092804 5.0615845 4.881439 2.52063 7.325226c-2.5410156 2.4438171 -8.200806 4.175598 -14.867249 4.549164c-0.046936035 2.293579 -3.2558594 4.398163 -8.3897705 5.5025024c-5.133911 1.1043701 -11.391235 1.0360718 -16.360046 -0.17858887c-2.116455 2.7469788 -8.073608 4.7681885 -15.297668 5.1903687c-7.224121 0.42218018 -14.420105 -0.83032227 -18.479065 -3.2163696c-4.975464 1.1760864 -10.945557 1.5148926 -16.563599 0.9399414c-5.618103 -0.57492065 -10.410828 -2.0151672 -13.297119 -3.9957886l0 0c-5.0842896 0.23321533 -10.000122 -0.79937744 -12.307739 -2.5853271c-2.3076172 -1.7859497 -1.5158081 -3.9450378 1.9824219 -5.4057617l0 0c-4.5352783 -1.0463867 -6.8494873 -3.1227722 -5.735779 -5.146393c1.1137085 -2.0236206 5.402893 -3.5359192 10.63092 -3.748291z" fill-rule="evenodd"></path><path stroke="#595959" stroke-width="4.0" stroke-linejoin="round" stroke-linecap="butt" d="m641.17706 277.1346l0 0c2.1402588 0.49380493 4.612732 0.71780396 7.085449 0.64193726m3.2387085 7.3493347c1.0634155 -0.048797607 2.105713 -0.15206909 3.1000366 -0.30722046m26.759216 3.3629456c-0.74786377 -0.43966675 -1.3740845 -0.90948486 -1.8678589 -1.4014282m35.645874 -0.57263184l0 0c0.38586426 -0.500824 0.6359253 -1.0162659 0.7458496 -1.5377502m24.003113 -3.7860107c0.049987793 -2.441864 -3.4880981 -4.6776733 -9.0946045 -5.7470703m21.44104 -6.1270447c-0.907959 0.83151245 -2.2940063 1.5691223 -4.0495605 2.1550293m-5.7403564 -10.115692l0 0c0.15472412 0.3357849 0.22631836 0.6766052 0.21380615 1.0177612m-23.947327 -3.510498l0 0c-0.84814453 0.39123535 -1.546936 0.8284302 -2.074585 1.2979736m-18.559753 -0.53201294l0 0c-0.45202637 0.35534668 -0.7895508 0.73135376 -1.0048218 1.1193848m-22.633667 0.30618286l0 0c1.3197021 0.30297852 2.5405884 0.66763306 3.6358643 1.0859985m-31.900757 6.2979736l0 0c0.13427734 0.38684082 0.34643555 0.7688904 0.6345215 1.1426086" fill-rule="evenodd"></path><path fill="#000000" fill-opacity="0.0" d="m752.51086 274.49133l0 0c-8.4783325 8.840973 -30.658691 15.028717 -56.493896 15.760345c-25.835205 0.7316284 -50.416626 -4.131897 -62.609436 -12.387482l57.512634 -11.071289z" fill-rule="evenodd"></path><path fill="#000000" fill-opacity="0.0" d="m752.51086 274.49133l0 0c-8.4783325 8.840973 -30.658691 15.028717 -56.493896 15.760345c-25.835205 0.7316284 -50.416626 -4.131897 -62.609436 -12.387482" fill-rule="evenodd"></path><path stroke="#595959" stroke-width="4.0" stroke-linejoin="round" stroke-linecap="butt" d="m752.51086 274.49133l0 0c-8.4783325 8.840973 -30.658691 15.028717 -56.493896 15.760345c-25.835205 0.7316284 -50.416626 -4.131897 -62.609436 -12.387482" fill-rule="evenodd"></path><path fill="#000000" fill-opacity="0.0" d="m298.9083 274.5862l122.01575 0.72439575" fill-rule="evenodd"></path><path stroke="#0000ff" stroke-width="4.0" stroke-linejoin="round" stroke-linecap="butt" d="m298.9083 274.5862l122.01575 0.72439575" fill-rule="evenodd"></path><path fill="#000000" fill-opacity="0.0" d="m540.04236 271.9441l95.590515 2.015747" fill-rule="evenodd"></path><path stroke="#0000ff" stroke-width="4.0" stroke-linejoin="round" stroke-linecap="butt" d="m540.04236 271.9441l95.590515 2.015747" fill-rule="evenodd"></path><path fill="#000000" fill-opacity="0.0" d="m166.04729 108.53281l157.32283 0l0 93.291336l-157.32283 0z" fill-rule="evenodd"></path><path stroke="#000000" stroke-width="3.0" stroke-linejoin="round" stroke-linecap="butt" d="m166.04729 108.53281l157.32283 0l0 93.291336l-157.32283 0z" fill-rule="evenodd"></path><path fill="#000000" d="m175.01604 135.4528l5.234375 -13.59375l1.9375 0l5.5625 13.59375l-2.046875 0l-1.59375 -4.125l-5.6875 0l-1.484375 4.125l-1.921875 0zm3.921875 -5.578125l4.609375 0l-1.40625 -3.78125q-0.65625 -1.703125 -0.96875 -2.8125q-0.265625 1.3125 -0.734375 2.59375l-1.5 4.0zm16.193573 5.578125l0 -1.25q-0.9375 1.46875 -2.75 1.46875q-1.171875 0 -2.171875 -0.640625q-0.984375 -0.65625 -1.53125 -1.8125q-0.53125 -1.171875 -0.53125 -2.6875q0 -1.46875 0.484375 -2.671875q0.5 -1.203125 1.46875 -1.84375q0.984375 -0.640625 2.203125 -0.640625q0.890625 0 1.578125 0.375q0.703125 0.375 1.140625 0.984375l0 -4.875l1.65625 0l0 13.59375l-1.546875 0zm-5.28125 -4.921875q0 1.890625 0.796875 2.828125q0.8125 0.9375 1.890625 0.9375q1.09375 0 1.859375 -0.890625q0.765625 -0.890625 0.765625 -2.734375q0 -2.015625 -0.78125 -2.953125q-0.78125 -0.953125 -1.921875 -0.953125q-1.109375 0 -1.859375 0.90625q-0.75 0.90625 -0.75 2.859375zm15.656967 4.921875l0 -1.25q-0.9375 1.46875 -2.75 1.46875q-1.171875 0 -2.171875 -0.640625q-0.984375 -0.65625 -1.53125 -1.8125q-0.53125 -1.171875 -0.53125 -2.6875q0 -1.46875 0.484375 -2.671875q0.5 -1.203125 1.46875 -1.84375q0.984375 -0.640625 2.203125 -0.640625q0.890625 0 1.578125 0.375q0.703125 0.375 1.140625 0.984375l0 -4.875l1.65625 0l0 13.59375l-1.546875 0zm-5.28125 -4.921875q0 1.890625 0.796875 2.828125q0.8125 0.9375 1.890625 0.9375q1.09375 0 1.859375 -0.890625q0.765625 -0.890625 0.765625 -2.734375q0 -2.015625 -0.78125 -2.953125q-0.78125 -0.953125 -1.921875 -0.953125q-1.109375 0 -1.859375 0.90625q-0.75 0.90625 -0.75 2.859375zm9.281967 -6.765625l0 -1.90625l1.671875 0l0 1.90625l-1.671875 0zm0 11.6875l0 -9.859375l1.671875 0l0 9.859375l-1.671875 0zm4.129196 0l0 -9.859375l1.5 0l0 1.40625q1.09375 -1.625 3.140625 -1.625q0.890625 0 1.640625 0.328125q0.75 0.3125 1.109375 0.84375q0.375 0.515625 0.53125 1.21875q0.09375 0.46875 0.09375 1.625l0 6.0625l-1.671875 0l0 -6.0q0 -1.015625 -0.203125 -1.515625q-0.1875 -0.515625 -0.6875 -0.8125q-0.5 -0.296875 -1.171875 -0.296875q-1.0625 0 -1.84375 0.671875q-0.765625 0.671875 -0.765625 2.578125l0 5.375l-1.671875 0zm10.078842 0.8125l1.609375 0.25q0.109375 0.75 0.578125 1.09375q0.609375 0.453125 1.6875 0.453125q1.171875 0 1.796875 -0.46875q0.625 -0.453125 0.859375 -1.28125q0.125 -0.515625 0.109375 -2.15625q-1.09375 1.296875 -2.71875 1.296875q-2.03125 0 -3.15625 -1.46875q-1.109375 -1.46875 -1.109375 -3.515625q0 -1.40625 0.515625 -2.59375q0.515625 -1.203125 1.484375 -1.84375q0.96875 -0.65625 2.265625 -0.65625q1.75 0 2.875 1.40625l0 -1.1875l1.546875 0l0 8.515625q0 2.3125 -0.46875 3.265625q-0.46875 0.96875 -1.484375 1.515625q-1.015625 0.5625 -2.5 0.5625q-1.765625 0 -2.859375 -0.796875q-1.078125 -0.796875 -1.03125 -2.390625zm1.375 -5.921875q0 1.953125 0.765625 2.84375q0.78125 0.890625 1.9375 0.890625q1.140625 0 1.921875 -0.890625q0.78125 -0.890625 0.78125 -2.78125q0 -1.8125 -0.8125 -2.71875q-0.796875 -0.921875 -1.921875 -0.921875q-1.109375 0 -1.890625 0.90625q-0.78125 0.890625 -0.78125 2.671875zm14.887146 5.109375l0 -8.546875l-1.484375 0l0 -1.3125l1.484375 0l0 -1.046875q0 -0.984375 0.171875 -1.46875q0.234375 -0.65625 0.84375 -1.046875q0.609375 -0.40625 1.703125 -0.40625q0.703125 0 1.5625 0.15625l-0.25 1.46875q-0.515625 -0.09375 -0.984375 -0.09375q-0.765625 0 -1.078125 0.328125q-0.3125 0.3125 -0.3125 1.203125l0 0.90625l1.921875 0l0 1.3125l-1.921875 0l0 8.546875l-1.65625 0zm4.792679 -11.6875l0 -1.90625l1.671875 0l0 1.90625l-1.671875 0zm0 11.6875l0 -9.859375l1.671875 0l0 9.859375l-1.671875 0zm4.097946 0l0 -13.59375l1.671875 0l0 13.59375l-1.671875 0zm10.926071 -3.171875l1.71875 0.21875q-0.40625 1.5 -1.515625 2.34375q-1.09375 0.828125 -2.8125 0.828125q-2.15625 0 -3.421875 -1.328125q-1.265625 -1.328125 -1.265625 -3.734375q0 -2.484375 1.265625 -3.859375q1.28125 -1.375 3.328125 -1.375q1.984375 0 3.234375 1.34375q1.25 1.34375 1.25 3.796875q0 0.140625 -0.015625 0.4375l-7.34375 0q0.09375 1.625 0.921875 2.484375q0.828125 0.859375 2.0625 0.859375q0.90625 0 1.546875 -0.46875q0.65625 -0.484375 1.046875 -1.546875zm-5.484375 -2.703125l5.5 0q-0.109375 -1.234375 -0.625 -1.859375q-0.796875 -0.96875 -2.078125 -0.96875q-1.140625 0 -1.9375 0.78125q-0.78125 0.765625 -0.859375 2.046875zm8.438232 2.9375l1.65625 -0.265625q0.140625 1.0 0.765625 1.53125q0.640625 0.515625 1.78125 0.515625q1.15625 0 1.703125 -0.46875q0.5625 -0.46875 0.5625 -1.09375q0 -0.5625 -0.484375 -0.890625q-0.34375 -0.21875 -1.703125 -0.5625q-1.84375 -0.46875 -2.5625 -0.796875q-0.703125 -0.34375 -1.078125 -0.9375q-0.359375 -0.609375 -0.359375 -1.328125q0 -0.65625 0.296875 -1.21875q0.3125 -0.5625 0.828125 -0.9375q0.390625 -0.28125 1.0625 -0.484375q0.671875 -0.203125 1.4375 -0.203125q1.171875 0 2.046875 0.34375q0.875 0.328125 1.28125 0.90625q0.421875 0.5625 0.578125 1.515625l-1.625 0.21875q-0.109375 -0.75 -0.65625 -1.171875q-0.53125 -0.4375 -1.5 -0.4375q-1.15625 0 -1.640625 0.390625q-0.484375 0.375 -0.484375 0.875q0 0.328125 0.203125 0.59375q0.203125 0.265625 0.640625 0.4375q0.25 0.09375 1.46875 0.4375q1.765625 0.46875 2.46875 0.765625q0.703125 0.296875 1.09375 0.875q0.40625 0.578125 0.40625 1.4375q0 0.828125 -0.484375 1.578125q-0.484375 0.734375 -1.40625 1.140625q-0.921875 0.390625 -2.078125 0.390625q-1.921875 0 -2.9375 -0.796875q-1.0 -0.796875 -1.28125 -2.359375z" fill-rule="nonzero"></path><path fill="#000000" d="m176.34416 157.4528l0 -13.59375l2.75 0l0 13.59375l-2.75 0zm14.214554 0l-2.609375 0l0 -5.03125q0 -1.59375 -0.171875 -2.0625q-0.15625 -0.46875 -0.53125 -0.71875q-0.375 -0.265625 -0.90625 -0.265625q-0.6875 0 -1.234375 0.375q-0.53125 0.359375 -0.734375 0.984375q-0.1875 0.609375 -0.1875 2.25l0 4.46875l-2.609375 0l0 -9.859375l2.421875 0l0 1.453125q1.296875 -1.671875 3.25 -1.671875q0.859375 0 1.578125 0.3125q0.71875 0.3125 1.078125 0.796875q0.359375 0.484375 0.5 1.09375q0.15625 0.609375 0.15625 1.75l0 6.125zm2.1928558 0.65625l2.96875 0.359375q0.078125 0.515625 0.34375 0.703125q0.375 0.28125 1.171875 0.28125q1.03125 0 1.53125 -0.296875q0.34375 -0.203125 0.515625 -0.65625q0.125 -0.328125 0.125 -1.203125l0 -1.4375q-1.171875 1.59375 -2.953125 1.59375q-1.984375 0 -3.140625 -1.671875q-0.90625 -1.328125 -0.90625 -3.3125q0 -2.46875 1.1875 -3.78125q1.1875 -1.3125 2.96875 -1.3125q1.828125 0 3.015625 1.609375l0 -1.390625l2.4375 0l0 8.84375q0 1.75 -0.296875 2.609375q-0.28125 0.859375 -0.796875 1.34375q-0.515625 0.5 -1.390625 0.78125q-0.859375 0.28125 -2.1875 0.28125q-2.515625 0 -3.5625 -0.859375q-1.046875 -0.859375 -1.046875 -2.171875q0 -0.140625 0.015625 -0.3125zm2.328125 -5.78125q0 1.5625 0.609375 2.296875q0.609375 0.71875 1.5 0.71875q0.953125 0 1.609375 -0.734375q0.65625 -0.75 0.65625 -2.21875q0 -1.53125 -0.640625 -2.265625q-0.625 -0.75 -1.578125 -0.75q-0.9375 0 -1.546875 0.734375q-0.609375 0.71875 -0.609375 2.21875zm11.802231 5.125l-2.609375 0l0 -9.859375l2.421875 0l0 1.40625q0.625 -0.984375 1.109375 -1.296875q0.5 -0.328125 1.140625 -0.328125q0.890625 0 1.71875 0.5l-0.8125 2.265625q-0.65625 -0.421875 -1.21875 -0.421875q-0.546875 0 -0.9375 0.296875q-0.375 0.296875 -0.59375 1.09375q-0.21875 0.78125 -0.21875 3.296875l0 3.046875zm10.463394 -3.140625l2.609375 0.4375q-0.5 1.4375 -1.59375 2.1875q-1.078125 0.734375 -2.703125 0.734375q-2.5625 0 -3.796875 -1.671875q-0.96875 -1.34375 -0.96875 -3.40625q0 -2.4375 1.265625 -3.828125q1.28125 -1.390625 3.25 -1.390625q2.1875 0 3.453125 1.453125q1.28125 1.453125 1.234375 4.453125l-6.53125 0q0.015625 1.15625 0.625 1.8125q0.609375 0.640625 1.5 0.640625q0.609375 0 1.03125 -0.328125q0.421875 -0.34375 0.625 -1.09375zm0.15625 -2.625q-0.03125 -1.140625 -0.59375 -1.71875q-0.546875 -0.59375 -1.34375 -0.59375q-0.859375 0 -1.40625 0.625q-0.5625 0.609375 -0.546875 1.6875l3.890625 0zm13.563217 5.765625l-2.421875 0l0 -1.453125q-0.609375 0.84375 -1.4375 1.265625q-0.8125 0.40625 -1.640625 0.40625q-1.703125 0 -2.921875 -1.359375q-1.203125 -1.375 -1.203125 -3.828125q0 -2.5 1.171875 -3.796875q1.1875 -1.3125 2.984375 -1.3125q1.65625 0 2.859375 1.375l0 -4.890625l2.609375 0l0 13.59375zm-6.96875 -5.140625q0 1.578125 0.4375 2.28125q0.640625 1.015625 1.765625 1.015625q0.90625 0 1.53125 -0.765625q0.625 -0.765625 0.625 -2.28125q0 -1.703125 -0.609375 -2.4375q-0.609375 -0.75 -1.5625 -0.75q-0.9375 0 -1.5625 0.734375q-0.625 0.734375 -0.625 2.203125zm9.317856 -6.046875l0 -2.40625l2.609375 0l0 2.40625l-2.609375 0zm0 11.1875l0 -9.859375l2.609375 0l0 9.859375l-2.609375 0zm10.886429 -3.140625l2.609375 0.4375q-0.5 1.4375 -1.59375 2.1875q-1.078125 0.734375 -2.703125 0.734375q-2.5625 0 -3.796875 -1.671875q-0.96875 -1.34375 -0.96875 -3.40625q0 -2.4375 1.265625 -3.828125q1.28125 -1.390625 3.25 -1.390625q2.1875 0 3.453125 1.453125q1.28125 1.453125 1.234375 4.453125l-6.53125 0q0.015625 1.15625 0.625 1.8125q0.609375 0.640625 1.5 0.640625q0.609375 0 1.03125 -0.328125q0.421875 -0.34375 0.625 -1.09375zm0.15625 -2.625q-0.03125 -1.140625 -0.59375 -1.71875q-0.546875 -0.59375 -1.34375 -0.59375q-0.859375 0 -1.40625 0.625q-0.5625 0.609375 -0.546875 1.6875l3.890625 0zm13.485107 5.765625l-2.6093903 0l0 -5.03125q0 -1.59375 -0.171875 -2.0625q-0.15625 -0.46875 -0.53125 -0.71875q-0.375 -0.265625 -0.90625 -0.265625q-0.6875 0 -1.234375 0.375q-0.53125 0.359375 -0.734375 0.984375q-0.1875 0.609375 -0.1875 2.25l0 4.46875l-2.609375 0l0 -9.859375l2.421875 0l0 1.453125q1.296875 -1.671875 3.25 -1.671875q0.859375 0 1.5781403 0.3125q0.71875 0.3125 1.078125 0.796875q0.359375 0.484375 0.5 1.09375q0.15625 0.609375 0.15625 1.75l0 6.125zm6.9428406 -9.859375l0 2.078125l-1.78125 0l0 3.984375q0 1.203125 0.046875 1.40625q0.0625 0.1875 0.234375 0.328125q0.1875 0.125 0.453125 0.125q0.359375 0 1.046875 -0.25l0.21875 2.015625q-0.90625 0.390625 -2.0625 0.390625q-0.703125 0 -1.265625 -0.234375q-0.5625 -0.234375 -0.828125 -0.609375q-0.265625 -0.375 -0.375 -1.015625q-0.078125 -0.453125 -0.078125 -1.84375l0 -4.296875l-1.203125 0l0 -2.078125l1.203125 0l0 -1.953125l2.609375 -1.515625l0 3.46875l1.78125 0zm0.790802 7.046875l2.609375 -0.390625q0.171875 0.75 0.671875 1.15625q0.515625 0.390625 1.4375 0.390625q1.0 0 1.515625 -0.375q0.34375 -0.265625 0.34375 -0.703125q0 -0.296875 -0.1875 -0.484375q-0.1875 -0.1875 -0.875 -0.34375q-3.140625 -0.703125 -4.0 -1.265625q-1.15625 -0.796875 -1.15625 -2.21875q0 -1.28125 1.0 -2.15625q1.015625 -0.875 3.140625 -0.875q2.03125 0 3.0 0.65625q0.984375 0.65625 1.359375 1.953125l-2.453125 0.453125q-0.15625 -0.578125 -0.609375 -0.875q-0.4375 -0.3125 -1.25 -0.3125q-1.03125 0 -1.46875 0.296875q-0.296875 0.203125 -0.296875 0.515625q0 0.28125 0.25 0.484375q0.359375 0.25 2.4375 0.734375q2.078125 0.46875 2.90625 1.15625q0.828125 0.6875 0.828125 1.9375q0 1.359375 -1.140625 2.328125q-1.125 0.96875 -3.34375 0.96875q-2.015625 0 -3.1875 -0.8125q-1.171875 -0.8125 -1.53125 -2.21875zm11.281982 2.8125l0 -2.609375l2.609375 0l0 2.609375l-2.609375 0zm9.698914 -9.859375l0 2.078125l-1.78125 0l0 3.984375q0 1.203125 0.046875 1.40625q0.0625 0.1875 0.234375 0.328125q0.1875 0.125 0.453125 0.125q0.359375 0 1.046875 -0.25l0.21875 2.015625q-0.90625 0.390625 -2.0625 0.390625q-0.703125 0 -1.265625 -0.234375q-0.5625 -0.234375 -0.828125 -0.609375q-0.265625 -0.375 -0.375 -1.015625q-0.078125 -0.453125 -0.078125 -1.84375l0 -4.296875l-1.203125 0l0 -2.078125l1.203125 0l0 -1.953125l2.609375 -1.515625l0 3.46875l1.78125 0zm0.447052 9.859375l3.5625 -5.078125l-3.40625 -4.78125l3.171875 0l1.75 2.71875l1.828125 -2.71875l3.0625 0l-3.328125 4.671875l3.640625 5.1875l-3.203125 0l-2.0 -3.046875l-2.03125 3.046875l-3.046875 0zm16.141357 -9.859375l0 2.078125l-1.78125 0l0 3.984375q0 1.203125 0.046875 1.40625q0.0625 0.1875 0.234375 0.328125q0.1875 0.125 0.453125 0.125q0.359375 0 1.046875 -0.25l0.21875 2.015625q-0.90625 0.390625 -2.0625 0.390625q-0.703125 0 -1.265625 -0.234375q-0.5625 -0.234375 -0.828125 -0.609375q-0.265625 -0.375 -0.375 -1.015625q-0.078125 -0.453125 -0.078125 -1.84375l0 -4.296875l-1.203125 0l0 -2.078125l1.203125 0l0 -1.953125l2.609375 -1.515625l0 3.46875l1.78125 0z" fill-rule="nonzero"></path><path fill="#000000" d="m176.40666 168.2653l0 -2.40625l2.609375 0l0 2.40625l-2.609375 0zm0 11.1875l0 -9.859375l2.609375 0l0 9.859375l-2.609375 0zm14.152054 0l-2.609375 0l0 -5.03125q0 -1.59375 -0.171875 -2.0625q-0.15625 -0.46875 -0.53125 -0.71875q-0.375 -0.265625 -0.90625 -0.265625q-0.6875 0 -1.234375 0.375q-0.53125 0.359375 -0.734375 0.984375q-0.1875 0.609375 -0.1875 2.25l0 4.46875l-2.609375 0l0 -9.859375l2.421875 0l0 1.453125q1.296875 -1.671875 3.25 -1.671875q0.859375 0 1.578125 0.3125q0.71875 0.3125 1.078125 0.796875q0.359375 0.484375 0.5 1.09375q0.15625 0.609375 0.15625 1.75l0 6.125zm1.5209808 -2.8125l2.609375 -0.390625q0.171875 0.75 0.671875 1.15625q0.515625 0.390625 1.4375 0.390625q1.0 0 1.515625 -0.375q0.34375 -0.265625 0.34375 -0.703125q0 -0.296875 -0.1875 -0.484375q-0.1875 -0.1875 -0.875 -0.34375q-3.140625 -0.703125 -4.0 -1.265625q-1.15625 -0.796875 -1.15625 -2.21875q0 -1.28125 1.0 -2.15625q1.015625 -0.875 3.140625 -0.875q2.03125 0 3.0 0.65625q0.984375 0.65625 1.359375 1.953125l-2.453125 0.453125q-0.15625 -0.578125 -0.609375 -0.875q-0.4375 -0.3125 -1.25 -0.3125q-1.03125 0 -1.46875 0.296875q-0.296875 0.203125 -0.296875 0.515625q0 0.28125 0.25 0.484375q0.359375 0.25 2.4375 0.734375q2.078125 0.46875 2.90625 1.15625q0.828125 0.6875 0.828125 1.9375q0 1.359375 -1.140625 2.328125q-1.125 0.96875 -3.34375 0.96875q-2.015625 0 -3.1875 -0.8125q-1.171875 -0.8125 -1.53125 -2.21875zm15.797592 -7.046875l0 2.078125l-1.78125 0l0 3.984375q0 1.203125 0.046875 1.40625q0.0625 0.1875 0.234375 0.328125q0.1875 0.125 0.453125 0.125q0.359375 0 1.046875 -0.25l0.21875 2.015625q-0.90625 0.390625 -2.0625 0.390625q-0.703125 0 -1.265625 -0.234375q-0.5625 -0.234375 -0.828125 -0.609375q-0.265625 -0.375 -0.375 -1.015625q-0.078125 -0.453125 -0.078125 -1.84375l0 -4.296875l-1.203125 0l0 -2.078125l1.203125 0l0 -1.953125l2.609375 -1.515625l0 3.46875l1.78125 0zm4.197052 9.859375l-2.609375 0l0 -9.859375l2.421875 0l0 1.40625q0.625 -0.984375 1.109375 -1.296875q0.5 -0.328125 1.140625 -0.328125q0.890625 0 1.71875 0.5l-0.8125 2.265625q-0.65625 -0.421875 -1.21875 -0.421875q-0.546875 0 -0.9375 0.296875q-0.375 0.296875 -0.59375 1.09375q-0.21875 0.78125 -0.21875 3.296875l0 3.046875zm11.244644 0l0 -1.46875q-0.53125 0.78125 -1.40625 1.234375q-0.875 0.453125 -1.859375 0.453125q-0.984375 0 -1.78125 -0.4375q-0.78125 -0.4375 -1.140625 -1.21875q-0.34375 -0.796875 -0.34375 -2.1875l0 -6.234375l2.609375 0l0 4.53125q0 2.078125 0.140625 2.546875q0.140625 0.46875 0.515625 0.75q0.390625 0.265625 0.96875 0.265625q0.671875 0 1.203125 -0.359375q0.53125 -0.375 0.71875 -0.90625q0.1875 -0.546875 0.1875 -2.671875l0 -4.15625l2.609375 0l0 9.859375l-2.421875 0zm13.505356 -6.9375l-2.5625 0.46875q-0.140625 -0.78125 -0.59375 -1.171875q-0.453125 -0.390625 -1.1875 -0.390625q-0.984375 0 -1.5625 0.671875q-0.578125 0.671875 -0.578125 2.25q0 1.765625 0.578125 2.484375q0.59375 0.71875 1.59375 0.71875q0.75 0 1.21875 -0.421875q0.46875 -0.421875 0.671875 -1.453125l2.546875 0.4375q-0.390625 1.765625 -1.53125 2.671875q-1.125 0.890625 -3.03125 0.890625q-2.15625 0 -3.453125 -1.359375q-1.28125 -1.359375 -1.28125 -3.78125q0 -2.4375 1.296875 -3.796875q1.296875 -1.359375 3.484375 -1.359375q1.796875 0 2.859375 0.78125q1.0625 0.765625 1.53125 2.359375zm6.297592 -2.921875l0 2.078125l-1.78125 0l0 3.984375q0 1.203125 0.046875 1.40625q0.0625 0.1875 0.234375 0.328125q0.1875 0.125 0.453125 0.125q0.359375 0 1.046875 -0.25l0.21875 2.015625q-0.90625 0.390625 -2.0625 0.390625q-0.703125 0 -1.265625 -0.234375q-0.5625 -0.234375 -0.828125 -0.609375q-0.265625 -0.375 -0.375 -1.015625q-0.078125 -0.453125 -0.078125 -1.84375l0 -4.296875l-1.203125 0l0 -2.078125l1.203125 0l0 -1.953125l2.609375 -1.515625l0 3.46875l1.78125 0zm1.697052 -1.328125l0 -2.40625l2.609375 0l0 2.40625l-2.609375 0zm0 11.1875l0 -9.859375l2.609375 0l0 9.859375l-2.609375 0zm4.589554 -5.0625q0 -1.296875 0.640625 -2.515625q0.640625 -1.21875 1.8125 -1.859375q1.171875 -0.640625 2.609375 -0.640625q2.25 0 3.671875 1.453125q1.421875 1.453125 1.421875 3.671875q0 2.234375 -1.4375 3.703125q-1.4375 1.46875 -3.625 1.46875q-1.359375 0 -2.59375 -0.609375q-1.21875 -0.609375 -1.859375 -1.796875q-0.640625 -1.1875 -0.640625 -2.875zm2.671875 0.140625q0 1.46875 0.6875 2.25q0.703125 0.765625 1.71875 0.765625q1.015625 0 1.703125 -0.765625q0.703125 -0.78125 0.703125 -2.265625q0 -1.453125 -0.703125 -2.234375q-0.6875 -0.78125 -1.703125 -0.78125q-1.015625 0 -1.71875 0.78125q-0.6875 0.78125 -0.6875 2.25zm18.286621 4.921875l-2.609375 0l0 -5.03125q0 -1.59375 -0.171875 -2.0625q-0.15625 -0.46875 -0.53125 -0.71875q-0.375 -0.265625 -0.90625 -0.265625q-0.6875 0 -1.234375 0.375q-0.53125 0.359375 -0.734375 0.984375q-0.1875 0.609375 -0.1875 2.25l0 4.46875l-2.609375 0l0 -9.859375l2.421875 0l0 1.453125q1.296875 -1.671875 3.25 -1.671875q0.859375 0 1.578125 0.3125q0.71875 0.3125 1.078125 0.796875q0.359375 0.484375 0.5 1.09375q0.15625 0.609375 0.15625 1.75l0 6.125zm1.5209656 -2.8125l2.609375 -0.390625q0.171875 0.75 0.671875 1.15625q0.515625 0.390625 1.4375 0.390625q1.0 0 1.515625 -0.375q0.34375 -0.265625 0.34375 -0.703125q0 -0.296875 -0.1875 -0.484375q-0.1875 -0.1875 -0.875 -0.34375q-3.140625 -0.703125 -4.0 -1.265625q-1.15625 -0.796875 -1.15625 -2.21875q0 -1.28125 1.0 -2.15625q1.015625 -0.875 3.140625 -0.875q2.03125 0 3.0 0.65625q0.984375 0.65625 1.359375 1.953125l-2.453125 0.453125q-0.15625 -0.578125 -0.609375 -0.875q-0.4375 -0.3125 -1.25 -0.3125q-1.03125 0 -1.46875 0.296875q-0.296875 0.203125 -0.296875 0.515625q0 0.28125 0.25 0.484375q0.359375 0.25 2.4375 0.734375q2.078125 0.46875 2.90625 1.15625q0.828125 0.6875 0.828125 1.9375q0 1.359375 -1.140625 2.328125q-1.125 0.96875 -3.34375 0.96875q-2.015625 0 -3.1875 -0.8125q-1.171875 -0.8125 -1.53125 -2.21875zm11.281982 2.8125l0 -2.609375l2.609375 0l0 2.609375l-2.609375 0zm9.698914 -9.859375l0 2.078125l-1.78125 0l0 3.984375q0 1.203125 0.046875 1.40625q0.0625 0.1875 0.234375 0.328125q0.1875 0.125 0.453125 0.125q0.359375 0 1.046875 -0.25l0.21875 2.015625q-0.90625 0.390625 -2.0625 0.390625q-0.703125 0 -1.265625 -0.234375q-0.5625 -0.234375 -0.828125 -0.609375q-0.265625 -0.375 -0.375 -1.015625q-0.078125 -0.453125 -0.078125 -1.84375l0 -4.296875l-1.203125 0l0 -2.078125l1.203125 0l0 -1.953125l2.609375 -1.515625l0 3.46875l1.78125 0zm0.447052 9.859375l3.5625 -5.078125l-3.40625 -4.78125l3.171875 0l1.75 2.71875l1.828125 -2.71875l3.0625 0l-3.328125 4.671875l3.640625 5.1875l-3.203125 0l-2.0 -3.046875l-2.03125 3.046875l-3.046875 0zm16.141357 -9.859375l0 2.078125l-1.78125 0l0 3.984375q0 1.203125 0.046875 1.40625q0.0625 0.1875 0.234375 0.328125q0.1875 0.125 0.453125 0.125q0.359375 0 1.046875 -0.25l0.21875 2.015625q-0.90625 0.390625 -2.0625 0.390625q-0.703125 0 -1.265625 -0.234375q-0.5625 -0.234375 -0.828125 -0.609375q-0.265625 -0.375 -0.375 -1.015625q-0.078125 -0.453125 -0.078125 -1.84375l0 -4.296875l-1.203125 0l0 -2.078125l1.203125 0l0 -1.953125l2.609375 -1.515625l0 3.46875l1.78125 0z" fill-rule="nonzero"></path><path fill="#000000" fill-opacity="0.0" d="m404.5092 110.931755l148.81888 0l0 93.29134l-148.81888 0z" fill-rule="evenodd"></path><path stroke="#000000" stroke-width="3.0" stroke-linejoin="round" stroke-linecap="butt" d="m404.5092 110.931755l148.81888 0l0 93.29134l-148.81888 0z" fill-rule="evenodd"></path><path fill="#000000" d="m414.91544 137.85176l0 -13.593758l2.71875 0l3.21875 9.625008q0.4375 1.34375 0.640625 2.015625q0.234375 -0.75 0.734375 -2.1875l3.25 -9.453133l2.421875 0l0 13.593758l-1.734375 0l0 -11.390633l-3.953125 11.390633l-1.625 0l-3.9375 -11.578133l0 11.578133l-1.734375 0zm14.759552 -4.921875q0 -2.734375 1.53125 -4.0625q1.265625 -1.0937576 3.09375 -1.0937576q2.03125 0 3.3125 1.3437576q1.296875 1.328125 1.296875 3.671875q0 1.90625 -0.578125 3.0q-0.5625 1.078125 -1.65625 1.6875q-1.078125 0.59375 -2.375 0.59375q-2.0625 0 -3.34375 -1.328125q-1.28125 -1.328125 -1.28125 -3.8125zm1.71875 0q0 1.890625 0.828125 2.828125q0.828125 0.9375 2.078125 0.9375q1.25 0 2.0625 -0.9375q0.828125 -0.953125 0.828125 -2.890625q0 -1.828125 -0.828125 -2.765625q-0.828125 -0.9375 -2.0625 -0.9375q-1.25 0 -2.078125 0.9375q-0.828125 0.9375 -0.828125 2.828125zm15.672607 4.921875l0 -1.25q-0.9375 1.46875 -2.75 1.46875q-1.171875 0 -2.171875 -0.640625q-0.984375 -0.65625 -1.53125 -1.8125q-0.53125 -1.171875 -0.53125 -2.6875q0 -1.46875 0.484375 -2.671875q0.5 -1.203125 1.46875 -1.84375q0.984375 -0.6406326 2.203125 -0.6406326q0.890625 0 1.578125 0.37500763q0.703125 0.375 1.140625 0.984375l0 -4.8750076l1.65625 0l0 13.593758l-1.546875 0zm-5.28125 -4.921875q0 1.890625 0.796875 2.828125q0.8125 0.9375 1.890625 0.9375q1.09375 0 1.859375 -0.890625q0.765625 -0.890625 0.765625 -2.734375q0 -2.015625 -0.78125 -2.953125q-0.78125 -0.953125 -1.921875 -0.953125q-1.109375 0 -1.859375 0.90625q-0.75 0.90625 -0.75 2.859375zm9.281952 -6.7656326l0 -1.90625l1.671875 0l0 1.90625l-1.671875 0zm0 11.687508l0 -9.859383l1.671875 0l0 9.859383l-1.671875 0zm4.5354614 0l0 -8.546875l-1.484375 0l0 -1.3125076l1.484375 0l0 -1.046875q0 -0.984375 0.171875 -1.46875q0.234375 -0.65625 0.84375 -1.046875q0.609375 -0.40625 1.703125 -0.40625q0.703125 0 1.5625 0.15625l-0.25 1.46875q-0.515625 -0.09375 -0.984375 -0.09375q-0.765625 0 -1.078125 0.328125q-0.3125 0.3125 -0.3125 1.203125l0 0.90625l1.921875 0l0 1.3125076l-1.921875 0l0 8.546875l-1.65625 0zm4.7926636 -11.687508l0 -1.90625l1.671875 0l0 1.90625l-1.671875 0zm0 11.687508l0 -9.859383l1.671875 0l0 9.859383l-1.671875 0zm10.879211 -3.171875l1.71875 0.21875q-0.40625 1.5 -1.515625 2.34375q-1.09375 0.828125 -2.8125 0.828125q-2.15625 0 -3.421875 -1.328125q-1.265625 -1.328125 -1.265625 -3.734375q0 -2.484375 1.265625 -3.859375q1.28125 -1.3750076 3.328125 -1.3750076q1.984375 0 3.234375 1.3437576q1.25 1.34375 1.25 3.796875q0 0.140625 -0.015625 0.4375l-7.34375 0q0.09375 1.625 0.921875 2.484375q0.828125 0.859375 2.0625 0.859375q0.90625 0 1.546875 -0.46875q0.65625 -0.484375 1.046875 -1.546875zm-5.484375 -2.703125l5.5 0q-0.109375 -1.234375 -0.625 -1.859375q-0.796875 -0.96875 -2.078125 -0.96875q-1.140625 0 -1.9375 0.78125q-0.78125 0.765625 -0.859375 2.046875zm15.500702 5.875l0 -1.25q-0.9375 1.46875 -2.75 1.46875q-1.171875 0 -2.171875 -0.640625q-0.984375 -0.65625 -1.53125 -1.8125q-0.53125 -1.171875 -0.53125 -2.6875q0 -1.46875 0.484375 -2.671875q0.5 -1.203125 1.46875 -1.84375q0.984375 -0.6406326 2.203125 -0.6406326q0.890625 0 1.578125 0.37500763q0.703125 0.375 1.140625 0.984375l0 -4.8750076l1.65625 0l0 13.593758l-1.546875 0zm-5.28125 -4.921875q0 1.890625 0.796875 2.828125q0.8125 0.9375 1.890625 0.9375q1.09375 0 1.859375 -0.890625q0.765625 -0.890625 0.765625 -2.734375q0 -2.015625 -0.78125 -2.953125q-0.78125 -0.953125 -1.921875 -0.953125q-1.109375 0 -1.859375 0.90625q-0.75 0.90625 -0.75 2.859375z" fill-rule="nonzero"></path><path fill="#000000" d="m414.80606 159.85176l0 -13.59375l2.75 0l0 13.59375l-2.75 0zm14.214569 0l-2.609375 0l0 -5.03125q0 -1.59375 -0.171875 -2.0625q-0.15625 -0.46875 -0.53125 -0.71875q-0.375 -0.265625 -0.90625 -0.265625q-0.6875 0 -1.234375 0.375q-0.53125 0.359375 -0.734375 0.984375q-0.1875 0.609375 -0.1875 2.25l0 4.46875l-2.609375 0l0 -9.859375l2.421875 0l0 1.453125q1.296875 -1.671875 3.25 -1.671875q0.859375 0 1.578125 0.3125q0.71875 0.3125 1.078125 0.796875q0.359375 0.484375 0.5 1.09375q0.15625 0.609375 0.15625 1.75l0 6.125zm2.1928406 0.65625l2.96875 0.359375q0.078125 0.515625 0.34375 0.703125q0.375 0.28125 1.171875 0.28125q1.03125 0 1.53125 -0.296875q0.34375 -0.203125 0.515625 -0.65625q0.125 -0.328125 0.125 -1.203125l0 -1.4375q-1.171875 1.59375 -2.953125 1.59375q-1.984375 0 -3.140625 -1.671875q-0.90625 -1.328125 -0.90625 -3.3125q0 -2.46875 1.1875 -3.78125q1.1875 -1.3125 2.96875 -1.3125q1.828125 0 3.015625 1.609375l0 -1.390625l2.4375 0l0 8.84375q0 1.75 -0.296875 2.609375q-0.28125 0.859375 -0.796875 1.34375q-0.515625 0.5 -1.390625 0.78125q-0.859375 0.28125 -2.1875 0.28125q-2.515625 0 -3.5625 -0.859375q-1.046875 -0.859375 -1.046875 -2.171875q0 -0.140625 0.015625 -0.3125zm2.328125 -5.78125q0 1.5625 0.609375 2.296875q0.609375 0.71875 1.5 0.71875q0.953125 0 1.609375 -0.734375q0.65625 -0.75 0.65625 -2.21875q0 -1.53125 -0.640625 -2.265625q-0.625 -0.75 -1.578125 -0.75q-0.9375 0 -1.546875 0.734375q-0.609375 0.71875 -0.609375 2.21875zm11.802246 5.125l-2.609375 0l0 -9.859375l2.421875 0l0 1.40625q0.625 -0.984375 1.109375 -1.296875q0.5 -0.328125 1.140625 -0.328125q0.890625 0 1.71875 0.5l-0.8125 2.265625q-0.65625 -0.421875 -1.21875 -0.421875q-0.546875 0 -0.9375 0.296875q-0.375 0.296875 -0.59375 1.09375q-0.21875 0.78125 -0.21875 3.296875l0 3.046875zm10.463379 -3.140625l2.609375 0.4375q-0.5 1.4375 -1.59375 2.1875q-1.078125 0.734375 -2.703125 0.734375q-2.5625 0 -3.796875 -1.671875q-0.96875 -1.34375 -0.96875 -3.40625q0 -2.4375 1.265625 -3.828125q1.28125 -1.390625 3.25 -1.390625q2.1875 0 3.453125 1.453125q1.28125 1.453125 1.234375 4.453125l-6.53125 0q0.015625 1.15625 0.625 1.8125q0.609375 0.640625 1.5 0.640625q0.609375 0 1.03125 -0.328125q0.421875 -0.34375 0.625 -1.09375zm0.15625 -2.625q-0.03125 -1.140625 -0.59375 -1.71875q-0.546875 -0.59375 -1.34375 -0.59375q-0.859375 0 -1.40625 0.625q-0.5625 0.609375 -0.546875 1.6875l3.890625 0zm13.563232 5.765625l-2.421875 0l0 -1.453125q-0.609375 0.84375 -1.4375 1.265625q-0.8125 0.40625 -1.640625 0.40625q-1.703125 0 -2.921875 -1.359375q-1.203125 -1.375 -1.203125 -3.828125q0 -2.5 1.171875 -3.796875q1.1875 -1.3125 2.984375 -1.3125q1.65625 0 2.859375 1.375l0 -4.890625l2.609375 0l0 13.59375zm-6.96875 -5.140625q0 1.578125 0.4375 2.28125q0.640625 1.015625 1.765625 1.015625q0.90625 0 1.53125 -0.765625q0.625 -0.765625 0.625 -2.28125q0 -1.703125 -0.609375 -2.4375q-0.609375 -0.75 -1.5625 -0.75q-0.9375 0 -1.5625 0.734375q-0.625 0.734375 -0.625 2.203125zm9.317841 -6.046875l0 -2.40625l2.609375 0l0 2.40625l-2.609375 0zm0 11.1875l0 -9.859375l2.609375 0l0 9.859375l-2.609375 0zm10.886444 -3.140625l2.609375 0.4375q-0.5 1.4375 -1.59375 2.1875q-1.078125 0.734375 -2.703125 0.734375q-2.5625 0 -3.796875 -1.671875q-0.96875 -1.34375 -0.96875 -3.40625q0 -2.4375 1.265625 -3.828125q1.28125 -1.390625 3.25 -1.390625q2.1875 0 3.453125 1.453125q1.28125 1.453125 1.234375 4.453125l-6.53125 0q0.015625 1.15625 0.625 1.8125q0.609375 0.640625 1.5 0.640625q0.609375 0 1.03125 -0.328125q0.421875 -0.34375 0.625 -1.09375zm0.15625 -2.625q-0.03125 -1.140625 -0.59375 -1.71875q-0.546875 -0.59375 -1.34375 -0.59375q-0.859375 0 -1.40625 0.625q-0.5625 0.609375 -0.546875 1.6875l3.890625 0zm13.485077 5.765625l-2.609375 0l0 -5.03125q0 -1.59375 -0.171875 -2.0625q-0.15625 -0.46875 -0.53125 -0.71875q-0.375 -0.265625 -0.90625 -0.265625q-0.6875 0 -1.234375 0.375q-0.53125 0.359375 -0.734375 0.984375q-0.1875 0.609375 -0.1875 2.25l0 4.46875l-2.609375 0l0 -9.859375l2.421875 0l0 1.453125q1.296875 -1.671875 3.25 -1.671875q0.859375 0 1.578125 0.3125q0.71875 0.3125 1.078125 0.796875q0.359375 0.484375 0.5 1.09375q0.15625 0.609375 0.15625 1.75l0 6.125zm6.942871 -9.859375l0 2.078125l-1.78125 0l0 3.984375q0 1.203125 0.046875 1.40625q0.0625 0.1875 0.234375 0.328125q0.1875 0.125 0.453125 0.125q0.359375 0 1.046875 -0.25l0.21875 2.015625q-0.90625 0.390625 -2.0625 0.390625q-0.703125 0 -1.265625 -0.234375q-0.5625 -0.234375 -0.828125 -0.609375q-0.265625 -0.375 -0.375 -1.015625q-0.078125 -0.453125 -0.078125 -1.84375l0 -4.296875l-1.203125 0l0 -2.078125l1.203125 0l0 -1.953125l2.609375 -1.515625l0 3.46875l1.78125 0zm0.790802 7.046875l2.609375 -0.390625q0.171875 0.75 0.671875 1.15625q0.515625 0.390625 1.4375 0.390625q1.0 0 1.515625 -0.375q0.34375 -0.265625 0.34375 -0.703125q0 -0.296875 -0.1875 -0.484375q-0.1875 -0.1875 -0.875 -0.34375q-3.140625 -0.703125 -4.0 -1.265625q-1.15625 -0.796875 -1.15625 -2.21875q0 -1.28125 1.0 -2.15625q1.015625 -0.875 3.140625 -0.875q2.03125 0 3.0 0.65625q0.9843445 0.65625 1.3593445 1.953125l-2.4530945 0.453125q-0.15625 -0.578125 -0.609375 -0.875q-0.4375 -0.3125 -1.25 -0.3125q-1.03125 0 -1.46875 0.296875q-0.296875 0.203125 -0.296875 0.515625q0 0.28125 0.25 0.484375q0.359375 0.25 2.4375 0.734375q2.078125 0.46875 2.9062195 1.15625q0.828125 0.6875 0.828125 1.9375q0 1.359375 -1.140625 2.328125q-1.1249695 0.96875 -3.3437195 0.96875q-2.015625 0 -3.1875 -0.8125q-1.171875 -0.8125 -1.53125 -2.21875zm11.281952 2.8125l0 -2.609375l2.609375 0l0 2.609375l-2.609375 0zm9.698914 -9.859375l0 2.078125l-1.78125 0l0 3.984375q0 1.203125 0.046875 1.40625q0.0625 0.1875 0.234375 0.328125q0.1875 0.125 0.453125 0.125q0.359375 0 1.046875 -0.25l0.21875 2.015625q-0.90625 0.390625 -2.0625 0.390625q-0.703125 0 -1.265625 -0.234375q-0.5625 -0.234375 -0.828125 -0.609375q-0.265625 -0.375 -0.375 -1.015625q-0.078125 -0.453125 -0.078125 -1.84375l0 -4.296875l-1.203125 0l0 -2.078125l1.203125 0l0 -1.953125l2.609375 -1.515625l0 3.46875l1.78125 0zm0.44708252 9.859375l3.5625 -5.078125l-3.40625 -4.78125l3.171875 0l1.75 2.71875l1.828125 -2.71875l3.0625 0l-3.328125 4.671875l3.640625 5.1875l-3.203125 0l-2.0 -3.046875l-2.03125 3.046875l-3.046875 0zm16.141357 -9.859375l0 2.078125l-1.78125 0l0 3.984375q0 1.203125 0.046875 1.40625q0.0625 0.1875 0.234375 0.328125q0.1875 0.125 0.453125 0.125q0.359375 0 1.046875 -0.25l0.21875 2.015625q-0.90625 0.390625 -2.0625 0.390625q-0.703125 0 -1.265625 -0.234375q-0.5625 -0.234375 -0.828125 -0.609375q-0.265625 -0.375 -0.375 -1.015625q-0.078125 -0.453125 -0.078125 -1.84375l0 -4.296875l-1.203125 0l0 -2.078125l1.203125 0l0 -1.953125l2.609375 -1.515625l0 3.46875l1.78125 0z" fill-rule="nonzero"></path><path fill="#000000" d="m418.41544 180.35176l0.234375 1.484375q-0.703125 0.140625 -1.265625 0.140625q-0.90625 0 -1.40625 -0.28125q-0.5 -0.296875 -0.703125 -0.75q-0.203125 -0.46875 -0.203125 -1.984375l0 -5.65625l-1.234375 0l0 -1.3125l1.234375 0l0 -2.4375l1.65625 -1.0l0 3.4375l1.6875 0l0 1.3125l-1.6875 0l0 5.75q0 0.71875 0.078125 0.921875q0.09375 0.203125 0.296875 0.328125q0.203125 0.125 0.578125 0.125q0.265625 0 0.734375 -0.078125zm0.9020691 -3.421875q0 -2.734375 1.53125 -4.0625q1.265625 -1.09375 3.09375 -1.09375q2.03125 0 3.3125 1.34375q1.296875 1.328125 1.296875 3.671875q0 1.90625 -0.578125 3.0q-0.5625 1.078125 -1.65625 1.6875q-1.078125 0.59375 -2.375 0.59375q-2.0625 0 -3.34375 -1.328125q-1.28125 -1.328125 -1.28125 -3.8125zm1.71875 0q0 1.890625 0.828125 2.828125q0.828125 0.9375 2.078125 0.9375q1.25 0 2.0625 -0.9375q0.828125 -0.953125 0.828125 -2.890625q0 -1.828125 -0.828125 -2.765625q-0.828125 -0.9375 -2.0625 -0.9375q-1.25 0 -2.078125 0.9375q-0.828125 0.9375 -0.828125 2.828125zm20.902771 3.703125q-0.9375 0.796875 -1.796875 1.125q-0.859375 0.3125 -1.84375 0.3125q-1.609375 0 -2.484375 -0.78125q-0.875 -0.796875 -0.875 -2.03125q0 -0.734375 0.328125 -1.328125q0.328125 -0.59375 0.859375 -0.953125q0.53125 -0.359375 1.203125 -0.546875q0.5 -0.140625 1.484375 -0.25q2.03125 -0.25 2.984375 -0.578125q0 -0.34375 0 -0.4375q0 -1.015625 -0.46875 -1.4375q-0.640625 -0.5625 -1.90625 -0.5625q-1.171875 0 -1.734375 0.40625q-0.5625 0.40625 -0.828125 1.46875l-1.640625 -0.234375q0.234375 -1.046875 0.734375 -1.6875q0.515625 -0.640625 1.46875 -0.984375q0.96875 -0.359375 2.25 -0.359375q1.265625 0 2.046875 0.296875q0.78125 0.296875 1.15625 0.75q0.375 0.453125 0.515625 1.140625q0.09375 0.421875 0.09375 1.53125l0 2.234375q0 2.328125 0.09375 2.953125q0.109375 0.609375 0.4375 1.171875l-1.75 0q-0.265625 -0.515625 -0.328125 -1.21875zm-0.140625 -3.71875q-0.90625 0.359375 -2.734375 0.625q-1.03125 0.140625 -1.453125 0.328125q-0.421875 0.1875 -0.65625 0.546875q-0.234375 0.359375 -0.234375 0.796875q0 0.671875 0.5 1.125q0.515625 0.4375 1.484375 0.4375q0.96875 0 1.71875 -0.421875q0.75 -0.4375 1.109375 -1.15625q0.265625 -0.578125 0.265625 -1.671875l0 -0.609375zm10.469452 4.9375l0 -1.25q-0.9375 1.46875 -2.75 1.46875q-1.171875 0 -2.171875 -0.640625q-0.984375 -0.65625 -1.53125 -1.8125q-0.53125 -1.171875 -0.53125 -2.6875q0 -1.46875 0.484375 -2.671875q0.5 -1.203125 1.46875 -1.84375q0.984375 -0.640625 2.203125 -0.640625q0.890625 0 1.578125 0.375q0.703125 0.375 1.140625 0.984375l0 -4.875l1.65625 0l0 13.59375l-1.546875 0zm-5.28125 -4.921875q0 1.890625 0.796875 2.828125q0.8125 0.9375 1.890625 0.9375q1.09375 0 1.859375 -0.890625q0.765625 -0.890625 0.765625 -2.734375q0 -2.015625 -0.78125 -2.953125q-0.78125 -0.953125 -1.921875 -0.953125q-1.109375 0 -1.859375 0.90625q-0.75 0.90625 -0.75 2.859375zm15.656982 4.921875l0 -1.25q-0.9375 1.46875 -2.75 1.46875q-1.171875 0 -2.171875 -0.640625q-0.984375 -0.65625 -1.53125 -1.8125q-0.53125 -1.171875 -0.53125 -2.6875q0 -1.46875 0.484375 -2.671875q0.5 -1.203125 1.46875 -1.84375q0.984375 -0.640625 2.203125 -0.640625q0.890625 0 1.578125 0.375q0.703125 0.375 1.140625 0.984375l0 -4.875l1.65625 0l0 13.59375l-1.546875 0zm-5.28125 -4.921875q0 1.890625 0.796875 2.828125q0.8125 0.9375 1.890625 0.9375q1.09375 0 1.859375 -0.890625q0.765625 -0.890625 0.765625 -2.734375q0 -2.015625 -0.78125 -2.953125q-0.78125 -0.953125 -1.921875 -0.953125q-1.109375 0 -1.859375 0.90625q-0.75 0.90625 -0.75 2.859375zm13.824646 0q0 -2.734375 1.53125 -4.0625q1.265625 -1.09375 3.09375 -1.09375q2.03125 0 3.3125 1.34375q1.296875 1.328125 1.296875 3.671875q0 1.90625 -0.578125 3.0q-0.5625 1.078125 -1.65625 1.6875q-1.078125 0.59375 -2.375 0.59375q-2.0625 0 -3.34375 -1.328125q-1.28125 -1.328125 -1.28125 -3.8125zm1.71875 0q0 1.890625 0.828125 2.828125q0.828125 0.9375 2.078125 0.9375q1.25 0 2.0625 -0.9375q0.828125 -0.953125 0.828125 -2.890625q0 -1.828125 -0.828125 -2.765625q-0.828125 -0.9375 -2.0625 -0.9375q-1.25 0 -2.078125 0.9375q-0.828125 0.9375 -0.828125 2.828125zm9.281952 4.921875l0 -9.859375l1.5 0l0 1.40625q1.09375 -1.625 3.140625 -1.625q0.890625 0 1.640625 0.328125q0.75 0.3125 1.109375 0.84375q0.375 0.515625 0.53125 1.21875q0.09375 0.46875 0.09375 1.625l0 6.0625l-1.671875 0l0 -6.0q0 -1.015625 -0.203125 -1.515625q-0.1875 -0.515625 -0.6875 -0.8125q-0.5 -0.296875 -1.171875 -0.296875q-1.0625 0 -1.84375 0.671875q-0.765625 0.671875 -0.765625 2.578125l0 5.375l-1.671875 0zm10.391357 -11.6875l0 -1.90625l1.671875 0l0 1.90625l-1.671875 0zm0 11.6875l0 -9.859375l1.671875 0l0 9.859375l-1.671875 0zm3.504181 -4.921875q0 -2.734375 1.53125 -4.0625q1.265625 -1.09375 3.09375 -1.09375q2.03125 0 3.3125 1.34375q1.296875 1.328125 1.296875 3.671875q0 1.90625 -0.578125 3.0q-0.5625 1.078125 -1.65625 1.6875q-1.078125 0.59375 -2.375 0.59375q-2.0625 0 -3.34375 -1.328125q-1.28125 -1.328125 -1.28125 -3.8125zm1.71875 0q0 1.890625 0.828125 2.828125q0.828125 0.9375 2.078125 0.9375q1.25 0 2.0625 -0.9375q0.828125 -0.953125 0.828125 -2.890625q0 -1.828125 -0.828125 -2.765625q-0.828125 -0.9375 -2.0625 -0.9375q-1.25 0 -2.078125 0.9375q-0.828125 0.9375 -0.828125 2.828125zm9.281982 4.921875l0 -9.859375l1.5 0l0 1.40625q1.09375 -1.625 3.140625 -1.625q0.8905945 0 1.6405945 0.328125q0.75 0.3125 1.109375 0.84375q0.375 0.515625 0.53125 1.21875q0.09375 0.46875 0.09375 1.625l0 6.0625l-1.671875 0l0 -6.0q0 -1.015625 -0.203125 -1.515625q-0.1875 -0.515625 -0.6875 -0.8125q-0.5 -0.296875 -1.1718445 -0.296875q-1.0625 0 -1.84375 0.671875q-0.765625 0.671875 -0.765625 2.578125l0 5.375l-1.671875 0z" fill-rule="nonzero"></path><path fill="#000000" fill-opacity="0.0" d="m609.77954 111.24672l157.32281 0l0 93.291336l-157.32281 0z" fill-rule="evenodd"></path><path stroke="#000000" stroke-width="3.0" stroke-linejoin="round" stroke-linecap="butt" d="m609.77954 111.24672l157.32281 0l0 93.291336l-157.32281 0z" fill-rule="evenodd"></path><path fill="#000000" d="m620.1858 138.16672l0 -13.59375l2.71875 0l3.21875 9.625q0.4375 1.34375 0.640625 2.015625q0.234375 -0.75 0.734375 -2.1875l3.25 -9.453125l2.421875 0l0 13.59375l-1.734375 0l0 -11.390625l-3.953125 11.390625l-1.625 0l-3.9375 -11.578125l0 11.578125l-1.734375 0zm14.7595215 -4.921875q0 -2.734375 1.53125 -4.0625q1.265625 -1.09375 3.09375 -1.09375q2.03125 0 3.3125 1.34375q1.296875 1.328125 1.296875 3.671875q0 1.90625 -0.578125 3.0q-0.5625 1.078125 -1.65625 1.6875q-1.078125 0.59375 -2.375 0.59375q-2.0625 0 -3.34375 -1.328125q-1.28125 -1.328125 -1.28125 -3.8125zm1.71875 0q0 1.890625 0.828125 2.828125q0.828125 0.9375 2.078125 0.9375q1.25 0 2.0625 -0.9375q0.828125 -0.953125 0.828125 -2.890625q0 -1.828125 -0.828125 -2.765625q-0.828125 -0.9375 -2.0625 -0.9375q-1.25 0 -2.078125 0.9375q-0.828125 0.9375 -0.828125 2.828125zm15.672607 4.921875l0 -1.25q-0.9375 1.46875 -2.75 1.46875q-1.171875 0 -2.171875 -0.640625q-0.984375 -0.65625 -1.53125 -1.8125q-0.53125 -1.171875 -0.53125 -2.6875q0 -1.46875 0.484375 -2.671875q0.5 -1.203125 1.46875 -1.84375q0.984375 -0.640625 2.203125 -0.640625q0.890625 0 1.578125 0.375q0.703125 0.375 1.140625 0.984375l0 -4.875l1.65625 0l0 13.59375l-1.546875 0zm-5.28125 -4.921875q0 1.890625 0.796875 2.828125q0.8125 0.9375 1.890625 0.9375q1.09375 0 1.859375 -0.890625q0.765625 -0.890625 0.765625 -2.734375q0 -2.015625 -0.78125 -2.953125q-0.78125 -0.953125 -1.921875 -0.953125q-1.109375 0 -1.859375 0.90625q-0.75 0.90625 -0.75 2.859375zm9.281982 -6.765625l0 -1.90625l1.671875 0l0 1.90625l-1.671875 0zm0 11.6875l0 -9.859375l1.671875 0l0 9.859375l-1.671875 0zm4.5354614 0l0 -8.546875l-1.484375 0l0 -1.3125l1.484375 0l0 -1.046875q0 -0.984375 0.171875 -1.46875q0.234375 -0.65625 0.84375 -1.046875q0.609375 -0.40625 1.703125 -0.40625q0.703125 0 1.5625 0.15625l-0.25 1.46875q-0.515625 -0.09375 -0.984375 -0.09375q-0.765625 0 -1.078125 0.328125q-0.3125 0.3125 -0.3125 1.203125l0 0.90625l1.921875 0l0 1.3125l-1.921875 0l0 8.546875l-1.65625 0zm4.7926636 -11.6875l0 -1.90625l1.671875 0l0 1.90625l-1.671875 0zm0 11.6875l0 -9.859375l1.671875 0l0 9.859375l-1.671875 0zm10.879211 -3.171875l1.71875 0.21875q-0.40625 1.5 -1.515625 2.34375q-1.09375 0.828125 -2.8125 0.828125q-2.15625 0 -3.421875 -1.328125q-1.265625 -1.328125 -1.265625 -3.734375q0 -2.484375 1.265625 -3.859375q1.28125 -1.375 3.328125 -1.375q1.984375 0 3.234375 1.34375q1.25 1.34375 1.25 3.796875q0 0.140625 -0.015625 0.4375l-7.34375 0q0.09375 1.625 0.921875 2.484375q0.828125 0.859375 2.0625 0.859375q0.90625 0 1.546875 -0.46875q0.65625 -0.484375 1.046875 -1.546875zm-5.484375 -2.703125l5.5 0q-0.109375 -1.234375 -0.625 -1.859375q-0.796875 -0.96875 -2.078125 -0.96875q-1.140625 0 -1.9375 0.78125q-0.78125 0.765625 -0.859375 2.046875zm15.500671 5.875l0 -1.25q-0.9375 1.46875 -2.75 1.46875q-1.171875 0 -2.171875 -0.640625q-0.984375 -0.65625 -1.53125 -1.8125q-0.53125 -1.171875 -0.53125 -2.6875q0 -1.46875 0.484375 -2.671875q0.5 -1.203125 1.46875 -1.84375q0.984375 -0.640625 2.203125 -0.640625q0.890625 0 1.578125 0.375q0.703125 0.375 1.140625 0.984375l0 -4.875l1.65625 0l0 13.59375l-1.546875 0zm-5.28125 -4.921875q0 1.890625 0.796875 2.828125q0.8125 0.9375 1.890625 0.9375q1.09375 0 1.859375 -0.890625q0.765625 -0.890625 0.765625 -2.734375q0 -2.015625 -0.78125 -2.953125q-0.78125 -0.953125 -1.921875 -0.953125q-1.109375 0 -1.859375 0.90625q-0.75 0.90625 -0.75 2.859375z" fill-rule="nonzero"></path><path fill="#000000" d="m620.1389 148.97922l0 -2.40625l2.609375 0l0 2.40625l-2.609375 0zm0 11.1875l0 -9.859375l2.609375 0l0 9.859375l-2.609375 0zm14.152039 0l-2.609375 0l0 -5.03125q0 -1.59375 -0.171875 -2.0625q-0.15625 -0.46875 -0.53125 -0.71875q-0.375 -0.265625 -0.90625 -0.265625q-0.6875 0 -1.234375 0.375q-0.53125 0.359375 -0.734375 0.984375q-0.1875 0.609375 -0.1875 2.25l0 4.46875l-2.609375 0l0 -9.859375l2.421875 0l0 1.453125q1.296875 -1.671875 3.25 -1.671875q0.859375 0 1.578125 0.3125q0.71875 0.3125 1.078125 0.796875q0.359375 0.484375 0.5 1.09375q0.15625 0.609375 0.15625 1.75l0 6.125zm1.5209961 -2.8125l2.609375 -0.390625q0.171875 0.75 0.671875 1.15625q0.515625 0.390625 1.4375 0.390625q1.0 0 1.515625 -0.375q0.34375 -0.265625 0.34375 -0.703125q0 -0.296875 -0.1875 -0.484375q-0.1875 -0.1875 -0.875 -0.34375q-3.140625 -0.703125 -4.0 -1.265625q-1.15625 -0.796875 -1.15625 -2.21875q0 -1.28125 1.0 -2.15625q1.015625 -0.875 3.140625 -0.875q2.03125 0 3.0 0.65625q0.984375 0.65625 1.359375 1.953125l-2.453125 0.453125q-0.15625 -0.578125 -0.609375 -0.875q-0.4375 -0.3125 -1.25 -0.3125q-1.03125 0 -1.46875 0.296875q-0.296875 0.203125 -0.296875 0.515625q0 0.28125 0.25 0.484375q0.359375 0.25 2.4375 0.734375q2.078125 0.46875 2.90625 1.15625q0.828125 0.6875 0.828125 1.9375q0 1.359375 -1.140625 2.328125q-1.125 0.96875 -3.34375 0.96875q-2.015625 0 -3.1875 -0.8125q-1.171875 -0.8125 -1.53125 -2.21875zm15.797607 -7.046875l0 2.078125l-1.78125 0l0 3.984375q0 1.203125 0.046875 1.40625q0.0625 0.1875 0.234375 0.328125q0.1875 0.125 0.453125 0.125q0.359375 0 1.046875 -0.25l0.21875 2.015625q-0.90625 0.390625 -2.0625 0.390625q-0.703125 0 -1.265625 -0.234375q-0.5625 -0.234375 -0.828125 -0.609375q-0.265625 -0.375 -0.375 -1.015625q-0.078125 -0.453125 -0.078125 -1.84375l0 -4.296875l-1.203125 0l0 -2.078125l1.203125 0l0 -1.953125l2.609375 -1.515625l0 3.46875l1.78125 0zm4.1970215 9.859375l-2.609375 0l0 -9.859375l2.421875 0l0 1.40625q0.625 -0.984375 1.109375 -1.296875q0.5 -0.328125 1.140625 -0.328125q0.890625 0 1.71875 0.5l-0.8125 2.265625q-0.65625 -0.421875 -1.21875 -0.421875q-0.546875 0 -0.9375 0.296875q-0.375 0.296875 -0.59375 1.09375q-0.21875 0.78125 -0.21875 3.296875l0 3.046875zm11.244629 0l0 -1.46875q-0.53125 0.78125 -1.40625 1.234375q-0.875 0.453125 -1.859375 0.453125q-0.984375 0 -1.78125 -0.4375q-0.78125 -0.4375 -1.140625 -1.21875q-0.34375 -0.796875 -0.34375 -2.1875l0 -6.234375l2.609375 0l0 4.53125q0 2.078125 0.140625 2.546875q0.140625 0.46875 0.515625 0.75q0.390625 0.265625 0.96875 0.265625q0.671875 0 1.203125 -0.359375q0.53125 -0.375 0.71875 -0.90625q0.1875 -0.546875 0.1875 -2.671875l0 -4.15625l2.609375 0l0 9.859375l-2.421875 0zm13.505371 -6.9375l-2.5625 0.46875q-0.140625 -0.78125 -0.59375 -1.171875q-0.453125 -0.390625 -1.1875 -0.390625q-0.984375 0 -1.5625 0.671875q-0.578125 0.671875 -0.578125 2.25q0 1.765625 0.578125 2.484375q0.59375 0.71875 1.59375 0.71875q0.75 0 1.21875 -0.421875q0.46875 -0.421875 0.671875 -1.453125l2.546875 0.4375q-0.390625 1.765625 -1.53125 2.671875q-1.125 0.890625 -3.03125 0.890625q-2.15625 0 -3.453125 -1.359375q-1.28125 -1.359375 -1.28125 -3.78125q0 -2.4375 1.296875 -3.796875q1.296875 -1.359375 3.484375 -1.359375q1.796875 0 2.859375 0.78125q1.0625 0.765625 1.53125 2.359375zm6.2976074 -2.921875l0 2.078125l-1.78125 0l0 3.984375q0 1.203125 0.046875 1.40625q0.0625 0.1875 0.234375 0.328125q0.1875 0.125 0.453125 0.125q0.359375 0 1.046875 -0.25l0.21875 2.015625q-0.90625 0.390625 -2.0625 0.390625q-0.703125 0 -1.265625 -0.234375q-0.5625 -0.234375 -0.828125 -0.609375q-0.265625 -0.375 -0.375 -1.015625q-0.078125 -0.453125 -0.078125 -1.84375l0 -4.296875l-1.203125 0l0 -2.078125l1.203125 0l0 -1.953125l2.609375 -1.515625l0 3.46875l1.78125 0zm1.6970215 -1.328125l0 -2.40625l2.609375 0l0 2.40625l-2.609375 0zm0 11.1875l0 -9.859375l2.609375 0l0 9.859375l-2.609375 0zm4.5895996 -5.0625q0 -1.296875 0.640625 -2.515625q0.640625 -1.21875 1.8125 -1.859375q1.171875 -0.640625 2.609375 -0.640625q2.25 0 3.671875 1.453125q1.421875 1.453125 1.421875 3.671875q0 2.234375 -1.4375 3.703125q-1.4375 1.46875 -3.625 1.46875q-1.359375 0 -2.59375 -0.609375q-1.21875 -0.609375 -1.859375 -1.796875q-0.640625 -1.1875 -0.640625 -2.875zm2.671875 0.140625q0 1.46875 0.6875 2.25q0.703125 0.765625 1.71875 0.765625q1.015625 0 1.703125 -0.765625q0.703125 -0.78125 0.703125 -2.265625q0 -1.453125 -0.703125 -2.234375q-0.6875 -0.78125 -1.703125 -0.78125q-1.015625 0 -1.71875 0.78125q-0.6875 0.78125 -0.6875 2.25zm18.28656 4.921875l-2.609375 0l0 -5.03125q0 -1.59375 -0.171875 -2.0625q-0.15625 -0.46875 -0.53125 -0.71875q-0.375 -0.265625 -0.90625 -0.265625q-0.6875 0 -1.234375 0.375q-0.53125 0.359375 -0.734375 0.984375q-0.1875 0.609375 -0.1875 2.25l0 4.46875l-2.609375 0l0 -9.859375l2.421875 0l0 1.453125q1.296875 -1.671875 3.25 -1.671875q0.859375 0 1.578125 0.3125q0.71875 0.3125 1.078125 0.796875q0.359375 0.484375 0.5 1.09375q0.15625 0.609375 0.15625 1.75l0 6.125zm1.5209961 -2.8125l2.609375 -0.390625q0.171875 0.75 0.671875 1.15625q0.515625 0.390625 1.4375 0.390625q1.0 0 1.515625 -0.375q0.34375 -0.265625 0.34375 -0.703125q0 -0.296875 -0.1875 -0.484375q-0.1875 -0.1875 -0.875 -0.34375q-3.140625 -0.703125 -4.0 -1.265625q-1.15625 -0.796875 -1.15625 -2.21875q0 -1.28125 1.0 -2.15625q1.015625 -0.875 3.140625 -0.875q2.03125 0 3.0 0.65625q0.984375 0.65625 1.359375 1.953125l-2.453125 0.453125q-0.15625 -0.578125 -0.609375 -0.875q-0.4375 -0.3125 -1.25 -0.3125q-1.03125 0 -1.46875 0.296875q-0.296875 0.203125 -0.296875 0.515625q0 0.28125 0.25 0.484375q0.359375 0.25 2.4375 0.734375q2.078125 0.46875 2.90625 1.15625q0.828125 0.6875 0.828125 1.9375q0 1.359375 -1.140625 2.328125q-1.125 0.96875 -3.34375 0.96875q-2.015625 0 -3.1875 -0.8125q-1.171875 -0.8125 -1.53125 -2.21875zm11.281982 2.8125l0 -2.609375l2.609375 0l0 2.609375l-2.609375 0zm9.698914 -9.859375l0 2.078125l-1.78125 0l0 3.984375q0 1.203125 0.046875 1.40625q0.0625 0.1875 0.234375 0.328125q0.1875 0.125 0.453125 0.125q0.359375 0 1.046875 -0.25l0.21875 2.015625q-0.90625 0.390625 -2.0625 0.390625q-0.703125 0 -1.265625 -0.234375q-0.5625 -0.234375 -0.828125 -0.609375q-0.265625 -0.375 -0.375 -1.015625q-0.078125 -0.453125 -0.078125 -1.84375l0 -4.296875l-1.203125 0l0 -2.078125l1.203125 0l0 -1.953125l2.609375 -1.515625l0 3.46875l1.78125 0zm0.44708252 9.859375l3.5625 -5.078125l-3.40625 -4.78125l3.171875 0l1.75 2.71875l1.828125 -2.71875l3.0625 0l-3.328125 4.671875l3.640625 5.1875l-3.203125 0l-2.0 -3.046875l-2.03125 3.046875l-3.046875 0zm16.141296 -9.859375l0 2.078125l-1.78125 0l0 3.984375q0 1.203125 0.046875 1.40625q0.0625 0.1875 0.234375 0.328125q0.1875 0.125 0.453125 0.125q0.359375 0 1.046875 -0.25l0.21875 2.015625q-0.90625 0.390625 -2.0625 0.390625q-0.703125 0 -1.265625 -0.234375q-0.5625 -0.234375 -0.828125 -0.609375q-0.265625 -0.375 -0.375 -1.015625q-0.078125 -0.453125 -0.078125 -1.84375l0 -4.296875l-1.203125 0l0 -2.078125l1.203125 0l0 -1.953125l2.609375 -1.515625l0 3.46875l1.78125 0z" fill-rule="nonzero"></path><path fill="#000000" d="m623.6858 180.66672l0.234375 1.484375q-0.703125 0.140625 -1.265625 0.140625q-0.90625 0 -1.40625 -0.28125q-0.5 -0.296875 -0.703125 -0.75q-0.203125 -0.46875 -0.203125 -1.984375l0 -5.65625l-1.234375 0l0 -1.3125l1.234375 0l0 -2.4375l1.65625 -1.0l0 3.4375l1.6875 0l0 1.3125l-1.6875 0l0 5.75q0 0.71875 0.078125 0.921875q0.09375 0.203125 0.296875 0.328125q0.203125 0.125 0.578125 0.125q0.265625 0 0.734375 -0.078125zm0.9020386 -3.421875q0 -2.734375 1.53125 -4.0625q1.265625 -1.09375 3.09375 -1.09375q2.03125 0 3.3125 1.34375q1.296875 1.328125 1.296875 3.671875q0 1.90625 -0.578125 3.0q-0.5625 1.078125 -1.65625 1.6875q-1.078125 0.59375 -2.375 0.59375q-2.0625 0 -3.34375 -1.328125q-1.28125 -1.328125 -1.28125 -3.8125zm1.71875 0q0 1.890625 0.828125 2.828125q0.828125 0.9375 2.078125 0.9375q1.25 0 2.0625 -0.9375q0.828125 -0.953125 0.828125 -2.890625q0 -1.828125 -0.828125 -2.765625q-0.828125 -0.9375 -2.0625 -0.9375q-1.25 0 -2.078125 0.9375q-0.828125 0.9375 -0.828125 2.828125zm20.902771 3.703125q-0.9375 0.796875 -1.796875 1.125q-0.859375 0.3125 -1.84375 0.3125q-1.609375 0 -2.484375 -0.78125q-0.875 -0.796875 -0.875 -2.03125q0 -0.734375 0.328125 -1.328125q0.328125 -0.59375 0.859375 -0.953125q0.53125 -0.359375 1.203125 -0.546875q0.5 -0.140625 1.484375 -0.25q2.03125 -0.25 2.984375 -0.578125q0 -0.34375 0 -0.4375q0 -1.015625 -0.46875 -1.4375q-0.640625 -0.5625 -1.90625 -0.5625q-1.171875 0 -1.734375 0.40625q-0.5625 0.40625 -0.828125 1.46875l-1.640625 -0.234375q0.234375 -1.046875 0.734375 -1.6875q0.515625 -0.640625 1.46875 -0.984375q0.96875 -0.359375 2.25 -0.359375q1.265625 0 2.046875 0.296875q0.78125 0.296875 1.15625 0.75q0.375 0.453125 0.515625 1.140625q0.09375 0.421875 0.09375 1.53125l0 2.234375q0 2.328125 0.09375 2.953125q0.109375 0.609375 0.4375 1.171875l-1.75 0q-0.265625 -0.515625 -0.328125 -1.21875zm-0.140625 -3.71875q-0.90625 0.359375 -2.734375 0.625q-1.03125 0.140625 -1.453125 0.328125q-0.421875 0.1875 -0.65625 0.546875q-0.234375 0.359375 -0.234375 0.796875q0 0.671875 0.5 1.125q0.515625 0.4375 1.484375 0.4375q0.96875 0 1.71875 -0.421875q0.75 -0.4375 1.109375 -1.15625q0.265625 -0.578125 0.265625 -1.671875l0 -0.609375zm10.469482 4.9375l0 -1.25q-0.9375 1.46875 -2.75 1.46875q-1.171875 0 -2.171875 -0.640625q-0.984375 -0.65625 -1.53125 -1.8125q-0.53125 -1.171875 -0.53125 -2.6875q0 -1.46875 0.484375 -2.671875q0.5 -1.203125 1.46875 -1.84375q0.984375 -0.640625 2.203125 -0.640625q0.890625 0 1.578125 0.375q0.703125 0.375 1.140625 0.984375l0 -4.875l1.65625 0l0 13.59375l-1.546875 0zm-5.28125 -4.921875q0 1.890625 0.796875 2.828125q0.8125 0.9375 1.890625 0.9375q1.09375 0 1.859375 -0.890625q0.765625 -0.890625 0.765625 -2.734375q0 -2.015625 -0.78125 -2.953125q-0.78125 -0.953125 -1.921875 -0.953125q-1.109375 0 -1.859375 0.90625q-0.75 0.90625 -0.75 2.859375zm15.656982 4.921875l0 -1.25q-0.9375 1.46875 -2.75 1.46875q-1.171875 0 -2.171875 -0.640625q-0.984375 -0.65625 -1.53125 -1.8125q-0.53125 -1.171875 -0.53125 -2.6875q0 -1.46875 0.484375 -2.671875q0.5 -1.203125 1.46875 -1.84375q0.984375 -0.640625 2.203125 -0.640625q0.890625 0 1.578125 0.375q0.703125 0.375 1.140625 0.984375l0 -4.875l1.65625 0l0 13.59375l-1.546875 0zm-5.28125 -4.921875q0 1.890625 0.796875 2.828125q0.8125 0.9375 1.890625 0.9375q1.09375 0 1.859375 -0.890625q0.765625 -0.890625 0.765625 -2.734375q0 -2.015625 -0.78125 -2.953125q-0.78125 -0.953125 -1.921875 -0.953125q-1.109375 0 -1.859375 0.90625q-0.75 0.90625 -0.75 2.859375zm21.199646 1.75l1.71875 0.21875q-0.40625 1.5 -1.515625 2.34375q-1.09375 0.828125 -2.8125 0.828125q-2.15625 0 -3.421875 -1.328125q-1.265625 -1.328125 -1.265625 -3.734375q0 -2.484375 1.265625 -3.859375q1.28125 -1.375 3.328125 -1.375q1.984375 0 3.234375 1.34375q1.25 1.34375 1.25 3.796875q0 0.140625 -0.015625 0.4375l-7.34375 0q0.09375 1.625 0.921875 2.484375q0.828125 0.859375 2.0625 0.859375q0.90625 0 1.546875 -0.46875q0.65625 -0.484375 1.046875 -1.546875zm-5.484375 -2.703125l5.5 0q-0.109375 -1.234375 -0.625 -1.859375q-0.796875 -0.96875 -2.078125 -0.96875q-1.140625 0 -1.9375 0.78125q-0.78125 0.765625 -0.859375 2.046875zm9.110046 5.875l0 -9.859375l1.5 0l0 1.40625q1.09375 -1.625 3.140625 -1.625q0.890625 0 1.640625 0.328125q0.75 0.3125 1.109375 0.84375q0.375 0.515625 0.53125 1.21875q0.09375 0.46875 0.09375 1.625l0 6.0625l-1.671875 0l0 -6.0q0 -1.015625 -0.203125 -1.515625q-0.1875 -0.515625 -0.6875 -0.8125q-0.5 -0.296875 -1.171875 -0.296875q-1.0625 0 -1.84375 0.671875q-0.765625 0.671875 -0.765625 2.578125l0 5.375l-1.671875 0zm10.375732 -11.65625l0 -1.9375l1.65625 0l0 1.9375l-1.65625 0zm-2.125 15.484375l0.3125 -1.421875q0.5 0.125 0.796875 0.125q0.515625 0 0.765625 -0.34375q0.25 -0.328125 0.25 -1.6875l0 -10.359375l1.65625 0l0 10.390625q0 1.828125 -0.46875 2.546875q-0.59375 0.921875 -2.0 0.921875q-0.671875 0 -1.3125 -0.171875zm5.6448364 -8.75q0 -2.734375 1.53125 -4.0625q1.265625 -1.09375 3.09375 -1.09375q2.03125 0 3.3125 1.34375q1.296875 1.328125 1.296875 3.671875q0 1.90625 -0.578125 3.0q-0.5625 1.078125 -1.65625 1.6875q-1.078125 0.59375 -2.375 0.59375q-2.0625 0 -3.34375 -1.328125q-1.28125 -1.328125 -1.28125 -3.8125zm1.71875 0q0 1.890625 0.828125 2.828125q0.828125 0.9375 2.078125 0.9375q1.25 0 2.0625 -0.9375q0.828125 -0.953125 0.828125 -2.890625q0 -1.828125 -0.828125 -2.765625q-0.828125 -0.9375 -2.0625 -0.9375q-1.25 0 -2.078125 0.9375q-0.828125 0.9375 -0.828125 2.828125zm9.203857 8.71875l-0.171875 -1.5625q0.546875 0.140625 0.953125 0.140625q0.546875 0 0.875 -0.1875q0.34375 -0.1875 0.5625 -0.515625q0.15625 -0.25 0.5 -1.25q0.046875 -0.140625 0.15625 -0.40625l-3.734375 -9.875l1.796875 0l2.046875 5.71875q0.40625 1.078125 0.71875 2.28125q0.28125 -1.15625 0.6875 -2.25l2.09375 -5.75l1.671875 0l-3.75 10.03125q-0.59375 1.625 -0.9375 2.234375q-0.4375 0.828125 -1.015625 1.203125q-0.578125 0.390625 -1.375 0.390625q-0.484375 0 -1.078125 -0.203125z" fill-rule="nonzero"></path><path fill="#000000" fill-opacity="0.0" d="m176.65092 203.05624l133.07085 0l0 37.259842l-133.07085 0z" fill-rule="evenodd"></path><path stroke="#0000ff" stroke-width="3.0" stroke-linejoin="round" stroke-linecap="butt" d="m176.65092 203.05624l133.07085 0l0 37.259842l-133.07085 0z" fill-rule="evenodd"></path><path fill="#0000ff" d="m216.94308 221.7624l-2.359375 -0.4375q0.390625 -1.421875 1.359375 -2.109375q0.984375 -0.6875 2.90625 -0.6875q1.734375 0 2.59375 0.421875q0.859375 0.40625 1.203125 1.046875q0.34375 0.625 0.34375 2.328125l-0.03125 3.046875q0 1.296875 0.125 1.921875q0.125 0.609375 0.46875 1.3125l-2.578125 0q-0.09375 -0.265625 -0.25 -0.765625q-0.0625 -0.234375 -0.09375 -0.3125q-0.65625 0.65625 -1.421875 0.984375q-0.765625 0.3125 -1.625 0.3125q-1.515625 0 -2.40625 -0.8125q-0.875 -0.828125 -0.875 -2.09375q0 -0.84375 0.390625 -1.484375q0.40625 -0.65625 1.125 -1.0q0.71875 -0.359375 2.078125 -0.625q1.828125 -0.328125 2.53125 -0.625l0 -0.265625q0 -0.75 -0.375 -1.0625q-0.359375 -0.328125 -1.390625 -0.328125q-0.703125 0 -1.09375 0.28125q-0.390625 0.265625 -0.625 0.953125zm3.484375 2.109375q-0.5 0.171875 -1.59375 0.40625q-1.078125 0.234375 -1.40625 0.453125q-0.515625 0.359375 -0.515625 0.921875q0 0.546875 0.40625 0.953125q0.40625 0.390625 1.046875 0.390625q0.703125 0 1.34375 -0.46875q0.46875 -0.359375 0.625 -0.859375q0.09375 -0.34375 0.09375 -1.28125l0 -0.515625zm4.391342 -6.265625l0 -2.421875l8.90625 0l0 1.90625q-1.09375 1.078125 -2.234375 3.109375q-1.140625 2.03125 -1.75 4.328125q-0.59375 2.28125 -0.578125 4.078125l-2.515625 0q0.0625 -2.828125 1.15625 -5.75q1.109375 -2.9375 2.9375 -5.25l-5.921875 0zm19.969482 11.0l-2.421875 0l0 -1.453125q-0.609375 0.84375 -1.4375 1.265625q-0.81251526 0.40625 -1.6406403 0.40625q-1.703125 0 -2.921875 -1.359375q-1.203125 -1.375 -1.203125 -3.828125q0 -2.5 1.171875 -3.796875q1.1875 -1.3125 2.984375 -1.3125q1.6562653 0 2.8593903 1.375l0 -4.890625l2.609375 0l0 13.59375zm-6.9687653 -5.140625q0 1.578125 0.4375 2.28125q0.640625 1.015625 1.765625 1.015625q0.90626526 0 1.5312653 -0.765625q0.625 -0.765625 0.625 -2.28125q0 -1.703125 -0.609375 -2.4375q-0.609375 -0.75 -1.5625153 -0.75q-0.9375 0 -1.5625 0.734375q-0.625 0.734375 -0.625 2.203125zm8.177246 -4.71875l1.453125 0l0 -0.734375q0 -1.25 0.265625 -1.859375q0.265625 -0.609375 0.96875 -0.984375q0.71875 -0.390625 1.796875 -0.390625q1.109375 0 2.1875 0.328125l-0.359375 1.8125q-0.625 -0.140625 -1.203125 -0.140625q-0.5625 0 -0.8125 0.265625q-0.234375 0.265625 -0.234375 1.015625l0 0.6875l1.9375 0l0 2.0625l-1.9375 0l0 7.796875l-2.609375 0l0 -7.796875l-1.453125 0l0 -2.0625zm13.056427 6.71875l2.609375 0.4375q-0.5 1.4375 -1.59375 2.1875q-1.078125 0.734375 -2.703125 0.734375q-2.5625 0 -3.796875 -1.671875q-0.96875 -1.34375 -0.96875 -3.40625q0 -2.4375 1.265625 -3.828125q1.28125 -1.390625 3.25 -1.390625q2.1875 0 3.453125 1.453125q1.28125 1.453125 1.234375 4.453125l-6.53125 0q0.015625 1.15625 0.625 1.8125q0.609375 0.640625 1.5 0.640625q0.609375 0 1.03125 -0.328125q0.421875 -0.34375 0.625 -1.09375zm0.15625 -2.625q-0.03125 -1.140625 -0.59375 -1.71875q-0.546875 -0.59375 -1.34375 -0.59375q-0.859375 0 -1.40625 0.625q-0.5625 0.609375 -0.546875 1.6875l3.890625 0zm4.000702 2.265625l2.59375 -0.265625q0.109375 0.875 0.65625 1.390625q0.546875 0.515625 1.265625 0.515625q0.8125 0 1.375 -0.65625q0.578125 -0.671875 0.578125 -2.0q0 -1.25 -0.5625 -1.875q-0.5625 -0.625 -1.46875 -0.625q-1.109375 0 -2.0 0.984375l-2.125 -0.3125l1.34375 -7.078125l6.890625 0l0 2.453125l-4.921875 0l-0.40625 2.296875q0.875 -0.421875 1.78125 -0.421875q1.734375 0 2.9375 1.265625q1.203125 1.25 1.203125 3.265625q0 1.671875 -0.96875 3.0q-1.328125 1.796875 -3.6875 1.796875q-1.875 0 -3.0625 -1.015625q-1.1875 -1.015625 -1.421875 -2.71875z" fill-rule="nonzero"></path><path fill="#000000" fill-opacity="0.0" d="m414.97113 203.4552l133.07086 0l0 37.259842l-133.07086 0z" fill-rule="evenodd"></path><path stroke="#0000ff" stroke-width="3.0" stroke-linejoin="round" stroke-linecap="butt" d="m414.97113 203.4552l133.07086 0l0 37.259842l-133.07086 0z" fill-rule="evenodd"></path><path fill="#0000ff" d="m453.4263 221.66136q-1.015625 -0.421875 -1.484375 -1.171875q-0.453125 -0.75 -0.453125 -1.640625q0 -1.515625 1.0625 -2.5q1.0625 -1.0 3.03125 -1.0q1.9375 0 3.0 1.0q1.078125 0.984375 1.078125 2.5q0 0.953125 -0.5 1.6875q-0.484375 0.734375 -1.375 1.125q1.125 0.453125 1.71875 1.328125q0.59375 0.875 0.59375 2.015625q0 1.890625 -1.203125 3.0625q-1.203125 1.171875 -3.203125 1.171875q-1.859375 0 -3.078125 -0.96875q-1.46875 -1.15625 -1.46875 -3.15625q0 -1.09375 0.546875 -2.015625q0.546875 -0.9375 1.734375 -1.4375zm0.53125 -2.625q0 0.78125 0.4375 1.21875q0.453125 0.4375 1.1875 0.4375q0.734375 0 1.171875 -0.4375q0.453125 -0.4375 0.453125 -1.21875q0 -0.734375 -0.4375 -1.171875q-0.4375 -0.453125 -1.171875 -0.453125q-0.75 0 -1.203125 0.453125q-0.4375 0.4375 -0.4375 1.171875zm-0.234375 5.828125q0 1.078125 0.546875 1.6875q0.546875 0.59375 1.375 0.59375q0.8125 0 1.34375 -0.578125q0.53125 -0.578125 0.53125 -1.671875q0 -0.953125 -0.546875 -1.53125q-0.53125 -0.578125 -1.359375 -0.578125q-0.953125 0 -1.421875 0.65625q-0.46875 0.65625 -0.46875 1.421875zm16.641327 1.71875l0 2.421875l-9.140625 0q0.15625 -1.375 0.890625 -2.59375q0.75 -1.234375 2.9375 -3.265625q1.765625 -1.640625 2.15625 -2.234375q0.546875 -0.796875 0.546875 -1.59375q0 -0.875 -0.46875 -1.34375q-0.46875 -0.46875 -1.296875 -0.46875q-0.8125 0 -1.296875 0.5q-0.484375 0.484375 -0.5625 1.625l-2.59375 -0.25q0.234375 -2.15625 1.453125 -3.09375q1.21875 -0.9375 3.0625 -0.9375q2.015625 0 3.15625 1.09375q1.15625 1.078125 1.15625 2.6875q0 0.921875 -0.328125 1.75q-0.328125 0.828125 -1.046875 1.734375q-0.46875 0.609375 -1.703125 1.75q-1.234375 1.125 -1.5625 1.5q-0.328125 0.359375 -0.53125 0.71875l5.171875 0zm1.6257324 -0.71875l2.53125 -0.28125q0.09375 0.765625 0.484375 1.140625q0.390625 0.375 1.03125 0.375q0.796875 0 1.359375 -0.734375q0.578125 -0.75 0.734375 -3.09375q-0.984375 1.140625 -2.46875 1.140625q-1.59375 0 -2.765625 -1.234375q-1.15625 -1.234375 -1.15625 -3.234375q0 -2.0625 1.21875 -3.328125q1.234375 -1.265625 3.140625 -1.265625q2.0625 0 3.3905945 1.609375q1.328125 1.59375 1.328125 5.25q0 3.734375 -1.390625 5.390625q-1.3749695 1.640625 -3.5937195 1.640625q-1.59375 0 -2.578125 -0.84375q-0.984375 -0.84375 -1.265625 -2.53125zm5.90625 -5.703125q0 -1.265625 -0.578125 -1.953125q-0.578125 -0.703125 -1.34375 -0.703125q-0.71875 0 -1.203125 0.578125q-0.484375 0.5625 -0.484375 1.859375q0 1.328125 0.515625 1.953125q0.53125 0.609375 1.3125 0.609375q0.75 0 1.265625 -0.59375q0.515625 -0.59375 0.515625 -1.75zm6.656952 1.5q-1.015625 -0.421875 -1.484375 -1.171875q-0.453125 -0.75 -0.453125 -1.640625q0 -1.515625 1.0625 -2.5q1.0625 -1.0 3.03125 -1.0q1.9375 0 3.0 1.0q1.078125 0.984375 1.078125 2.5q0 0.953125 -0.5 1.6875q-0.484375 0.734375 -1.375 1.125q1.125 0.453125 1.71875 1.328125q0.59375 0.875 0.59375 2.015625q0 1.890625 -1.203125 3.0625q-1.203125 1.171875 -3.203125 1.171875q-1.859375 0 -3.078125 -0.96875q-1.46875 -1.15625 -1.46875 -3.15625q0 -1.09375 0.546875 -2.015625q0.546875 -0.9375 1.734375 -1.4375zm0.53125 -2.625q0 0.78125 0.4375 1.21875q0.453125 0.4375 1.1875 0.4375q0.734375 0 1.171875 -0.4375q0.453125 -0.4375 0.453125 -1.21875q0 -0.734375 -0.4375 -1.171875q-0.4375 -0.453125 -1.171875 -0.453125q-0.75 0 -1.203125 0.453125q-0.4375 0.4375 -0.4375 1.171875zm-0.234375 5.828125q0 1.078125 0.546875 1.6875q0.546875 0.59375 1.375 0.59375q0.8125 0 1.34375 -0.578125q0.53125 -0.578125 0.53125 -1.671875q0 -0.953125 -0.546875 -1.53125q-0.53125 -0.578125 -1.359375 -0.578125q-0.953125 0 -1.421875 0.65625q-0.46875 0.65625 -0.46875 1.421875zm14.516327 4.140625l-2.609375 0l0 -9.828125q-1.4375 1.34375 -3.375 1.984375l0 -2.375q1.03125 -0.328125 2.21875 -1.25q1.203125 -0.9375 1.640625 -2.1875l2.125 0l0 13.65625zm9.953857 -3.140625l2.609375 0.4375q-0.5 1.4375 -1.59375 2.1875q-1.078125 0.734375 -2.703125 0.734375q-2.5625 0 -3.796875 -1.671875q-0.96875 -1.34375 -0.96875 -3.40625q0 -2.4375 1.265625 -3.828125q1.28125 -1.390625 3.25 -1.390625q2.1875 0 3.453125 1.453125q1.28125 1.453125 1.234375 4.453125l-6.53125 0q0.015625 1.15625 0.625 1.8125q0.609375 0.640625 1.5 0.640625q0.609375 0 1.03125 -0.328125q0.421875 -0.34375 0.625 -1.09375zm0.15625 -2.625q-0.03125 -1.140625 -0.59375 -1.71875q-0.546875 -0.59375 -1.34375 -0.59375q-0.859375 0 -1.40625 0.625q-0.5625 0.609375 -0.546875 1.6875l3.890625 0z" fill-rule="nonzero"></path><path fill="#000000" fill-opacity="0.0" d="m621.46454 206.65991l133.07092 0l0 37.259842l-133.07092 0z" fill-rule="evenodd"></path><path stroke="#0000ff" stroke-width="3.0" stroke-linejoin="round" stroke-linecap="butt" d="m621.46454 206.65991l133.07092 0l0 37.259842l-133.07092 0z" fill-rule="evenodd"></path><path fill="#0000ff" d="m657.17523 221.20984l0 -2.421875l8.90625 0l0 1.90625q-1.09375 1.078125 -2.234375 3.109375q-1.140625 2.03125 -1.75 4.328125q-0.59375 2.28125 -0.578125 4.078125l-2.515625 0q0.0625 -2.828125 1.15625 -5.75q1.109375 -2.9375 2.9375 -5.25l-5.921875 0zm10.281982 7.390625l2.515625 -0.3125q0.125 0.96875 0.65625 1.484375q0.53125 0.5 1.28125 0.5q0.796875 0 1.34375 -0.609375q0.5625 -0.609375 0.5625 -1.640625q0 -0.984375 -0.53125 -1.5625q-0.53125 -0.578125 -1.28125 -0.578125q-0.5 0 -1.203125 0.203125l0.28125 -2.125q1.0625 0.015625 1.609375 -0.46875q0.5625 -0.484375 0.5625 -1.296875q0 -0.6875 -0.40625 -1.09375q-0.40625 -0.40625 -1.078125 -0.40625q-0.671875 0 -1.140625 0.46875q-0.46875 0.46875 -0.578125 1.359375l-2.40625 -0.421875q0.25 -1.234375 0.75 -1.96875q0.515625 -0.734375 1.421875 -1.15625q0.90625 -0.421875 2.03125 -0.421875q1.90625 0 3.078125 1.21875q0.953125 1.0 0.953125 2.265625q0 1.796875 -1.953125 2.859375q1.15625 0.25 1.859375 1.125q0.703125 0.875 0.703125 2.109375q0 1.78125 -1.3125 3.046875q-1.296875 1.265625 -3.25 1.265625q-1.84375 0 -3.0625 -1.0625q-1.21875 -1.0625 -1.40625 -2.78125zm19.610046 -3.328125l-2.5625 0.46875q-0.140625 -0.78125 -0.59375 -1.171875q-0.453125 -0.390625 -1.1875 -0.390625q-0.984375 0 -1.5625 0.671875q-0.578125 0.671875 -0.578125 2.25q0 1.765625 0.578125 2.484375q0.59375 0.71875 1.59375 0.71875q0.75 0 1.21875 -0.421875q0.46875 -0.421875 0.671875 -1.453125l2.546875 0.4375q-0.390625 1.765625 -1.53125 2.671875q-1.125 0.890625 -3.03125 0.890625q-2.15625 0 -3.453125 -1.359375q-1.28125 -1.359375 -1.28125 -3.78125q0 -2.4375 1.296875 -3.796875q1.296875 -1.359375 3.484375 -1.359375q1.796875 0 2.859375 0.78125q1.0625 0.765625 1.53125 2.359375zm1.2351074 -4.0625l0 -2.421875l8.90625 0l0 1.90625q-1.09375 1.078125 -2.234375 3.109375q-1.140625 2.03125 -1.75 4.328125q-0.59375 2.28125 -0.578125 4.078125l-2.515625 0q0.0625 -2.828125 1.15625 -5.75q1.109375 -2.9375 2.9375 -5.25l-5.921875 0zm19.172607 8.578125l0 2.421875l-9.140625 0q0.15625 -1.375 0.890625 -2.59375q0.75 -1.234375 2.9375 -3.265625q1.765625 -1.640625 2.15625 -2.234375q0.546875 -0.796875 0.546875 -1.59375q0 -0.875 -0.46875 -1.34375q-0.46875 -0.46875 -1.296875 -0.46875q-0.8125 0 -1.296875 0.5q-0.484375 0.484375 -0.5625 1.625l-2.59375 -0.25q0.234375 -2.15625 1.453125 -3.09375q1.21875 -0.9375 3.0625 -0.9375q2.015625 0 3.15625 1.09375q1.15625 1.078125 1.15625 2.6875q0 0.921875 -0.328125 1.75q-0.328125 0.828125 -1.046875 1.734375q-0.46875 0.609375 -1.703125 1.75q-1.234375 1.125 -1.5625 1.5q-0.328125 0.359375 -0.53125 0.71875l5.171875 0zm2.0162964 2.421875l0 -13.59375l2.609375 0l0 4.890625q1.203125 -1.375 2.859375 -1.375q1.796875 0 2.96875 1.3125q1.1875 1.296875 1.1875 3.734375q0 2.53125 -1.203125 3.890625q-1.203125 1.359375 -2.921875 1.359375q-0.84375 0 -1.671875 -0.421875q-0.8125 -0.421875 -1.40625 -1.25l0 1.453125l-2.421875 0zm2.59375 -5.140625q0 1.53125 0.484375 2.265625q0.671875 1.03125 1.796875 1.03125q0.859375 0 1.46875 -0.734375q0.609375 -0.734375 0.609375 -2.328125q0 -1.6875 -0.609375 -2.421875q-0.609375 -0.75 -1.578125 -0.75q-0.9375 0 -1.5625 0.734375q-0.609375 0.71875 -0.609375 2.203125z" fill-rule="nonzero"></path><path fill="#000000" fill-opacity="0.0" d="m215.54987 313.84515l39.27559 0l0 47.653534l-39.27559 0z" fill-rule="evenodd"></path><path fill="#000000" d="m237.96696 346.2119l-3.296875 0l0 -12.40625q-1.8125 1.6875 -4.25 2.484375l0 -2.984375q1.28125 -0.421875 2.796875 -1.59375q1.515625 -1.1875 2.078125 -2.75l2.671875 0l0 17.25z" fill-rule="nonzero"></path><path fill="#000000" fill-opacity="0.0" d="m465.04593 313.84515l39.275604 0l0 47.653534l-39.275604 0z" fill-rule="evenodd"></path><path fill="#000000" d="m490.1505 343.1494l0 3.0625l-11.546875 0q0.1875 -1.734375 1.125 -3.28125q0.9375 -1.5625 3.703125 -4.125q2.234375 -2.078125 2.734375 -2.8125q0.6875 -1.015625 0.6875 -2.015625q0 -1.109375 -0.59375 -1.6875q-0.59375 -0.59375 -1.640625 -0.59375q-1.03125 0 -1.640625 0.625q-0.609375 0.609375 -0.703125 2.046875l-3.28125 -0.328125q0.296875 -2.71875 1.84375 -3.890625q1.546875 -1.1875 3.859375 -1.1875q2.546875 0 4.0 1.375q1.453125 1.359375 1.453125 3.40625q0 1.15625 -0.421875 2.203125q-0.40625 1.046875 -1.3125 2.203125q-0.59375 0.765625 -2.15625 2.203125q-1.5625 1.421875 -1.984375 1.890625q-0.40625 0.46875 -0.65625 0.90625l6.53125 0z" fill-rule="nonzero"></path><path fill="#000000" fill-opacity="0.0" d="m677.34515 313.84515l39.275574 0l0 47.653534l-39.275574 0z" fill-rule="evenodd"></path><path fill="#000000" d="m691.21533 341.6494l3.1875 -0.390625q0.15625 1.21875 0.8125 1.875q0.671875 0.640625 1.625 0.640625q1.015625 0 1.703125 -0.765625q0.703125 -0.78125 0.703125 -2.09375q0 -1.25 -0.671875 -1.96875q-0.65625 -0.734375 -1.625 -0.734375q-0.625 0 -1.5 0.25l0.359375 -2.6875q1.328125 0.046875 2.03125 -0.5625q0.703125 -0.625 0.703125 -1.640625q0 -0.875 -0.515625 -1.390625q-0.515625 -0.515625 -1.359375 -0.515625q-0.84375 0 -1.453125 0.59375q-0.59375 0.578125 -0.71875 1.703125l-3.03125 -0.515625q0.3125 -1.5625 0.953125 -2.484375q0.640625 -0.9375 1.78125 -1.46875q1.140625 -0.53125 2.5625 -0.53125q2.421875 0 3.890625 1.546875q1.203125 1.265625 1.203125 2.859375q0 2.265625 -2.46875 3.609375q1.46875 0.3125 2.34375 1.421875q0.890625 1.09375 0.890625 2.65625q0 2.265625 -1.65625 3.859375q-1.640625 1.59375 -4.109375 1.59375q-2.328125 0 -3.859375 -1.34375q-1.53125 -1.34375 -1.78125 -3.515625z" fill-rule="nonzero"></path></g></svg>

