<?xml version="1.0" standalone="yes"?>

<svg version="1.1" viewBox="0.0 0.0 960.0 540.0" fill="none" stroke="none" stroke-linecap="square" stroke-miterlimit="10" xmlns="http://www.w3.org/2000/svg" xmlns:xlink="http://www.w3.org/1999/xlink"><clipPath id="g2721e673cf_0_156.0"><path d="m0 0l960.0 0l0 540.0l-960.0 0l0 -540.0z" clip-rule="nonzero"></path></clipPath><g clip-path="url(#g2721e673cf_0_156.0)"><path fill="#ffffff" d="m0 0l960.0 0l0 540.0l-960.0 0z" fill-rule="evenodd"></path><defs><radialGradient id="g2721e673cf_0_156.1" gradientUnits="userSpaceOnUse" gradientTransform="matrix(8.324223510661291 0.0 0.0 8.324223510661291 0.0 0.0)" spreadMethod="pad" cx="23.61178978057596" cy="38.86954881246175" fx="23.61178978057596" fy="38.86954881246175" r="8.324223518371582"><stop offset="0.0" stop-color="#dddddd"></stop><stop offset="1.0" stop-color="#919191"></stop></radialGradient></defs><path fill="url(#g2721e673cf_0_156.1)" d="m131.37483 307.8716l0 0c0 -4.331909 29.17984 -7.843628 65.17499 -7.843628c35.995148 0 65.17497 3.5117188 65.17497 7.843628l0 31.37442c0 4.331909 -29.179825 7.8435974 -65.17497 7.8435974c-35.995148 0 -65.17499 -3.5116882 -65.17499 -7.8435974z" fill-rule="evenodd"></path><path fill="#000000" fill-opacity="0.0" d="m261.7248 307.8716l0 0c0 4.3318787 -29.179825 7.8435974 -65.17497 7.8435974c-35.995148 0 -65.17499 -3.5117188 -65.17499 -7.8435974" fill-rule="evenodd"></path><path fill="#000000" fill-opacity="0.0" d="m131.37483 307.8716l0 0c0 -4.331909 29.17984 -7.843628 65.17499 -7.843628c35.995148 0 65.17497 3.5117188 65.17497 7.843628l0 31.37442c0 4.331909 -29.179825 7.8435974 -65.17497 7.8435974c-35.995148 0 -65.17499 -3.5116882 -65.17499 -7.8435974z" fill-rule="evenodd"></path><path stroke="#595959" stroke-width="4.0" stroke-linejoin="round" stroke-linecap="butt" d="m261.7248 307.8716l0 0c0 4.3318787 -29.179825 7.8435974 -65.17497 7.8435974c-35.995148 0 -65.17499 -3.5117188 -65.17499 -7.8435974" fill-rule="evenodd"></path><path stroke="#595959" stroke-width="4.0" stroke-linejoin="round" stroke-linecap="butt" d="m131.37483 307.8716l0 0c0 -4.331909 29.17984 -7.843628 65.17499 -7.843628c35.995148 0 65.17497 3.5117188 65.17497 7.843628l0 31.37442c0 4.331909 -29.179825 7.8435974 -65.17497 7.8435974c-35.995148 0 -65.17499 -3.5116882 -65.17499 -7.8435974z" fill-rule="evenodd"></path><defs><radialGradient id="g2721e673cf_0_156.2" gradientUnits="userSpaceOnUse" gradientTransform="matrix(7.934122535095037 0.0 0.0 7.934122535095037 0.0 0.0)" spreadMethod="pad" cx="25.027257858134362" cy="39.26433033426294" fx="25.027257858134362" fy="39.26433033426294" r="7.934122562408447"><stop offset="0.0" stop-color="#dcecd5"></stop><stop offset="1.0" stop-color="#93bc81"></stop></radialGradient></defs><path fill="url(#g2721e673cf_0_156.2)" d="m149.08218 305.58453l0 0c-0.9742737 -2.8066406 2.2244568 -5.585022 8.238831 -7.156189c6.014389 -1.5711975 13.789642 -1.6596069 20.026428 -0.22775269l0 0c2.209259 -1.631897 6.2528534 -2.758606 10.907669 -3.0393066c4.6548157 -0.2807312 9.37413 0.31750488 12.730438 1.6137695l0 0c1.882019 -1.4795837 5.577362 -2.4736633 9.774765 -2.6295166c4.1973877 -0.15582275 8.302795 0.5486145 10.85939 1.8634033l0 0c3.4001312 -1.5683594 8.809799 -2.2286987 13.888245 -1.695282c5.07843 0.53338623 8.913483 2.164734 9.845718 4.1881104l0 0c4.1657257 0.44543457 7.6356964 1.5777283 9.513367 3.10437c1.877655 1.5266724 1.9788513 3.297882 0.2774048 4.856079l0 0c4.1020203 2.092804 5.0615845 4.881439 2.5205994 7.325226c-2.5409698 2.4437866 -8.20076 4.175598 -14.867203 4.5491333c-0.04698181 2.2936096 -3.2558594 4.3981934 -8.389786 5.502533c-5.1339264 1.1043701 -11.391235 1.0360718 -16.360062 -0.17858887c-2.116455 2.7469788 -8.073578 4.7681885 -15.297668 5.1903687c-7.2240906 0.42218018 -14.42009 -0.83032227 -18.47905 -3.2164001c-4.9754486 1.176117 -10.945572 1.5149231 -16.56363 0.9399719c-5.6180573 -0.57492065 -10.410812 -2.0151672 -13.297119 -3.995819l0 0c-5.0842743 0.23324585 -10.000076 -0.7993469 -12.3076935 -2.5852966c-2.3076172 -1.7859497 -1.5158234 -3.9450378 1.9824219 -5.4057617l0 0c-4.535309 -1.0463867 -6.8495026 -3.1227722 -5.7358093 -5.146393c1.1136932 -2.0236206 5.402893 -3.5359192 10.630966 -3.748291z" fill-rule="evenodd"></path><path fill="#000000" fill-opacity="0.0" d="m144.08653 314.58737l0 0c2.1402283 0.49380493 4.612686 0.71780396 7.0854187 0.64190674m3.2387543 7.349365c1.0633545 -0.048797607 2.1056519 -0.15206909 3.100006 -0.30722046m26.759232 3.3629456c-0.7478943 -0.43966675 -1.3740845 -0.90948486 -1.8678741 -1.4014282m35.64589 -0.57263184l0 0c0.38586426 -0.500824 0.6358795 -1.0162659 0.7458496 -1.5377502m24.003067 -3.7860107c0.05003357 -2.441864 -3.488083 -4.677704 -9.0946045 -5.747101m21.441101 -6.127014c-0.907959 0.83151245 -2.2940674 1.5691223 -4.0496216 2.1550293m-5.7403107 -10.115692l0 0c0.15470886 0.3357849 0.2263031 0.6766052 0.21380615 1.0177612m-23.947357 -3.510498l0 0c-0.8481598 0.39123535 -1.546936 0.8284302 -2.0745697 1.2979431m-18.559784 -0.5319824l0 0c-0.45199585 0.35534668 -0.78952026 0.73135376 -1.0047913 1.1193848m-22.633667 0.30618286l0 0c1.3197021 0.30297852 2.5406036 0.66763306 3.6358948 1.0859985m-31.900787 6.2979736l0 0c0.13427734 0.3868103 0.3464508 0.7688904 0.6345215 1.1425781" fill-rule="evenodd"></path><path stroke="#595959" stroke-width="4.0" stroke-linejoin="round" stroke-linecap="butt" d="m149.08218 305.58453l0 0c-0.9742737 -2.8066406 2.2244568 -5.585022 8.238831 -7.156189c6.014389 -1.5711975 13.789642 -1.6596069 20.026428 -0.22775269l0 0c2.209259 -1.631897 6.2528534 -2.758606 10.907669 -3.0393066c4.6548157 -0.2807312 9.37413 0.31750488 12.730438 1.6137695l0 0c1.882019 -1.4795837 5.577362 -2.4736633 9.774765 -2.6295166c4.1973877 -0.15582275 8.302795 0.5486145 10.85939 1.8634033l0 0c3.4001312 -1.5683594 8.809799 -2.2286987 13.888245 -1.695282c5.07843 0.53338623 8.913483 2.164734 9.845718 4.1881104l0 0c4.1657257 0.44543457 7.6356964 1.5777283 9.513367 3.10437c1.877655 1.5266724 1.9788513 3.297882 0.2774048 4.856079l0 0c4.1020203 2.092804 5.0615845 4.881439 2.5205994 7.325226c-2.5409698 2.4437866 -8.20076 4.175598 -14.867203 4.5491333c-0.04698181 2.2936096 -3.2558594 4.3981934 -8.389786 5.502533c-5.1339264 1.1043701 -11.391235 1.0360718 -16.360062 -0.17858887c-2.116455 2.7469788 -8.073578 4.7681885 -15.297668 5.1903687c-7.2240906 0.42218018 -14.42009 -0.83032227 -18.47905 -3.2164001c-4.9754486 1.176117 -10.945572 1.5149231 -16.56363 0.9399719c-5.6180573 -0.57492065 -10.410812 -2.0151672 -13.297119 -3.995819l0 0c-5.0842743 0.23324585 -10.000076 -0.7993469 -12.3076935 -2.5852966c-2.3076172 -1.7859497 -1.5158234 -3.9450378 1.9824219 -5.4057617l0 0c-4.535309 -1.0463867 -6.8495026 -3.1227722 -5.7358093 -5.146393c1.1136932 -2.0236206 5.402893 -3.5359192 10.630966 -3.748291z" fill-rule="evenodd"></path><path stroke="#595959" stroke-width="4.0" stroke-linejoin="round" stroke-linecap="butt" d="m144.08653 314.58737l0 0c2.1402283 0.49380493 4.612686 0.71780396 7.0854187 0.64190674m3.2387543 7.349365c1.0633545 -0.048797607 2.1056519 -0.15206909 3.100006 -0.30722046m26.759232 3.3629456c-0.7478943 -0.43966675 -1.3740845 -0.90948486 -1.8678741 -1.4014282m35.64589 -0.57263184l0 0c0.38586426 -0.500824 0.6358795 -1.0162659 0.7458496 -1.5377502m24.003067 -3.7860107c0.05003357 -2.441864 -3.488083 -4.677704 -9.0946045 -5.747101m21.441101 -6.127014c-0.907959 0.83151245 -2.2940674 1.5691223 -4.0496216 2.1550293m-5.7403107 -10.115692l0 0c0.15470886 0.3357849 0.2263031 0.6766052 0.21380615 1.0177612m-23.947357 -3.510498l0 0c-0.8481598 0.39123535 -1.546936 0.8284302 -2.0745697 1.2979431m-18.559784 -0.5319824l0 0c-0.45199585 0.35534668 -0.78952026 0.73135376 -1.0047913 1.1193848m-22.633667 0.30618286l0 0c1.3197021 0.30297852 2.5406036 0.66763306 3.6358948 1.0859985m-31.900787 6.2979736l0 0c0.13427734 0.3868103 0.3464508 0.7688904 0.6345215 1.1425781" fill-rule="evenodd"></path><path fill="#000000" fill-opacity="0.0" d="m255.42029 311.9441l0 0c-8.478287 8.840973 -30.658646 15.028717 -56.49385 15.760345c-25.835205 0.7316284 -50.41664 -4.131897 -62.60945 -12.387482l57.512634 -11.071289z" fill-rule="evenodd"></path><path fill="#000000" fill-opacity="0.0" d="m255.42029 311.9441l0 0c-8.478287 8.840973 -30.658646 15.028717 -56.49385 15.760345c-25.835205 0.7316284 -50.41664 -4.131897 -62.60945 -12.387482" fill-rule="evenodd"></path><path stroke="#595959" stroke-width="4.0" stroke-linejoin="round" stroke-linecap="butt" d="m255.42029 311.9441l0 0c-8.478287 8.840973 -30.658646 15.028717 -56.49385 15.760345c-25.835205 0.7316284 -50.41664 -4.131897 -62.60945 -12.387482" fill-rule="evenodd"></path><defs><radialGradient id="g2721e673cf_0_156.3" gradientUnits="userSpaceOnUse" gradientTransform="matrix(8.324223510661291 0.0 0.0 8.324223510661291 0.0 0.0)" spreadMethod="pad" cx="51.07645924209218" cy="37.9084982123963" fx="51.07645924209218" fy="37.9084982123963" r="8.324223518371582"><stop offset="0.0" stop-color="#dddddd"></stop><stop offset="1.0" stop-color="#919191"></stop></radialGradient></defs><path fill="url(#g2721e673cf_0_156.3)" d="m359.9969 299.8716l0 0c0 -4.331909 29.17984 -7.843628 65.17499 -7.843628c35.995148 0 65.17496 3.5117188 65.17496 7.843628l0 31.37442c0 4.331909 -29.17981 7.8435974 -65.17496 7.8435974c-35.995148 0 -65.17499 -3.5116882 -65.17499 -7.8435974z" fill-rule="evenodd"></path><path fill="#000000" fill-opacity="0.0" d="m490.34683 299.8716l0 0c0 4.3318787 -29.17981 7.8435974 -65.17496 7.8435974c-35.995148 0 -65.17499 -3.5117188 -65.17499 -7.8435974" fill-rule="evenodd"></path><path fill="#000000" fill-opacity="0.0" d="m359.9969 299.8716l0 0c0 -4.331909 29.17984 -7.843628 65.17499 -7.843628c35.995148 0 65.17496 3.5117188 65.17496 7.843628l0 31.37442c0 4.331909 -29.17981 7.8435974 -65.17496 7.8435974c-35.995148 0 -65.17499 -3.5116882 -65.17499 -7.8435974z" fill-rule="evenodd"></path><path stroke="#595959" stroke-width="4.0" stroke-linejoin="round" stroke-linecap="butt" d="m490.34683 299.8716l0 0c0 4.3318787 -29.17981 7.8435974 -65.17496 7.8435974c-35.995148 0 -65.17499 -3.5117188 -65.17499 -7.8435974" fill-rule="evenodd"></path><path stroke="#595959" stroke-width="4.0" stroke-linejoin="round" stroke-linecap="butt" d="m359.9969 299.8716l0 0c0 -4.331909 29.17984 -7.843628 65.17499 -7.843628c35.995148 0 65.17496 3.5117188 65.17496 7.843628l0 31.37442c0 4.331909 -29.17981 7.8435974 -65.17496 7.8435974c-35.995148 0 -65.17499 -3.5116882 -65.17499 -7.8435974z" fill-rule="evenodd"></path><defs><radialGradient id="g2721e673cf_0_156.4" gradientUnits="userSpaceOnUse" gradientTransform="matrix(7.934122535095037 0.0 0.0 7.934122535095037 0.0 0.0)" spreadMethod="pad" cx="53.84229647555295" cy="38.25602727811356" fx="53.84229647555295" fy="38.25602727811356" r="7.934122562408447"><stop offset="0.0" stop-color="#dcecd5"></stop><stop offset="1.0" stop-color="#93bc81"></stop></radialGradient></defs><path fill="url(#g2721e673cf_0_156.4)" d="m377.70422 297.58453l0 0c-0.9742737 -2.8066406 2.2244568 -5.585022 8.238831 -7.156189c6.0144043 -1.5711975 13.789642 -1.6596069 20.026428 -0.22775269l0 0c2.209259 -1.631897 6.2528687 -2.758606 10.907684 -3.0393066c4.6548157 -0.2807312 9.374115 0.31750488 12.730438 1.6137695l0 0c1.8819885 -1.4795837 5.577362 -2.4736633 9.77475 -2.6295166c4.1973877 -0.15582275 8.302795 0.5486145 10.8594055 1.8634033l0 0c3.400116 -1.5683594 8.809784 -2.2286987 13.888245 -1.695282c5.07843 0.53338623 8.913483 2.164734 9.845703 4.1881104l0 0c4.165741 0.44543457 7.6357117 1.5777283 9.513367 3.10437c1.8776855 1.5266724 1.9788513 3.297882 0.2774048 4.856079l0 0c4.1020203 2.092804 5.0615845 4.881439 2.52063 7.325226c-2.540985 2.4437866 -8.200775 4.175598 -14.867218 4.5491333c-0.04699707 2.2936096 -3.2558594 4.3981934 -8.389801 5.502533c-5.133911 1.1043701 -11.391235 1.0360718 -16.360046 -0.17858887c-2.116455 2.7469788 -8.073578 4.7681885 -15.297668 5.1903687c-7.2240906 0.42218018 -14.420105 -0.83032227 -18.479065 -3.2164001c-4.9754333 1.176117 -10.945557 1.5149231 -16.56363 0.9399719c-5.618042 -0.57492065 -10.410797 -2.0151672 -13.297119 -3.995819l0 0c-5.084259 0.23324585 -10.000061 -0.7993469 -12.307678 -2.5852966c-2.3076172 -1.7859497 -1.5158386 -3.9450378 1.9824219 -5.4057617l0 0c-4.535309 -1.0463867 -6.849518 -3.1227722 -5.7358093 -5.146393c1.113678 -2.0236206 5.402893 -3.5359192 10.630951 -3.748291z" fill-rule="evenodd"></path><path fill="#000000" fill-opacity="0.0" d="m372.7086 306.58737l0 0c2.1402283 0.49380493 4.612671 0.71780396 7.0854187 0.64190674m3.238739 7.349365c1.0633545 -0.048797607 2.1056519 -0.15206909 3.100006 -0.30722046m26.759247 3.3629456c-0.7478943 -0.43966675 -1.3740845 -0.90948486 -1.8678894 -1.4014282m35.645905 -0.57263184l0 0c0.38586426 -0.500824 0.63586426 -1.0162659 0.7458496 -1.5377502m24.003052 -3.7860107c0.050048828 -2.441864 -3.4880676 -4.677704 -9.0946045 -5.747101m21.441101 -6.127014c-0.907959 0.83151245 -2.2940674 1.5691223 -4.0496216 2.1550293m-5.7402954 -10.115692l0 0c0.1546936 0.3357849 0.22628784 0.6766052 0.21380615 1.0177612m-23.947357 -3.510498l0 0c-0.84817505 0.39123535 -1.546936 0.8284302 -2.074585 1.2979431m-18.559784 -0.5319824l0 0c-0.45199585 0.35534668 -0.78952026 0.73135376 -1.0047913 1.1193848m-22.633667 0.30618286l0 0c1.3197021 0.30297852 2.540619 0.66763306 3.6358948 1.0859985m-31.900787 6.2979736l0 0c0.13427734 0.3868103 0.34646606 0.7688904 0.6345215 1.1425781" fill-rule="evenodd"></path><path stroke="#595959" stroke-width="4.0" stroke-linejoin="round" stroke-linecap="butt" d="m377.70422 297.58453l0 0c-0.9742737 -2.8066406 2.2244568 -5.585022 8.238831 -7.156189c6.0144043 -1.5711975 13.789642 -1.6596069 20.026428 -0.22775269l0 0c2.209259 -1.631897 6.2528687 -2.758606 10.907684 -3.0393066c4.6548157 -0.2807312 9.374115 0.31750488 12.730438 1.6137695l0 0c1.8819885 -1.4795837 5.577362 -2.4736633 9.77475 -2.6295166c4.1973877 -0.15582275 8.302795 0.5486145 10.8594055 1.8634033l0 0c3.400116 -1.5683594 8.809784 -2.2286987 13.888245 -1.695282c5.07843 0.53338623 8.913483 2.164734 9.845703 4.1881104l0 0c4.165741 0.44543457 7.6357117 1.5777283 9.513367 3.10437c1.8776855 1.5266724 1.9788513 3.297882 0.2774048 4.856079l0 0c4.1020203 2.092804 5.0615845 4.881439 2.52063 7.325226c-2.540985 2.4437866 -8.200775 4.175598 -14.867218 4.5491333c-0.04699707 2.2936096 -3.2558594 4.3981934 -8.389801 5.502533c-5.133911 1.1043701 -11.391235 1.0360718 -16.360046 -0.17858887c-2.116455 2.7469788 -8.073578 4.7681885 -15.297668 5.1903687c-7.2240906 0.42218018 -14.420105 -0.83032227 -18.479065 -3.2164001c-4.9754333 1.176117 -10.945557 1.5149231 -16.56363 0.9399719c-5.618042 -0.57492065 -10.410797 -2.0151672 -13.297119 -3.995819l0 0c-5.084259 0.23324585 -10.000061 -0.7993469 -12.307678 -2.5852966c-2.3076172 -1.7859497 -1.5158386 -3.9450378 1.9824219 -5.4057617l0 0c-4.535309 -1.0463867 -6.849518 -3.1227722 -5.7358093 -5.146393c1.113678 -2.0236206 5.402893 -3.5359192 10.630951 -3.748291z" fill-rule="evenodd"></path><path stroke="#595959" stroke-width="4.0" stroke-linejoin="round" stroke-linecap="butt" d="m372.7086 306.58737l0 0c2.1402283 0.49380493 4.612671 0.71780396 7.0854187 0.64190674m3.238739 7.349365c1.0633545 -0.048797607 2.1056519 -0.15206909 3.100006 -0.30722046m26.759247 3.3629456c-0.7478943 -0.43966675 -1.3740845 -0.90948486 -1.8678894 -1.4014282m35.645905 -0.57263184l0 0c0.38586426 -0.500824 0.63586426 -1.0162659 0.7458496 -1.5377502m24.003052 -3.7860107c0.050048828 -2.441864 -3.4880676 -4.677704 -9.0946045 -5.747101m21.441101 -6.127014c-0.907959 0.83151245 -2.2940674 1.5691223 -4.0496216 2.1550293m-5.7402954 -10.115692l0 0c0.1546936 0.3357849 0.22628784 0.6766052 0.21380615 1.0177612m-23.947357 -3.510498l0 0c-0.84817505 0.39123535 -1.546936 0.8284302 -2.074585 1.2979431m-18.559784 -0.5319824l0 0c-0.45199585 0.35534668 -0.78952026 0.73135376 -1.0047913 1.1193848m-22.633667 0.30618286l0 0c1.3197021 0.30297852 2.540619 0.66763306 3.6358948 1.0859985m-31.900787 6.2979736l0 0c0.13427734 0.3868103 0.34646606 0.7688904 0.6345215 1.1425781" fill-rule="evenodd"></path><path fill="#000000" fill-opacity="0.0" d="m484.04233 303.9441l0 0c-8.4782715 8.840973 -30.65863 15.028717 -56.493835 15.760345c-25.835205 0.7316284 -50.416656 -4.131897 -62.609467 -12.387482l57.512634 -11.071289z" fill-rule="evenodd"></path><path fill="#000000" fill-opacity="0.0" d="m484.04233 303.9441l0 0c-8.4782715 8.840973 -30.65863 15.028717 -56.493835 15.760345c-25.835205 0.7316284 -50.416656 -4.131897 -62.609467 -12.387482" fill-rule="evenodd"></path><path stroke="#595959" stroke-width="4.0" stroke-linejoin="round" stroke-linecap="butt" d="m484.04233 303.9441l0 0c-8.4782715 8.840973 -30.65863 15.028717 -56.493835 15.760345c-25.835205 0.7316284 -50.416656 -4.131897 -62.609467 -12.387482" fill-rule="evenodd"></path><defs><radialGradient id="g2721e673cf_0_156.5" gradientUnits="userSpaceOnUse" gradientTransform="matrix(8.324223510661291 0.0 0.0 8.324223510661291 0.0 0.0)" spreadMethod="pad" cx="73.71743034235467" cy="38.21450202058643" fx="73.71743034235467" fy="38.21450202058643" r="8.324223518371582"><stop offset="0.0" stop-color="#dddddd"></stop><stop offset="1.0" stop-color="#919191"></stop></radialGradient></defs><path fill="url(#g2721e673cf_0_156.5)" d="m548.4654 302.41885l0 0c0 -4.331909 29.17981 -7.843628 65.17499 -7.843628c35.995117 0 65.17499 3.5117188 65.17499 7.843628l0 31.37442c0 4.331909 -29.17987 7.8435974 -65.17499 7.8435974c-35.99518 0 -65.17499 -3.5116882 -65.17499 -7.8435974z" fill-rule="evenodd"></path><path fill="#000000" fill-opacity="0.0" d="m678.81537 302.41885l0 0c0 4.331909 -29.17987 7.8435974 -65.17499 7.8435974c-35.99518 0 -65.17499 -3.5116882 -65.17499 -7.8435974" fill-rule="evenodd"></path><path fill="#000000" fill-opacity="0.0" d="m548.4654 302.41885l0 0c0 -4.331909 29.17981 -7.843628 65.17499 -7.843628c35.995117 0 65.17499 3.5117188 65.17499 7.843628l0 31.37442c0 4.331909 -29.17987 7.8435974 -65.17499 7.8435974c-35.99518 0 -65.17499 -3.5116882 -65.17499 -7.8435974z" fill-rule="evenodd"></path><path stroke="#595959" stroke-width="4.0" stroke-linejoin="round" stroke-linecap="butt" d="m678.81537 302.41885l0 0c0 4.331909 -29.17987 7.8435974 -65.17499 7.8435974c-35.99518 0 -65.17499 -3.5116882 -65.17499 -7.8435974" fill-rule="evenodd"></path><path stroke="#595959" stroke-width="4.0" stroke-linejoin="round" stroke-linecap="butt" d="m548.4654 302.41885l0 0c0 -4.331909 29.17981 -7.843628 65.17499 -7.843628c35.995117 0 65.17499 3.5117188 65.17499 7.843628l0 31.37442c0 4.331909 -29.17987 7.8435974 -65.17499 7.8435974c-35.99518 0 -65.17499 -3.5116882 -65.17499 -7.8435974z" fill-rule="evenodd"></path><defs><radialGradient id="g2721e673cf_0_156.6" gradientUnits="userSpaceOnUse" gradientTransform="matrix(7.934122535095037 0.0 0.0 7.934122535095037 0.0 0.0)" spreadMethod="pad" cx="77.59646753900128" cy="38.577076528767414" fx="77.59646753900128" fy="38.577076528767414" r="7.934122562408447"><stop offset="0.0" stop-color="#dcecd5"></stop><stop offset="1.0" stop-color="#93bc81"></stop></radialGradient></defs><path fill="url(#g2721e673cf_0_156.6)" d="m566.1727 300.13177l0 0c-0.97424316 -2.8066406 2.2244873 -5.585022 8.238831 -7.156189c6.0144043 -1.5711975 13.789673 -1.6596069 20.026428 -0.22775269l0 0c2.2092896 -1.631897 6.2528687 -2.758606 10.907654 -3.0393066c4.654846 -0.2807312 9.3741455 0.31750488 12.730469 1.6137695l0 0c1.882019 -1.4795837 5.5773315 -2.4736633 9.77478 -2.6295166c4.1973877 -0.15582275 8.302795 0.5486145 10.859375 1.8634033l0 0c3.4001465 -1.5683594 8.809814 -2.2286987 13.888245 -1.695282c5.07843 0.53338623 8.913452 2.164734 9.845703 4.1881104l0 0c4.1657104 0.44543457 7.635681 1.5777283 9.513367 3.10437c1.8776855 1.5266724 1.9788818 3.297882 0.2774048 4.856079l0 0c4.102051 2.092804 5.0615845 4.881439 2.52063 7.325226c-2.5410156 2.4438171 -8.200806 4.175598 -14.867249 4.549164c-0.046936035 2.293579 -3.2558594 4.398163 -8.3897705 5.5025024c-5.133911 1.1043701 -11.391235 1.0360718 -16.360046 -0.17858887c-2.116455 2.7469788 -8.073608 4.7681885 -15.297668 5.1903687c-7.224121 0.42218018 -14.420105 -0.83032227 -18.479065 -3.2163696c-4.975464 1.1760864 -10.945557 1.5148926 -16.563599 0.9399414c-5.618103 -0.57492065 -10.410828 -2.0151672 -13.297119 -3.9957886l0 0c-5.0842896 0.23321533 -10.000122 -0.79937744 -12.307739 -2.5853271c-2.3076172 -1.7859497 -1.5158081 -3.9450378 1.9824219 -5.4057617l0 0c-4.5352783 -1.0463867 -6.8494873 -3.1227722 -5.735779 -5.146393c1.1137085 -2.0236206 5.402893 -3.5359192 10.63092 -3.748291z" fill-rule="evenodd"></path><path fill="#000000" fill-opacity="0.0" d="m561.17706 309.1346l0 0c2.1402588 0.49380493 4.612732 0.71780396 7.085449 0.64193726m3.2387085 7.3493347c1.0634155 -0.048797607 2.105713 -0.15206909 3.1000366 -0.30722046m26.759216 3.3629456c-0.74786377 -0.43966675 -1.3740845 -0.90948486 -1.8678589 -1.4014282m35.645874 -0.57263184l0 0c0.38586426 -0.500824 0.6359253 -1.0162659 0.7458496 -1.5377502m24.003113 -3.7860107c0.049987793 -2.441864 -3.4880981 -4.6776733 -9.0946045 -5.7470703m21.44104 -6.1270447c-0.907959 0.83151245 -2.2940063 1.5691223 -4.0495605 2.1550293m-5.7403564 -10.115692l0 0c0.15472412 0.3357849 0.22631836 0.6766052 0.21380615 1.0177612m-23.947327 -3.510498l0 0c-0.84814453 0.39123535 -1.546936 0.8284302 -2.074585 1.2979736m-18.559753 -0.53201294l0 0c-0.45202637 0.35534668 -0.7895508 0.73135376 -1.0048218 1.1193848m-22.633667 0.30618286l0 0c1.3197021 0.30297852 2.5405884 0.66763306 3.6358643 1.0859985m-31.900757 6.2979736l0 0c0.13427734 0.38684082 0.34643555 0.7688904 0.6345215 1.1426086" fill-rule="evenodd"></path><path stroke="#595959" stroke-width="4.0" stroke-linejoin="round" stroke-linecap="butt" d="m566.1727 300.13177l0 0c-0.97424316 -2.8066406 2.2244873 -5.585022 8.238831 -7.156189c6.0144043 -1.5711975 13.789673 -1.6596069 20.026428 -0.22775269l0 0c2.2092896 -1.631897 6.2528687 -2.758606 10.907654 -3.0393066c4.654846 -0.2807312 9.3741455 0.31750488 12.730469 1.6137695l0 0c1.882019 -1.4795837 5.5773315 -2.4736633 9.77478 -2.6295166c4.1973877 -0.15582275 8.302795 0.5486145 10.859375 1.8634033l0 0c3.4001465 -1.5683594 8.809814 -2.2286987 13.888245 -1.695282c5.07843 0.53338623 8.913452 2.164734 9.845703 4.1881104l0 0c4.1657104 0.44543457 7.635681 1.5777283 9.513367 3.10437c1.8776855 1.5266724 1.9788818 3.297882 0.2774048 4.856079l0 0c4.102051 2.092804 5.0615845 4.881439 2.52063 7.325226c-2.5410156 2.4438171 -8.200806 4.175598 -14.867249 4.549164c-0.046936035 2.293579 -3.2558594 4.398163 -8.3897705 5.5025024c-5.133911 1.1043701 -11.391235 1.0360718 -16.360046 -0.17858887c-2.116455 2.7469788 -8.073608 4.7681885 -15.297668 5.1903687c-7.224121 0.42218018 -14.420105 -0.83032227 -18.479065 -3.2163696c-4.975464 1.1760864 -10.945557 1.5148926 -16.563599 0.9399414c-5.618103 -0.57492065 -10.410828 -2.0151672 -13.297119 -3.9957886l0 0c-5.0842896 0.23321533 -10.000122 -0.79937744 -12.307739 -2.5853271c-2.3076172 -1.7859497 -1.5158081 -3.9450378 1.9824219 -5.4057617l0 0c-4.5352783 -1.0463867 -6.8494873 -3.1227722 -5.735779 -5.146393c1.1137085 -2.0236206 5.402893 -3.5359192 10.63092 -3.748291z" fill-rule="evenodd"></path><path stroke="#595959" stroke-width="4.0" stroke-linejoin="round" stroke-linecap="butt" d="m561.17706 309.1346l0 0c2.1402588 0.49380493 4.612732 0.71780396 7.085449 0.64193726m3.2387085 7.3493347c1.0634155 -0.048797607 2.105713 -0.15206909 3.1000366 -0.30722046m26.759216 3.3629456c-0.74786377 -0.43966675 -1.3740845 -0.90948486 -1.8678589 -1.4014282m35.645874 -0.57263184l0 0c0.38586426 -0.500824 0.6359253 -1.0162659 0.7458496 -1.5377502m24.003113 -3.7860107c0.049987793 -2.441864 -3.4880981 -4.6776733 -9.0946045 -5.7470703m21.44104 -6.1270447c-0.907959 0.83151245 -2.2940063 1.5691223 -4.0495605 2.1550293m-5.7403564 -10.115692l0 0c0.15472412 0.3357849 0.22631836 0.6766052 0.21380615 1.0177612m-23.947327 -3.510498l0 0c-0.84814453 0.39123535 -1.546936 0.8284302 -2.074585 1.2979736m-18.559753 -0.53201294l0 0c-0.45202637 0.35534668 -0.7895508 0.73135376 -1.0048218 1.1193848m-22.633667 0.30618286l0 0c1.3197021 0.30297852 2.5405884 0.66763306 3.6358643 1.0859985m-31.900757 6.2979736l0 0c0.13427734 0.38684082 0.34643555 0.7688904 0.6345215 1.1426086" fill-rule="evenodd"></path><path fill="#000000" fill-opacity="0.0" d="m672.51086 306.49133l0 0c-8.4783325 8.840973 -30.658691 15.028717 -56.493896 15.760345c-25.835205 0.7316284 -50.416626 -4.131897 -62.609436 -12.387482l57.512634 -11.071289z" fill-rule="evenodd"></path><path fill="#000000" fill-opacity="0.0" d="m672.51086 306.49133l0 0c-8.4783325 8.840973 -30.658691 15.028717 -56.493896 15.760345c-25.835205 0.7316284 -50.416626 -4.131897 -62.609436 -12.387482" fill-rule="evenodd"></path><path stroke="#595959" stroke-width="4.0" stroke-linejoin="round" stroke-linecap="butt" d="m672.51086 306.49133l0 0c-8.4783325 8.840973 -30.658691 15.028717 -56.493896 15.760345c-25.835205 0.7316284 -50.416626 -4.131897 -62.609436 -12.387482" fill-rule="evenodd"></path><path fill="#000000" fill-opacity="0.0" d="m255.42029 311.9441l104.566925 3.6220398" fill-rule="evenodd"></path><path stroke="#0000ff" stroke-width="4.0" stroke-linejoin="round" stroke-linecap="butt" d="m255.42029 311.9441l104.566925 3.6220398" fill-rule="evenodd"></path><path fill="#000000" fill-opacity="0.0" d="m484.04233 303.9441l69.35434 5.9212646" fill-rule="evenodd"></path><path stroke="#0000ff" stroke-width="4.0" stroke-linejoin="round" stroke-linecap="butt" d="m484.04233 303.9441l69.35434 5.9212646" fill-rule="evenodd"></path><path fill="#000000" fill-opacity="0.0" d="m701.3243 221.7559l138.45667 0l0 37.259842l-138.45667 0z" fill-rule="evenodd"></path><path stroke="#0000ff" stroke-width="4.0" stroke-linejoin="round" stroke-linecap="butt" d="m701.3243 221.7559l138.45667 0l0 37.259842l-138.45667 0z" fill-rule="evenodd"></path><path fill="#000000" d="m721.2401 252.10582l0 -22.90625l6.921875 0l4.15625 15.625l4.109375 -15.625l6.9375 0l0 22.90625l-4.296875 0l0 -18.03125l-4.546875 18.03125l-4.453125 0l-4.53125 -18.03125l0 18.03125l-4.296875 0zm29.96875 -11.53125l-3.984375 -0.71875q0.671875 -2.40625 2.3125 -3.5625q1.640625 -1.15625 4.875 -1.15625q2.9375 0 4.375 0.703125q1.4375 0.6875 2.015625 1.765625q0.59375 1.0625 0.59375 3.921875l-0.046875 5.125q0 2.1875 0.203125 3.234375q0.21875 1.03125 0.796875 2.21875l-4.34375 0q-0.171875 -0.4375 -0.421875 -1.296875q-0.109375 -0.390625 -0.15625 -0.515625q-1.125 1.09375 -2.40625 1.640625q-1.28125 0.546875 -2.734375 0.546875q-2.5625 0 -4.046875 -1.390625q-1.46875 -1.390625 -1.46875 -3.515625q0 -1.40625 0.671875 -2.5q0.671875 -1.109375 1.875 -1.6875q1.21875 -0.59375 3.5 -1.03125q3.078125 -0.578125 4.265625 -1.078125l0 -0.4375q0 -1.265625 -0.625 -1.796875q-0.625 -0.546875 -2.359375 -0.546875q-1.171875 0 -1.828125 0.46875q-0.65625 0.453125 -1.0625 1.609375zm5.875 3.5625q-0.84375 0.28125 -2.671875 0.671875q-1.828125 0.390625 -2.390625 0.765625q-0.859375 0.609375 -0.859375 1.546875q0 0.921875 0.6875 1.59375q0.6875 0.671875 1.75 0.671875q1.1875 0 2.265625 -0.78125q0.796875 -0.59375 1.046875 -1.453125q0.171875 -0.5625 0.171875 -2.140625l0 -0.875zm7.09375 3.234375l4.40625 -0.671875q0.28125 1.28125 1.140625 1.953125q0.859375 0.65625 2.40625 0.65625q1.703125 0 2.5625 -0.625q0.578125 -0.4375 0.578125 -1.171875q0 -0.5 -0.3125 -0.828125q-0.328125 -0.3125 -1.46875 -0.578125q-5.3125 -1.171875 -6.734375 -2.140625q-1.96875 -1.34375 -1.96875 -3.734375q0 -2.15625 1.703125 -3.625q1.703125 -1.46875 5.28125 -1.46875q3.40625 0 5.0625 1.109375q1.65625 1.109375 2.28125 3.28125l-4.140625 0.765625q-0.265625 -0.96875 -1.015625 -1.484375q-0.734375 -0.515625 -2.109375 -0.515625q-1.734375 0 -2.484375 0.484375q-0.5 0.34375 -0.5 0.890625q0 0.46875 0.4375 0.796875q0.59375 0.4375 4.09375 1.234375q3.515625 0.796875 4.90625 1.953125q1.375 1.171875 1.375 3.265625q0 2.28125 -1.90625 3.921875q-1.90625 1.640625 -5.640625 1.640625q-3.390625 0 -5.375 -1.375q-1.96875 -1.375 -2.578125 -3.734375zm26.953125 -11.859375l0 3.5l-3.0 0l0 6.6875q0 2.03125 0.078125 2.375q0.09375 0.328125 0.390625 0.546875q0.3125 0.21875 0.75 0.21875q0.609375 0 1.765625 -0.421875l0.375 3.40625q-1.53125 0.65625 -3.46875 0.65625q-1.1875 0 -2.140625 -0.390625q-0.953125 -0.40625 -1.40625 -1.03125q-0.4375 -0.640625 -0.609375 -1.71875q-0.140625 -0.765625 -0.140625 -3.09375l0 -7.234375l-2.015625 0l0 -3.5l2.015625 0l0 -3.296875l4.40625 -2.5625l0 5.859375l3.0 0zm12.65625 11.3125l4.375 0.734375q-0.84375 2.40625 -2.671875 3.671875q-1.8125 1.25 -4.546875 1.25q-4.328125 0 -6.40625 -2.828125q-1.640625 -2.265625 -1.640625 -5.71875q0 -4.125 2.15625 -6.453125q2.15625 -2.34375 5.453125 -2.34375q3.703125 0 5.84375 2.453125q2.140625 2.4375 2.046875 7.484375l-11.0 0q0.046875 1.953125 1.0625 3.046875q1.015625 1.078125 2.53125 1.078125q1.03125 0 1.734375 -0.5625q0.703125 -0.5625 1.0625 -1.8125zm0.25 -4.4375q-0.046875 -1.90625 -0.984375 -2.890625q-0.9375 -1.0 -2.28125 -1.0q-1.4375 0 -2.375 1.046875q-0.9375 1.046875 -0.921875 2.84375l6.5625 0zm12.140625 9.71875l-4.390625 0l0 -16.59375l4.078125 0l0 2.359375q1.046875 -1.671875 1.875 -2.203125q0.84375 -0.53125 1.90625 -0.53125q1.5 0 2.890625 0.828125l-1.359375 3.828125q-1.109375 -0.71875 -2.0625 -0.71875q-0.921875 0 -1.5625 0.515625q-0.640625 0.5 -1.015625 1.828125q-0.359375 1.328125 -0.359375 5.5625l0 5.125z" fill-rule="nonzero"></path><path fill="#000000" fill-opacity="0.0" d="m770.5526 259.01575l-98.04724 47.46457" fill-rule="evenodd"></path><path stroke="#0000ff" stroke-width="4.0" stroke-linejoin="round" stroke-linecap="butt" d="m770.55255 259.01575l-85.70862 41.491486" fill-rule="evenodd"></path><path fill="#0000ff" stroke="#0000ff" stroke-width="4.0" stroke-linecap="butt" d="m684.84393 300.5072l2.0888672 -6.0088806l-9.164124 9.434021l13.0841675 -1.3363342z" fill-rule="evenodd"></path><path fill="#000000" fill-opacity="0.0" d="m770.4484 172.55118l0.09448242 49.196854" fill-rule="evenodd"></path><path stroke="#0000ff" stroke-width="4.0" stroke-linejoin="round" stroke-linecap="butt" d="m770.4484 172.55118l0.068115234 35.48854" fill-rule="evenodd"></path><path fill="#0000ff" stroke="#0000ff" stroke-width="4.0" stroke-linecap="butt" d="m770.51654 208.0397l-4.506958 -4.489685l4.5220947 12.350418l4.4745483 -12.367691z" fill-rule="evenodd"></path><path fill="#000000" fill-opacity="0.0" d="m691.78705 136.48819l0 0c0 -19.917038 35.217896 -36.062996 78.66138 -36.062996l0 0c43.443542 0 78.66144 16.145958 78.66144 36.062996l0 0c0 19.917038 -35.217896 36.06299 -78.66144 36.06299l0 0c-43.44348 0 -78.66138 -16.14595 -78.66138 -36.06299z" fill-rule="evenodd"></path><path stroke="#0000ff" stroke-width="4.0" stroke-linejoin="round" stroke-linecap="butt" d="m691.78705 136.48819l0 0c0 -19.917038 35.217896 -36.062996 78.66138 -36.062996l0 0c43.443542 0 78.66144 16.145958 78.66144 36.062996l0 0c0 19.917038 -35.217896 36.06299 -78.66144 36.06299l0 0c-43.44348 0 -78.66138 -16.14595 -78.66138 -36.06299z" fill-rule="evenodd"></path><path fill="#000000" d="m727.45624 148.20819l0 -22.90625l4.625 0l0 9.015625l9.0625 0l0 -9.015625l4.625 0l0 22.90625l-4.625 0l0 -10.015625l-9.0625 0l0 10.015625l-4.625 0zm23.09375 0l0 -22.90625l16.984375 0l0 3.875l-12.359375 0l0 5.078125l11.5 0l0 3.859375l-11.5 0l0 6.234375l12.796875 0l0 3.859375l-17.421875 0zm42.0 0l-5.03125 0l-2.0 -5.203125l-9.15625 0l-1.890625 5.203125l-4.90625 0l8.921875 -22.90625l4.890625 0l9.171875 22.90625zm-8.515625 -9.0625l-3.15625 -8.5l-3.09375 8.5l6.25 0zm10.953125 -13.84375l8.453125 0q2.859375 0 4.359375 0.4375q2.015625 0.59375 3.453125 2.109375q1.4375 1.515625 2.1875 3.71875q0.75 2.1875 0.75 5.40625q0 2.828125 -0.703125 4.875q-0.859375 2.5 -2.453125 4.046875q-1.203125 1.171875 -3.25 1.828125q-1.53125 0.484375 -4.09375 0.484375l-8.703125 0l0 -22.90625zm4.625 3.875l0 15.171875l3.453125 0q1.9375 0 2.796875 -0.21875q1.125 -0.28125 1.859375 -0.953125q0.75 -0.671875 1.21875 -2.203125q0.46875 -1.546875 0.46875 -4.203125q0 -2.65625 -0.46875 -4.078125q-0.46875 -1.421875 -1.3125 -2.21875q-0.84375 -0.796875 -2.140625 -1.078125q-0.96875 -0.21875 -3.796875 -0.21875l-2.078125 0z" fill-rule="nonzero"></path><path fill="#000000" fill-opacity="0.0" d="m126.047295 140.5328l157.32281 0l0 93.291336l-157.32281 0z" fill-rule="evenodd"></path><path stroke="#000000" stroke-width="3.0" stroke-linejoin="round" stroke-linecap="butt" d="m126.047295 140.5328l157.32281 0l0 93.291336l-157.32281 0z" fill-rule="evenodd"></path><path fill="#000000" d="m135.01604 167.4528l5.234375 -13.59375l1.9375 0l5.5625 13.59375l-2.046875 0l-1.59375 -4.125l-5.6875 0l-1.484375 4.125l-1.921875 0zm3.921875 -5.578125l4.609375 0l-1.40625 -3.78125q-0.65625 -1.703125 -0.96875 -2.8125q-0.265625 1.3125 -0.734375 2.59375l-1.5 4.0zm16.193573 5.578125l0 -1.25q-0.9375 1.46875 -2.75 1.46875q-1.171875 0 -2.171875 -0.640625q-0.984375 -0.65625 -1.53125 -1.8125q-0.53125 -1.171875 -0.53125 -2.6875q0 -1.46875 0.484375 -2.671875q0.5 -1.203125 1.46875 -1.84375q0.984375 -0.640625 2.203125 -0.640625q0.890625 0 1.578125 0.375q0.703125 0.375 1.140625 0.984375l0 -4.875l1.65625 0l0 13.59375l-1.546875 0zm-5.28125 -4.921875q0 1.890625 0.796875 2.828125q0.8125 0.9375 1.890625 0.9375q1.09375 0 1.859375 -0.890625q0.765625 -0.890625 0.765625 -2.734375q0 -2.015625 -0.78125 -2.953125q-0.78125 -0.953125 -1.921875 -0.953125q-1.109375 0 -1.859375 0.90625q-0.75 0.90625 -0.75 2.859375zm15.656967 4.921875l0 -1.25q-0.9375 1.46875 -2.75 1.46875q-1.171875 0 -2.171875 -0.640625q-0.984375 -0.65625 -1.53125 -1.8125q-0.53125 -1.171875 -0.53125 -2.6875q0 -1.46875 0.484375 -2.671875q0.5 -1.203125 1.46875 -1.84375q0.984375 -0.640625 2.203125 -0.640625q0.890625 0 1.578125 0.375q0.703125 0.375 1.140625 0.984375l0 -4.875l1.65625 0l0 13.59375l-1.546875 0zm-5.28125 -4.921875q0 1.890625 0.796875 2.828125q0.8125 0.9375 1.890625 0.9375q1.09375 0 1.859375 -0.890625q0.765625 -0.890625 0.765625 -2.734375q0 -2.015625 -0.78125 -2.953125q-0.78125 -0.953125 -1.921875 -0.953125q-1.109375 0 -1.859375 0.90625q-0.75 0.90625 -0.75 2.859375zm9.281967 -6.765625l0 -1.90625l1.671875 0l0 1.90625l-1.671875 0zm0 11.6875l0 -9.859375l1.671875 0l0 9.859375l-1.671875 0zm4.129196 0l0 -9.859375l1.5 0l0 1.40625q1.09375 -1.625 3.140625 -1.625q0.890625 0 1.640625 0.328125q0.75 0.3125 1.109375 0.84375q0.375 0.515625 0.53125 1.21875q0.09375 0.46875 0.09375 1.625l0 6.0625l-1.671875 0l0 -6.0q0 -1.015625 -0.203125 -1.515625q-0.1875 -0.515625 -0.6875 -0.8125q-0.5 -0.296875 -1.171875 -0.296875q-1.0625 0 -1.84375 0.671875q-0.765625 0.671875 -0.765625 2.578125l0 5.375l-1.671875 0zm10.078842 0.8125l1.609375 0.25q0.109375 0.75 0.578125 1.09375q0.609375 0.453125 1.6875 0.453125q1.171875 0 1.796875 -0.46875q0.625 -0.453125 0.859375 -1.28125q0.125 -0.515625 0.109375 -2.15625q-1.09375 1.296875 -2.71875 1.296875q-2.03125 0 -3.15625 -1.46875q-1.109375 -1.46875 -1.109375 -3.515625q0 -1.40625 0.515625 -2.59375q0.515625 -1.203125 1.484375 -1.84375q0.96875 -0.65625 2.265625 -0.65625q1.75 0 2.875 1.40625l0 -1.1875l1.546875 0l0 8.515625q0 2.3125 -0.46875 3.265625q-0.46875 0.96875 -1.484375 1.515625q-1.015625 0.5625 -2.5 0.5625q-1.765625 0 -2.859375 -0.796875q-1.078125 -0.796875 -1.03125 -2.390625zm1.375 -5.921875q0 1.953125 0.765625 2.84375q0.78125 0.890625 1.9375 0.890625q1.140625 0 1.921875 -0.890625q0.78125 -0.890625 0.78125 -2.78125q0 -1.8125 -0.8125 -2.71875q-0.796875 -0.921875 -1.921875 -0.921875q-1.109375 0 -1.890625 0.90625q-0.78125 0.890625 -0.78125 2.671875zm14.887146 5.109375l0 -8.546875l-1.484375 0l0 -1.3125l1.484375 0l0 -1.046875q0 -0.984375 0.171875 -1.46875q0.234375 -0.65625 0.84375 -1.046875q0.609375 -0.40625 1.703125 -0.40625q0.703125 0 1.5625 0.15625l-0.25 1.46875q-0.515625 -0.09375 -0.984375 -0.09375q-0.765625 0 -1.078125 0.328125q-0.3125 0.3125 -0.3125 1.203125l0 0.90625l1.921875 0l0 1.3125l-1.921875 0l0 8.546875l-1.65625 0zm4.792679 -11.6875l0 -1.90625l1.671875 0l0 1.90625l-1.671875 0zm0 11.6875l0 -9.859375l1.671875 0l0 9.859375l-1.671875 0zm4.097946 0l0 -13.59375l1.671875 0l0 13.59375l-1.671875 0zm10.926071 -3.171875l1.71875 0.21875q-0.40625 1.5 -1.515625 2.34375q-1.09375 0.828125 -2.8125 0.828125q-2.15625 0 -3.421875 -1.328125q-1.265625 -1.328125 -1.265625 -3.734375q0 -2.484375 1.265625 -3.859375q1.28125 -1.375 3.328125 -1.375q1.984375 0 3.234375 1.34375q1.25 1.34375 1.25 3.796875q0 0.140625 -0.015625 0.4375l-7.34375 0q0.09375 1.625 0.921875 2.484375q0.828125 0.859375 2.0625 0.859375q0.90625 0 1.546875 -0.46875q0.65625 -0.484375 1.046875 -1.546875zm-5.484375 -2.703125l5.5 0q-0.109375 -1.234375 -0.625 -1.859375q-0.796875 -0.96875 -2.078125 -0.96875q-1.140625 0 -1.9375 0.78125q-0.78125 0.765625 -0.859375 2.046875zm8.438217 2.9375l1.65625 -0.265625q0.140625 1.0 0.765625 1.53125q0.640625 0.515625 1.78125 0.515625q1.15625 0 1.703125 -0.46875q0.5625 -0.46875 0.5625 -1.09375q0 -0.5625 -0.484375 -0.890625q-0.34375 -0.21875 -1.703125 -0.5625q-1.84375 -0.46875 -2.5625 -0.796875q-0.703125 -0.34375 -1.078125 -0.9375q-0.359375 -0.609375 -0.359375 -1.328125q0 -0.65625 0.296875 -1.21875q0.3125 -0.5625 0.828125 -0.9375q0.390625 -0.28125 1.0625 -0.484375q0.671875 -0.203125 1.4375 -0.203125q1.171875 0 2.046875 0.34375q0.875 0.328125 1.28125 0.90625q0.421875 0.5625 0.578125 1.515625l-1.625 0.21875q-0.109375 -0.75 -0.65625 -1.171875q-0.53125 -0.4375 -1.5 -0.4375q-1.15625 0 -1.640625 0.390625q-0.484375 0.375 -0.484375 0.875q0 0.328125 0.203125 0.59375q0.203125 0.265625 0.640625 0.4375q0.25 0.09375 1.46875 0.4375q1.765625 0.46875 2.46875 0.765625q0.703125 0.296875 1.09375 0.875q0.40625 0.578125 0.40625 1.4375q0 0.828125 -0.484375 1.578125q-0.484375 0.734375 -1.40625 1.140625q-0.921875 0.390625 -2.078125 0.390625q-1.921875 0 -2.9375 -0.796875q-1.0 -0.796875 -1.28125 -2.359375z" fill-rule="nonzero"></path><path fill="#000000" d="m136.34416 189.4528l0 -13.59375l2.75 0l0 13.59375l-2.75 0zm14.214554 0l-2.609375 0l0 -5.03125q0 -1.59375 -0.171875 -2.0625q-0.15625 -0.46875 -0.53125 -0.71875q-0.375 -0.265625 -0.90625 -0.265625q-0.6875 0 -1.234375 0.375q-0.53125 0.359375 -0.734375 0.984375q-0.1875 0.609375 -0.1875 2.25l0 4.46875l-2.609375 0l0 -9.859375l2.421875 0l0 1.453125q1.296875 -1.671875 3.25 -1.671875q0.859375 0 1.578125 0.3125q0.71875 0.3125 1.078125 0.796875q0.359375 0.484375 0.5 1.09375q0.15625 0.609375 0.15625 1.75l0 6.125zm2.1928558 0.65625l2.96875 0.359375q0.078125 0.515625 0.34375 0.703125q0.375 0.28125 1.171875 0.28125q1.03125 0 1.53125 -0.296875q0.34375 -0.203125 0.515625 -0.65625q0.125 -0.328125 0.125 -1.203125l0 -1.4375q-1.171875 1.59375 -2.953125 1.59375q-1.984375 0 -3.140625 -1.671875q-0.90625 -1.328125 -0.90625 -3.3125q0 -2.46875 1.1875 -3.78125q1.1875 -1.3125 2.96875 -1.3125q1.828125 0 3.015625 1.609375l0 -1.390625l2.4375 0l0 8.84375q0 1.75 -0.296875 2.609375q-0.28125 0.859375 -0.796875 1.34375q-0.515625 0.5 -1.390625 0.78125q-0.859375 0.28125 -2.1875 0.28125q-2.515625 0 -3.5625 -0.859375q-1.046875 -0.859375 -1.046875 -2.171875q0 -0.140625 0.015625 -0.3125zm2.328125 -5.78125q0 1.5625 0.609375 2.296875q0.609375 0.71875 1.5 0.71875q0.953125 0 1.609375 -0.734375q0.65625 -0.75 0.65625 -2.21875q0 -1.53125 -0.640625 -2.265625q-0.625 -0.75 -1.578125 -0.75q-0.9375 0 -1.546875 0.734375q-0.609375 0.71875 -0.609375 2.21875zm11.802231 5.125l-2.609375 0l0 -9.859375l2.421875 0l0 1.40625q0.625 -0.984375 1.109375 -1.296875q0.5 -0.328125 1.140625 -0.328125q0.890625 0 1.71875 0.5l-0.8125 2.265625q-0.65625 -0.421875 -1.21875 -0.421875q-0.546875 0 -0.9375 0.296875q-0.375 0.296875 -0.59375 1.09375q-0.21875 0.78125 -0.21875 3.296875l0 3.046875zm10.463394 -3.140625l2.609375 0.4375q-0.5 1.4375 -1.59375 2.1875q-1.078125 0.734375 -2.703125 0.734375q-2.5625 0 -3.796875 -1.671875q-0.96875 -1.34375 -0.96875 -3.40625q0 -2.4375 1.265625 -3.828125q1.28125 -1.390625 3.25 -1.390625q2.1875 0 3.453125 1.453125q1.28125 1.453125 1.234375 4.453125l-6.53125 0q0.015625 1.15625 0.625 1.8125q0.609375 0.640625 1.5 0.640625q0.609375 0 1.03125 -0.328125q0.421875 -0.34375 0.625 -1.09375zm0.15625 -2.625q-0.03125 -1.140625 -0.59375 -1.71875q-0.546875 -0.59375 -1.34375 -0.59375q-0.859375 0 -1.40625 0.625q-0.5625 0.609375 -0.546875 1.6875l3.890625 0zm13.563217 5.765625l-2.421875 0l0 -1.453125q-0.609375 0.84375 -1.4375 1.265625q-0.8125 0.40625 -1.640625 0.40625q-1.703125 0 -2.921875 -1.359375q-1.203125 -1.375 -1.203125 -3.828125q0 -2.5 1.171875 -3.796875q1.1875 -1.3125 2.984375 -1.3125q1.65625 0 2.859375 1.375l0 -4.890625l2.609375 0l0 13.59375zm-6.96875 -5.140625q0 1.578125 0.4375 2.28125q0.640625 1.015625 1.765625 1.015625q0.90625 0 1.53125 -0.765625q0.625 -0.765625 0.625 -2.28125q0 -1.703125 -0.609375 -2.4375q-0.609375 -0.75 -1.5625 -0.75q-0.9375 0 -1.5625 0.734375q-0.625 0.734375 -0.625 2.203125zm9.317856 -6.046875l0 -2.40625l2.609375 0l0 2.40625l-2.609375 0zm0 11.1875l0 -9.859375l2.609375 0l0 9.859375l-2.609375 0zm10.886429 -3.140625l2.609375 0.4375q-0.5 1.4375 -1.59375 2.1875q-1.078125 0.734375 -2.703125 0.734375q-2.5625 0 -3.796875 -1.671875q-0.96875 -1.34375 -0.96875 -3.40625q0 -2.4375 1.265625 -3.828125q1.28125 -1.390625 3.25 -1.390625q2.1875 0 3.453125 1.453125q1.28125 1.453125 1.234375 4.453125l-6.53125 0q0.015625 1.15625 0.625 1.8125q0.609375 0.640625 1.5 0.640625q0.609375 0 1.03125 -0.328125q0.421875 -0.34375 0.625 -1.09375zm0.15625 -2.625q-0.03125 -1.140625 -0.59375 -1.71875q-0.546875 -0.59375 -1.34375 -0.59375q-0.859375 0 -1.40625 0.625q-0.5625 0.609375 -0.546875 1.6875l3.890625 0zm13.485092 5.765625l-2.609375 0l0 -5.03125q0 -1.59375 -0.171875 -2.0625q-0.15625 -0.46875 -0.53125 -0.71875q-0.375 -0.265625 -0.90625 -0.265625q-0.6875 0 -1.234375 0.375q-0.53125 0.359375 -0.734375 0.984375q-0.1875 0.609375 -0.1875 2.25l0 4.46875l-2.609375 0l0 -9.859375l2.421875 0l0 1.453125q1.296875 -1.671875 3.25 -1.671875q0.859375 0 1.578125 0.3125q0.71875 0.3125 1.078125 0.796875q0.359375 0.484375 0.5 1.09375q0.15625 0.609375 0.15625 1.75l0 6.125zm6.942856 -9.859375l0 2.078125l-1.78125 0l0 3.984375q0 1.203125 0.046875 1.40625q0.0625 0.1875 0.234375 0.328125q0.1875 0.125 0.453125 0.125q0.359375 0 1.046875 -0.25l0.21875 2.015625q-0.90625 0.390625 -2.0625 0.390625q-0.703125 0 -1.265625 -0.234375q-0.5625 -0.234375 -0.828125 -0.609375q-0.265625 -0.375 -0.375 -1.015625q-0.078125 -0.453125 -0.078125 -1.84375l0 -4.296875l-1.203125 0l0 -2.078125l1.203125 0l0 -1.953125l2.609375 -1.515625l0 3.46875l1.78125 0zm0.790802 7.046875l2.609375 -0.390625q0.171875 0.75 0.671875 1.15625q0.515625 0.390625 1.4375 0.390625q1.0 0 1.515625 -0.375q0.34375 -0.265625 0.34375 -0.703125q0 -0.296875 -0.1875 -0.484375q-0.1875 -0.1875 -0.875 -0.34375q-3.140625 -0.703125 -4.0 -1.265625q-1.15625 -0.796875 -1.15625 -2.21875q0 -1.28125 1.0 -2.15625q1.015625 -0.875 3.140625 -0.875q2.03125 0 3.0 0.65625q0.984375 0.65625 1.359375 1.953125l-2.453125 0.453125q-0.15625 -0.578125 -0.609375 -0.875q-0.4375 -0.3125 -1.25 -0.3125q-1.03125 0 -1.46875 0.296875q-0.296875 0.203125 -0.296875 0.515625q0 0.28125 0.25 0.484375q0.359375 0.25 2.4375 0.734375q2.078125 0.46875 2.90625 1.15625q0.828125 0.6875 0.828125 1.9375q0 1.359375 -1.140625 2.328125q-1.125 0.96875 -3.34375 0.96875q-2.015625 0 -3.1875 -0.8125q-1.171875 -0.8125 -1.53125 -2.21875zm11.281967 2.8125l0 -2.609375l2.609375 0l0 2.609375l-2.609375 0zm9.698929 -9.859375l0 2.078125l-1.78125 0l0 3.984375q0 1.203125 0.046875 1.40625q0.0625 0.1875 0.234375 0.328125q0.1875 0.125 0.453125 0.125q0.359375 0 1.046875 -0.25l0.21875 2.015625q-0.90625 0.390625 -2.0625 0.390625q-0.703125 0 -1.265625 -0.234375q-0.5625 -0.234375 -0.828125 -0.609375q-0.265625 -0.375 -0.375 -1.015625q-0.078125 -0.453125 -0.078125 -1.84375l0 -4.296875l-1.203125 0l0 -2.078125l1.203125 0l0 -1.953125l2.609375 -1.515625l0 3.46875l1.78125 0zm0.447052 9.859375l3.5625 -5.078125l-3.40625 -4.78125l3.171875 0l1.75 2.71875l1.828125 -2.71875l3.0625 0l-3.328125 4.671875l3.640625 5.1875l-3.203125 0l-2.0 -3.046875l-2.03125 3.046875l-3.046875 0zm16.141357 -9.859375l0 2.078125l-1.78125 0l0 3.984375q0 1.203125 0.046875 1.40625q0.0625 0.1875 0.234375 0.328125q0.1875 0.125 0.453125 0.125q0.359375 0 1.046875 -0.25l0.21875 2.015625q-0.90625 0.390625 -2.0625 0.390625q-0.703125 0 -1.265625 -0.234375q-0.5625 -0.234375 -0.828125 -0.609375q-0.265625 -0.375 -0.375 -1.015625q-0.078125 -0.453125 -0.078125 -1.84375l0 -4.296875l-1.203125 0l0 -2.078125l1.203125 0l0 -1.953125l2.609375 -1.515625l0 3.46875l1.78125 0z" fill-rule="nonzero"></path><path fill="#000000" d="m136.40666 200.2653l0 -2.40625l2.609375 0l0 2.40625l-2.609375 0zm0 11.1875l0 -9.859375l2.609375 0l0 9.859375l-2.609375 0zm14.152054 0l-2.609375 0l0 -5.03125q0 -1.59375 -0.171875 -2.0625q-0.15625 -0.46875 -0.53125 -0.71875q-0.375 -0.265625 -0.90625 -0.265625q-0.6875 0 -1.234375 0.375q-0.53125 0.359375 -0.734375 0.984375q-0.1875 0.609375 -0.1875 2.25l0 4.46875l-2.609375 0l0 -9.859375l2.421875 0l0 1.453125q1.296875 -1.671875 3.25 -1.671875q0.859375 0 1.578125 0.3125q0.71875 0.3125 1.078125 0.796875q0.359375 0.484375 0.5 1.09375q0.15625 0.609375 0.15625 1.75l0 6.125zm1.5209808 -2.8125l2.609375 -0.390625q0.171875 0.75 0.671875 1.15625q0.515625 0.390625 1.4375 0.390625q1.0 0 1.515625 -0.375q0.34375 -0.265625 0.34375 -0.703125q0 -0.296875 -0.1875 -0.484375q-0.1875 -0.1875 -0.875 -0.34375q-3.140625 -0.703125 -4.0 -1.265625q-1.15625 -0.796875 -1.15625 -2.21875q0 -1.28125 1.0 -2.15625q1.015625 -0.875 3.140625 -0.875q2.03125 0 3.0 0.65625q0.984375 0.65625 1.359375 1.953125l-2.453125 0.453125q-0.15625 -0.578125 -0.609375 -0.875q-0.4375 -0.3125 -1.25 -0.3125q-1.03125 0 -1.46875 0.296875q-0.296875 0.203125 -0.296875 0.515625q0 0.28125 0.25 0.484375q0.359375 0.25 2.4375 0.734375q2.078125 0.46875 2.90625 1.15625q0.828125 0.6875 0.828125 1.9375q0 1.359375 -1.140625 2.328125q-1.125 0.96875 -3.34375 0.96875q-2.015625 0 -3.1875 -0.8125q-1.171875 -0.8125 -1.53125 -2.21875zm15.797592 -7.046875l0 2.078125l-1.78125 0l0 3.984375q0 1.203125 0.046875 1.40625q0.0625 0.1875 0.234375 0.328125q0.1875 0.125 0.453125 0.125q0.359375 0 1.046875 -0.25l0.21875 2.015625q-0.90625 0.390625 -2.0625 0.390625q-0.703125 0 -1.265625 -0.234375q-0.5625 -0.234375 -0.828125 -0.609375q-0.265625 -0.375 -0.375 -1.015625q-0.078125 -0.453125 -0.078125 -1.84375l0 -4.296875l-1.203125 0l0 -2.078125l1.203125 0l0 -1.953125l2.609375 -1.515625l0 3.46875l1.78125 0zm4.197052 9.859375l-2.609375 0l0 -9.859375l2.421875 0l0 1.40625q0.625 -0.984375 1.109375 -1.296875q0.5 -0.328125 1.140625 -0.328125q0.890625 0 1.71875 0.5l-0.8125 2.265625q-0.65625 -0.421875 -1.21875 -0.421875q-0.546875 0 -0.9375 0.296875q-0.375 0.296875 -0.59375 1.09375q-0.21875 0.78125 -0.21875 3.296875l0 3.046875zm11.244644 0l0 -1.46875q-0.53125 0.78125 -1.40625 1.234375q-0.875 0.453125 -1.859375 0.453125q-0.984375 0 -1.78125 -0.4375q-0.78125 -0.4375 -1.140625 -1.21875q-0.34375 -0.796875 -0.34375 -2.1875l0 -6.234375l2.609375 0l0 4.53125q0 2.078125 0.140625 2.546875q0.140625 0.46875 0.515625 0.75q0.390625 0.265625 0.96875 0.265625q0.671875 0 1.203125 -0.359375q0.53125 -0.375 0.71875 -0.90625q0.1875 -0.546875 0.1875 -2.671875l0 -4.15625l2.609375 0l0 9.859375l-2.421875 0zm13.505356 -6.9375l-2.5625 0.46875q-0.140625 -0.78125 -0.59375 -1.171875q-0.453125 -0.390625 -1.1875 -0.390625q-0.984375 0 -1.5625 0.671875q-0.578125 0.671875 -0.578125 2.25q0 1.765625 0.578125 2.484375q0.59375 0.71875 1.59375 0.71875q0.75 0 1.21875 -0.421875q0.46875 -0.421875 0.671875 -1.453125l2.546875 0.4375q-0.390625 1.765625 -1.53125 2.671875q-1.125 0.890625 -3.03125 0.890625q-2.15625 0 -3.453125 -1.359375q-1.28125 -1.359375 -1.28125 -3.78125q0 -2.4375 1.296875 -3.796875q1.296875 -1.359375 3.484375 -1.359375q1.796875 0 2.859375 0.78125q1.0625 0.765625 1.53125 2.359375zm6.297592 -2.921875l0 2.078125l-1.78125 0l0 3.984375q0 1.203125 0.046875 1.40625q0.0625 0.1875 0.234375 0.328125q0.1875 0.125 0.453125 0.125q0.359375 0 1.046875 -0.25l0.21875 2.015625q-0.90625 0.390625 -2.0625 0.390625q-0.703125 0 -1.265625 -0.234375q-0.5625 -0.234375 -0.828125 -0.609375q-0.265625 -0.375 -0.375 -1.015625q-0.078125 -0.453125 -0.078125 -1.84375l0 -4.296875l-1.203125 0l0 -2.078125l1.203125 0l0 -1.953125l2.609375 -1.515625l0 3.46875l1.78125 0zm1.697052 -1.328125l0 -2.40625l2.609375 0l0 2.40625l-2.609375 0zm0 11.1875l0 -9.859375l2.609375 0l0 9.859375l-2.609375 0zm4.589554 -5.0625q0 -1.296875 0.640625 -2.515625q0.640625 -1.21875 1.8125 -1.859375q1.171875 -0.640625 2.609375 -0.640625q2.25 0 3.671875 1.453125q1.421875 1.453125 1.421875 3.671875q0 2.234375 -1.4375 3.703125q-1.4375 1.46875 -3.625 1.46875q-1.359375 0 -2.59375 -0.609375q-1.21875 -0.609375 -1.859375 -1.796875q-0.640625 -1.1875 -0.640625 -2.875zm2.671875 0.140625q0 1.46875 0.6875 2.25q0.703125 0.765625 1.71875 0.765625q1.015625 0 1.703125 -0.765625q0.703125 -0.78125 0.703125 -2.265625q0 -1.453125 -0.703125 -2.234375q-0.6875 -0.78125 -1.703125 -0.78125q-1.015625 0 -1.71875 0.78125q-0.6875 0.78125 -0.6875 2.25zm18.286606 4.921875l-2.609375 0l0 -5.03125q0 -1.59375 -0.171875 -2.0625q-0.15625 -0.46875 -0.53125 -0.71875q-0.375 -0.265625 -0.90625 -0.265625q-0.6875 0 -1.234375 0.375q-0.53125 0.359375 -0.734375 0.984375q-0.1875 0.609375 -0.1875 2.25l0 4.46875l-2.609375 0l0 -9.859375l2.421875 0l0 1.453125q1.296875 -1.671875 3.25 -1.671875q0.859375 0 1.578125 0.3125q0.71875 0.3125 1.078125 0.796875q0.359375 0.484375 0.5 1.09375q0.15625 0.609375 0.15625 1.75l0 6.125zm1.5209808 -2.8125l2.609375 -0.390625q0.171875 0.75 0.671875 1.15625q0.515625 0.390625 1.4375 0.390625q1.0 0 1.515625 -0.375q0.34375 -0.265625 0.34375 -0.703125q0 -0.296875 -0.1875 -0.484375q-0.1875 -0.1875 -0.875 -0.34375q-3.140625 -0.703125 -4.0 -1.265625q-1.15625 -0.796875 -1.15625 -2.21875q0 -1.28125 1.0 -2.15625q1.015625 -0.875 3.140625 -0.875q2.03125 0 3.0 0.65625q0.984375 0.65625 1.359375 1.953125l-2.453125 0.453125q-0.15625 -0.578125 -0.609375 -0.875q-0.4375 -0.3125 -1.25 -0.3125q-1.03125 0 -1.46875 0.296875q-0.296875 0.203125 -0.296875 0.515625q0 0.28125 0.25 0.484375q0.359375 0.25 2.4375 0.734375q2.078125 0.46875 2.90625 1.15625q0.828125 0.6875 0.828125 1.9375q0 1.359375 -1.140625 2.328125q-1.125 0.96875 -3.34375 0.96875q-2.015625 0 -3.1875 -0.8125q-1.171875 -0.8125 -1.53125 -2.21875zm11.281967 2.8125l0 -2.609375l2.609375 0l0 2.609375l-2.609375 0zm9.698929 -9.859375l0 2.078125l-1.78125 0l0 3.984375q0 1.203125 0.046875 1.40625q0.0625 0.1875 0.234375 0.328125q0.1875 0.125 0.453125 0.125q0.359375 0 1.046875 -0.25l0.21875 2.015625q-0.90625 0.390625 -2.0625 0.390625q-0.703125 0 -1.265625 -0.234375q-0.5625 -0.234375 -0.828125 -0.609375q-0.265625 -0.375 -0.375 -1.015625q-0.078125 -0.453125 -0.078125 -1.84375l0 -4.296875l-1.203125 0l0 -2.078125l1.203125 0l0 -1.953125l2.609375 -1.515625l0 3.46875l1.78125 0zm0.447052 9.859375l3.5625 -5.078125l-3.40625 -4.78125l3.171875 0l1.75 2.71875l1.828125 -2.71875l3.0625 0l-3.328125 4.671875l3.640625 5.1875l-3.203125 0l-2.0 -3.046875l-2.03125 3.046875l-3.046875 0zm16.141357 -9.859375l0 2.078125l-1.78125 0l0 3.984375q0 1.203125 0.046875 1.40625q0.0625 0.1875 0.234375 0.328125q0.1875 0.125 0.453125 0.125q0.359375 0 1.046875 -0.25l0.21875 2.015625q-0.90625 0.390625 -2.0625 0.390625q-0.703125 0 -1.265625 -0.234375q-0.5625 -0.234375 -0.828125 -0.609375q-0.265625 -0.375 -0.375 -1.015625q-0.078125 -0.453125 -0.078125 -1.84375l0 -4.296875l-1.203125 0l0 -2.078125l1.203125 0l0 -1.953125l2.609375 -1.515625l0 3.46875l1.78125 0z" fill-rule="nonzero"></path><path fill="#000000" fill-opacity="0.0" d="m348.5092 142.93176l148.81891 0l0 93.291336l-148.81891 0z" fill-rule="evenodd"></path><path stroke="#000000" stroke-width="3.0" stroke-linejoin="round" stroke-linecap="butt" d="m348.5092 142.93176l148.81891 0l0 93.291336l-148.81891 0z" fill-rule="evenodd"></path><path fill="#000000" d="m358.91544 169.85176l0 -13.59375l2.71875 0l3.21875 9.625q0.4375 1.34375 0.640625 2.015625q0.234375 -0.75 0.734375 -2.1875l3.25 -9.453125l2.421875 0l0 13.59375l-1.734375 0l0 -11.390625l-3.953125 11.390625l-1.625 0l-3.9375 -11.578125l0 11.578125l-1.734375 0zm14.759552 -4.921875q0 -2.734375 1.53125 -4.0625q1.265625 -1.09375 3.09375 -1.09375q2.03125 0 3.3125 1.34375q1.296875 1.328125 1.296875 3.671875q0 1.90625 -0.578125 3.0q-0.5625 1.078125 -1.65625 1.6875q-1.078125 0.59375 -2.375 0.59375q-2.0625 0 -3.34375 -1.328125q-1.28125 -1.328125 -1.28125 -3.8125zm1.71875 0q0 1.890625 0.828125 2.828125q0.828125 0.9375 2.078125 0.9375q1.25 0 2.0625 -0.9375q0.828125 -0.953125 0.828125 -2.890625q0 -1.828125 -0.828125 -2.765625q-0.828125 -0.9375 -2.0625 -0.9375q-1.25 0 -2.078125 0.9375q-0.828125 0.9375 -0.828125 2.828125zm15.672607 4.921875l0 -1.25q-0.9375 1.46875 -2.75 1.46875q-1.171875 0 -2.171875 -0.640625q-0.984375 -0.65625 -1.53125 -1.8125q-0.53125 -1.171875 -0.53125 -2.6875q0 -1.46875 0.484375 -2.671875q0.5 -1.203125 1.46875 -1.84375q0.984375 -0.640625 2.203125 -0.640625q0.890625 0 1.578125 0.375q0.703125 0.375 1.140625 0.984375l0 -4.875l1.65625 0l0 13.59375l-1.546875 0zm-5.28125 -4.921875q0 1.890625 0.796875 2.828125q0.8125 0.9375 1.890625 0.9375q1.09375 0 1.859375 -0.890625q0.765625 -0.890625 0.765625 -2.734375q0 -2.015625 -0.78125 -2.953125q-0.78125 -0.953125 -1.921875 -0.953125q-1.109375 0 -1.859375 0.90625q-0.75 0.90625 -0.75 2.859375zm9.281952 -6.765625l0 -1.90625l1.671875 0l0 1.90625l-1.671875 0zm0 11.6875l0 -9.859375l1.671875 0l0 9.859375l-1.671875 0zm4.5354614 0l0 -8.546875l-1.484375 0l0 -1.3125l1.484375 0l0 -1.046875q0 -0.984375 0.171875 -1.46875q0.234375 -0.65625 0.84375 -1.046875q0.609375 -0.40625 1.703125 -0.40625q0.703125 0 1.5625 0.15625l-0.25 1.46875q-0.515625 -0.09375 -0.984375 -0.09375q-0.765625 0 -1.078125 0.328125q-0.3125 0.3125 -0.3125 1.203125l0 0.90625l1.921875 0l0 1.3125l-1.921875 0l0 8.546875l-1.65625 0zm4.7926636 -11.6875l0 -1.90625l1.671875 0l0 1.90625l-1.671875 0zm0 11.6875l0 -9.859375l1.671875 0l0 9.859375l-1.671875 0zm10.879211 -3.171875l1.71875 0.21875q-0.40625 1.5 -1.515625 2.34375q-1.09375 0.828125 -2.8125 0.828125q-2.15625 0 -3.421875 -1.328125q-1.265625 -1.328125 -1.265625 -3.734375q0 -2.484375 1.265625 -3.859375q1.28125 -1.375 3.328125 -1.375q1.984375 0 3.234375 1.34375q1.25 1.34375 1.25 3.796875q0 0.140625 -0.015625 0.4375l-7.34375 0q0.09375 1.625 0.921875 2.484375q0.828125 0.859375 2.0625 0.859375q0.90625 0 1.546875 -0.46875q0.65625 -0.484375 1.046875 -1.546875zm-5.484375 -2.703125l5.5 0q-0.109375 -1.234375 -0.625 -1.859375q-0.796875 -0.96875 -2.078125 -0.96875q-1.140625 0 -1.9375 0.78125q-0.78125 0.765625 -0.859375 2.046875zm15.500702 5.875l0 -1.25q-0.9375 1.46875 -2.75 1.46875q-1.171875 0 -2.171875 -0.640625q-0.984375 -0.65625 -1.53125 -1.8125q-0.53125 -1.171875 -0.53125 -2.6875q0 -1.46875 0.484375 -2.671875q0.5 -1.203125 1.46875 -1.84375q0.984375 -0.640625 2.203125 -0.640625q0.890625 0 1.578125 0.375q0.703125 0.375 1.140625 0.984375l0 -4.875l1.65625 0l0 13.59375l-1.546875 0zm-5.28125 -4.921875q0 1.890625 0.796875 2.828125q0.8125 0.9375 1.890625 0.9375q1.09375 0 1.859375 -0.890625q0.765625 -0.890625 0.765625 -2.734375q0 -2.015625 -0.78125 -2.953125q-0.78125 -0.953125 -1.921875 -0.953125q-1.109375 0 -1.859375 0.90625q-0.75 0.90625 -0.75 2.859375z" fill-rule="nonzero"></path><path fill="#000000" d="m358.80606 191.85176l0 -13.59375l2.75 0l0 13.59375l-2.75 0zm14.214569 0l-2.609375 0l0 -5.03125q0 -1.59375 -0.171875 -2.0625q-0.15625 -0.46875 -0.53125 -0.71875q-0.375 -0.265625 -0.90625 -0.265625q-0.6875 0 -1.234375 0.375q-0.53125 0.359375 -0.734375 0.984375q-0.1875 0.609375 -0.1875 2.25l0 4.46875l-2.609375 0l0 -9.859375l2.421875 0l0 1.453125q1.296875 -1.671875 3.25 -1.671875q0.859375 0 1.578125 0.3125q0.71875 0.3125 1.078125 0.796875q0.359375 0.484375 0.5 1.09375q0.15625 0.609375 0.15625 1.75l0 6.125zm2.1928406 0.65625l2.96875 0.359375q0.078125 0.515625 0.34375 0.703125q0.375 0.28125 1.171875 0.28125q1.03125 0 1.53125 -0.296875q0.34375 -0.203125 0.515625 -0.65625q0.125 -0.328125 0.125 -1.203125l0 -1.4375q-1.171875 1.59375 -2.953125 1.59375q-1.984375 0 -3.140625 -1.671875q-0.90625 -1.328125 -0.90625 -3.3125q0 -2.46875 1.1875 -3.78125q1.1875 -1.3125 2.96875 -1.3125q1.828125 0 3.015625 1.609375l0 -1.390625l2.4375 0l0 8.84375q0 1.75 -0.296875 2.609375q-0.28125 0.859375 -0.796875 1.34375q-0.515625 0.5 -1.390625 0.78125q-0.859375 0.28125 -2.1875 0.28125q-2.515625 0 -3.5625 -0.859375q-1.046875 -0.859375 -1.046875 -2.171875q0 -0.140625 0.015625 -0.3125zm2.328125 -5.78125q0 1.5625 0.609375 2.296875q0.609375 0.71875 1.5 0.71875q0.953125 0 1.609375 -0.734375q0.65625 -0.75 0.65625 -2.21875q0 -1.53125 -0.640625 -2.265625q-0.625 -0.75 -1.578125 -0.75q-0.9375 0 -1.546875 0.734375q-0.609375 0.71875 -0.609375 2.21875zm11.802246 5.125l-2.609375 0l0 -9.859375l2.421875 0l0 1.40625q0.625 -0.984375 1.109375 -1.296875q0.5 -0.328125 1.140625 -0.328125q0.890625 0 1.71875 0.5l-0.8125 2.265625q-0.65625 -0.421875 -1.21875 -0.421875q-0.546875 0 -0.9375 0.296875q-0.375 0.296875 -0.59375 1.09375q-0.21875 0.78125 -0.21875 3.296875l0 3.046875zm10.463379 -3.140625l2.609375 0.4375q-0.5 1.4375 -1.59375 2.1875q-1.078125 0.734375 -2.703125 0.734375q-2.5625 0 -3.796875 -1.671875q-0.96875 -1.34375 -0.96875 -3.40625q0 -2.4375 1.265625 -3.828125q1.28125 -1.390625 3.25 -1.390625q2.1875 0 3.453125 1.453125q1.28125 1.453125 1.234375 4.453125l-6.53125 0q0.015625 1.15625 0.625 1.8125q0.609375 0.640625 1.5 0.640625q0.609375 0 1.03125 -0.328125q0.421875 -0.34375 0.625 -1.09375zm0.15625 -2.625q-0.03125 -1.140625 -0.59375 -1.71875q-0.546875 -0.59375 -1.34375 -0.59375q-0.859375 0 -1.40625 0.625q-0.5625 0.609375 -0.546875 1.6875l3.890625 0zm13.563232 5.765625l-2.421875 0l0 -1.453125q-0.609375 0.84375 -1.4375 1.265625q-0.8125 0.40625 -1.640625 0.40625q-1.703125 0 -2.921875 -1.359375q-1.203125 -1.375 -1.203125 -3.828125q0 -2.5 1.171875 -3.796875q1.1875 -1.3125 2.984375 -1.3125q1.65625 0 2.859375 1.375l0 -4.890625l2.609375 0l0 13.59375zm-6.96875 -5.140625q0 1.578125 0.4375 2.28125q0.640625 1.015625 1.765625 1.015625q0.90625 0 1.53125 -0.765625q0.625 -0.765625 0.625 -2.28125q0 -1.703125 -0.609375 -2.4375q-0.609375 -0.75 -1.5625 -0.75q-0.9375 0 -1.5625 0.734375q-0.625 0.734375 -0.625 2.203125zm9.317841 -6.046875l0 -2.40625l2.609375 0l0 2.40625l-2.609375 0zm0 11.1875l0 -9.859375l2.609375 0l0 9.859375l-2.609375 0zm10.886444 -3.140625l2.609375 0.4375q-0.5 1.4375 -1.59375 2.1875q-1.078125 0.734375 -2.703125 0.734375q-2.5625 0 -3.796875 -1.671875q-0.96875 -1.34375 -0.96875 -3.40625q0 -2.4375 1.265625 -3.828125q1.28125 -1.390625 3.25 -1.390625q2.1875 0 3.453125 1.453125q1.28125 1.453125 1.234375 4.453125l-6.53125 0q0.015625 1.15625 0.625 1.8125q0.609375 0.640625 1.5 0.640625q0.609375 0 1.03125 -0.328125q0.421875 -0.34375 0.625 -1.09375zm0.15625 -2.625q-0.03125 -1.140625 -0.59375 -1.71875q-0.546875 -0.59375 -1.34375 -0.59375q-0.859375 0 -1.40625 0.625q-0.5625 0.609375 -0.546875 1.6875l3.890625 0zm13.485077 5.765625l-2.609375 0l0 -5.03125q0 -1.59375 -0.171875 -2.0625q-0.15625 -0.46875 -0.53125 -0.71875q-0.375 -0.265625 -0.90625 -0.265625q-0.6875 0 -1.234375 0.375q-0.53125 0.359375 -0.734375 0.984375q-0.1875 0.609375 -0.1875 2.25l0 4.46875l-2.609375 0l0 -9.859375l2.421875 0l0 1.453125q1.296875 -1.671875 3.25 -1.671875q0.859375 0 1.578125 0.3125q0.71875 0.3125 1.078125 0.796875q0.359375 0.484375 0.5 1.09375q0.15625 0.609375 0.15625 1.75l0 6.125zm6.942871 -9.859375l0 2.078125l-1.78125 0l0 3.984375q0 1.203125 0.046875 1.40625q0.0625 0.1875 0.234375 0.328125q0.1875 0.125 0.453125 0.125q0.359375 0 1.046875 -0.25l0.21875 2.015625q-0.90625 0.390625 -2.0625 0.390625q-0.703125 0 -1.265625 -0.234375q-0.5625 -0.234375 -0.828125 -0.609375q-0.265625 -0.375 -0.375 -1.015625q-0.078125 -0.453125 -0.078125 -1.84375l0 -4.296875l-1.203125 0l0 -2.078125l1.203125 0l0 -1.953125l2.609375 -1.515625l0 3.46875l1.78125 0zm0.790802 7.046875l2.609375 -0.390625q0.171875 0.75 0.671875 1.15625q0.515625 0.390625 1.4375 0.390625q1.0 0 1.515625 -0.375q0.34375 -0.265625 0.34375 -0.703125q0 -0.296875 -0.1875 -0.484375q-0.1875 -0.1875 -0.875 -0.34375q-3.140625 -0.703125 -4.0 -1.265625q-1.15625 -0.796875 -1.15625 -2.21875q0 -1.28125 1.0 -2.15625q1.015625 -0.875 3.140625 -0.875q2.03125 0 3.0 0.65625q0.984375 0.65625 1.359375 1.953125l-2.453125 0.453125q-0.15625 -0.578125 -0.609375 -0.875q-0.4375 -0.3125 -1.25 -0.3125q-1.03125 0 -1.46875 0.296875q-0.296875 0.203125 -0.296875 0.515625q0 0.28125 0.25 0.484375q0.359375 0.25 2.4375 0.734375q2.078125 0.46875 2.90625 1.15625q0.828125 0.6875 0.828125 1.9375q0 1.359375 -1.140625 2.328125q-1.125 0.96875 -3.34375 0.96875q-2.015625 0 -3.1875 -0.8125q-1.171875 -0.8125 -1.53125 -2.21875zm11.281952 2.8125l0 -2.609375l2.609375 0l0 2.609375l-2.609375 0zm9.698944 -9.859375l0 2.078125l-1.78125 0l0 3.984375q0 1.203125 0.046875 1.40625q0.0625 0.1875 0.234375 0.328125q0.1875 0.125 0.453125 0.125q0.359375 0 1.046875 -0.25l0.21875 2.015625q-0.90625 0.390625 -2.0625 0.390625q-0.703125 0 -1.265625 -0.234375q-0.5625 -0.234375 -0.828125 -0.609375q-0.265625 -0.375 -0.375 -1.015625q-0.078125 -0.453125 -0.078125 -1.84375l0 -4.296875l-1.203125 0l0 -2.078125l1.203125 0l0 -1.953125l2.609375 -1.515625l0 3.46875l1.78125 0zm0.447052 9.859375l3.5625 -5.078125l-3.40625 -4.78125l3.171875 0l1.75 2.71875l1.828125 -2.71875l3.0625 0l-3.328125 4.671875l3.640625 5.1875l-3.203125 0l-2.0 -3.046875l-2.03125 3.046875l-3.046875 0zm16.141327 -9.859375l0 2.078125l-1.78125 0l0 3.984375q0 1.203125 0.046875 1.40625q0.0625 0.1875 0.234375 0.328125q0.1875 0.125 0.453125 0.125q0.359375 0 1.046875 -0.25l0.21875 2.015625q-0.90625 0.390625 -2.0625 0.390625q-0.703125 0 -1.265625 -0.234375q-0.5625 -0.234375 -0.828125 -0.609375q-0.265625 -0.375 -0.375 -1.015625q-0.078125 -0.453125 -0.078125 -1.84375l0 -4.296875l-1.203125 0l0 -2.078125l1.203125 0l0 -1.953125l2.609375 -1.515625l0 3.46875l1.78125 0z" fill-rule="nonzero"></path><path fill="#000000" d="m362.41544 212.35176l0.234375 1.484375q-0.703125 0.140625 -1.265625 0.140625q-0.90625 0 -1.40625 -0.28125q-0.5 -0.296875 -0.703125 -0.75q-0.203125 -0.46875 -0.203125 -1.984375l0 -5.65625l-1.234375 0l0 -1.3125l1.234375 0l0 -2.4375l1.65625 -1.0l0 3.4375l1.6875 0l0 1.3125l-1.6875 0l0 5.75q0 0.71875 0.078125 0.921875q0.09375 0.203125 0.296875 0.328125q0.203125 0.125 0.578125 0.125q0.265625 0 0.734375 -0.078125zm0.9020691 -3.421875q0 -2.734375 1.53125 -4.0625q1.265625 -1.09375 3.09375 -1.09375q2.03125 0 3.3125 1.34375q1.296875 1.328125 1.296875 3.671875q0 1.90625 -0.578125 3.0q-0.5625 1.078125 -1.65625 1.6875q-1.078125 0.59375 -2.375 0.59375q-2.0625 0 -3.34375 -1.328125q-1.28125 -1.328125 -1.28125 -3.8125zm1.71875 0q0 1.890625 0.828125 2.828125q0.828125 0.9375 2.078125 0.9375q1.25 0 2.0625 -0.9375q0.828125 -0.953125 0.828125 -2.890625q0 -1.828125 -0.828125 -2.765625q-0.828125 -0.9375 -2.0625 -0.9375q-1.25 0 -2.078125 0.9375q-0.828125 0.9375 -0.828125 2.828125zm20.902771 3.703125q-0.9375 0.796875 -1.796875 1.125q-0.859375 0.3125 -1.84375 0.3125q-1.609375 0 -2.484375 -0.78125q-0.875 -0.796875 -0.875 -2.03125q0 -0.734375 0.328125 -1.328125q0.328125 -0.59375 0.859375 -0.953125q0.53125 -0.359375 1.203125 -0.546875q0.5 -0.140625 1.484375 -0.25q2.03125 -0.25 2.984375 -0.578125q0 -0.34375 0 -0.4375q0 -1.015625 -0.46875 -1.4375q-0.640625 -0.5625 -1.90625 -0.5625q-1.171875 0 -1.734375 0.40625q-0.5625 0.40625 -0.828125 1.46875l-1.640625 -0.234375q0.234375 -1.046875 0.734375 -1.6875q0.515625 -0.640625 1.46875 -0.984375q0.96875 -0.359375 2.25 -0.359375q1.265625 0 2.046875 0.296875q0.78125 0.296875 1.15625 0.75q0.375 0.453125 0.515625 1.140625q0.09375 0.421875 0.09375 1.53125l0 2.234375q0 2.328125 0.09375 2.953125q0.109375 0.609375 0.4375 1.171875l-1.75 0q-0.265625 -0.515625 -0.328125 -1.21875zm-0.140625 -3.71875q-0.90625 0.359375 -2.734375 0.625q-1.03125 0.140625 -1.453125 0.328125q-0.421875 0.1875 -0.65625 0.546875q-0.234375 0.359375 -0.234375 0.796875q0 0.671875 0.5 1.125q0.515625 0.4375 1.484375 0.4375q0.96875 0 1.71875 -0.421875q0.75 -0.4375 1.109375 -1.15625q0.265625 -0.578125 0.265625 -1.671875l0 -0.609375zm10.469452 4.9375l0 -1.25q-0.9375 1.46875 -2.75 1.46875q-1.171875 0 -2.171875 -0.640625q-0.984375 -0.65625 -1.53125 -1.8125q-0.53125 -1.171875 -0.53125 -2.6875q0 -1.46875 0.484375 -2.671875q0.5 -1.203125 1.46875 -1.84375q0.984375 -0.640625 2.203125 -0.640625q0.890625 0 1.578125 0.375q0.703125 0.375 1.140625 0.984375l0 -4.875l1.65625 0l0 13.59375l-1.546875 0zm-5.28125 -4.921875q0 1.890625 0.796875 2.828125q0.8125 0.9375 1.890625 0.9375q1.09375 0 1.859375 -0.890625q0.765625 -0.890625 0.765625 -2.734375q0 -2.015625 -0.78125 -2.953125q-0.78125 -0.953125 -1.921875 -0.953125q-1.109375 0 -1.859375 0.90625q-0.75 0.90625 -0.75 2.859375zm15.656982 4.921875l0 -1.25q-0.9375 1.46875 -2.75 1.46875q-1.171875 0 -2.171875 -0.640625q-0.984375 -0.65625 -1.53125 -1.8125q-0.53125 -1.171875 -0.53125 -2.6875q0 -1.46875 0.484375 -2.671875q0.5 -1.203125 1.46875 -1.84375q0.984375 -0.640625 2.203125 -0.640625q0.890625 0 1.578125 0.375q0.703125 0.375 1.140625 0.984375l0 -4.875l1.65625 0l0 13.59375l-1.546875 0zm-5.28125 -4.921875q0 1.890625 0.796875 2.828125q0.8125 0.9375 1.890625 0.9375q1.09375 0 1.859375 -0.890625q0.765625 -0.890625 0.765625 -2.734375q0 -2.015625 -0.78125 -2.953125q-0.78125 -0.953125 -1.921875 -0.953125q-1.109375 0 -1.859375 0.90625q-0.75 0.90625 -0.75 2.859375zm13.824646 0q0 -2.734375 1.53125 -4.0625q1.265625 -1.09375 3.09375 -1.09375q2.03125 0 3.3125 1.34375q1.296875 1.328125 1.296875 3.671875q0 1.90625 -0.578125 3.0q-0.5625 1.078125 -1.65625 1.6875q-1.078125 0.59375 -2.375 0.59375q-2.0625 0 -3.34375 -1.328125q-1.28125 -1.328125 -1.28125 -3.8125zm1.71875 0q0 1.890625 0.828125 2.828125q0.828125 0.9375 2.078125 0.9375q1.25 0 2.0625 -0.9375q0.828125 -0.953125 0.828125 -2.890625q0 -1.828125 -0.828125 -2.765625q-0.828125 -0.9375 -2.0625 -0.9375q-1.25 0 -2.078125 0.9375q-0.828125 0.9375 -0.828125 2.828125zm9.281952 4.921875l0 -9.859375l1.5 0l0 1.40625q1.09375 -1.625 3.140625 -1.625q0.890625 0 1.640625 0.328125q0.75 0.3125 1.109375 0.84375q0.375 0.515625 0.53125 1.21875q0.09375 0.46875 0.09375 1.625l0 6.0625l-1.671875 0l0 -6.0q0 -1.015625 -0.203125 -1.515625q-0.1875 -0.515625 -0.6875 -0.8125q-0.5 -0.296875 -1.171875 -0.296875q-1.0625 0 -1.84375 0.671875q-0.765625 0.671875 -0.765625 2.578125l0 5.375l-1.671875 0zm10.391357 -11.6875l0 -1.90625l1.671875 0l0 1.90625l-1.671875 0zm0 11.6875l0 -9.859375l1.671875 0l0 9.859375l-1.671875 0zm3.504181 -4.921875q0 -2.734375 1.53125 -4.0625q1.265625 -1.09375 3.09375 -1.09375q2.03125 0 3.3125 1.34375q1.296875 1.328125 1.296875 3.671875q0 1.90625 -0.578125 3.0q-0.5625 1.078125 -1.65625 1.6875q-1.078125 0.59375 -2.375 0.59375q-2.0625 0 -3.34375 -1.328125q-1.28125 -1.328125 -1.28125 -3.8125zm1.71875 0q0 1.890625 0.828125 2.828125q0.828125 0.9375 2.078125 0.9375q1.25 0 2.0625 -0.9375q0.828125 -0.953125 0.828125 -2.890625q0 -1.828125 -0.828125 -2.765625q-0.828125 -0.9375 -2.0625 -0.9375q-1.25 0 -2.078125 0.9375q-0.828125 0.9375 -0.828125 2.828125zm9.281982 4.921875l0 -9.859375l1.5 0l0 1.40625q1.09375 -1.625 3.140625 -1.625q0.890625 0 1.640625 0.328125q0.75 0.3125 1.109375 0.84375q0.375 0.515625 0.53125 1.21875q0.09375 0.46875 0.09375 1.625l0 6.0625l-1.671875 0l0 -6.0q0 -1.015625 -0.203125 -1.515625q-0.1875 -0.515625 -0.6875 -0.8125q-0.5 -0.296875 -1.171875 -0.296875q-1.0625 0 -1.84375 0.671875q-0.765625 0.671875 -0.765625 2.578125l0 5.375l-1.671875 0z" fill-rule="nonzero"></path><path fill="#000000" fill-opacity="0.0" d="m529.77954 143.24672l157.32281 0l0 93.291336l-157.32281 0z" fill-rule="evenodd"></path><path stroke="#000000" stroke-width="3.0" stroke-linejoin="round" stroke-linecap="butt" d="m529.77954 143.24672l157.32281 0l0 93.291336l-157.32281 0z" fill-rule="evenodd"></path><path fill="#000000" d="m540.1858 170.16672l0 -13.59375l2.71875 0l3.21875 9.625q0.4375 1.34375 0.640625 2.015625q0.234375 -0.75 0.734375 -2.1875l3.25 -9.453125l2.421875 0l0 13.59375l-1.734375 0l0 -11.390625l-3.953125 11.390625l-1.625 0l-3.9375 -11.578125l0 11.578125l-1.734375 0zm14.7595215 -4.921875q0 -2.734375 1.53125 -4.0625q1.265625 -1.09375 3.09375 -1.09375q2.03125 0 3.3125 1.34375q1.296875 1.328125 1.296875 3.671875q0 1.90625 -0.578125 3.0q-0.5625 1.078125 -1.65625 1.6875q-1.078125 0.59375 -2.375 0.59375q-2.0625 0 -3.34375 -1.328125q-1.28125 -1.328125 -1.28125 -3.8125zm1.71875 0q0 1.890625 0.828125 2.828125q0.828125 0.9375 2.078125 0.9375q1.25 0 2.0625 -0.9375q0.828125 -0.953125 0.828125 -2.890625q0 -1.828125 -0.828125 -2.765625q-0.828125 -0.9375 -2.0625 -0.9375q-1.25 0 -2.078125 0.9375q-0.828125 0.9375 -0.828125 2.828125zm15.672607 4.921875l0 -1.25q-0.9375 1.46875 -2.75 1.46875q-1.171875 0 -2.171875 -0.640625q-0.984375 -0.65625 -1.53125 -1.8125q-0.53125 -1.171875 -0.53125 -2.6875q0 -1.46875 0.484375 -2.671875q0.5 -1.203125 1.46875 -1.84375q0.984375 -0.640625 2.203125 -0.640625q0.890625 0 1.578125 0.375q0.703125 0.375 1.140625 0.984375l0 -4.875l1.65625 0l0 13.59375l-1.546875 0zm-5.28125 -4.921875q0 1.890625 0.796875 2.828125q0.8125 0.9375 1.890625 0.9375q1.09375 0 1.859375 -0.890625q0.765625 -0.890625 0.765625 -2.734375q0 -2.015625 -0.78125 -2.953125q-0.78125 -0.953125 -1.921875 -0.953125q-1.109375 0 -1.859375 0.90625q-0.75 0.90625 -0.75 2.859375zm9.281982 -6.765625l0 -1.90625l1.671875 0l0 1.90625l-1.671875 0zm0 11.6875l0 -9.859375l1.671875 0l0 9.859375l-1.671875 0zm4.5354614 0l0 -8.546875l-1.484375 0l0 -1.3125l1.484375 0l0 -1.046875q0 -0.984375 0.171875 -1.46875q0.234375 -0.65625 0.84375 -1.046875q0.609375 -0.40625 1.703125 -0.40625q0.703125 0 1.5625 0.15625l-0.25 1.46875q-0.515625 -0.09375 -0.984375 -0.09375q-0.765625 0 -1.078125 0.328125q-0.3125 0.3125 -0.3125 1.203125l0 0.90625l1.921875 0l0 1.3125l-1.921875 0l0 8.546875l-1.65625 0zm4.7926636 -11.6875l0 -1.90625l1.671875 0l0 1.90625l-1.671875 0zm0 11.6875l0 -9.859375l1.671875 0l0 9.859375l-1.671875 0zm10.879211 -3.171875l1.71875 0.21875q-0.40625 1.5 -1.515625 2.34375q-1.09375 0.828125 -2.8125 0.828125q-2.15625 0 -3.421875 -1.328125q-1.265625 -1.328125 -1.265625 -3.734375q0 -2.484375 1.265625 -3.859375q1.28125 -1.375 3.328125 -1.375q1.984375 0 3.234375 1.34375q1.25 1.34375 1.25 3.796875q0 0.140625 -0.015625 0.4375l-7.34375 0q0.09375 1.625 0.921875 2.484375q0.828125 0.859375 2.0625 0.859375q0.90625 0 1.546875 -0.46875q0.65625 -0.484375 1.046875 -1.546875zm-5.484375 -2.703125l5.5 0q-0.109375 -1.234375 -0.625 -1.859375q-0.796875 -0.96875 -2.078125 -0.96875q-1.140625 0 -1.9375 0.78125q-0.78125 0.765625 -0.859375 2.046875zm15.500671 5.875l0 -1.25q-0.9375 1.46875 -2.75 1.46875q-1.171875 0 -2.171875 -0.640625q-0.984375 -0.65625 -1.53125 -1.8125q-0.53125 -1.171875 -0.53125 -2.6875q0 -1.46875 0.484375 -2.671875q0.5 -1.203125 1.46875 -1.84375q0.984375 -0.640625 2.203125 -0.640625q0.890625 0 1.578125 0.375q0.703125 0.375 1.140625 0.984375l0 -4.875l1.65625 0l0 13.59375l-1.546875 0zm-5.28125 -4.921875q0 1.890625 0.796875 2.828125q0.8125 0.9375 1.890625 0.9375q1.09375 0 1.859375 -0.890625q0.765625 -0.890625 0.765625 -2.734375q0 -2.015625 -0.78125 -2.953125q-0.78125 -0.953125 -1.921875 -0.953125q-1.109375 0 -1.859375 0.90625q-0.75 0.90625 -0.75 2.859375z" fill-rule="nonzero"></path><path fill="#000000" d="m540.1389 180.97922l0 -2.40625l2.609375 0l0 2.40625l-2.609375 0zm0 11.1875l0 -9.859375l2.609375 0l0 9.859375l-2.609375 0zm14.152039 0l-2.609375 0l0 -5.03125q0 -1.59375 -0.171875 -2.0625q-0.15625 -0.46875 -0.53125 -0.71875q-0.375 -0.265625 -0.90625 -0.265625q-0.6875 0 -1.234375 0.375q-0.53125 0.359375 -0.734375 0.984375q-0.1875 0.609375 -0.1875 2.25l0 4.46875l-2.609375 0l0 -9.859375l2.421875 0l0 1.453125q1.296875 -1.671875 3.25 -1.671875q0.859375 0 1.578125 0.3125q0.71875 0.3125 1.078125 0.796875q0.359375 0.484375 0.5 1.09375q0.15625 0.609375 0.15625 1.75l0 6.125zm1.5209961 -2.8125l2.609375 -0.390625q0.171875 0.75 0.671875 1.15625q0.515625 0.390625 1.4375 0.390625q1.0 0 1.515625 -0.375q0.34375 -0.265625 0.34375 -0.703125q0 -0.296875 -0.1875 -0.484375q-0.1875 -0.1875 -0.875 -0.34375q-3.140625 -0.703125 -4.0 -1.265625q-1.15625 -0.796875 -1.15625 -2.21875q0 -1.28125 1.0 -2.15625q1.015625 -0.875 3.140625 -0.875q2.03125 0 3.0 0.65625q0.984375 0.65625 1.359375 1.953125l-2.453125 0.453125q-0.15625 -0.578125 -0.609375 -0.875q-0.4375 -0.3125 -1.25 -0.3125q-1.03125 0 -1.46875 0.296875q-0.296875 0.203125 -0.296875 0.515625q0 0.28125 0.25 0.484375q0.359375 0.25 2.4375 0.734375q2.078125 0.46875 2.90625 1.15625q0.828125 0.6875 0.828125 1.9375q0 1.359375 -1.140625 2.328125q-1.125 0.96875 -3.34375 0.96875q-2.015625 0 -3.1875 -0.8125q-1.171875 -0.8125 -1.53125 -2.21875zm15.797607 -7.046875l0 2.078125l-1.78125 0l0 3.984375q0 1.203125 0.046875 1.40625q0.0625 0.1875 0.234375 0.328125q0.1875 0.125 0.453125 0.125q0.359375 0 1.046875 -0.25l0.21875 2.015625q-0.90625 0.390625 -2.0625 0.390625q-0.703125 0 -1.265625 -0.234375q-0.5625 -0.234375 -0.828125 -0.609375q-0.265625 -0.375 -0.375 -1.015625q-0.078125 -0.453125 -0.078125 -1.84375l0 -4.296875l-1.203125 0l0 -2.078125l1.203125 0l0 -1.953125l2.609375 -1.515625l0 3.46875l1.78125 0zm4.1970215 9.859375l-2.609375 0l0 -9.859375l2.421875 0l0 1.40625q0.625 -0.984375 1.109375 -1.296875q0.5 -0.328125 1.140625 -0.328125q0.890625 0 1.71875 0.5l-0.8125 2.265625q-0.65625 -0.421875 -1.21875 -0.421875q-0.546875 0 -0.9375 0.296875q-0.375 0.296875 -0.59375 1.09375q-0.21875 0.78125 -0.21875 3.296875l0 3.046875zm11.244629 0l0 -1.46875q-0.53125 0.78125 -1.40625 1.234375q-0.875 0.453125 -1.859375 0.453125q-0.984375 0 -1.78125 -0.4375q-0.78125 -0.4375 -1.140625 -1.21875q-0.34375 -0.796875 -0.34375 -2.1875l0 -6.234375l2.609375 0l0 4.53125q0 2.078125 0.140625 2.546875q0.140625 0.46875 0.515625 0.75q0.390625 0.265625 0.96875 0.265625q0.671875 0 1.203125 -0.359375q0.53125 -0.375 0.71875 -0.90625q0.1875 -0.546875 0.1875 -2.671875l0 -4.15625l2.609375 0l0 9.859375l-2.421875 0zm13.505371 -6.9375l-2.5625 0.46875q-0.140625 -0.78125 -0.59375 -1.171875q-0.453125 -0.390625 -1.1875 -0.390625q-0.984375 0 -1.5625 0.671875q-0.578125 0.671875 -0.578125 2.25q0 1.765625 0.578125 2.484375q0.59375 0.71875 1.59375 0.71875q0.75 0 1.21875 -0.421875q0.46875 -0.421875 0.671875 -1.453125l2.546875 0.4375q-0.390625 1.765625 -1.53125 2.671875q-1.125 0.890625 -3.03125 0.890625q-2.15625 0 -3.453125 -1.359375q-1.28125 -1.359375 -1.28125 -3.78125q0 -2.4375 1.296875 -3.796875q1.296875 -1.359375 3.484375 -1.359375q1.796875 0 2.859375 0.78125q1.0625 0.765625 1.53125 2.359375zm6.2976074 -2.921875l0 2.078125l-1.78125 0l0 3.984375q0 1.203125 0.046875 1.40625q0.0625 0.1875 0.234375 0.328125q0.1875 0.125 0.453125 0.125q0.359375 0 1.046875 -0.25l0.21875 2.015625q-0.90625 0.390625 -2.0625 0.390625q-0.703125 0 -1.265625 -0.234375q-0.5625 -0.234375 -0.828125 -0.609375q-0.265625 -0.375 -0.375 -1.015625q-0.078125 -0.453125 -0.078125 -1.84375l0 -4.296875l-1.203125 0l0 -2.078125l1.203125 0l0 -1.953125l2.609375 -1.515625l0 3.46875l1.78125 0zm1.6970215 -1.328125l0 -2.40625l2.609375 0l0 2.40625l-2.609375 0zm0 11.1875l0 -9.859375l2.609375 0l0 9.859375l-2.609375 0zm4.5895996 -5.0625q0 -1.296875 0.640625 -2.515625q0.640625 -1.21875 1.8125 -1.859375q1.171875 -0.640625 2.609375 -0.640625q2.25 0 3.671875 1.453125q1.421875 1.453125 1.421875 3.671875q0 2.234375 -1.4375 3.703125q-1.4375 1.46875 -3.625 1.46875q-1.359375 0 -2.59375 -0.609375q-1.21875 -0.609375 -1.859375 -1.796875q-0.640625 -1.1875 -0.640625 -2.875zm2.671875 0.140625q0 1.46875 0.6875 2.25q0.703125 0.765625 1.71875 0.765625q1.015625 0 1.703125 -0.765625q0.703125 -0.78125 0.703125 -2.265625q0 -1.453125 -0.703125 -2.234375q-0.6875 -0.78125 -1.703125 -0.78125q-1.015625 0 -1.71875 0.78125q-0.6875 0.78125 -0.6875 2.25zm18.28656 4.921875l-2.609375 0l0 -5.03125q0 -1.59375 -0.171875 -2.0625q-0.15625 -0.46875 -0.53125 -0.71875q-0.375 -0.265625 -0.90625 -0.265625q-0.6875 0 -1.234375 0.375q-0.53125 0.359375 -0.734375 0.984375q-0.1875 0.609375 -0.1875 2.25l0 4.46875l-2.609375 0l0 -9.859375l2.421875 0l0 1.453125q1.296875 -1.671875 3.25 -1.671875q0.859375 0 1.578125 0.3125q0.71875 0.3125 1.078125 0.796875q0.359375 0.484375 0.5 1.09375q0.15625 0.609375 0.15625 1.75l0 6.125zm1.5209961 -2.8125l2.609375 -0.390625q0.171875 0.75 0.671875 1.15625q0.515625 0.390625 1.4375 0.390625q1.0 0 1.515625 -0.375q0.34375 -0.265625 0.34375 -0.703125q0 -0.296875 -0.1875 -0.484375q-0.1875 -0.1875 -0.875 -0.34375q-3.140625 -0.703125 -4.0 -1.265625q-1.15625 -0.796875 -1.15625 -2.21875q0 -1.28125 1.0 -2.15625q1.015625 -0.875 3.140625 -0.875q2.03125 0 3.0 0.65625q0.984375 0.65625 1.359375 1.953125l-2.453125 0.453125q-0.15625 -0.578125 -0.609375 -0.875q-0.4375 -0.3125 -1.25 -0.3125q-1.03125 0 -1.46875 0.296875q-0.296875 0.203125 -0.296875 0.515625q0 0.28125 0.25 0.484375q0.359375 0.25 2.4375 0.734375q2.078125 0.46875 2.90625 1.15625q0.828125 0.6875 0.828125 1.9375q0 1.359375 -1.140625 2.328125q-1.125 0.96875 -3.34375 0.96875q-2.015625 0 -3.1875 -0.8125q-1.171875 -0.8125 -1.53125 -2.21875zm11.281982 2.8125l0 -2.609375l2.609375 0l0 2.609375l-2.609375 0zm9.698914 -9.859375l0 2.078125l-1.78125 0l0 3.984375q0 1.203125 0.046875 1.40625q0.0625 0.1875 0.234375 0.328125q0.1875 0.125 0.453125 0.125q0.359375 0 1.046875 -0.25l0.21875 2.015625q-0.90625 0.390625 -2.0625 0.390625q-0.703125 0 -1.265625 -0.234375q-0.5625 -0.234375 -0.828125 -0.609375q-0.265625 -0.375 -0.375 -1.015625q-0.078125 -0.453125 -0.078125 -1.84375l0 -4.296875l-1.203125 0l0 -2.078125l1.203125 0l0 -1.953125l2.609375 -1.515625l0 3.46875l1.78125 0zm0.44708252 9.859375l3.5625 -5.078125l-3.40625 -4.78125l3.171875 0l1.75 2.71875l1.828125 -2.71875l3.0625 0l-3.328125 4.671875l3.640625 5.1875l-3.203125 0l-2.0 -3.046875l-2.03125 3.046875l-3.046875 0zm16.141296 -9.859375l0 2.078125l-1.78125 0l0 3.984375q0 1.203125 0.046875 1.40625q0.0625 0.1875 0.234375 0.328125q0.1875 0.125 0.453125 0.125q0.359375 0 1.046875 -0.25l0.21875 2.015625q-0.90625 0.390625 -2.0625 0.390625q-0.703125 0 -1.265625 -0.234375q-0.5625 -0.234375 -0.828125 -0.609375q-0.265625 -0.375 -0.375 -1.015625q-0.078125 -0.453125 -0.078125 -1.84375l0 -4.296875l-1.203125 0l0 -2.078125l1.203125 0l0 -1.953125l2.609375 -1.515625l0 3.46875l1.78125 0z" fill-rule="nonzero"></path><path fill="#000000" d="m543.7014 214.16672l0 -12.0l-4.46875 0l0 -1.59375l10.765625 0l0 1.59375l-4.5 0l0 12.0l-1.796875 0zm7.099121 -4.921875q0 -2.734375 1.53125 -4.0625q1.265625 -1.09375 3.09375 -1.09375q2.03125 0 3.3125 1.34375q1.296875 1.328125 1.296875 3.671875q0 1.90625 -0.578125 3.0q-0.5625 1.078125 -1.65625 1.6875q-1.078125 0.59375 -2.375 0.59375q-2.0625 0 -3.34375 -1.328125q-1.28125 -1.328125 -1.28125 -3.8125zm1.71875 0q0 1.890625 0.828125 2.828125q0.828125 0.9375 2.078125 0.9375q1.25 0 2.0625 -0.9375q0.828125 -0.953125 0.828125 -2.890625q0 -1.828125 -0.828125 -2.765625q-0.828125 -0.9375 -2.0625 -0.9375q-1.25 0 -2.078125 0.9375q-0.828125 0.9375 -0.828125 2.828125zm20.902771 3.703125q-0.9375 0.796875 -1.796875 1.125q-0.859375 0.3125 -1.84375 0.3125q-1.609375 0 -2.484375 -0.78125q-0.875 -0.796875 -0.875 -2.03125q0 -0.734375 0.328125 -1.328125q0.328125 -0.59375 0.859375 -0.953125q0.53125 -0.359375 1.203125 -0.546875q0.5 -0.140625 1.484375 -0.25q2.03125 -0.25 2.984375 -0.578125q0 -0.34375 0 -0.4375q0 -1.015625 -0.46875 -1.4375q-0.640625 -0.5625 -1.90625 -0.5625q-1.171875 0 -1.734375 0.40625q-0.5625 0.40625 -0.828125 1.46875l-1.640625 -0.234375q0.234375 -1.046875 0.734375 -1.6875q0.515625 -0.640625 1.46875 -0.984375q0.96875 -0.359375 2.25 -0.359375q1.265625 0 2.046875 0.296875q0.78125 0.296875 1.15625 0.75q0.375 0.453125 0.515625 1.140625q0.09375 0.421875 0.09375 1.53125l0 2.234375q0 2.328125 0.09375 2.953125q0.109375 0.609375 0.4375 1.171875l-1.75 0q-0.265625 -0.515625 -0.328125 -1.21875zm-0.140625 -3.71875q-0.90625 0.359375 -2.734375 0.625q-1.03125 0.140625 -1.453125 0.328125q-0.421875 0.1875 -0.65625 0.546875q-0.234375 0.359375 -0.234375 0.796875q0 0.671875 0.5 1.125q0.515625 0.4375 1.484375 0.4375q0.96875 0 1.71875 -0.421875q0.75 -0.4375 1.109375 -1.15625q0.265625 -0.578125 0.265625 -1.671875l0 -0.609375zm10.469421 4.9375l0 -1.25q-0.9375 1.46875 -2.75 1.46875q-1.171875 0 -2.171875 -0.640625q-0.984375 -0.65625 -1.53125 -1.8125q-0.53125 -1.171875 -0.53125 -2.6875q0 -1.46875 0.484375 -2.671875q0.5 -1.203125 1.46875 -1.84375q0.984375 -0.640625 2.203125 -0.640625q0.890625 0 1.578125 0.375q0.703125 0.375 1.140625 0.984375l0 -4.875l1.65625 0l0 13.59375l-1.546875 0zm-5.28125 -4.921875q0 1.890625 0.796875 2.828125q0.8125 0.9375 1.890625 0.9375q1.09375 0 1.859375 -0.890625q0.765625 -0.890625 0.765625 -2.734375q0 -2.015625 -0.78125 -2.953125q-0.78125 -0.953125 -1.921875 -0.953125q-1.109375 0 -1.859375 0.90625q-0.75 0.90625 -0.75 2.859375zm15.656982 4.921875l0 -1.25q-0.9375 1.46875 -2.75 1.46875q-1.171875 0 -2.171875 -0.640625q-0.984375 -0.65625 -1.53125 -1.8125q-0.53125 -1.171875 -0.53125 -2.6875q0 -1.46875 0.484375 -2.671875q0.5 -1.203125 1.46875 -1.84375q0.984375 -0.640625 2.203125 -0.640625q0.890625 0 1.578125 0.375q0.703125 0.375 1.140625 0.984375l0 -4.875l1.65625 0l0 13.59375l-1.546875 0zm-5.28125 -4.921875q0 1.890625 0.796875 2.828125q0.8125 0.9375 1.890625 0.9375q1.09375 0 1.859375 -0.890625q0.765625 -0.890625 0.765625 -2.734375q0 -2.015625 -0.78125 -2.953125q-0.78125 -0.953125 -1.921875 -0.953125q-1.109375 0 -1.859375 0.90625q-0.75 0.90625 -0.75 2.859375zm21.199646 1.75l1.71875 0.21875q-0.40625 1.5 -1.515625 2.34375q-1.09375 0.828125 -2.8125 0.828125q-2.15625 0 -3.421875 -1.328125q-1.265625 -1.328125 -1.265625 -3.734375q0 -2.484375 1.265625 -3.859375q1.28125 -1.375 3.328125 -1.375q1.984375 0 3.234375 1.34375q1.25 1.34375 1.25 3.796875q0 0.140625 -0.015625 0.4375l-7.34375 0q0.09375 1.625 0.921875 2.484375q0.828125 0.859375 2.0625 0.859375q0.90625 0 1.546875 -0.46875q0.65625 -0.484375 1.046875 -1.546875zm-5.484375 -2.703125l5.5 0q-0.109375 -1.234375 -0.625 -1.859375q-0.796875 -0.96875 -2.078125 -0.96875q-1.140625 0 -1.9375 0.78125q-0.78125 0.765625 -0.859375 2.046875zm9.110107 5.875l0 -9.859375l1.5 0l0 1.40625q1.09375 -1.625 3.140625 -1.625q0.890625 0 1.640625 0.328125q0.75 0.3125 1.109375 0.84375q0.375 0.515625 0.53125 1.21875q0.09375 0.46875 0.09375 1.625l0 6.0625l-1.671875 0l0 -6.0q0 -1.015625 -0.203125 -1.515625q-0.1875 -0.515625 -0.6875 -0.8125q-0.5 -0.296875 -1.171875 -0.296875q-1.0625 0 -1.84375 0.671875q-0.765625 0.671875 -0.765625 2.578125l0 5.375l-1.671875 0zm10.375732 -11.65625l0 -1.9375l1.65625 0l0 1.9375l-1.65625 0zm-2.125 15.484375l0.3125 -1.421875q0.5 0.125 0.796875 0.125q0.515625 0 0.765625 -0.34375q0.25 -0.328125 0.25 -1.6875l0 -10.359375l1.65625 0l0 10.390625q0 1.828125 -0.46875 2.546875q-0.59375 0.921875 -2.0 0.921875q-0.671875 0 -1.3125 -0.171875zm5.6447754 -8.75q0 -2.734375 1.53125 -4.0625q1.265625 -1.09375 3.09375 -1.09375q2.03125 0 3.3125 1.34375q1.296875 1.328125 1.296875 3.671875q0 1.90625 -0.578125 3.0q-0.5625 1.078125 -1.65625 1.6875q-1.078125 0.59375 -2.375 0.59375q-2.0625 0 -3.34375 -1.328125q-1.28125 -1.328125 -1.28125 -3.8125zm1.71875 0q0 1.890625 0.828125 2.828125q0.828125 0.9375 2.078125 0.9375q1.25 0 2.0625 -0.9375q0.828125 -0.953125 0.828125 -2.890625q0 -1.828125 -0.828125 -2.765625q-0.828125 -0.9375 -2.0625 -0.9375q-1.25 0 -2.078125 0.9375q-0.828125 0.9375 -0.828125 2.828125zm9.203857 8.71875l-0.171875 -1.5625q0.546875 0.140625 0.953125 0.140625q0.546875 0 0.875 -0.1875q0.34375 -0.1875 0.5625 -0.515625q0.15625 -0.25 0.5 -1.25q0.046875 -0.140625 0.15625 -0.40625l-3.734375 -9.875l1.796875 0l2.046875 5.71875q0.40625 1.078125 0.71875 2.28125q0.28125 -1.15625 0.6875 -2.25l2.09375 -5.75l1.671875 0l-3.75 10.03125q-0.59375 1.625 -0.9375 2.234375q-0.4375 0.828125 -1.015625 1.203125q-0.578125 0.390625 -1.375 0.390625q-0.484375 0 -1.078125 -0.203125z" fill-rule="nonzero"></path><path fill="#000000" fill-opacity="0.0" d="m136.65092 235.05624l133.07085 0l0 37.259827l-133.07085 0z" fill-rule="evenodd"></path><path stroke="#0000ff" stroke-width="3.0" stroke-linejoin="round" stroke-linecap="butt" d="m136.65092 235.05624l133.07085 0l0 37.259827l-133.07085 0z" fill-rule="evenodd"></path><path fill="#0000ff" d="m176.94308 253.7624l-2.359375 -0.4375q0.390625 -1.421875 1.359375 -2.109375q0.984375 -0.6875 2.90625 -0.6875q1.734375 0 2.59375 0.421875q0.859375 0.40625 1.203125 1.046875q0.34375 0.625 0.34375 2.328125l-0.03125 3.0468903q0 1.296875 0.125 1.921875q0.125 0.609375 0.46875 1.3125l-2.578125 0q-0.09375 -0.265625 -0.25 -0.765625q-0.0625 -0.234375 -0.09375 -0.3125q-0.65625 0.65625 -1.421875 0.984375q-0.765625 0.3125 -1.625 0.3125q-1.515625 0 -2.40625 -0.8125q-0.875 -0.828125 -0.875 -2.09375q0 -0.84375 0.390625 -1.484375q0.40625 -0.65626526 1.125 -1.0000153q0.71875 -0.359375 2.078125 -0.625q1.828125 -0.328125 2.53125 -0.625l0 -0.265625q0 -0.75 -0.375 -1.0625q-0.359375 -0.328125 -1.390625 -0.328125q-0.703125 0 -1.09375 0.28125q-0.390625 0.265625 -0.625 0.953125zm3.484375 2.109375q-0.5 0.17189026 -1.59375 0.40626526q-1.078125 0.234375 -1.40625 0.453125q-0.515625 0.359375 -0.515625 0.921875q0 0.546875 0.40625 0.953125q0.40625 0.390625 1.046875 0.390625q0.703125 0 1.34375 -0.46875q0.46875 -0.359375 0.625 -0.859375q0.09375 -0.34375 0.09375 -1.28125l0 -0.51564026zm4.391342 -6.265625l0 -2.421875l8.90625 0l0 1.90625q-1.09375 1.078125 -2.234375 3.109375q-1.140625 2.03125 -1.75 4.3281403q-0.59375 2.28125 -0.578125 4.078125l-2.515625 0q0.0625 -2.828125 1.15625 -5.7500153q1.109375 -2.9375 2.9375 -5.25l-5.921875 0zm19.969482 11.000015l-2.421875 0l0 -1.453125q-0.609375 0.84375 -1.4375 1.265625q-0.81251526 0.40625 -1.6406403 0.40625q-1.703125 0 -2.921875 -1.359375q-1.203125 -1.375 -1.203125 -3.8281403q0 -2.5 1.171875 -3.796875q1.1875 -1.3125 2.984375 -1.3125q1.6562653 0 2.8593903 1.375l0 -4.890625l2.609375 0l0 13.593765zm-6.9687653 -5.1406403q0 1.5781403 0.4375 2.2812653q0.640625 1.015625 1.765625 1.015625q0.90626526 0 1.5312653 -0.765625q0.625 -0.765625 0.625 -2.2812653q0 -1.703125 -0.609375 -2.4375q-0.609375 -0.75 -1.5625153 -0.75q-0.9375 0 -1.5625 0.734375q-0.625 0.734375 -0.625 2.203125zm8.177246 -4.71875l1.453125 0l0 -0.734375q0 -1.25 0.265625 -1.859375q0.265625 -0.609375 0.96875 -0.984375q0.71875 -0.390625 1.796875 -0.390625q1.109375 0 2.1875 0.328125l-0.359375 1.8125q-0.625 -0.140625 -1.203125 -0.140625q-0.5625 0 -0.8125 0.265625q-0.234375 0.265625 -0.234375 1.015625l0 0.6875l1.9375 0l0 2.0625l-1.9375 0l0 7.7968903l-2.609375 0l0 -7.7968903l-1.453125 0l0 -2.0625zm13.056427 6.7187653l2.609375 0.4375q-0.5 1.4375 -1.59375 2.1875q-1.078125 0.734375 -2.703125 0.734375q-2.5625 0 -3.796875 -1.671875q-0.96875 -1.34375 -0.96875 -3.4062653q0 -2.4375 1.265625 -3.828125q1.28125 -1.390625 3.25 -1.390625q2.1875 0 3.453125 1.453125q1.28125 1.453125 1.234375 4.4531403l-6.53125 0q0.015625 1.15625 0.625 1.8125q0.609375 0.640625 1.5 0.640625q0.609375 0 1.03125 -0.328125q0.421875 -0.34375 0.625 -1.09375zm0.15625 -2.6250153q-0.03125 -1.140625 -0.59375 -1.71875q-0.546875 -0.59375 -1.34375 -0.59375q-0.859375 0 -1.40625 0.625q-0.5625 0.609375 -0.546875 1.6875l3.890625 0zm4.000717 2.2656403l2.59375 -0.265625q0.109375 0.875 0.65625 1.390625q0.546875 0.515625 1.265625 0.515625q0.8125 0 1.375 -0.65625q0.578125 -0.671875 0.578125 -2.0q0 -1.2500153 -0.5625 -1.8750153q-0.5625 -0.625 -1.46875 -0.625q-1.109375 0 -2.0 0.984375l-2.125 -0.3125l1.34375 -7.078125l6.890625 0l0 2.453125l-4.921875 0l-0.40625 2.296875q0.875 -0.421875 1.78125 -0.421875q1.734375 0 2.9375 1.265625q1.203125 1.25 1.203125 3.2656403q0 1.671875 -0.96875 3.0q-1.328125 1.796875 -3.6875 1.796875q-1.875 0 -3.0625 -1.015625q-1.1875 -1.015625 -1.421875 -2.71875z" fill-rule="nonzero"></path><path fill="#000000" fill-opacity="0.0" d="m358.97113 235.4552l133.07086 0l0 37.259827l-133.07086 0z" fill-rule="evenodd"></path><path stroke="#0000ff" stroke-width="3.0" stroke-linejoin="round" stroke-linecap="butt" d="m358.97113 235.4552l133.07086 0l0 37.259827l-133.07086 0z" fill-rule="evenodd"></path><path fill="#0000ff" d="m397.4263 253.66136q-1.015625 -0.421875 -1.484375 -1.171875q-0.453125 -0.75 -0.453125 -1.640625q0 -1.515625 1.0625 -2.5q1.0625 -1.0 3.03125 -1.0q1.9375 0 3.0 1.0q1.078125 0.984375 1.078125 2.5q0 0.953125 -0.5 1.6875q-0.484375 0.734375 -1.375 1.125q1.125 0.453125 1.71875 1.328125q0.59375 0.875 0.59375 2.0156403q0 1.890625 -1.203125 3.0625q-1.203125 1.171875 -3.203125 1.171875q-1.859375 0 -3.078125 -0.96875q-1.46875 -1.15625 -1.46875 -3.15625q0 -1.09375 0.546875 -2.0156403q0.546875 -0.9375 1.734375 -1.4375zm0.53125 -2.625q0 0.78125 0.4375 1.21875q0.453125 0.4375 1.1875 0.4375q0.734375 0 1.171875 -0.4375q0.453125 -0.4375 0.453125 -1.21875q0 -0.734375 -0.4375 -1.171875q-0.4375 -0.453125 -1.171875 -0.453125q-0.75 0 -1.203125 0.453125q-0.4375 0.4375 -0.4375 1.171875zm-0.234375 5.8281403q0 1.078125 0.546875 1.6875q0.546875 0.59375 1.375 0.59375q0.8125 0 1.34375 -0.578125q0.53125 -0.578125 0.53125 -1.671875q0 -0.95314026 -0.546875 -1.5312653q-0.53125 -0.578125 -1.359375 -0.578125q-0.953125 0 -1.421875 0.65625q-0.46875 0.65626526 -0.46875 1.4218903zm16.641327 1.71875l0 2.421875l-9.140625 0q0.15625 -1.375 0.890625 -2.59375q0.75 -1.234375 2.9375 -3.2656403q1.765625 -1.640625 2.15625 -2.234375q0.546875 -0.796875 0.546875 -1.59375q0 -0.875 -0.46875 -1.34375q-0.46875 -0.46875 -1.296875 -0.46875q-0.8125 0 -1.296875 0.5q-0.484375 0.484375 -0.5625 1.625l-2.59375 -0.25q0.234375 -2.15625 1.453125 -3.09375q1.21875 -0.9375 3.0625 -0.9375q2.015625 0 3.15625 1.09375q1.15625 1.078125 1.15625 2.6875q0 0.921875 -0.328125 1.75q-0.328125 0.828125 -1.046875 1.734375q-0.46875 0.609375 -1.703125 1.7500153q-1.234375 1.125 -1.5625 1.5q-0.328125 0.359375 -0.53125 0.71875l5.171875 0zm1.6257324 -0.71875l2.53125 -0.28125q0.09375 0.765625 0.484375 1.140625q0.390625 0.375 1.03125 0.375q0.796875 0 1.359375 -0.734375q0.578125 -0.75 0.734375 -3.0937653q-0.984375 1.1406403 -2.46875 1.1406403q-1.59375 0 -2.765625 -1.2343903q-1.15625 -1.234375 -1.15625 -3.234375q0 -2.0625 1.21875 -3.328125q1.234375 -1.265625 3.140625 -1.265625q2.0625 0 3.3905945 1.609375q1.328125 1.59375 1.328125 5.25q0 3.7343903 -1.390625 5.3906403q-1.3749695 1.640625 -3.5937195 1.640625q-1.59375 0 -2.578125 -0.84375q-0.984375 -0.84375 -1.265625 -2.53125zm5.90625 -5.7031403q0 -1.265625 -0.578125 -1.953125q-0.578125 -0.703125 -1.34375 -0.703125q-0.71875 0 -1.203125 0.578125q-0.484375 0.5625 -0.484375 1.859375q0 1.328125 0.515625 1.953125q0.53125 0.609375 1.3125 0.609375q0.75 0 1.265625 -0.59375q0.515625 -0.59375 0.515625 -1.75zm6.656952 1.5q-1.015625 -0.421875 -1.484375 -1.171875q-0.453125 -0.75 -0.453125 -1.640625q0 -1.515625 1.0625 -2.5q1.0625 -1.0 3.03125 -1.0q1.9375 0 3.0 1.0q1.078125 0.984375 1.078125 2.5q0 0.953125 -0.5 1.6875q-0.484375 0.734375 -1.375 1.125q1.125 0.453125 1.71875 1.328125q0.59375 0.875 0.59375 2.0156403q0 1.890625 -1.203125 3.0625q-1.203125 1.171875 -3.203125 1.171875q-1.859375 0 -3.078125 -0.96875q-1.46875 -1.15625 -1.46875 -3.15625q0 -1.09375 0.546875 -2.0156403q0.546875 -0.9375 1.734375 -1.4375zm0.53125 -2.625q0 0.78125 0.4375 1.21875q0.453125 0.4375 1.1875 0.4375q0.734375 0 1.171875 -0.4375q0.453125 -0.4375 0.453125 -1.21875q0 -0.734375 -0.4375 -1.171875q-0.4375 -0.453125 -1.171875 -0.453125q-0.75 0 -1.203125 0.453125q-0.4375 0.4375 -0.4375 1.171875zm-0.234375 5.8281403q0 1.078125 0.546875 1.6875q0.546875 0.59375 1.375 0.59375q0.8125 0 1.34375 -0.578125q0.53125 -0.578125 0.53125 -1.671875q0 -0.95314026 -0.546875 -1.5312653q-0.53125 -0.578125 -1.359375 -0.578125q-0.953125 0 -1.421875 0.65625q-0.46875 0.65626526 -0.46875 1.4218903zm14.516327 4.140625l-2.609375 0l0 -9.82814q-1.4375 1.34375 -3.375 1.984375l0 -2.375q1.03125 -0.328125 2.21875 -1.25q1.203125 -0.9375 1.640625 -2.1875l2.125 0l0 13.656265zm9.953857 -3.140625l2.609375 0.4375q-0.5 1.4375 -1.59375 2.1875q-1.078125 0.734375 -2.703125 0.734375q-2.5625 0 -3.796875 -1.671875q-0.96875 -1.34375 -0.96875 -3.40625q0 -2.4375153 1.265625 -3.8281403q1.28125 -1.390625 3.25 -1.390625q2.1875 0 3.453125 1.453125q1.28125 1.453125 1.234375 4.4531403l-6.53125 0q0.015625 1.15625 0.625 1.8125q0.609375 0.640625 1.5 0.640625q0.609375 0 1.03125 -0.328125q0.421875 -0.34375 0.625 -1.09375zm0.15625 -2.6250153q-0.03125 -1.140625 -0.59375 -1.71875q-0.546875 -0.59375 -1.34375 -0.59375q-0.859375 0 -1.40625 0.625q-0.5625 0.609375 -0.546875 1.6875l3.890625 0z" fill-rule="nonzero"></path><path fill="#000000" fill-opacity="0.0" d="m541.46454 238.65991l133.07092 0l0 37.259857l-133.07092 0z" fill-rule="evenodd"></path><path stroke="#0000ff" stroke-width="3.0" stroke-linejoin="round" stroke-linecap="butt" d="m541.46454 238.65991l133.07092 0l0 37.259857l-133.07092 0z" fill-rule="evenodd"></path><path fill="#0000ff" d="m577.17523 253.20984l0 -2.421875l8.90625 0l0 1.90625q-1.09375 1.078125 -2.234375 3.109375q-1.140625 2.03125 -1.75 4.328125q-0.59375 2.28125 -0.578125 4.078125l-2.515625 0q0.0625 -2.828125 1.15625 -5.75q1.109375 -2.9375 2.9375 -5.25l-5.921875 0zm10.281982 7.390625l2.515625 -0.3125q0.125 0.96875 0.65625 1.484375q0.53125 0.5 1.28125 0.5q0.796875 0 1.34375 -0.609375q0.5625 -0.609375 0.5625 -1.640625q0 -0.984375 -0.53125 -1.5625q-0.53125 -0.578125 -1.28125 -0.578125q-0.5 0 -1.203125 0.203125l0.28125 -2.125q1.0625 0.015625 1.609375 -0.46875q0.5625 -0.484375 0.5625 -1.296875q0 -0.6875 -0.40625 -1.09375q-0.40625 -0.40625 -1.078125 -0.40625q-0.671875 0 -1.140625 0.46875q-0.46875 0.46875 -0.578125 1.359375l-2.40625 -0.421875q0.25 -1.234375 0.75 -1.96875q0.515625 -0.734375 1.421875 -1.15625q0.90625 -0.421875 2.03125 -0.421875q1.90625 0 3.078125 1.21875q0.953125 1.0 0.953125 2.265625q0 1.796875 -1.953125 2.859375q1.15625 0.25 1.859375 1.125q0.703125 0.875 0.703125 2.109375q0 1.78125 -1.3125 3.046875q-1.296875 1.265625 -3.25 1.265625q-1.84375 0 -3.0625 -1.0625q-1.21875 -1.0625 -1.40625 -2.78125zm19.610046 -3.328125l-2.5625 0.46875q-0.140625 -0.78125 -0.59375 -1.171875q-0.453125 -0.390625 -1.1875 -0.390625q-0.984375 0 -1.5625 0.671875q-0.578125 0.671875 -0.578125 2.25q0 1.765625 0.578125 2.484375q0.59375 0.71875 1.59375 0.71875q0.75 0 1.21875 -0.421875q0.46875 -0.421875 0.671875 -1.453125l2.546875 0.4375q-0.390625 1.765625 -1.53125 2.671875q-1.125 0.890625 -3.03125 0.890625q-2.15625 0 -3.453125 -1.359375q-1.28125 -1.359375 -1.28125 -3.78125q0 -2.4375 1.296875 -3.796875q1.296875 -1.359375 3.484375 -1.359375q1.796875 0 2.859375 0.78125q1.0625 0.765625 1.53125 2.359375zm1.2351074 -4.0625l0 -2.421875l8.90625 0l0 1.90625q-1.09375 1.078125 -2.234375 3.109375q-1.140625 2.03125 -1.75 4.328125q-0.59375 2.28125 -0.578125 4.078125l-2.515625 0q0.0625 -2.828125 1.15625 -5.75q1.109375 -2.9375 2.9375 -5.25l-5.921875 0zm19.172607 8.578125l0 2.421875l-9.140625 0q0.15625 -1.375 0.890625 -2.59375q0.75 -1.234375 2.9375 -3.265625q1.765625 -1.640625 2.15625 -2.234375q0.546875 -0.796875 0.546875 -1.59375q0 -0.875 -0.46875 -1.34375q-0.46875 -0.46875 -1.296875 -0.46875q-0.8125 0 -1.296875 0.5q-0.484375 0.484375 -0.5625 1.625l-2.59375 -0.25q0.234375 -2.15625 1.453125 -3.09375q1.21875 -0.9375 3.0625 -0.9375q2.015625 0 3.15625 1.09375q1.15625 1.078125 1.15625 2.6875q0 0.921875 -0.328125 1.75q-0.328125 0.828125 -1.046875 1.734375q-0.46875 0.609375 -1.703125 1.75q-1.234375 1.125 -1.5625 1.5q-0.328125 0.359375 -0.53125 0.71875l5.171875 0zm2.0162964 2.421875l0 -13.59375l2.609375 0l0 4.890625q1.203125 -1.375 2.859375 -1.375q1.796875 0 2.96875 1.3125q1.1875 1.296875 1.1875 3.734375q0 2.53125 -1.203125 3.890625q-1.203125 1.359375 -2.921875 1.359375q-0.84375 0 -1.671875 -0.421875q-0.8125 -0.421875 -1.40625 -1.25l0 1.453125l-2.421875 0zm2.59375 -5.140625q0 1.53125 0.484375 2.265625q0.671875 1.03125 1.796875 1.03125q0.859375 0 1.46875 -0.734375q0.609375 -0.734375 0.609375 -2.328125q0 -1.6875 -0.609375 -2.421875q-0.609375 -0.75 -1.578125 -0.75q-0.9375 0 -1.5625 0.734375q-0.609375 0.71875 -0.609375 2.203125z" fill-rule="nonzero"></path></g></svg>

