<?xml version="1.0" encoding="UTF-8" standalone="no"?>
<svg
   xmlns:dc="http://purl.org/dc/elements/1.1/"
   xmlns:cc="http://creativecommons.org/ns#"
   xmlns:rdf="http://www.w3.org/1999/02/22-rdf-syntax-ns#"
   xmlns:svg="http://www.w3.org/2000/svg"
   xmlns="http://www.w3.org/2000/svg"
   xmlns:sodipodi="http://sodipodi.sourceforge.net/DTD/sodipodi-0.dtd"
   xmlns:inkscape="http://www.inkscape.org/namespaces/inkscape"
   version="1.1"
   viewBox="0 0 960 350"
   stroke-miterlimit="10"
   id="svg203"
   sodipodi:docname="master_branch.svg"
   width="960"
   height="350"
   style="fill:none;stroke:none;stroke-linecap:square;stroke-miterlimit:10"
   inkscape:version="0.92.2 (5c3e80d, 2017-08-06)">
  <metadata
     id="metadata209">
    <rdf:RDF>
      <cc:Work
         rdf:about="">
        <dc:format>image/svg+xml</dc:format>
        <dc:type
           rdf:resource="http://purl.org/dc/dcmitype/StillImage" />
        <dc:title></dc:title>
      </cc:Work>
    </rdf:RDF>
  </metadata>
  <defs
     id="defs207">
    <defs
       id="defs12">
      <radialGradient
         r="8.3242235"
         fy="38.869549"
         fx="23.61179"
         cy="38.869549"
         cx="23.61179"
         spreadMethod="pad"
         gradientTransform="scale(8.3242235)"
         gradientUnits="userSpaceOnUse"
         id="g2721e673cf_0_156.1">
        <stop
           id="stop7"
           stop-color="#dddddd"
           offset="0.0" />
        <stop
           id="stop9"
           stop-color="#919191"
           offset="1.0" />
      </radialGradient>
    </defs>
    <defs
       id="defs29">
      <radialGradient
         r="7.9341226"
         fy="39.264332"
         fx="25.027258"
         cy="39.264332"
         cx="25.027258"
         spreadMethod="pad"
         gradientTransform="scale(7.9341225)"
         gradientUnits="userSpaceOnUse"
         id="g2721e673cf_0_156.2">
        <stop
           id="stop24"
           stop-color="#dcecd5"
           offset="0.0" />
        <stop
           id="stop26"
           stop-color="#93bc81"
           offset="1.0" />
      </radialGradient>
    </defs>
    <defs
       id="defs50">
      <radialGradient
         r="8.3242235"
         fy="37.908497"
         fx="51.076458"
         cy="37.908497"
         cx="51.076458"
         spreadMethod="pad"
         gradientTransform="scale(8.3242235)"
         gradientUnits="userSpaceOnUse"
         id="g2721e673cf_0_156.3">
        <stop
           id="stop45"
           stop-color="#dddddd"
           offset="0.0" />
        <stop
           id="stop47"
           stop-color="#919191"
           offset="1.0" />
      </radialGradient>
    </defs>
    <defs
       id="defs67">
      <radialGradient
         r="7.9341226"
         fy="38.256027"
         fx="53.842297"
         cy="38.256027"
         cx="53.842297"
         spreadMethod="pad"
         gradientTransform="scale(7.9341225)"
         gradientUnits="userSpaceOnUse"
         id="g2721e673cf_0_156.4">
        <stop
           id="stop62"
           stop-color="#dcecd5"
           offset="0.0" />
        <stop
           id="stop64"
           stop-color="#93bc81"
           offset="1.0" />
      </radialGradient>
    </defs>
    <defs
       id="defs88">
      <radialGradient
         r="8.3242235"
         fy="38.2145"
         fx="73.71743"
         cy="38.2145"
         cx="73.71743"
         spreadMethod="pad"
         gradientTransform="scale(8.3242235)"
         gradientUnits="userSpaceOnUse"
         id="g2721e673cf_0_156.5">
        <stop
           id="stop83"
           stop-color="#dddddd"
           offset="0.0" />
        <stop
           id="stop85"
           stop-color="#919191"
           offset="1.0" />
      </radialGradient>
    </defs>
    <defs
       id="defs105">
      <radialGradient
         r="7.9341226"
         fy="38.577076"
         fx="77.596466"
         cy="38.577076"
         cx="77.596466"
         spreadMethod="pad"
         gradientTransform="scale(7.9341225)"
         gradientUnits="userSpaceOnUse"
         id="g2721e673cf_0_156.6">
        <stop
           id="stop100"
           stop-color="#dcecd5"
           offset="0.0" />
        <stop
           id="stop102"
           stop-color="#93bc81"
           offset="1.0" />
      </radialGradient>
    </defs>
  </defs>
  <sodipodi:namedview
     pagecolor="#ffffff"
     bordercolor="#666666"
     borderopacity="1"
     objecttolerance="10"
     gridtolerance="10"
     guidetolerance="10"
     inkscape:pageopacity="0"
     inkscape:pageshadow="2"
     inkscape:window-width="1920"
     inkscape:window-height="966"
     id="namedview205"
     showgrid="false"
     inkscape:zoom="0.7125"
     inkscape:cx="292.96897"
     inkscape:cy="167.9613"
     inkscape:window-x="0"
     inkscape:window-y="27"
     inkscape:window-maximized="1"
     inkscape:current-layer="svg203" />
  <clipPath
     id="g2721e673cf_0_156.0">
    <path
       d="M 0,0 H 960 V 540 H 0 Z"
       id="path2"
       inkscape:connector-curvature="0"
       style="clip-rule:nonzero" />
  </clipPath>
  <g
     id="g388"
     transform="matrix(1.3013469,0,0,1.3013469,-152.83019,-118.011)">
    <path
       d="m 131.37483,307.8716 v 0 c 0,-4.33191 29.17984,-7.84363 65.17499,-7.84363 35.99515,0 65.17497,3.51172 65.17497,7.84363 v 31.37442 c 0,4.33191 -29.17983,7.8436 -65.17497,7.8436 -35.99515,0 -65.17499,-3.51169 -65.17499,-7.8436 z"
       id="path14"
       style="fill:url(#g2721e673cf_0_156.1);fill-rule:evenodd"
       inkscape:connector-curvature="0" />
    <path
       d="m 261.7248,307.8716 v 0 c 0,4.33188 -29.17982,7.8436 -65.17497,7.8436 -35.99515,0 -65.17499,-3.51172 -65.17499,-7.8436"
       id="path16"
       inkscape:connector-curvature="0"
       style="fill:#000000;fill-opacity:0;fill-rule:evenodd" />
    <path
       d="m 131.37483,307.8716 v 0 c 0,-4.33191 29.17984,-7.84363 65.17499,-7.84363 35.99515,0 65.17497,3.51172 65.17497,7.84363 v 31.37442 c 0,4.33191 -29.17983,7.8436 -65.17497,7.8436 -35.99515,0 -65.17499,-3.51169 -65.17499,-7.8436 z"
       id="path18"
       inkscape:connector-curvature="0"
       style="fill:#000000;fill-opacity:0;fill-rule:evenodd" />
    <path
       d="m 261.7248,307.8716 v 0 c 0,4.33188 -29.17982,7.8436 -65.17497,7.8436 -35.99515,0 -65.17499,-3.51172 -65.17499,-7.8436"
       id="path20"
       inkscape:connector-curvature="0"
       style="fill-rule:evenodd;stroke:#595959;stroke-width:4;stroke-linecap:butt;stroke-linejoin:round" />
    <path
       d="m 131.37483,307.8716 v 0 c 0,-4.33191 29.17984,-7.84363 65.17499,-7.84363 35.99515,0 65.17497,3.51172 65.17497,7.84363 v 31.37442 c 0,4.33191 -29.17983,7.8436 -65.17497,7.8436 -35.99515,0 -65.17499,-3.51169 -65.17499,-7.8436 z"
       id="path22"
       inkscape:connector-curvature="0"
       style="fill-rule:evenodd;stroke:#595959;stroke-width:4;stroke-linecap:butt;stroke-linejoin:round" />
    <path
       d="m 149.08218,305.58453 v 0 c -0.97427,-2.80664 2.22446,-5.58502 8.23883,-7.15619 6.01439,-1.5712 13.78964,-1.65961 20.02643,-0.22775 v 0 c 2.20926,-1.6319 6.25285,-2.75861 10.90767,-3.03931 4.65481,-0.28073 9.37413,0.31751 12.73044,1.61377 v 0 c 1.88202,-1.47958 5.57736,-2.47366 9.77476,-2.62952 4.19739,-0.15582 8.3028,0.54862 10.85939,1.86341 v 0 c 3.40013,-1.56836 8.8098,-2.2287 13.88825,-1.69528 5.07843,0.53338 8.91348,2.16473 9.84571,4.18811 v 0 c 4.16573,0.44543 7.6357,1.57772 9.51337,3.10437 1.87766,1.52667 1.97885,3.29788 0.27741,4.85608 v 0 c 4.10202,2.0928 5.06158,4.88143 2.5206,7.32522 -2.54097,2.44379 -8.20076,4.1756 -14.86721,4.54913 -0.047,2.29361 -3.25586,4.3982 -8.38978,5.50254 -5.13393,1.10437 -11.39124,1.03607 -16.36007,-0.17859 -2.11645,2.74698 -8.07357,4.76819 -15.29766,5.19037 -7.22409,0.42218 -14.42009,-0.83032 -18.47905,-3.2164 -4.97545,1.17611 -10.94558,1.51492 -16.56363,0.93997 -5.61806,-0.57492 -10.41082,-2.01517 -13.29712,-3.99582 v 0 c -5.08428,0.23325 -10.00008,-0.79935 -12.3077,-2.5853 -2.30761,-1.78595 -1.51582,-3.94503 1.98243,-5.40576 v 0 c -4.53531,-1.04638 -6.84951,-3.12277 -5.73581,-5.14639 1.11369,-2.02362 5.40289,-3.53592 10.63096,-3.74829 z"
       id="path31"
       style="fill:url(#g2721e673cf_0_156.2);fill-rule:evenodd"
       inkscape:connector-curvature="0" />
    <path
       d="m 144.08653,314.58737 v 0 c 2.14023,0.4938 4.61269,0.7178 7.08542,0.64191 m 3.23875,7.34936 c 1.06336,-0.0488 2.10565,-0.15207 3.10001,-0.30722 m 26.75923,3.36295 c -0.74789,-0.43967 -1.37408,-0.90949 -1.86787,-1.40143 m 35.64589,-0.57263 v 0 c 0.38586,-0.50083 0.63588,-1.01627 0.74585,-1.53775 m 24.00306,-3.78601 c 0.05,-2.44187 -3.48808,-4.67771 -9.0946,-5.74711 m 21.4411,-6.12701 c -0.90796,0.83151 -2.29407,1.56912 -4.04962,2.15503 m -5.74031,-10.11569 v 0 c 0.15471,0.33578 0.2263,0.6766 0.2138,1.01776 m -23.94735,-3.5105 v 0 c -0.84816,0.39124 -1.54694,0.82843 -2.07457,1.29794 m -18.55979,-0.53198 v 0 c -0.45199,0.35535 -0.78952,0.73136 -1.00479,1.11939 m -22.63367,0.30618 v 0 c 1.31971,0.30298 2.54061,0.66763 3.6359,1.086 m -31.90079,6.29797 v 0 c 0.13428,0.38681 0.34645,0.76889 0.63452,1.14258"
       id="path33"
       inkscape:connector-curvature="0"
       style="fill:#000000;fill-opacity:0;fill-rule:evenodd" />
    <path
       d="m 149.08218,305.58453 v 0 c -0.97427,-2.80664 2.22446,-5.58502 8.23883,-7.15619 6.01439,-1.5712 13.78964,-1.65961 20.02643,-0.22775 v 0 c 2.20926,-1.6319 6.25285,-2.75861 10.90767,-3.03931 4.65481,-0.28073 9.37413,0.31751 12.73044,1.61377 v 0 c 1.88202,-1.47958 5.57736,-2.47366 9.77476,-2.62952 4.19739,-0.15582 8.3028,0.54862 10.85939,1.86341 v 0 c 3.40013,-1.56836 8.8098,-2.2287 13.88825,-1.69528 5.07843,0.53338 8.91348,2.16473 9.84571,4.18811 v 0 c 4.16573,0.44543 7.6357,1.57772 9.51337,3.10437 1.87766,1.52667 1.97885,3.29788 0.27741,4.85608 v 0 c 4.10202,2.0928 5.06158,4.88143 2.5206,7.32522 -2.54097,2.44379 -8.20076,4.1756 -14.86721,4.54913 -0.047,2.29361 -3.25586,4.3982 -8.38978,5.50254 -5.13393,1.10437 -11.39124,1.03607 -16.36007,-0.17859 -2.11645,2.74698 -8.07357,4.76819 -15.29766,5.19037 -7.22409,0.42218 -14.42009,-0.83032 -18.47905,-3.2164 -4.97545,1.17611 -10.94558,1.51492 -16.56363,0.93997 -5.61806,-0.57492 -10.41082,-2.01517 -13.29712,-3.99582 v 0 c -5.08428,0.23325 -10.00008,-0.79935 -12.3077,-2.5853 -2.30761,-1.78595 -1.51582,-3.94503 1.98243,-5.40576 v 0 c -4.53531,-1.04638 -6.84951,-3.12277 -5.73581,-5.14639 1.11369,-2.02362 5.40289,-3.53592 10.63096,-3.74829 z"
       id="path35"
       inkscape:connector-curvature="0"
       style="fill-rule:evenodd;stroke:#595959;stroke-width:4;stroke-linecap:butt;stroke-linejoin:round" />
    <path
       d="m 144.08653,314.58737 v 0 c 2.14023,0.4938 4.61269,0.7178 7.08542,0.64191 m 3.23875,7.34936 c 1.06336,-0.0488 2.10565,-0.15207 3.10001,-0.30722 m 26.75923,3.36295 c -0.74789,-0.43967 -1.37408,-0.90949 -1.86787,-1.40143 m 35.64589,-0.57263 v 0 c 0.38586,-0.50083 0.63588,-1.01627 0.74585,-1.53775 m 24.00306,-3.78601 c 0.05,-2.44187 -3.48808,-4.67771 -9.0946,-5.74711 m 21.4411,-6.12701 c -0.90796,0.83151 -2.29407,1.56912 -4.04962,2.15503 m -5.74031,-10.11569 v 0 c 0.15471,0.33578 0.2263,0.6766 0.2138,1.01776 m -23.94735,-3.5105 v 0 c -0.84816,0.39124 -1.54694,0.82843 -2.07457,1.29794 m -18.55979,-0.53198 v 0 c -0.45199,0.35535 -0.78952,0.73136 -1.00479,1.11939 m -22.63367,0.30618 v 0 c 1.31971,0.30298 2.54061,0.66763 3.6359,1.086 m -31.90079,6.29797 v 0 c 0.13428,0.38681 0.34645,0.76889 0.63452,1.14258"
       id="path37"
       inkscape:connector-curvature="0"
       style="fill-rule:evenodd;stroke:#595959;stroke-width:4;stroke-linecap:butt;stroke-linejoin:round" />
    <path
       d="m 255.42029,311.9441 v 0 c -8.47829,8.84097 -30.65865,15.02872 -56.49385,15.76034 -25.83521,0.73163 -50.41664,-4.13189 -62.60945,-12.38748 l 57.51263,-11.07129 z"
       id="path39"
       inkscape:connector-curvature="0"
       style="fill:#000000;fill-opacity:0;fill-rule:evenodd" />
    <path
       d="m 255.42029,311.9441 v 0 c -8.47829,8.84097 -30.65865,15.02872 -56.49385,15.76034 -25.83521,0.73163 -50.41664,-4.13189 -62.60945,-12.38748"
       id="path41"
       inkscape:connector-curvature="0"
       style="fill:#000000;fill-opacity:0;fill-rule:evenodd" />
    <path
       d="m 255.42029,311.9441 v 0 c -8.47829,8.84097 -30.65865,15.02872 -56.49385,15.76034 -25.83521,0.73163 -50.41664,-4.13189 -62.60945,-12.38748"
       id="path43"
       inkscape:connector-curvature="0"
       style="fill-rule:evenodd;stroke:#595959;stroke-width:4;stroke-linecap:butt;stroke-linejoin:round" />
    <path
       d="m 359.9969,299.8716 v 0 c 0,-4.33191 29.17984,-7.84363 65.17499,-7.84363 35.99515,0 65.17496,3.51172 65.17496,7.84363 v 31.37442 c 0,4.33191 -29.17981,7.8436 -65.17496,7.8436 -35.99515,0 -65.17499,-3.51169 -65.17499,-7.8436 z"
       id="path52"
       style="fill:url(#g2721e673cf_0_156.3);fill-rule:evenodd"
       inkscape:connector-curvature="0" />
    <path
       d="m 490.34683,299.8716 v 0 c 0,4.33188 -29.17981,7.8436 -65.17496,7.8436 -35.99515,0 -65.17499,-3.51172 -65.17499,-7.8436"
       id="path54"
       inkscape:connector-curvature="0"
       style="fill:#000000;fill-opacity:0;fill-rule:evenodd" />
    <path
       d="m 359.9969,299.8716 v 0 c 0,-4.33191 29.17984,-7.84363 65.17499,-7.84363 35.99515,0 65.17496,3.51172 65.17496,7.84363 v 31.37442 c 0,4.33191 -29.17981,7.8436 -65.17496,7.8436 -35.99515,0 -65.17499,-3.51169 -65.17499,-7.8436 z"
       id="path56"
       inkscape:connector-curvature="0"
       style="fill:#000000;fill-opacity:0;fill-rule:evenodd" />
    <path
       d="m 490.34683,299.8716 v 0 c 0,4.33188 -29.17981,7.8436 -65.17496,7.8436 -35.99515,0 -65.17499,-3.51172 -65.17499,-7.8436"
       id="path58"
       inkscape:connector-curvature="0"
       style="fill-rule:evenodd;stroke:#595959;stroke-width:4;stroke-linecap:butt;stroke-linejoin:round" />
    <path
       d="m 359.9969,299.8716 v 0 c 0,-4.33191 29.17984,-7.84363 65.17499,-7.84363 35.99515,0 65.17496,3.51172 65.17496,7.84363 v 31.37442 c 0,4.33191 -29.17981,7.8436 -65.17496,7.8436 -35.99515,0 -65.17499,-3.51169 -65.17499,-7.8436 z"
       id="path60"
       inkscape:connector-curvature="0"
       style="fill-rule:evenodd;stroke:#595959;stroke-width:4;stroke-linecap:butt;stroke-linejoin:round" />
    <path
       d="m 377.70422,297.58453 v 0 c -0.97427,-2.80664 2.22446,-5.58502 8.23883,-7.15619 6.01441,-1.5712 13.78964,-1.65961 20.02643,-0.22775 v 0 c 2.20926,-1.6319 6.25287,-2.75861 10.90768,-3.03931 4.65482,-0.28073 9.37412,0.31751 12.73044,1.61377 v 0 c 1.88199,-1.47958 5.57736,-2.47366 9.77475,-2.62952 4.19739,-0.15582 8.3028,0.54862 10.85941,1.86341 v 0 c 3.40011,-1.56836 8.80978,-2.2287 13.88824,-1.69528 5.07843,0.53338 8.91348,2.16473 9.8457,4.18811 v 0 c 4.16575,0.44543 7.63572,1.57772 9.51337,3.10437 1.87769,1.52667 1.97885,3.29788 0.27741,4.85608 v 0 c 4.10202,2.0928 5.06158,4.88143 2.52063,7.32522 -2.54099,2.44379 -8.20078,4.1756 -14.86722,4.54913 -0.047,2.29361 -3.25586,4.3982 -8.3898,5.50254 -5.13391,1.10437 -11.39124,1.03607 -16.36005,-0.17859 -2.11645,2.74698 -8.07358,4.76819 -15.29767,5.19037 -7.22409,0.42218 -14.4201,-0.83032 -18.47906,-3.2164 -4.97543,1.17611 -10.94556,1.51492 -16.56363,0.93997 -5.61804,-0.57492 -10.4108,-2.01517 -13.29712,-3.99582 v 0 c -5.08426,0.23325 -10.00006,-0.79935 -12.30768,-2.5853 -2.30762,-1.78595 -1.51584,-3.94503 1.98242,-5.40576 v 0 c -4.53531,-1.04638 -6.84951,-3.12277 -5.73581,-5.14639 1.11368,-2.02362 5.4029,-3.53592 10.63095,-3.74829 z"
       id="path69"
       style="fill:url(#g2721e673cf_0_156.4);fill-rule:evenodd"
       inkscape:connector-curvature="0" />
    <path
       d="m 372.7086,306.58737 v 0 c 2.14023,0.4938 4.61267,0.7178 7.08542,0.64191 m 3.23874,7.34936 c 1.06335,-0.0488 2.10565,-0.15207 3.1,-0.30722 m 26.75925,3.36295 c -0.74789,-0.43967 -1.37408,-0.90949 -1.86789,-1.40143 m 35.64591,-0.57263 v 0 c 0.38586,-0.50083 0.63586,-1.01627 0.74585,-1.53775 m 24.00305,-3.78601 c 0.05,-2.44187 -3.48807,-4.67771 -9.09461,-5.74711 m 21.4411,-6.12701 c -0.90795,0.83151 -2.29406,1.56912 -4.04962,2.15503 m -5.74029,-10.11569 v 0 c 0.15469,0.33578 0.22629,0.6766 0.2138,1.01776 m -23.94735,-3.5105 v 0 c -0.84818,0.39124 -1.54694,0.82843 -2.07459,1.29794 m -18.55978,-0.53198 v 0 c -0.452,0.35535 -0.78952,0.73136 -1.00479,1.11939 m -22.63367,0.30618 v 0 c 1.3197,0.30298 2.54062,0.66763 3.63589,1.086 m -31.90078,6.29797 v 0 c 0.13427,0.38681 0.34646,0.76889 0.63452,1.14258"
       id="path71"
       inkscape:connector-curvature="0"
       style="fill:#000000;fill-opacity:0;fill-rule:evenodd" />
    <path
       d="m 377.70422,297.58453 v 0 c -0.97427,-2.80664 2.22446,-5.58502 8.23883,-7.15619 6.01441,-1.5712 13.78964,-1.65961 20.02643,-0.22775 v 0 c 2.20926,-1.6319 6.25287,-2.75861 10.90768,-3.03931 4.65482,-0.28073 9.37412,0.31751 12.73044,1.61377 v 0 c 1.88199,-1.47958 5.57736,-2.47366 9.77475,-2.62952 4.19739,-0.15582 8.3028,0.54862 10.85941,1.86341 v 0 c 3.40011,-1.56836 8.80978,-2.2287 13.88824,-1.69528 5.07843,0.53338 8.91348,2.16473 9.8457,4.18811 v 0 c 4.16575,0.44543 7.63572,1.57772 9.51337,3.10437 1.87769,1.52667 1.97885,3.29788 0.27741,4.85608 v 0 c 4.10202,2.0928 5.06158,4.88143 2.52063,7.32522 -2.54099,2.44379 -8.20078,4.1756 -14.86722,4.54913 -0.047,2.29361 -3.25586,4.3982 -8.3898,5.50254 -5.13391,1.10437 -11.39124,1.03607 -16.36005,-0.17859 -2.11645,2.74698 -8.07358,4.76819 -15.29767,5.19037 -7.22409,0.42218 -14.4201,-0.83032 -18.47906,-3.2164 -4.97543,1.17611 -10.94556,1.51492 -16.56363,0.93997 -5.61804,-0.57492 -10.4108,-2.01517 -13.29712,-3.99582 v 0 c -5.08426,0.23325 -10.00006,-0.79935 -12.30768,-2.5853 -2.30762,-1.78595 -1.51584,-3.94503 1.98242,-5.40576 v 0 c -4.53531,-1.04638 -6.84951,-3.12277 -5.73581,-5.14639 1.11368,-2.02362 5.4029,-3.53592 10.63095,-3.74829 z"
       id="path73"
       inkscape:connector-curvature="0"
       style="fill-rule:evenodd;stroke:#595959;stroke-width:4;stroke-linecap:butt;stroke-linejoin:round" />
    <path
       d="m 372.7086,306.58737 v 0 c 2.14023,0.4938 4.61267,0.7178 7.08542,0.64191 m 3.23874,7.34936 c 1.06335,-0.0488 2.10565,-0.15207 3.1,-0.30722 m 26.75925,3.36295 c -0.74789,-0.43967 -1.37408,-0.90949 -1.86789,-1.40143 m 35.64591,-0.57263 v 0 c 0.38586,-0.50083 0.63586,-1.01627 0.74585,-1.53775 m 24.00305,-3.78601 c 0.05,-2.44187 -3.48807,-4.67771 -9.09461,-5.74711 m 21.4411,-6.12701 c -0.90795,0.83151 -2.29406,1.56912 -4.04962,2.15503 m -5.74029,-10.11569 v 0 c 0.15469,0.33578 0.22629,0.6766 0.2138,1.01776 m -23.94735,-3.5105 v 0 c -0.84818,0.39124 -1.54694,0.82843 -2.07459,1.29794 m -18.55978,-0.53198 v 0 c -0.452,0.35535 -0.78952,0.73136 -1.00479,1.11939 m -22.63367,0.30618 v 0 c 1.3197,0.30298 2.54062,0.66763 3.63589,1.086 m -31.90078,6.29797 v 0 c 0.13427,0.38681 0.34646,0.76889 0.63452,1.14258"
       id="path75"
       inkscape:connector-curvature="0"
       style="fill-rule:evenodd;stroke:#595959;stroke-width:4;stroke-linecap:butt;stroke-linejoin:round" />
    <path
       d="m 484.04233,303.9441 v 0 c -8.47827,8.84097 -30.65863,15.02872 -56.49384,15.76034 -25.8352,0.73163 -50.41665,-4.13189 -62.60946,-12.38748 l 57.51263,-11.07129 z"
       id="path77"
       inkscape:connector-curvature="0"
       style="fill:#000000;fill-opacity:0;fill-rule:evenodd" />
    <path
       d="m 484.04233,303.9441 v 0 c -8.47827,8.84097 -30.65863,15.02872 -56.49384,15.76034 -25.8352,0.73163 -50.41665,-4.13189 -62.60946,-12.38748"
       id="path79"
       inkscape:connector-curvature="0"
       style="fill:#000000;fill-opacity:0;fill-rule:evenodd" />
    <path
       d="m 484.04233,303.9441 v 0 c -8.47827,8.84097 -30.65863,15.02872 -56.49384,15.76034 -25.8352,0.73163 -50.41665,-4.13189 -62.60946,-12.38748"
       id="path81"
       inkscape:connector-curvature="0"
       style="fill-rule:evenodd;stroke:#595959;stroke-width:4;stroke-linecap:butt;stroke-linejoin:round" />
    <path
       d="m 548.4654,302.41885 v 0 c 0,-4.33191 29.17981,-7.84363 65.17499,-7.84363 35.99512,0 65.17499,3.51172 65.17499,7.84363 v 31.37442 c 0,4.33191 -29.17987,7.8436 -65.17499,7.8436 -35.99518,0 -65.17499,-3.51169 -65.17499,-7.8436 z"
       id="path90"
       style="fill:url(#g2721e673cf_0_156.5);fill-rule:evenodd"
       inkscape:connector-curvature="0" />
    <path
       d="m 678.81537,302.41885 v 0 c 0,4.33191 -29.17987,7.8436 -65.17499,7.8436 -35.99518,0 -65.17499,-3.51169 -65.17499,-7.8436"
       id="path92"
       inkscape:connector-curvature="0"
       style="fill:#000000;fill-opacity:0;fill-rule:evenodd" />
    <path
       d="m 548.4654,302.41885 v 0 c 0,-4.33191 29.17981,-7.84363 65.17499,-7.84363 35.99512,0 65.17499,3.51172 65.17499,7.84363 v 31.37442 c 0,4.33191 -29.17987,7.8436 -65.17499,7.8436 -35.99518,0 -65.17499,-3.51169 -65.17499,-7.8436 z"
       id="path94"
       inkscape:connector-curvature="0"
       style="fill:#000000;fill-opacity:0;fill-rule:evenodd" />
    <path
       d="m 678.81537,302.41885 v 0 c 0,4.33191 -29.17987,7.8436 -65.17499,7.8436 -35.99518,0 -65.17499,-3.51169 -65.17499,-7.8436"
       id="path96"
       inkscape:connector-curvature="0"
       style="fill-rule:evenodd;stroke:#595959;stroke-width:4;stroke-linecap:butt;stroke-linejoin:round" />
    <path
       d="m 548.4654,302.41885 v 0 c 0,-4.33191 29.17981,-7.84363 65.17499,-7.84363 35.99512,0 65.17499,3.51172 65.17499,7.84363 v 31.37442 c 0,4.33191 -29.17987,7.8436 -65.17499,7.8436 -35.99518,0 -65.17499,-3.51169 -65.17499,-7.8436 z"
       id="path98"
       inkscape:connector-curvature="0"
       style="fill-rule:evenodd;stroke:#595959;stroke-width:4;stroke-linecap:butt;stroke-linejoin:round" />
    <path
       d="m 566.1727,300.13177 v 0 c -0.97424,-2.80664 2.22449,-5.58502 8.23883,-7.15619 6.01441,-1.5712 13.78967,-1.65961 20.02643,-0.22775 v 0 c 2.20929,-1.6319 6.25287,-2.75861 10.90765,-3.03931 4.65485,-0.28073 9.37415,0.31751 12.73047,1.61377 v 0 c 1.88202,-1.47958 5.57733,-2.47366 9.77478,-2.62952 4.19739,-0.15582 8.3028,0.54862 10.85938,1.86341 v 0 c 3.40014,-1.56836 8.80981,-2.2287 13.88824,-1.69528 5.07843,0.53338 8.91345,2.16473 9.8457,4.18811 v 0 c 4.16572,0.44543 7.63569,1.57772 9.51337,3.10437 1.87769,1.52667 1.97888,3.29788 0.27741,4.85608 v 0 c 4.10205,2.0928 5.06158,4.88143 2.52063,7.32522 -2.54102,2.44382 -8.20081,4.1756 -14.86725,4.54917 -0.0469,2.29357 -3.25586,4.39816 -8.38977,5.5025 -5.13391,1.10437 -11.39124,1.03607 -16.36005,-0.17859 -2.11645,2.74698 -8.07361,4.76819 -15.29767,5.19037 -7.22412,0.42218 -14.4201,-0.83032 -18.47906,-3.21637 -4.97547,1.17608 -10.94556,1.51489 -16.5636,0.93994 -5.6181,-0.57492 -10.41083,-2.01517 -13.29712,-3.99579 v 0 c -5.08429,0.23322 -10.00012,-0.79938 -12.30774,-2.58533 -2.30762,-1.78595 -1.51581,-3.94503 1.98242,-5.40576 v 0 c -4.53528,-1.04638 -6.84948,-3.12277 -5.73578,-5.14639 1.11371,-2.02362 5.4029,-3.53592 10.63092,-3.74829 z"
       id="path107"
       style="fill:url(#g2721e673cf_0_156.6);fill-rule:evenodd"
       inkscape:connector-curvature="0" />
    <path
       d="m 561.17706,309.1346 v 0 c 2.14026,0.4938 4.61273,0.7178 7.08545,0.64194 m 3.23871,7.34933 c 1.06341,-0.0488 2.10571,-0.15207 3.10003,-0.30722 m 26.75922,3.36295 c -0.74786,-0.43967 -1.37408,-0.90949 -1.86786,-1.40143 m 35.64588,-0.57263 v 0 c 0.38586,-0.50083 0.63592,-1.01627 0.74584,-1.53775 m 24.00312,-3.78601 c 0.05,-2.44187 -3.4881,-4.67768 -9.09461,-5.74707 m 21.44104,-6.12705 c -0.90796,0.83151 -2.294,1.56912 -4.04956,2.15503 M 662.44397,293.049 v 0 c 0.15472,0.33578 0.22631,0.6766 0.2138,1.01776 m -23.94732,-3.5105 v 0 c -0.84815,0.39124 -1.54694,0.82843 -2.07459,1.29798 m -18.55975,-0.53202 v 0 c -0.45203,0.35535 -0.78955,0.73136 -1.00482,1.11939 m -22.63367,0.30618 v 0 c 1.3197,0.30298 2.54059,0.66763 3.63586,1.086 m -31.90075,6.29797 v 0 c 0.13427,0.38684 0.34643,0.76889 0.63452,1.14261"
       id="path109"
       inkscape:connector-curvature="0"
       style="fill:#000000;fill-opacity:0;fill-rule:evenodd" />
    <path
       d="m 566.1727,300.13177 v 0 c -0.97424,-2.80664 2.22449,-5.58502 8.23883,-7.15619 6.01441,-1.5712 13.78967,-1.65961 20.02643,-0.22775 v 0 c 2.20929,-1.6319 6.25287,-2.75861 10.90765,-3.03931 4.65485,-0.28073 9.37415,0.31751 12.73047,1.61377 v 0 c 1.88202,-1.47958 5.57733,-2.47366 9.77478,-2.62952 4.19739,-0.15582 8.3028,0.54862 10.85938,1.86341 v 0 c 3.40014,-1.56836 8.80981,-2.2287 13.88824,-1.69528 5.07843,0.53338 8.91345,2.16473 9.8457,4.18811 v 0 c 4.16572,0.44543 7.63569,1.57772 9.51337,3.10437 1.87769,1.52667 1.97888,3.29788 0.27741,4.85608 v 0 c 4.10205,2.0928 5.06158,4.88143 2.52063,7.32522 -2.54102,2.44382 -8.20081,4.1756 -14.86725,4.54917 -0.0469,2.29357 -3.25586,4.39816 -8.38977,5.5025 -5.13391,1.10437 -11.39124,1.03607 -16.36005,-0.17859 -2.11645,2.74698 -8.07361,4.76819 -15.29767,5.19037 -7.22412,0.42218 -14.4201,-0.83032 -18.47906,-3.21637 -4.97547,1.17608 -10.94556,1.51489 -16.5636,0.93994 -5.6181,-0.57492 -10.41083,-2.01517 -13.29712,-3.99579 v 0 c -5.08429,0.23322 -10.00012,-0.79938 -12.30774,-2.58533 -2.30762,-1.78595 -1.51581,-3.94503 1.98242,-5.40576 v 0 c -4.53528,-1.04638 -6.84948,-3.12277 -5.73578,-5.14639 1.11371,-2.02362 5.4029,-3.53592 10.63092,-3.74829 z"
       id="path111"
       inkscape:connector-curvature="0"
       style="fill-rule:evenodd;stroke:#595959;stroke-width:4;stroke-linecap:butt;stroke-linejoin:round" />
    <path
       d="m 561.17706,309.1346 v 0 c 2.14026,0.4938 4.61273,0.7178 7.08545,0.64194 m 3.23871,7.34933 c 1.06341,-0.0488 2.10571,-0.15207 3.10003,-0.30722 m 26.75922,3.36295 c -0.74786,-0.43967 -1.37408,-0.90949 -1.86786,-1.40143 m 35.64588,-0.57263 v 0 c 0.38586,-0.50083 0.63592,-1.01627 0.74584,-1.53775 m 24.00312,-3.78601 c 0.05,-2.44187 -3.4881,-4.67768 -9.09461,-5.74707 m 21.44104,-6.12705 c -0.90796,0.83151 -2.294,1.56912 -4.04956,2.15503 M 662.44397,293.049 v 0 c 0.15472,0.33578 0.22631,0.6766 0.2138,1.01776 m -23.94732,-3.5105 v 0 c -0.84815,0.39124 -1.54694,0.82843 -2.07459,1.29798 m -18.55975,-0.53202 v 0 c -0.45203,0.35535 -0.78955,0.73136 -1.00482,1.11939 m -22.63367,0.30618 v 0 c 1.3197,0.30298 2.54059,0.66763 3.63586,1.086 m -31.90075,6.29797 v 0 c 0.13427,0.38684 0.34643,0.76889 0.63452,1.14261"
       id="path113"
       inkscape:connector-curvature="0"
       style="fill-rule:evenodd;stroke:#595959;stroke-width:4;stroke-linecap:butt;stroke-linejoin:round" />
    <path
       d="m 672.51086,306.49133 v 0 c -8.47833,8.84097 -30.65869,15.02872 -56.4939,15.76034 -25.8352,0.73163 -50.41662,-4.13189 -62.60943,-12.38748 l 57.51263,-11.07129 z"
       id="path115"
       inkscape:connector-curvature="0"
       style="fill:#000000;fill-opacity:0;fill-rule:evenodd" />
    <path
       d="m 672.51086,306.49133 v 0 c -8.47833,8.84097 -30.65869,15.02872 -56.4939,15.76034 -25.8352,0.73163 -50.41662,-4.13189 -62.60943,-12.38748"
       id="path117"
       inkscape:connector-curvature="0"
       style="fill:#000000;fill-opacity:0;fill-rule:evenodd" />
    <path
       d="m 672.51086,306.49133 v 0 c -8.47833,8.84097 -30.65869,15.02872 -56.4939,15.76034 -25.8352,0.73163 -50.41662,-4.13189 -62.60943,-12.38748"
       id="path119"
       inkscape:connector-curvature="0"
       style="fill-rule:evenodd;stroke:#595959;stroke-width:4;stroke-linecap:butt;stroke-linejoin:round" />
    <path
       d="m 255.42029,311.9441 104.56692,3.62204"
       id="path121"
       inkscape:connector-curvature="0"
       style="fill:#000000;fill-opacity:0;fill-rule:evenodd" />
    <path
       d="m 255.42029,311.9441 104.56692,3.62204"
       id="path123"
       inkscape:connector-curvature="0"
       style="fill-rule:evenodd;stroke:#0000ff;stroke-width:4;stroke-linecap:butt;stroke-linejoin:round" />
    <path
       d="m 484.04233,303.9441 69.35434,5.92126"
       id="path125"
       inkscape:connector-curvature="0"
       style="fill:#000000;fill-opacity:0;fill-rule:evenodd" />
    <path
       d="m 484.04233,303.9441 69.35434,5.92126"
       id="path127"
       inkscape:connector-curvature="0"
       style="fill-rule:evenodd;stroke:#0000ff;stroke-width:4;stroke-linecap:butt;stroke-linejoin:round" />
    <path
       d="m 701.3243,221.7559 h 138.45667 v 37.25984 H 701.3243 Z"
       id="path129"
       inkscape:connector-curvature="0"
       style="fill:#000000;fill-opacity:0;fill-rule:evenodd" />
    <path
       d="m 701.3243,221.7559 h 138.45667 v 37.25984 H 701.3243 Z"
       id="path131"
       inkscape:connector-curvature="0"
       style="fill-rule:evenodd;stroke:#0000ff;stroke-width:4;stroke-linecap:butt;stroke-linejoin:round" />
    <path
       d="m 721.2401,252.10582 v -22.90625 h 6.92187 l 4.15625,15.625 4.10938,-15.625 h 6.9375 v 22.90625 h -4.29688 v -18.03125 l -4.54687,18.03125 h -4.45313 l -4.53125,-18.03125 v 18.03125 z m 29.96875,-11.53125 -3.98438,-0.71875 q 0.67188,-2.40625 2.3125,-3.5625 1.64063,-1.15625 4.875,-1.15625 2.9375,0 4.375,0.70312 1.4375,0.6875 2.01563,1.76563 0.59375,1.0625 0.59375,3.92187 l -0.0469,5.125 q 0,2.1875 0.20313,3.23438 0.21875,1.03125 0.79687,2.21875 h -4.34375 q -0.17187,-0.4375 -0.42187,-1.29688 -0.10938,-0.39062 -0.15625,-0.51562 -1.125,1.09375 -2.40625,1.64062 -1.28125,0.54688 -2.73438,0.54688 -2.5625,0 -4.04687,-1.39063 -1.46875,-1.39062 -1.46875,-3.51562 0,-1.40625 0.67187,-2.5 0.67188,-1.10938 1.875,-1.6875 1.21875,-0.59375 3.5,-1.03125 3.07813,-0.57813 4.26563,-1.07813 v -0.4375 q 0,-1.26562 -0.625,-1.79687 -0.625,-0.54688 -2.35938,-0.54688 -1.17187,0 -1.82812,0.46875 -0.65625,0.45313 -1.0625,1.60938 z m 5.875,3.5625 q -0.84375,0.28125 -2.67188,0.67187 -1.82812,0.39063 -2.39062,0.76563 -0.85938,0.60937 -0.85938,1.54687 0,0.92188 0.6875,1.59375 0.6875,0.67188 1.75,0.67188 1.1875,0 2.26563,-0.78125 0.79687,-0.59375 1.04687,-1.45313 0.17188,-0.5625 0.17188,-2.14062 z m 7.09375,3.23437 4.40625,-0.67187 q 0.28125,1.28125 1.14062,1.95312 0.85938,0.65625 2.40625,0.65625 1.70313,0 2.5625,-0.625 0.57813,-0.4375 0.57813,-1.17187 0,-0.5 -0.3125,-0.82813 -0.32813,-0.3125 -1.46875,-0.57812 -5.3125,-1.17188 -6.73438,-2.14063 -1.96875,-1.34375 -1.96875,-3.73437 0,-2.15625 1.70313,-3.625 1.70312,-1.46875 5.28125,-1.46875 3.40625,0 5.0625,1.10937 1.65625,1.10938 2.28125,3.28125 l -4.14063,0.76563 q -0.26562,-0.96875 -1.01562,-1.48438 -0.73438,-0.51562 -2.10938,-0.51562 -1.73437,0 -2.48437,0.48437 -0.5,0.34375 -0.5,0.89063 0,0.46875 0.4375,0.79687 0.59375,0.4375 4.09375,1.23438 3.51562,0.79687 4.90625,1.95312 1.375,1.17188 1.375,3.26563 0,2.28125 -1.90625,3.92187 -1.90625,1.64063 -5.64063,1.64063 -3.39062,0 -5.375,-1.375 -1.96875,-1.375 -2.57812,-3.73438 z m 26.95312,-11.85937 v 3.5 h -3 v 6.6875 q 0,2.03125 0.0781,2.375 0.0937,0.32812 0.39062,0.54687 0.3125,0.21875 0.75,0.21875 0.60938,0 1.76563,-0.42187 l 0.375,3.40625 q -1.53125,0.65625 -3.46875,0.65625 -1.1875,0 -2.14063,-0.39063 -0.95312,-0.40625 -1.40625,-1.03125 -0.4375,-0.64062 -0.60937,-1.71875 -0.14063,-0.76562 -0.14063,-3.09375 v -7.23437 h -2.01562 v -3.5 h 2.01562 v -3.29688 l 4.40625,-2.5625 v 5.85938 z m 12.65625,11.3125 4.375,0.73437 q -0.84375,2.40625 -2.67187,3.67188 -1.8125,1.25 -4.54688,1.25 -4.32812,0 -6.40625,-2.82813 -1.64062,-2.26562 -1.64062,-5.71875 0,-4.125 2.15625,-6.45312 2.15625,-2.34375 5.45312,-2.34375 3.70313,0 5.84375,2.45312 2.14063,2.4375 2.04688,7.48438 h -11 q 0.0469,1.95312 1.0625,3.04687 1.01562,1.07813 2.53125,1.07813 1.03125,0 1.73437,-0.5625 0.70313,-0.5625 1.0625,-1.8125 z m 0.25,-4.4375 q -0.0469,-1.90625 -0.98437,-2.89063 -0.9375,-1 -2.28125,-1 -1.4375,0 -2.375,1.04688 -0.9375,1.04687 -0.92188,2.84375 z m 12.14063,9.71875 h -4.39063 v -16.59375 h 4.07813 v 2.35937 q 1.04687,-1.67187 1.875,-2.20312 0.84375,-0.53125 1.90625,-0.53125 1.5,0 2.89062,0.82812 l -1.35937,3.82813 q -1.10938,-0.71875 -2.0625,-0.71875 -0.92188,0 -1.5625,0.51562 -0.64063,0.5 -1.01563,1.82813 -0.35937,1.32812 -0.35937,5.5625 z"
       id="path133"
       inkscape:connector-curvature="0"
       style="fill:#000000;fill-rule:nonzero" />
    <path
       d="m 770.5526,259.01575 -98.04724,47.46457"
       id="path135"
       inkscape:connector-curvature="0"
       style="fill:#000000;fill-opacity:0;fill-rule:evenodd" />
    <path
       d="m 770.55255,259.01575 -85.70862,41.49149"
       id="path137"
       inkscape:connector-curvature="0"
       style="fill-rule:evenodd;stroke:#0000ff;stroke-width:4;stroke-linecap:butt;stroke-linejoin:round" />
    <path
       d="m 684.84393,300.5072 2.08887,-6.00888 -9.16413,9.43402 13.08417,-1.33633 z"
       id="path139"
       inkscape:connector-curvature="0"
       style="fill:#0000ff;fill-rule:evenodd;stroke:#0000ff;stroke-width:4;stroke-linecap:butt" />
    <path
       d="m 770.4484,172.55118 0.0945,49.19685"
       id="path141"
       inkscape:connector-curvature="0"
       style="fill:#000000;fill-opacity:0;fill-rule:evenodd" />
    <path
       d="m 770.4484,172.55118 0.0681,35.48854"
       id="path143"
       inkscape:connector-curvature="0"
       style="fill-rule:evenodd;stroke:#0000ff;stroke-width:4;stroke-linecap:butt;stroke-linejoin:round" />
    <path
       d="m 770.51654,208.0397 -4.50696,-4.48969 4.5221,12.35042 4.47454,-12.36769 z"
       id="path145"
       inkscape:connector-curvature="0"
       style="fill:#0000ff;fill-rule:evenodd;stroke:#0000ff;stroke-width:4;stroke-linecap:butt" />
    <path
       d="m 691.78705,136.48819 v 0 c 0,-19.91704 35.2179,-36.063 78.66138,-36.063 v 0 c 43.44354,0 78.66144,16.14596 78.66144,36.063 v 0 c 0,19.91704 -35.2179,36.06299 -78.66144,36.06299 v 0 c -43.44348,0 -78.66138,-16.14595 -78.66138,-36.06299 z"
       id="path147"
       inkscape:connector-curvature="0"
       style="fill:#000000;fill-opacity:0;fill-rule:evenodd" />
    <path
       d="m 691.78705,136.48819 v 0 c 0,-19.91704 35.2179,-36.063 78.66138,-36.063 v 0 c 43.44354,0 78.66144,16.14596 78.66144,36.063 v 0 c 0,19.91704 -35.2179,36.06299 -78.66144,36.06299 v 0 c -43.44348,0 -78.66138,-16.14595 -78.66138,-36.06299 z"
       id="path149"
       inkscape:connector-curvature="0"
       style="fill-rule:evenodd;stroke:#0000ff;stroke-width:4;stroke-linecap:butt;stroke-linejoin:round" />
    <path
       d="m 727.45624,148.20819 v -22.90625 h 4.625 v 9.01562 h 9.0625 v -9.01562 h 4.625 v 22.90625 h -4.625 v -10.01563 h -9.0625 v 10.01563 z m 23.09375,0 v -22.90625 h 16.98437 v 3.875 h -12.35937 v 5.07812 h 11.5 v 3.85938 h -11.5 v 6.23437 h 12.79687 v 3.85938 z m 42,0 h -5.03125 l -2,-5.20313 h -9.15625 l -1.89063,5.20313 h -4.90625 l 8.92188,-22.90625 h 4.89062 z m -8.51563,-9.0625 -3.15625,-8.5 -3.09375,8.5 z m 10.95313,-13.84375 h 8.45312 q 2.85938,0 4.35938,0.4375 2.01562,0.59375 3.45312,2.10938 1.4375,1.51562 2.1875,3.71874 0.75,2.1875 0.75,5.40625 0,2.82813 -0.70312,4.875 -0.85938,2.5 -2.45313,4.04688 -1.20312,1.17187 -3.25,1.82812 -1.53125,0.48438 -4.09375,0.48438 h -8.70312 z m 4.625,3.875 v 15.17187 h 3.45312 q 1.9375,0 2.79688,-0.21875 1.125,-0.28125 1.85937,-0.95312 0.75,-0.67188 1.21875,-2.20313 0.46875,-1.54687 0.46875,-4.20312 0,-2.65625 -0.46875,-4.07813 -0.46875,-1.42187 -1.3125,-2.21875 -0.84375,-0.79687 -2.14062,-1.07812 -0.96875,-0.21875 -3.79688,-0.21875 z"
       id="path151"
       inkscape:connector-curvature="0"
       style="fill:#000000;fill-rule:nonzero" />
    <path
       d="m 126.0473,140.5328 h 157.32281 v 93.29134 H 126.0473 Z"
       id="path153"
       inkscape:connector-curvature="0"
       style="fill:#000000;fill-opacity:0;fill-rule:evenodd" />
    <path
       d="m 126.0473,140.5328 h 157.32281 v 93.29134 H 126.0473 Z"
       id="path155"
       inkscape:connector-curvature="0"
       style="fill-rule:evenodd;stroke:#000000;stroke-width:3;stroke-linecap:butt;stroke-linejoin:round" />
    <path
       d="m 135.01604,167.4528 5.23437,-13.59375 h 1.9375 l 5.5625,13.59375 h -2.04687 l -1.59375,-4.125 h -5.6875 l -1.48438,4.125 z m 3.92187,-5.57813 h 4.60938 l -1.40625,-3.78125 q -0.65625,-1.70312 -0.96875,-2.8125 -0.26563,1.3125 -0.73438,2.59375 z m 16.19358,5.57813 v -1.25 q -0.9375,1.46875 -2.75,1.46875 -1.17188,0 -2.17188,-0.64063 -0.98437,-0.65625 -1.53125,-1.8125 -0.53125,-1.17187 -0.53125,-2.6875 0,-1.46875 0.48438,-2.67187 0.5,-1.20313 1.46875,-1.84375 0.98437,-0.64063 2.20312,-0.64063 0.89063,0 1.57813,0.375 0.70312,0.375 1.14062,0.98438 v -4.875 h 1.65625 v 13.59375 z m -5.28125,-4.92188 q 0,1.89063 0.79687,2.82813 0.8125,0.9375 1.89063,0.9375 1.09375,0 1.85937,-0.89063 0.76563,-0.89062 0.76563,-2.73437 0,-2.01563 -0.78125,-2.95313 -0.78125,-0.95312 -1.92188,-0.95312 -1.10937,0 -1.85937,0.90625 -0.75,0.90625 -0.75,2.85937 z m 15.65696,4.92188 v -1.25 q -0.9375,1.46875 -2.75,1.46875 -1.17187,0 -2.17187,-0.64063 -0.98438,-0.65625 -1.53125,-1.8125 -0.53125,-1.17187 -0.53125,-2.6875 0,-1.46875 0.48437,-2.67187 0.5,-1.20313 1.46875,-1.84375 0.98438,-0.64063 2.20313,-0.64063 0.89062,0 1.57812,0.375 0.70313,0.375 1.14063,0.98438 v -4.875 h 1.65625 v 13.59375 z m -5.28125,-4.92188 q 0,1.89063 0.79688,2.82813 0.8125,0.9375 1.89062,0.9375 1.09375,0 1.85938,-0.89063 0.76562,-0.89062 0.76562,-2.73437 0,-2.01563 -0.78125,-2.95313 -0.78125,-0.95312 -1.92187,-0.95312 -1.10938,0 -1.85938,0.90625 -0.75,0.90625 -0.75,2.85937 z m 9.28197,-6.76562 v -1.90625 h 1.67188 v 1.90625 z m 0,11.6875 v -9.85938 h 1.67188 v 9.85938 z m 4.1292,0 v -9.85938 h 1.5 v 1.40625 q 1.09375,-1.625 3.14062,-1.625 0.89063,0 1.64063,0.32813 0.75,0.3125 1.10937,0.84375 0.375,0.51562 0.53125,1.21875 0.0937,0.46875 0.0937,1.625 v 6.0625 h -1.67187 v -6 q 0,-1.01563 -0.20313,-1.51563 -0.1875,-0.51562 -0.6875,-0.8125 -0.5,-0.29687 -1.17187,-0.29687 -1.0625,0 -1.84375,0.67187 -0.76563,0.67188 -0.76563,2.57813 v 5.375 z m 10.07884,0.8125 1.60938,0.25 q 0.10937,0.75 0.57812,1.09375 0.60938,0.45312 1.6875,0.45312 1.17188,0 1.79688,-0.46875 0.625,-0.45312 0.85937,-1.28125 0.125,-0.51562 0.10938,-2.15625 -1.09375,1.29688 -2.71875,1.29688 -2.03125,0 -3.15625,-1.46875 -1.10938,-1.46875 -1.10938,-3.51563 0,-1.40625 0.51563,-2.59375 0.51562,-1.20312 1.48437,-1.84375 0.96875,-0.65625 2.26563,-0.65625 1.75,0 2.875,1.40625 v -1.1875 h 1.54687 v 8.51563 q 0,2.3125 -0.46875,3.26562 -0.46875,0.96875 -1.48437,1.51563 -1.01563,0.5625 -2.5,0.5625 -1.76563,0 -2.85938,-0.79688 -1.07812,-0.79687 -1.03125,-2.39062 z m 1.375,-5.92188 q 0,1.95313 0.76563,2.84375 0.78125,0.89063 1.9375,0.89063 1.14062,0 1.92187,-0.89063 0.78125,-0.89062 0.78125,-2.78125 0,-1.8125 -0.8125,-2.71875 -0.79687,-0.92187 -1.92187,-0.92187 -1.10938,0 -1.89063,0.90625 -0.78125,0.89062 -0.78125,2.67187 z m 14.88715,5.10938 v -8.54688 h -1.48438 v -1.3125 h 1.48438 v -1.04687 q 0,-0.98438 0.17187,-1.46875 0.23438,-0.65625 0.84375,-1.04688 0.60938,-0.40625 1.70313,-0.40625 0.70312,0 1.5625,0.15625 l -0.25,1.46875 q -0.51563,-0.0937 -0.98438,-0.0937 -0.76562,0 -1.07812,0.32813 -0.3125,0.3125 -0.3125,1.20312 v 0.90625 h 1.92187 v 1.3125 h -1.92187 v 8.54688 z m 4.79268,-11.6875 v -1.90625 h 1.67187 v 1.90625 z m 0,11.6875 v -9.85938 h 1.67187 v 9.85938 z m 4.09794,0 v -13.59375 h 1.67188 v 13.59375 z m 10.92607,-3.17188 1.71875,0.21875 q -0.40625,1.5 -1.51562,2.34375 -1.09375,0.82813 -2.8125,0.82813 -2.15625,0 -3.42188,-1.32813 -1.26562,-1.32812 -1.26562,-3.73437 0,-2.48438 1.26562,-3.85938 1.28125,-1.375 3.32813,-1.375 1.98437,0 3.23437,1.34375 1.25,1.34375 1.25,3.79688 0,0.14062 -0.0156,0.4375 h -7.34375 q 0.0937,1.625 0.92187,2.48437 0.82813,0.85938 2.0625,0.85938 0.90625,0 1.54688,-0.46875 0.65625,-0.48438 1.04687,-1.54688 z m -5.48437,-2.70312 h 5.5 q -0.10938,-1.23438 -0.625,-1.85938 -0.79688,-0.96875 -2.07813,-0.96875 -1.14062,0 -1.9375,0.78125 -0.78125,0.76563 -0.85937,2.04688 z m 8.43821,2.9375 1.65625,-0.26563 q 0.14063,1 0.76563,1.53125 0.64062,0.51563 1.78125,0.51563 1.15625,0 1.70312,-0.46875 0.5625,-0.46875 0.5625,-1.09375 0,-0.5625 -0.48437,-0.89063 -0.34375,-0.21875 -1.70313,-0.5625 -1.84375,-0.46875 -2.5625,-0.79687 -0.70312,-0.34375 -1.07812,-0.9375 -0.35938,-0.60938 -0.35938,-1.32813 0,-0.65625 0.29688,-1.21875 0.3125,-0.5625 0.82812,-0.9375 0.39063,-0.28125 1.0625,-0.48437 0.67188,-0.20313 1.4375,-0.20313 1.17188,0 2.04688,0.34375 0.875,0.32813 1.28125,0.90625 0.42187,0.5625 0.57812,1.51563 l -1.625,0.21875 q -0.10937,-0.75 -0.65625,-1.17188 -0.53125,-0.4375 -1.5,-0.4375 -1.15625,0 -1.64062,0.39063 -0.48438,0.375 -0.48438,0.875 0,0.32812 0.20313,0.59375 0.20312,0.26562 0.64062,0.4375 0.25,0.0937 1.46875,0.4375 1.76563,0.46875 2.46875,0.76562 0.70313,0.29688 1.09375,0.875 0.40625,0.57813 0.40625,1.4375 0,0.82813 -0.48437,1.57813 -0.48438,0.73437 -1.40625,1.14062 -0.92188,0.39063 -2.07813,0.39063 -1.92187,0 -2.9375,-0.79688 -1,-0.79687 -1.28125,-2.35937 z"
       id="path157"
       inkscape:connector-curvature="0"
       style="fill:#000000;fill-rule:nonzero" />
    <path
       d="m 136.34416,189.4528 v -13.59375 h 2.75 v 13.59375 z m 14.21455,0 h -2.60937 v -5.03125 q 0,-1.59375 -0.17188,-2.0625 -0.15625,-0.46875 -0.53125,-0.71875 -0.375,-0.26563 -0.90625,-0.26563 -0.6875,0 -1.23437,0.375 -0.53125,0.35938 -0.73438,0.98438 -0.1875,0.60937 -0.1875,2.25 v 4.46875 h -2.60937 v -9.85938 h 2.42187 v 1.45313 q 1.29688,-1.67188 3.25,-1.67188 0.85938,0 1.57813,0.3125 0.71875,0.3125 1.07812,0.79688 0.35938,0.48437 0.5,1.09375 0.15625,0.60937 0.15625,1.75 z m 2.19286,0.65625 2.96875,0.35937 q 0.0781,0.51563 0.34375,0.70313 0.375,0.28125 1.17187,0.28125 1.03125,0 1.53125,-0.29688 0.34375,-0.20312 0.51563,-0.65625 0.125,-0.32812 0.125,-1.20312 v -1.4375 q -1.17188,1.59375 -2.95313,1.59375 -1.98437,0 -3.14062,-1.67188 -0.90625,-1.32812 -0.90625,-3.3125 0,-2.46875 1.1875,-3.78125 1.1875,-1.3125 2.96875,-1.3125 1.82812,0 3.01562,1.60938 v -1.39063 h 2.4375 v 8.84375 q 0,1.75 -0.29687,2.60938 -0.28125,0.85937 -0.79688,1.34375 -0.51562,0.5 -1.39062,0.78125 -0.85938,0.28125 -2.1875,0.28125 -2.51563,0 -3.5625,-0.85938 -1.04688,-0.85937 -1.04688,-2.17187 0,-0.14063 0.0156,-0.3125 z m 2.32812,-5.78125 q 0,1.5625 0.60938,2.29687 0.60937,0.71875 1.5,0.71875 0.95312,0 1.60937,-0.73437 0.65625,-0.75 0.65625,-2.21875 0,-1.53125 -0.64062,-2.26563 -0.625,-0.75 -1.57813,-0.75 -0.9375,0 -1.54687,0.73438 -0.60938,0.71875 -0.60938,2.21875 z m 11.80224,5.125 h -2.60938 v -9.85938 h 2.42188 v 1.40625 q 0.625,-0.98437 1.10937,-1.29687 0.5,-0.32813 1.14063,-0.32813 0.89062,0 1.71875,0.5 l -0.8125,2.26563 q -0.65625,-0.42188 -1.21875,-0.42188 -0.54688,0 -0.9375,0.29688 -0.375,0.29687 -0.59375,1.09375 -0.21875,0.78125 -0.21875,3.29687 z m 10.46339,-3.14063 2.60937,0.4375 q -0.5,1.4375 -1.59375,2.1875 -1.07812,0.73438 -2.70312,0.73438 -2.5625,0 -3.79688,-1.67188 -0.96875,-1.34375 -0.96875,-3.40625 0,-2.4375 1.26563,-3.82812 1.28125,-1.39063 3.25,-1.39063 2.1875,0 3.45312,1.45313 1.28125,1.45312 1.23438,4.45312 h -6.53125 q 0.0156,1.15625 0.625,1.8125 0.60937,0.64063 1.5,0.64063 0.60937,0 1.03125,-0.32813 0.42187,-0.34375 0.625,-1.09375 z m 0.15625,-2.625 q -0.0312,-1.14062 -0.59375,-1.71875 -0.54688,-0.59375 -1.34375,-0.59375 -0.85938,0 -1.40625,0.625 -0.5625,0.60938 -0.54688,1.6875 z m 13.56322,5.76563 h -2.42188 v -1.45313 q -0.60937,0.84375 -1.4375,1.26563 -0.8125,0.40625 -1.64062,0.40625 -1.70313,0 -2.92188,-1.35938 -1.20312,-1.375 -1.20312,-3.82812 0,-2.5 1.17187,-3.79688 1.1875,-1.3125 2.98438,-1.3125 1.65625,0 2.85937,1.375 v -4.89062 h 2.60938 z m -6.96875,-5.14063 q 0,1.57813 0.4375,2.28125 0.64062,1.01563 1.76562,1.01563 0.90625,0 1.53125,-0.76563 0.625,-0.76562 0.625,-2.28125 0,-1.70312 -0.60937,-2.4375 -0.60938,-0.75 -1.5625,-0.75 -0.9375,0 -1.5625,0.73438 -0.625,0.73437 -0.625,2.20312 z m 9.31785,-6.04687 v -2.40625 h 2.60938 v 2.40625 z m 0,11.1875 v -9.85938 h 2.60938 v 9.85938 z m 10.88643,-3.14063 2.60938,0.4375 q -0.5,1.4375 -1.59375,2.1875 -1.07813,0.73438 -2.70313,0.73438 -2.5625,0 -3.79687,-1.67188 -0.96875,-1.34375 -0.96875,-3.40625 0,-2.4375 1.26562,-3.82812 1.28125,-1.39063 3.25,-1.39063 2.1875,0 3.45313,1.45313 1.28125,1.45312 1.23437,4.45312 h -6.53125 q 0.0156,1.15625 0.625,1.8125 0.60938,0.64063 1.5,0.64063 0.60938,0 1.03125,-0.32813 0.42188,-0.34375 0.625,-1.09375 z m 0.15625,-2.625 q -0.0312,-1.14062 -0.59375,-1.71875 -0.54687,-0.59375 -1.34375,-0.59375 -0.85937,0 -1.40625,0.625 -0.5625,0.60938 -0.54687,1.6875 z m 13.48509,5.76563 h -2.60937 v -5.03125 q 0,-1.59375 -0.17188,-2.0625 -0.15625,-0.46875 -0.53125,-0.71875 -0.375,-0.26563 -0.90625,-0.26563 -0.6875,0 -1.23437,0.375 -0.53125,0.35938 -0.73438,0.98438 -0.1875,0.60937 -0.1875,2.25 v 4.46875 h -2.60937 v -9.85938 h 2.42187 v 1.45313 q 1.29688,-1.67188 3.25,-1.67188 0.85938,0 1.57813,0.3125 0.71875,0.3125 1.07812,0.79688 0.35938,0.48437 0.5,1.09375 0.15625,0.60937 0.15625,1.75 z m 6.94286,-9.85938 v 2.07813 h -1.78125 v 3.98437 q 0,1.20313 0.0469,1.40625 0.0625,0.1875 0.23438,0.32813 0.1875,0.125 0.45312,0.125 0.35938,0 1.04688,-0.25 l 0.21875,2.01562 q -0.90625,0.39063 -2.0625,0.39063 -0.70313,0 -1.26563,-0.23438 -0.5625,-0.23437 -0.82812,-0.60937 -0.26563,-0.375 -0.375,-1.01563 -0.0781,-0.45312 -0.0781,-1.84375 v -4.29687 h -1.20312 v -2.07813 h 1.20312 v -1.95312 l 2.60938,-1.51563 v 3.46875 z m 0.7908,7.04688 2.60938,-0.39063 q 0.17187,0.75 0.67187,1.15625 0.51563,0.39063 1.4375,0.39063 1,0 1.51563,-0.375 0.34375,-0.26563 0.34375,-0.70313 0,-0.29687 -0.1875,-0.48437 -0.1875,-0.1875 -0.875,-0.34375 -3.14063,-0.70313 -4,-1.26563 -1.15625,-0.79687 -1.15625,-2.21875 0,-1.28125 1,-2.15625 1.01562,-0.875 3.14062,-0.875 2.03125,0 3,0.65625 0.98438,0.65625 1.35938,1.95313 l -2.45313,0.45312 q -0.15625,-0.57812 -0.60937,-0.875 -0.4375,-0.3125 -1.25,-0.3125 -1.03125,0 -1.46875,0.29688 -0.29688,0.20312 -0.29688,0.51562 0,0.28125 0.25,0.48438 0.35938,0.25 2.4375,0.73437 2.07813,0.46875 2.90625,1.15625 0.82813,0.6875 0.82813,1.9375 0,1.35938 -1.14063,2.32813 -1.125,0.96875 -3.34375,0.96875 -2.01562,0 -3.1875,-0.8125 -1.17187,-0.8125 -1.53125,-2.21875 z m 11.28197,2.8125 v -2.60938 h 2.60937 v 2.60938 z m 9.69893,-9.85938 v 2.07813 h -1.78125 v 3.98437 q 0,1.20313 0.0469,1.40625 0.0625,0.1875 0.23438,0.32813 0.1875,0.125 0.45312,0.125 0.35938,0 1.04688,-0.25 l 0.21875,2.01562 q -0.90625,0.39063 -2.0625,0.39063 -0.70313,0 -1.26563,-0.23438 -0.5625,-0.23437 -0.82812,-0.60937 -0.26563,-0.375 -0.375,-1.01563 -0.0781,-0.45312 -0.0781,-1.84375 v -4.29687 h -1.20312 v -2.07813 h 1.20312 v -1.95312 l 2.60938,-1.51563 v 3.46875 z m 0.44705,9.85938 3.5625,-5.07813 -3.40625,-4.78125 h 3.17187 l 1.75,2.71875 1.82813,-2.71875 h 3.0625 l -3.32813,4.67188 3.64063,5.1875 h -3.20313 l -2,-3.04688 -2.03125,3.04688 z m 16.14136,-9.85938 v 2.07813 h -1.78125 v 3.98437 q 0,1.20313 0.0469,1.40625 0.0625,0.1875 0.23438,0.32813 0.1875,0.125 0.45312,0.125 0.35938,0 1.04688,-0.25 l 0.21875,2.01562 q -0.90625,0.39063 -2.0625,0.39063 -0.70313,0 -1.26563,-0.23438 -0.5625,-0.23437 -0.82812,-0.60937 -0.26563,-0.375 -0.375,-1.01563 -0.0781,-0.45312 -0.0781,-1.84375 v -4.29687 h -1.20312 v -2.07813 h 1.20312 v -1.95312 l 2.60938,-1.51563 v 3.46875 z"
       id="path159"
       inkscape:connector-curvature="0"
       style="fill:#000000;fill-rule:nonzero" />
    <path
       d="m 136.40666,200.2653 v -2.40625 h 2.60937 v 2.40625 z m 0,11.1875 v -9.85938 h 2.60937 v 9.85938 z m 14.15205,0 h -2.60937 v -5.03125 q 0,-1.59375 -0.17188,-2.0625 -0.15625,-0.46875 -0.53125,-0.71875 -0.375,-0.26563 -0.90625,-0.26563 -0.6875,0 -1.23437,0.375 -0.53125,0.35938 -0.73438,0.98438 -0.1875,0.60937 -0.1875,2.25 v 4.46875 h -2.60937 v -9.85938 h 2.42187 v 1.45313 q 1.29688,-1.67188 3.25,-1.67188 0.85938,0 1.57813,0.3125 0.71875,0.3125 1.07812,0.79688 0.35938,0.48437 0.5,1.09375 0.15625,0.60937 0.15625,1.75 z m 1.52098,-2.8125 2.60938,-0.39063 q 0.17187,0.75 0.67187,1.15625 0.51563,0.39063 1.4375,0.39063 1,0 1.51563,-0.375 0.34375,-0.26563 0.34375,-0.70313 0,-0.29687 -0.1875,-0.48437 -0.1875,-0.1875 -0.875,-0.34375 -3.14063,-0.70313 -4,-1.26563 -1.15625,-0.79687 -1.15625,-2.21875 0,-1.28125 1,-2.15625 1.01562,-0.875 3.14062,-0.875 2.03125,0 3,0.65625 0.98438,0.65625 1.35938,1.95313 l -2.45313,0.45312 q -0.15625,-0.57812 -0.60937,-0.875 -0.4375,-0.3125 -1.25,-0.3125 -1.03125,0 -1.46875,0.29688 -0.29688,0.20312 -0.29688,0.51562 0,0.28125 0.25,0.48438 0.35938,0.25 2.4375,0.73437 2.07813,0.46875 2.90625,1.15625 0.82813,0.6875 0.82813,1.9375 0,1.35938 -1.14063,2.32813 -1.125,0.96875 -3.34375,0.96875 -2.01562,0 -3.1875,-0.8125 -1.17187,-0.8125 -1.53125,-2.21875 z m 15.7976,-7.04688 v 2.07813 h -1.78125 v 3.98437 q 0,1.20313 0.0469,1.40625 0.0625,0.1875 0.23438,0.32813 0.1875,0.125 0.45312,0.125 0.35938,0 1.04688,-0.25 l 0.21875,2.01562 q -0.90625,0.39063 -2.0625,0.39063 -0.70313,0 -1.26563,-0.23438 -0.5625,-0.23437 -0.82812,-0.60937 -0.26563,-0.375 -0.375,-1.01563 -0.0781,-0.45312 -0.0781,-1.84375 v -4.29687 h -1.20312 v -2.07813 h 1.20312 v -1.95312 l 2.60938,-1.51563 v 3.46875 z m 4.19705,9.85938 h -2.60938 v -9.85938 h 2.42188 v 1.40625 q 0.625,-0.98437 1.10937,-1.29687 0.5,-0.32813 1.14063,-0.32813 0.89062,0 1.71875,0.5 l -0.8125,2.26563 q -0.65625,-0.42188 -1.21875,-0.42188 -0.54688,0 -0.9375,0.29688 -0.375,0.29687 -0.59375,1.09375 -0.21875,0.78125 -0.21875,3.29687 z m 11.24464,0 v -1.46875 q -0.53125,0.78125 -1.40625,1.23437 -0.875,0.45313 -1.85937,0.45313 -0.98438,0 -1.78125,-0.4375 -0.78125,-0.4375 -1.14063,-1.21875 -0.34375,-0.79688 -0.34375,-2.1875 v -6.23438 h 2.60938 v 4.53125 q 0,2.07813 0.14062,2.54688 0.14063,0.46875 0.51563,0.75 0.39062,0.26562 0.96875,0.26562 0.67187,0 1.20312,-0.35937 0.53125,-0.375 0.71875,-0.90625 0.1875,-0.54688 0.1875,-2.67188 v -4.15625 h 2.60938 v 9.85938 z m 13.50536,-6.9375 -2.5625,0.46875 q -0.14063,-0.78125 -0.59375,-1.17188 -0.45313,-0.39062 -1.1875,-0.39062 -0.98438,0 -1.5625,0.67187 -0.57813,0.67188 -0.57813,2.25 0,1.76563 0.57813,2.48438 0.59375,0.71875 1.59375,0.71875 0.75,0 1.21875,-0.42188 0.46875,-0.42187 0.67187,-1.45312 l 2.54688,0.4375 q -0.39063,1.76562 -1.53125,2.67187 -1.125,0.89063 -3.03125,0.89063 -2.15625,0 -3.45313,-1.35938 -1.28125,-1.35937 -1.28125,-3.78125 0,-2.4375 1.29688,-3.79687 1.29687,-1.35938 3.48437,-1.35938 1.79688,0 2.85938,0.78125 1.0625,0.76563 1.53125,2.35938 z m 6.29759,-2.92188 v 2.07813 h -1.78125 v 3.98437 q 0,1.20313 0.0469,1.40625 0.0625,0.1875 0.23437,0.32813 0.1875,0.125 0.45313,0.125 0.35937,0 1.04687,-0.25 l 0.21875,2.01562 q -0.90625,0.39063 -2.0625,0.39063 -0.70312,0 -1.26562,-0.23438 -0.5625,-0.23437 -0.82813,-0.60937 -0.26562,-0.375 -0.375,-1.01563 -0.0781,-0.45312 -0.0781,-1.84375 v -4.29687 h -1.20313 v -2.07813 h 1.20313 v -1.95312 l 2.60937,-1.51563 v 3.46875 z m 1.69705,-1.32812 v -2.40625 h 2.60938 v 2.40625 z m 0,11.1875 v -9.85938 h 2.60938 v 9.85938 z m 4.58956,-5.0625 q 0,-1.29688 0.64062,-2.51563 0.64063,-1.21875 1.8125,-1.85937 1.17188,-0.64063 2.60938,-0.64063 2.25,0 3.67187,1.45313 1.42188,1.45312 1.42188,3.67187 0,2.23438 -1.4375,3.70313 -1.4375,1.46875 -3.625,1.46875 -1.35938,0 -2.59375,-0.60938 -1.21875,-0.60937 -1.85938,-1.79687 -0.64062,-1.1875 -0.64062,-2.875 z m 2.67187,0.14062 q 0,1.46875 0.6875,2.25 0.70313,0.76563 1.71875,0.76563 1.01563,0 1.70313,-0.76563 0.70312,-0.78125 0.70312,-2.26562 0,-1.45313 -0.70312,-2.23438 -0.6875,-0.78125 -1.70313,-0.78125 -1.01562,0 -1.71875,0.78125 -0.6875,0.78125 -0.6875,2.25 z m 18.28661,4.92188 h -2.60938 v -5.03125 q 0,-1.59375 -0.17187,-2.0625 -0.15625,-0.46875 -0.53125,-0.71875 -0.375,-0.26563 -0.90625,-0.26563 -0.6875,0 -1.23438,0.375 -0.53125,0.35938 -0.73437,0.98438 -0.1875,0.60937 -0.1875,2.25 v 4.46875 h -2.60938 v -9.85938 h 2.42188 v 1.45313 q 1.29687,-1.67188 3.25,-1.67188 0.85937,0 1.57812,0.3125 0.71875,0.3125 1.07813,0.79688 0.35937,0.48437 0.5,1.09375 0.15625,0.60937 0.15625,1.75 z m 1.52098,-2.8125 2.60937,-0.39063 q 0.17188,0.75 0.67188,1.15625 0.51562,0.39063 1.4375,0.39063 1,0 1.51562,-0.375 0.34375,-0.26563 0.34375,-0.70313 0,-0.29687 -0.1875,-0.48437 -0.1875,-0.1875 -0.875,-0.34375 -3.14062,-0.70313 -4,-1.26563 -1.15625,-0.79687 -1.15625,-2.21875 0,-1.28125 1,-2.15625 1.01563,-0.875 3.14063,-0.875 2.03125,0 3,0.65625 0.98437,0.65625 1.35937,1.95313 l -2.45312,0.45312 q -0.15625,-0.57812 -0.60938,-0.875 -0.4375,-0.3125 -1.25,-0.3125 -1.03125,0 -1.46875,0.29688 -0.29687,0.20312 -0.29687,0.51562 0,0.28125 0.25,0.48438 0.35937,0.25 2.4375,0.73437 2.07812,0.46875 2.90625,1.15625 0.82812,0.6875 0.82812,1.9375 0,1.35938 -1.14062,2.32813 -1.125,0.96875 -3.34375,0.96875 -2.01563,0 -3.1875,-0.8125 -1.17188,-0.8125 -1.53125,-2.21875 z m 11.28197,2.8125 v -2.60938 h 2.60937 v 2.60938 z m 9.69892,-9.85938 v 2.07813 h -1.78125 v 3.98437 q 0,1.20313 0.0469,1.40625 0.0625,0.1875 0.23437,0.32813 0.1875,0.125 0.45313,0.125 0.35937,0 1.04687,-0.25 l 0.21875,2.01562 q -0.90625,0.39063 -2.0625,0.39063 -0.70312,0 -1.26562,-0.23438 -0.5625,-0.23437 -0.82813,-0.60937 -0.26562,-0.375 -0.375,-1.01563 -0.0781,-0.45312 -0.0781,-1.84375 v -4.29687 h -1.20313 v -2.07813 h 1.20313 v -1.95312 l 2.60937,-1.51563 v 3.46875 z m 0.44706,9.85938 3.5625,-5.07813 -3.40625,-4.78125 h 3.17187 l 1.75,2.71875 1.82813,-2.71875 h 3.0625 l -3.32813,4.67188 3.64063,5.1875 h -3.20313 l -2,-3.04688 -2.03125,3.04688 z m 16.14135,-9.85938 v 2.07813 h -1.78125 v 3.98437 q 0,1.20313 0.0469,1.40625 0.0625,0.1875 0.23437,0.32813 0.1875,0.125 0.45313,0.125 0.35937,0 1.04687,-0.25 l 0.21875,2.01562 q -0.90625,0.39063 -2.0625,0.39063 -0.70312,0 -1.26562,-0.23438 -0.5625,-0.23437 -0.82813,-0.60937 -0.26562,-0.375 -0.375,-1.01563 -0.0781,-0.45312 -0.0781,-1.84375 v -4.29687 h -1.20313 v -2.07813 h 1.20313 v -1.95312 l 2.60937,-1.51563 v 3.46875 z"
       id="path161"
       inkscape:connector-curvature="0"
       style="fill:#000000;fill-rule:nonzero" />
    <path
       d="M 348.5092,142.93176 H 497.32811 V 236.2231 H 348.5092 Z"
       id="path163"
       inkscape:connector-curvature="0"
       style="fill:#000000;fill-opacity:0;fill-rule:evenodd" />
    <path
       d="M 348.5092,142.93176 H 497.32811 V 236.2231 H 348.5092 Z"
       id="path165"
       inkscape:connector-curvature="0"
       style="fill-rule:evenodd;stroke:#000000;stroke-width:3;stroke-linecap:butt;stroke-linejoin:round" />
    <path
       d="m 358.91544,169.85176 v -13.59375 h 2.71875 l 3.21875,9.625 q 0.4375,1.34375 0.64062,2.01563 0.23438,-0.75 0.73438,-2.1875 l 3.25,-9.45313 h 2.42187 v 13.59375 h -1.73437 v -11.39062 l -3.95313,11.39062 h -1.625 l -3.9375,-11.57812 v 11.57812 z m 14.75955,-4.92187 q 0,-2.73438 1.53125,-4.0625 1.26563,-1.09375 3.09375,-1.09375 2.03125,0 3.3125,1.34375 1.29688,1.32812 1.29688,3.67187 0,1.90625 -0.57813,3 -0.5625,1.07813 -1.65625,1.6875 -1.07812,0.59375 -2.375,0.59375 -2.0625,0 -3.34375,-1.32812 -1.28125,-1.32813 -1.28125,-3.8125 z m 1.71875,0 q 0,1.89062 0.82813,2.82812 0.82812,0.9375 2.07812,0.9375 1.25,0 2.0625,-0.9375 0.82813,-0.95312 0.82813,-2.89062 0,-1.82813 -0.82813,-2.76563 -0.82812,-0.9375 -2.0625,-0.9375 -1.25,0 -2.07812,0.9375 -0.82813,0.9375 -0.82813,2.82813 z m 15.67261,4.92187 v -1.25 q -0.9375,1.46875 -2.75,1.46875 -1.17188,0 -2.17188,-0.64062 -0.98437,-0.65625 -1.53125,-1.8125 -0.53125,-1.17188 -0.53125,-2.6875 0,-1.46875 0.48438,-2.67188 0.5,-1.20312 1.46875,-1.84375 0.98437,-0.64062 2.20312,-0.64062 0.89063,0 1.57813,0.375 0.70312,0.375 1.14062,0.98437 v -4.875 h 1.65625 v 13.59375 z m -5.28125,-4.92187 q 0,1.89062 0.79687,2.82812 0.8125,0.9375 1.89063,0.9375 1.09375,0 1.85937,-0.89062 0.76563,-0.89063 0.76563,-2.73438 0,-2.01562 -0.78125,-2.95312 -0.78125,-0.95313 -1.92188,-0.95313 -1.10937,0 -1.85937,0.90625 -0.75,0.90625 -0.75,2.85938 z m 9.28195,-6.76563 v -1.90625 h 1.67188 v 1.90625 z m 0,11.6875 v -9.85937 h 1.67188 v 9.85937 z m 4.53546,0 v -8.54687 h -1.48437 v -1.3125 h 1.48437 v -1.04688 q 0,-0.98437 0.17188,-1.46875 0.23437,-0.65625 0.84375,-1.04687 0.60937,-0.40625 1.70312,-0.40625 0.70313,0 1.5625,0.15625 l -0.25,1.46875 q -0.51562,-0.0937 -0.98437,-0.0937 -0.76563,0 -1.07813,0.32812 -0.3125,0.3125 -0.3125,1.20313 v 0.90625 h 1.92188 v 1.3125 h -1.92188 v 8.54687 z m 4.79267,-11.6875 v -1.90625 h 1.67187 v 1.90625 z m 0,11.6875 v -9.85937 h 1.67187 v 9.85937 z m 10.87921,-3.17187 1.71875,0.21875 q -0.40625,1.5 -1.51563,2.34375 -1.09375,0.82812 -2.8125,0.82812 -2.15625,0 -3.42187,-1.32812 -1.26563,-1.32813 -1.26563,-3.73438 0,-2.48437 1.26563,-3.85937 1.28125,-1.375 3.32812,-1.375 1.98438,0 3.23438,1.34375 1.25,1.34375 1.25,3.79687 0,0.14063 -0.0156,0.4375 h -7.34375 q 0.0937,1.625 0.92188,2.48438 0.82812,0.85937 2.0625,0.85937 0.90625,0 1.54687,-0.46875 0.65625,-0.48437 1.04688,-1.54687 z m -5.48438,-2.70313 h 5.5 q -0.10937,-1.23437 -0.625,-1.85937 -0.79687,-0.96875 -2.07812,-0.96875 -1.14063,0 -1.9375,0.78125 -0.78125,0.76562 -0.85938,2.04687 z m 15.5007,5.875 v -1.25 q -0.9375,1.46875 -2.75,1.46875 -1.17187,0 -2.17187,-0.64062 -0.98438,-0.65625 -1.53125,-1.8125 -0.53125,-1.17188 -0.53125,-2.6875 0,-1.46875 0.48437,-2.67188 0.5,-1.20312 1.46875,-1.84375 0.98438,-0.64062 2.20313,-0.64062 0.89062,0 1.57812,0.375 0.70313,0.375 1.14063,0.98437 v -4.875 h 1.65625 v 13.59375 z m -5.28125,-4.92187 q 0,1.89062 0.79688,2.82812 0.8125,0.9375 1.89062,0.9375 1.09375,0 1.85938,-0.89062 0.76562,-0.89063 0.76562,-2.73438 0,-2.01562 -0.78125,-2.95312 -0.78125,-0.95313 -1.92187,-0.95313 -1.10938,0 -1.85938,0.90625 -0.75,0.90625 -0.75,2.85938 z"
       id="path167"
       inkscape:connector-curvature="0"
       style="fill:#000000;fill-rule:nonzero" />
    <path
       d="m 358.80606,191.85176 v -13.59375 h 2.75 v 13.59375 z m 14.21457,0 h -2.60938 v -5.03125 q 0,-1.59375 -0.17187,-2.0625 -0.15625,-0.46875 -0.53125,-0.71875 -0.375,-0.26562 -0.90625,-0.26562 -0.6875,0 -1.23438,0.375 -0.53125,0.35937 -0.73437,0.98437 -0.1875,0.60938 -0.1875,2.25 v 4.46875 h -2.60938 v -9.85937 h 2.42188 v 1.45312 q 1.29687,-1.67187 3.25,-1.67187 0.85937,0 1.57812,0.3125 0.71875,0.3125 1.07813,0.79687 0.35937,0.48438 0.5,1.09375 0.15625,0.60938 0.15625,1.75 z m 2.19284,0.65625 2.96875,0.35938 q 0.0781,0.51562 0.34375,0.70312 0.375,0.28125 1.17187,0.28125 1.03125,0 1.53125,-0.29687 0.34375,-0.20313 0.51563,-0.65625 0.125,-0.32813 0.125,-1.20313 v -1.4375 q -1.17188,1.59375 -2.95313,1.59375 -1.98437,0 -3.14062,-1.67187 -0.90625,-1.32813 -0.90625,-3.3125 0,-2.46875 1.1875,-3.78125 1.1875,-1.3125 2.96875,-1.3125 1.82812,0 3.01562,1.60937 v -1.39062 h 2.4375 v 8.84375 q 0,1.75 -0.29687,2.60937 -0.28125,0.85938 -0.79688,1.34375 -0.51562,0.5 -1.39062,0.78125 -0.85938,0.28125 -2.1875,0.28125 -2.51563,0 -3.5625,-0.85937 -1.04688,-0.85938 -1.04688,-2.17188 0,-0.14062 0.0156,-0.3125 z m 2.32812,-5.78125 q 0,1.5625 0.60938,2.29688 0.60937,0.71875 1.5,0.71875 0.95312,0 1.60937,-0.73438 0.65625,-0.75 0.65625,-2.21875 0,-1.53125 -0.64062,-2.26562 -0.625,-0.75 -1.57813,-0.75 -0.9375,0 -1.54687,0.73437 -0.60938,0.71875 -0.60938,2.21875 z m 11.80225,5.125 h -2.60937 v -9.85937 h 2.42187 v 1.40625 q 0.625,-0.98438 1.10938,-1.29688 0.5,-0.32812 1.14062,-0.32812 0.89063,0 1.71875,0.5 l -0.8125,2.26562 q -0.65625,-0.42187 -1.21875,-0.42187 -0.54687,0 -0.9375,0.29687 -0.375,0.29688 -0.59375,1.09375 -0.21875,0.78125 -0.21875,3.29688 z m 10.46338,-3.14062 2.60937,0.4375 q -0.5,1.4375 -1.59375,2.1875 -1.07812,0.73437 -2.70312,0.73437 -2.5625,0 -3.79688,-1.67187 -0.96875,-1.34375 -0.96875,-3.40625 0,-2.4375 1.26563,-3.82813 1.28125,-1.39062 3.25,-1.39062 2.1875,0 3.45312,1.45312 1.28125,1.45313 1.23438,4.45313 h -6.53125 q 0.0156,1.15625 0.625,1.8125 0.60937,0.64062 1.5,0.64062 0.60937,0 1.03125,-0.32812 0.42187,-0.34375 0.625,-1.09375 z m 0.15625,-2.625 q -0.0312,-1.14063 -0.59375,-1.71875 -0.54688,-0.59375 -1.34375,-0.59375 -0.85938,0 -1.40625,0.625 -0.5625,0.60937 -0.54688,1.6875 z m 13.56323,5.76562 h -2.42187 v -1.45312 q -0.60938,0.84375 -1.4375,1.26562 -0.8125,0.40625 -1.64063,0.40625 -1.70312,0 -2.92187,-1.35937 -1.20313,-1.375 -1.20313,-3.82813 0,-2.5 1.17188,-3.79687 1.1875,-1.3125 2.98437,-1.3125 1.65625,0 2.85938,1.375 v -4.89063 h 2.60937 z m -6.96875,-5.14062 q 0,1.57812 0.4375,2.28125 0.64063,1.01562 1.76563,1.01562 0.90625,0 1.53125,-0.76562 0.625,-0.76563 0.625,-2.28125 0,-1.70313 -0.60938,-2.4375 -0.60937,-0.75 -1.5625,-0.75 -0.9375,0 -1.5625,0.73437 -0.625,0.73438 -0.625,2.20313 z m 9.31784,-6.04688 v -2.40625 h 2.60938 v 2.40625 z m 0,11.1875 v -9.85937 h 2.60938 v 9.85937 z m 10.88645,-3.14062 2.60937,0.4375 q -0.5,1.4375 -1.59375,2.1875 -1.07812,0.73437 -2.70312,0.73437 -2.5625,0 -3.79688,-1.67187 -0.96875,-1.34375 -0.96875,-3.40625 0,-2.4375 1.26563,-3.82813 1.28125,-1.39062 3.25,-1.39062 2.1875,0 3.45312,1.45312 1.28125,1.45313 1.23438,4.45313 h -6.53125 q 0.0156,1.15625 0.625,1.8125 0.60937,0.64062 1.5,0.64062 0.60937,0 1.03125,-0.32812 0.42187,-0.34375 0.625,-1.09375 z m 0.15625,-2.625 q -0.0312,-1.14063 -0.59375,-1.71875 -0.54688,-0.59375 -1.34375,-0.59375 -0.85938,0 -1.40625,0.625 -0.5625,0.60937 -0.54688,1.6875 z m 13.48507,5.76562 h -2.60937 v -5.03125 q 0,-1.59375 -0.17188,-2.0625 -0.15625,-0.46875 -0.53125,-0.71875 -0.375,-0.26562 -0.90625,-0.26562 -0.6875,0 -1.23437,0.375 -0.53125,0.35937 -0.73438,0.98437 -0.1875,0.60938 -0.1875,2.25 v 4.46875 h -2.60937 v -9.85937 h 2.42187 v 1.45312 q 1.29688,-1.67187 3.25,-1.67187 0.85938,0 1.57813,0.3125 0.71875,0.3125 1.07812,0.79687 0.35938,0.48438 0.5,1.09375 0.15625,0.60938 0.15625,1.75 z m 6.94287,-9.85937 v 2.07812 h -1.78125 v 3.98438 q 0,1.20312 0.0469,1.40625 0.0625,0.1875 0.23437,0.32812 0.1875,0.125 0.45313,0.125 0.35937,0 1.04687,-0.25 l 0.21875,2.01563 q -0.90625,0.39062 -2.0625,0.39062 -0.70312,0 -1.26562,-0.23437 -0.5625,-0.23438 -0.82813,-0.60938 -0.26562,-0.375 -0.375,-1.01562 -0.0781,-0.45313 -0.0781,-1.84375 v -4.29688 h -1.20313 v -2.07812 h 1.20313 v -1.95313 l 2.60937,-1.51562 v 3.46875 z m 0.79081,7.04687 2.60937,-0.39062 q 0.17188,0.75 0.67188,1.15625 0.51562,0.39062 1.4375,0.39062 1,0 1.51562,-0.375 0.34375,-0.26562 0.34375,-0.70312 0,-0.29688 -0.1875,-0.48438 -0.1875,-0.1875 -0.875,-0.34375 -3.14062,-0.70312 -4,-1.26562 -1.15625,-0.79688 -1.15625,-2.21875 0,-1.28125 1,-2.15625 1.01563,-0.875 3.14063,-0.875 2.03125,0 3,0.65625 0.98437,0.65625 1.35937,1.95312 l -2.45312,0.45313 q -0.15625,-0.57813 -0.60938,-0.875 -0.4375,-0.3125 -1.25,-0.3125 -1.03125,0 -1.46875,0.29687 -0.29687,0.20313 -0.29687,0.51563 0,0.28125 0.25,0.48437 0.35937,0.25 2.4375,0.73438 2.07812,0.46875 2.90625,1.15625 0.82812,0.6875 0.82812,1.9375 0,1.35937 -1.14062,2.32812 -1.125,0.96875 -3.34375,0.96875 -2.01563,0 -3.1875,-0.8125 -1.17188,-0.8125 -1.53125,-2.21875 z m 11.28195,2.8125 v -2.60937 h 2.60937 v 2.60937 z m 9.69894,-9.85937 v 2.07812 h -1.78125 v 3.98438 q 0,1.20312 0.0469,1.40625 0.0625,0.1875 0.23437,0.32812 0.1875,0.125 0.45313,0.125 0.35937,0 1.04687,-0.25 l 0.21875,2.01563 q -0.90625,0.39062 -2.0625,0.39062 -0.70312,0 -1.26562,-0.23437 -0.5625,-0.23438 -0.82813,-0.60938 -0.26562,-0.375 -0.375,-1.01562 -0.0781,-0.45313 -0.0781,-1.84375 v -4.29688 h -1.20313 v -2.07812 h 1.20313 v -1.95313 l 2.60937,-1.51562 v 3.46875 z m 0.44705,9.85937 3.5625,-5.07812 -3.40625,-4.78125 h 3.17188 l 1.75,2.71875 1.82812,-2.71875 h 3.0625 l -3.32812,4.67187 3.64062,5.1875 h -3.20312 l -2,-3.04687 -2.03125,3.04687 z m 16.14133,-9.85937 v 2.07812 h -1.78125 v 3.98438 q 0,1.20312 0.0469,1.40625 0.0625,0.1875 0.23437,0.32812 0.1875,0.125 0.45313,0.125 0.35937,0 1.04687,-0.25 l 0.21875,2.01563 q -0.90625,0.39062 -2.0625,0.39062 -0.70312,0 -1.26562,-0.23437 -0.5625,-0.23438 -0.82813,-0.60938 -0.26562,-0.375 -0.375,-1.01562 -0.0781,-0.45313 -0.0781,-1.84375 v -4.29688 h -1.20313 v -2.07812 h 1.20313 v -1.95313 l 2.60937,-1.51562 v 3.46875 z"
       id="path169"
       inkscape:connector-curvature="0"
       style="fill:#000000;fill-rule:nonzero" />
    <path
       d="m 362.41544,212.35176 0.23437,1.48438 q -0.70312,0.14062 -1.26562,0.14062 -0.90625,0 -1.40625,-0.28125 -0.5,-0.29687 -0.70313,-0.75 -0.20312,-0.46875 -0.20312,-1.98437 v -5.65625 h -1.23438 v -1.3125 h 1.23438 v -2.4375 l 1.65625,-1 v 3.4375 h 1.6875 v 1.3125 h -1.6875 v 5.75 q 0,0.71875 0.0781,0.92187 0.0937,0.20313 0.29688,0.32813 0.20312,0.125 0.57812,0.125 0.26563,0 0.73438,-0.0781 z m 0.90207,-3.42187 q 0,-2.73438 1.53125,-4.0625 1.26562,-1.09375 3.09375,-1.09375 2.03125,0 3.3125,1.34375 1.29687,1.32812 1.29687,3.67187 0,1.90625 -0.57812,3 -0.5625,1.07813 -1.65625,1.6875 -1.07813,0.59375 -2.375,0.59375 -2.0625,0 -3.34375,-1.32812 -1.28125,-1.32813 -1.28125,-3.8125 z m 1.71875,0 q 0,1.89062 0.82812,2.82812 0.82813,0.9375 2.07813,0.9375 1.25,0 2.0625,-0.9375 0.82812,-0.95312 0.82812,-2.89062 0,-1.82813 -0.82812,-2.76563 -0.82813,-0.9375 -2.0625,-0.9375 -1.25,0 -2.07813,0.9375 -0.82812,0.9375 -0.82812,2.82813 z m 20.90277,3.70312 q -0.9375,0.79688 -1.79687,1.125 -0.85938,0.3125 -1.84375,0.3125 -1.60938,0 -2.48438,-0.78125 -0.875,-0.79687 -0.875,-2.03125 0,-0.73437 0.32813,-1.32812 0.32812,-0.59375 0.85937,-0.95313 0.53125,-0.35937 1.20313,-0.54687 0.5,-0.14063 1.48437,-0.25 2.03125,-0.25 2.98438,-0.57813 0,-0.34375 0,-0.4375 0,-1.01562 -0.46875,-1.4375 -0.64063,-0.5625 -1.90625,-0.5625 -1.17188,0 -1.73438,0.40625 -0.5625,0.40625 -0.82812,1.46875 l -1.64063,-0.23437 q 0.23438,-1.04688 0.73438,-1.6875 0.51562,-0.64063 1.46875,-0.98438 0.96875,-0.35937 2.25,-0.35937 1.26562,0 2.04687,0.29687 0.78125,0.29688 1.15625,0.75 0.375,0.45313 0.51563,1.14063 0.0937,0.42187 0.0937,1.53125 v 2.23437 q 0,2.32813 0.0937,2.95313 0.10937,0.60937 0.4375,1.17187 h -1.75 q -0.26563,-0.51562 -0.32813,-1.21875 z m -0.14062,-3.71875 q -0.90625,0.35938 -2.73438,0.625 -1.03125,0.14063 -1.45312,0.32813 -0.42188,0.1875 -0.65625,0.54687 -0.23438,0.35938 -0.23438,0.79688 0,0.67187 0.5,1.125 0.51563,0.4375 1.48438,0.4375 0.96875,0 1.71875,-0.42188 0.75,-0.4375 1.10937,-1.15625 0.26563,-0.57812 0.26563,-1.67187 z m 10.46945,4.9375 v -1.25 q -0.9375,1.46875 -2.75,1.46875 -1.17188,0 -2.17188,-0.64062 -0.98437,-0.65625 -1.53125,-1.8125 -0.53125,-1.17188 -0.53125,-2.6875 0,-1.46875 0.48438,-2.67188 0.5,-1.20312 1.46875,-1.84375 0.98437,-0.64062 2.20312,-0.64062 0.89063,0 1.57813,0.375 0.70312,0.375 1.14062,0.98437 v -4.875 h 1.65625 v 13.59375 z m -5.28125,-4.92187 q 0,1.89062 0.79687,2.82812 0.8125,0.9375 1.89063,0.9375 1.09375,0 1.85937,-0.89062 0.76563,-0.89063 0.76563,-2.73438 0,-2.01562 -0.78125,-2.95312 -0.78125,-0.95313 -1.92188,-0.95313 -1.10937,0 -1.85937,0.90625 -0.75,0.90625 -0.75,2.85938 z m 15.65698,4.92187 v -1.25 q -0.9375,1.46875 -2.75,1.46875 -1.17188,0 -2.17188,-0.64062 -0.98437,-0.65625 -1.53125,-1.8125 -0.53125,-1.17188 -0.53125,-2.6875 0,-1.46875 0.48438,-2.67188 0.5,-1.20312 1.46875,-1.84375 0.98437,-0.64062 2.20312,-0.64062 0.89063,0 1.57813,0.375 0.70312,0.375 1.14062,0.98437 v -4.875 h 1.65625 v 13.59375 z m -5.28125,-4.92187 q 0,1.89062 0.79687,2.82812 0.8125,0.9375 1.89063,0.9375 1.09375,0 1.85937,-0.89062 0.76563,-0.89063 0.76563,-2.73438 0,-2.01562 -0.78125,-2.95312 -0.78125,-0.95313 -1.92188,-0.95313 -1.10937,0 -1.85937,0.90625 -0.75,0.90625 -0.75,2.85938 z m 13.82465,0 q 0,-2.73438 1.53125,-4.0625 1.26562,-1.09375 3.09375,-1.09375 2.03125,0 3.3125,1.34375 1.29687,1.32812 1.29687,3.67187 0,1.90625 -0.57812,3 -0.5625,1.07813 -1.65625,1.6875 -1.07813,0.59375 -2.375,0.59375 -2.0625,0 -3.34375,-1.32812 -1.28125,-1.32813 -1.28125,-3.8125 z m 1.71875,0 q 0,1.89062 0.82812,2.82812 0.82813,0.9375 2.07813,0.9375 1.25,0 2.0625,-0.9375 0.82812,-0.95312 0.82812,-2.89062 0,-1.82813 -0.82812,-2.76563 -0.82813,-0.9375 -2.0625,-0.9375 -1.25,0 -2.07813,0.9375 -0.82812,0.9375 -0.82812,2.82813 z m 9.28195,4.92187 v -9.85937 h 1.5 v 1.40625 q 1.09375,-1.625 3.14062,-1.625 0.89063,0 1.64063,0.32812 0.75,0.3125 1.10937,0.84375 0.375,0.51563 0.53125,1.21875 0.0937,0.46875 0.0937,1.625 v 6.0625 h -1.67187 v -6 q 0,-1.01562 -0.20313,-1.51562 -0.1875,-0.51563 -0.6875,-0.8125 -0.5,-0.29688 -1.17187,-0.29688 -1.0625,0 -1.84375,0.67188 -0.76563,0.67187 -0.76563,2.57812 v 5.375 z m 10.39135,-11.6875 v -1.90625 h 1.67188 v 1.90625 z m 0,11.6875 v -9.85937 h 1.67188 v 9.85937 z m 3.50419,-4.92187 q 0,-2.73438 1.53125,-4.0625 1.26562,-1.09375 3.09375,-1.09375 2.03125,0 3.3125,1.34375 1.29687,1.32812 1.29687,3.67187 0,1.90625 -0.57812,3 -0.5625,1.07813 -1.65625,1.6875 -1.07813,0.59375 -2.375,0.59375 -2.0625,0 -3.34375,-1.32812 -1.28125,-1.32813 -1.28125,-3.8125 z m 1.71875,0 q 0,1.89062 0.82812,2.82812 0.82813,0.9375 2.07813,0.9375 1.25,0 2.0625,-0.9375 0.82812,-0.95312 0.82812,-2.89062 0,-1.82813 -0.82812,-2.76563 -0.82813,-0.9375 -2.0625,-0.9375 -1.25,0 -2.07813,0.9375 -0.82812,0.9375 -0.82812,2.82813 z m 9.28198,4.92187 v -9.85937 h 1.5 v 1.40625 q 1.09375,-1.625 3.14062,-1.625 0.89063,0 1.64063,0.32812 0.75,0.3125 1.10937,0.84375 0.375,0.51563 0.53125,1.21875 0.0937,0.46875 0.0937,1.625 v 6.0625 h -1.67187 v -6 q 0,-1.01562 -0.20313,-1.51562 -0.1875,-0.51563 -0.6875,-0.8125 -0.5,-0.29688 -1.17187,-0.29688 -1.0625,0 -1.84375,0.67188 -0.76563,0.67187 -0.76563,2.57812 v 5.375 z"
       id="path171"
       inkscape:connector-curvature="0"
       style="fill:#000000;fill-rule:nonzero" />
    <path
       d="m 529.77954,143.24672 h 157.32281 v 93.29134 H 529.77954 Z"
       id="path173"
       inkscape:connector-curvature="0"
       style="fill:#000000;fill-opacity:0;fill-rule:evenodd" />
    <path
       d="m 529.77954,143.24672 h 157.32281 v 93.29134 H 529.77954 Z"
       id="path175"
       inkscape:connector-curvature="0"
       style="fill-rule:evenodd;stroke:#000000;stroke-width:3;stroke-linecap:butt;stroke-linejoin:round" />
    <path
       d="m 540.1858,170.16672 v -13.59375 h 2.71875 l 3.21875,9.625 q 0.4375,1.34375 0.64062,2.01562 0.23438,-0.75 0.73438,-2.1875 l 3.25,-9.45312 h 2.42187 v 13.59375 h -1.73437 v -11.39063 l -3.95313,11.39063 h -1.625 l -3.9375,-11.57813 v 11.57813 z m 14.75952,-4.92188 q 0,-2.73437 1.53125,-4.0625 1.26563,-1.09375 3.09375,-1.09375 2.03125,0 3.3125,1.34375 1.29688,1.32813 1.29688,3.67188 0,1.90625 -0.57813,3 -0.5625,1.07812 -1.65625,1.6875 -1.07812,0.59375 -2.375,0.59375 -2.0625,0 -3.34375,-1.32813 -1.28125,-1.32812 -1.28125,-3.8125 z m 1.71875,0 q 0,1.89063 0.82813,2.82813 0.82812,0.9375 2.07812,0.9375 1.25,0 2.0625,-0.9375 0.82813,-0.95313 0.82813,-2.89063 0,-1.82812 -0.82813,-2.76562 -0.82812,-0.9375 -2.0625,-0.9375 -1.25,0 -2.07812,0.9375 -0.82813,0.9375 -0.82813,2.82812 z m 15.67261,4.92188 v -1.25 q -0.9375,1.46875 -2.75,1.46875 -1.17188,0 -2.17188,-0.64063 -0.98437,-0.65625 -1.53125,-1.8125 -0.53125,-1.17187 -0.53125,-2.6875 0,-1.46875 0.48438,-2.67187 0.5,-1.20313 1.46875,-1.84375 0.98437,-0.64063 2.20312,-0.64063 0.89063,0 1.57813,0.375 0.70312,0.375 1.14062,0.98438 v -4.875 h 1.65625 v 13.59375 z m -5.28125,-4.92188 q 0,1.89063 0.79687,2.82813 0.8125,0.9375 1.89063,0.9375 1.09375,0 1.85937,-0.89063 0.76563,-0.89062 0.76563,-2.73437 0,-2.01563 -0.78125,-2.95313 -0.78125,-0.95312 -1.92188,-0.95312 -1.10937,0 -1.85937,0.90625 -0.75,0.90625 -0.75,2.85937 z m 9.28198,-6.76562 v -1.90625 h 1.67188 v 1.90625 z m 0,11.6875 v -9.85938 h 1.67188 v 9.85938 z m 4.53546,0 v -8.54688 h -1.48437 v -1.3125 h 1.48437 v -1.04687 q 0,-0.98438 0.17188,-1.46875 0.23437,-0.65625 0.84375,-1.04688 0.60937,-0.40625 1.70312,-0.40625 0.70313,0 1.5625,0.15625 l -0.25,1.46875 q -0.51562,-0.0937 -0.98437,-0.0937 -0.76563,0 -1.07813,0.32813 -0.3125,0.3125 -0.3125,1.20312 v 0.90625 h 1.92188 v 1.3125 h -1.92188 v 8.54688 z m 4.79267,-11.6875 v -1.90625 h 1.67187 v 1.90625 z m 0,11.6875 v -9.85938 h 1.67187 v 9.85938 z m 10.87921,-3.17188 1.71875,0.21875 q -0.40625,1.5 -1.51563,2.34375 -1.09375,0.82813 -2.8125,0.82813 -2.15625,0 -3.42187,-1.32813 -1.26563,-1.32812 -1.26563,-3.73437 0,-2.48438 1.26563,-3.85938 1.28125,-1.375 3.32812,-1.375 1.98438,0 3.23438,1.34375 1.25,1.34375 1.25,3.79688 0,0.14062 -0.0156,0.4375 h -7.34375 q 0.0937,1.625 0.92188,2.48437 0.82812,0.85938 2.0625,0.85938 0.90625,0 1.54687,-0.46875 0.65625,-0.48438 1.04688,-1.54688 z m -5.48438,-2.70312 h 5.5 q -0.10937,-1.23438 -0.625,-1.85938 -0.79687,-0.96875 -2.07812,-0.96875 -1.14063,0 -1.9375,0.78125 -0.78125,0.76563 -0.85938,2.04688 z m 15.50067,5.875 v -1.25 q -0.9375,1.46875 -2.75,1.46875 -1.17187,0 -2.17187,-0.64063 -0.98438,-0.65625 -1.53125,-1.8125 -0.53125,-1.17187 -0.53125,-2.6875 0,-1.46875 0.48437,-2.67187 0.5,-1.20313 1.46875,-1.84375 0.98438,-0.64063 2.20313,-0.64063 0.89062,0 1.57812,0.375 0.70313,0.375 1.14063,0.98438 v -4.875 h 1.65625 v 13.59375 z m -5.28125,-4.92188 q 0,1.89063 0.79688,2.82813 0.8125,0.9375 1.89062,0.9375 1.09375,0 1.85938,-0.89063 0.76562,-0.89062 0.76562,-2.73437 0,-2.01563 -0.78125,-2.95313 -0.78125,-0.95312 -1.92187,-0.95312 -1.10938,0 -1.85938,0.90625 -0.75,0.90625 -0.75,2.85937 z"
       id="path177"
       inkscape:connector-curvature="0"
       style="fill:#000000;fill-rule:nonzero" />
    <path
       d="m 540.1389,180.97922 v -2.40625 h 2.60938 v 2.40625 z m 0,11.1875 v -9.85938 h 2.60938 v 9.85938 z m 14.15204,0 h -2.60938 v -5.03125 q 0,-1.59375 -0.17187,-2.0625 -0.15625,-0.46875 -0.53125,-0.71875 -0.375,-0.26563 -0.90625,-0.26563 -0.6875,0 -1.23438,0.375 -0.53125,0.35938 -0.73437,0.98438 -0.1875,0.60937 -0.1875,2.25 v 4.46875 h -2.60938 v -9.85938 h 2.42188 v 1.45313 q 1.29687,-1.67188 3.25,-1.67188 0.85937,0 1.57812,0.3125 0.71875,0.3125 1.07813,0.79688 0.35937,0.48437 0.5,1.09375 0.15625,0.60937 0.15625,1.75 z m 1.521,-2.8125 2.60937,-0.39063 q 0.17188,0.75 0.67188,1.15625 0.51562,0.39063 1.4375,0.39063 1,0 1.51562,-0.375 0.34375,-0.26563 0.34375,-0.70313 0,-0.29687 -0.1875,-0.48437 -0.1875,-0.1875 -0.875,-0.34375 -3.14062,-0.70313 -4,-1.26563 -1.15625,-0.79687 -1.15625,-2.21875 0,-1.28125 1,-2.15625 1.01563,-0.875 3.14063,-0.875 2.03125,0 3,0.65625 0.98437,0.65625 1.35937,1.95313 l -2.45312,0.45312 q -0.15625,-0.57812 -0.60938,-0.875 -0.4375,-0.3125 -1.25,-0.3125 -1.03125,0 -1.46875,0.29688 -0.29687,0.20312 -0.29687,0.51562 0,0.28125 0.25,0.48438 0.35937,0.25 2.4375,0.73437 2.07812,0.46875 2.90625,1.15625 0.82812,0.6875 0.82812,1.9375 0,1.35938 -1.14062,2.32813 -1.125,0.96875 -3.34375,0.96875 -2.01563,0 -3.1875,-0.8125 -1.17188,-0.8125 -1.53125,-2.21875 z m 15.7976,-7.04688 v 2.07813 h -1.78125 v 3.98437 q 0,1.20313 0.0469,1.40625 0.0625,0.1875 0.23437,0.32813 0.1875,0.125 0.45313,0.125 0.35937,0 1.04687,-0.25 l 0.21875,2.01562 q -0.90625,0.39063 -2.0625,0.39063 -0.70312,0 -1.26562,-0.23438 -0.5625,-0.23437 -0.82813,-0.60937 -0.26562,-0.375 -0.375,-1.01563 -0.0781,-0.45312 -0.0781,-1.84375 v -4.29687 h -1.20313 v -2.07813 h 1.20313 v -1.95312 l 2.60937,-1.51563 v 3.46875 z m 4.19702,9.85938 h -2.60937 v -9.85938 h 2.42187 v 1.40625 q 0.625,-0.98437 1.10938,-1.29687 0.5,-0.32813 1.14062,-0.32813 0.89063,0 1.71875,0.5 l -0.8125,2.26563 q -0.65625,-0.42188 -1.21875,-0.42188 -0.54687,0 -0.9375,0.29688 -0.375,0.29687 -0.59375,1.09375 -0.21875,0.78125 -0.21875,3.29687 z m 11.24463,0 v -1.46875 q -0.53125,0.78125 -1.40625,1.23437 -0.875,0.45313 -1.85937,0.45313 -0.98438,0 -1.78125,-0.4375 -0.78125,-0.4375 -1.14063,-1.21875 -0.34375,-0.79688 -0.34375,-2.1875 v -6.23438 h 2.60938 v 4.53125 q 0,2.07813 0.14062,2.54688 0.14063,0.46875 0.51563,0.75 0.39062,0.26562 0.96875,0.26562 0.67187,0 1.20312,-0.35937 0.53125,-0.375 0.71875,-0.90625 0.1875,-0.54688 0.1875,-2.67188 v -4.15625 h 2.60938 v 9.85938 z m 13.50537,-6.9375 -2.5625,0.46875 q -0.14062,-0.78125 -0.59375,-1.17188 -0.45312,-0.39062 -1.1875,-0.39062 -0.98437,0 -1.5625,0.67187 -0.57812,0.67188 -0.57812,2.25 0,1.76563 0.57812,2.48438 0.59375,0.71875 1.59375,0.71875 0.75,0 1.21875,-0.42188 0.46875,-0.42187 0.67188,-1.45312 l 2.54687,0.4375 q -0.39062,1.76562 -1.53125,2.67187 -1.125,0.89063 -3.03125,0.89063 -2.15625,0 -3.45312,-1.35938 -1.28125,-1.35937 -1.28125,-3.78125 0,-2.4375 1.29687,-3.79687 1.29688,-1.35938 3.48438,-1.35938 1.79687,0 2.85937,0.78125 1.0625,0.76563 1.53125,2.35938 z m 6.29761,-2.92188 v 2.07813 h -1.78125 v 3.98437 q 0,1.20313 0.0469,1.40625 0.0625,0.1875 0.23437,0.32813 0.1875,0.125 0.45313,0.125 0.35937,0 1.04687,-0.25 l 0.21875,2.01562 q -0.90625,0.39063 -2.0625,0.39063 -0.70312,0 -1.26562,-0.23438 -0.5625,-0.23437 -0.82813,-0.60937 -0.26562,-0.375 -0.375,-1.01563 -0.0781,-0.45312 -0.0781,-1.84375 v -4.29687 h -1.20313 v -2.07813 h 1.20313 v -1.95312 l 2.60937,-1.51563 v 3.46875 z m 1.69702,-1.32812 v -2.40625 h 2.60938 v 2.40625 z m 0,11.1875 v -9.85938 h 2.60938 v 9.85938 z m 4.5896,-5.0625 q 0,-1.29688 0.64063,-2.51563 0.64062,-1.21875 1.8125,-1.85937 1.17187,-0.64063 2.60937,-0.64063 2.25,0 3.67188,1.45313 1.42187,1.45312 1.42187,3.67187 0,2.23438 -1.4375,3.70313 -1.4375,1.46875 -3.625,1.46875 -1.35937,0 -2.59375,-0.60938 -1.21875,-0.60937 -1.85937,-1.79687 -0.64063,-1.1875 -0.64063,-2.875 z m 2.67188,0.14062 q 0,1.46875 0.6875,2.25 0.70312,0.76563 1.71875,0.76563 1.01562,0 1.70312,-0.76563 0.70313,-0.78125 0.70313,-2.26562 0,-1.45313 -0.70313,-2.23438 -0.6875,-0.78125 -1.70312,-0.78125 -1.01563,0 -1.71875,0.78125 -0.6875,0.78125 -0.6875,2.25 z m 18.28656,4.92188 h -2.60938 v -5.03125 q 0,-1.59375 -0.17187,-2.0625 -0.15625,-0.46875 -0.53125,-0.71875 -0.375,-0.26563 -0.90625,-0.26563 -0.6875,0 -1.23438,0.375 -0.53125,0.35938 -0.73437,0.98438 -0.1875,0.60937 -0.1875,2.25 v 4.46875 h -2.60938 v -9.85938 h 2.42188 v 1.45313 q 1.29687,-1.67188 3.25,-1.67188 0.85937,0 1.57812,0.3125 0.71875,0.3125 1.07813,0.79688 0.35937,0.48437 0.5,1.09375 0.15625,0.60937 0.15625,1.75 z m 1.52099,-2.8125 2.60938,-0.39063 q 0.17187,0.75 0.67187,1.15625 0.51563,0.39063 1.4375,0.39063 1,0 1.51563,-0.375 0.34375,-0.26563 0.34375,-0.70313 0,-0.29687 -0.1875,-0.48437 -0.1875,-0.1875 -0.875,-0.34375 -3.14063,-0.70313 -4,-1.26563 -1.15625,-0.79687 -1.15625,-2.21875 0,-1.28125 1,-2.15625 1.01562,-0.875 3.14062,-0.875 2.03125,0 3,0.65625 0.98438,0.65625 1.35938,1.95313 l -2.45313,0.45312 q -0.15625,-0.57812 -0.60937,-0.875 -0.4375,-0.3125 -1.25,-0.3125 -1.03125,0 -1.46875,0.29688 -0.29688,0.20312 -0.29688,0.51562 0,0.28125 0.25,0.48438 0.35938,0.25 2.4375,0.73437 2.07813,0.46875 2.90625,1.15625 0.82813,0.6875 0.82813,1.9375 0,1.35938 -1.14063,2.32813 -1.125,0.96875 -3.34375,0.96875 -2.01562,0 -3.1875,-0.8125 -1.17187,-0.8125 -1.53125,-2.21875 z m 11.28199,2.8125 v -2.60938 h 2.60937 v 2.60938 z m 9.69891,-9.85938 v 2.07813 h -1.78125 v 3.98437 q 0,1.20313 0.0469,1.40625 0.0625,0.1875 0.23438,0.32813 0.1875,0.125 0.45312,0.125 0.35938,0 1.04688,-0.25 l 0.21875,2.01562 q -0.90625,0.39063 -2.0625,0.39063 -0.70313,0 -1.26563,-0.23438 -0.5625,-0.23437 -0.82812,-0.60937 -0.26563,-0.375 -0.375,-1.01563 -0.0781,-0.45312 -0.0781,-1.84375 v -4.29687 h -1.20312 v -2.07813 h 1.20312 v -1.95312 l 2.60938,-1.51563 v 3.46875 z m 0.44708,9.85938 3.5625,-5.07813 -3.40625,-4.78125 h 3.17188 l 1.75,2.71875 1.82812,-2.71875 h 3.0625 l -3.32812,4.67188 3.64062,5.1875 h -3.20312 l -2,-3.04688 -2.03125,3.04688 z m 16.1413,-9.85938 v 2.07813 h -1.78125 v 3.98437 q 0,1.20313 0.0469,1.40625 0.0625,0.1875 0.23438,0.32813 0.1875,0.125 0.45312,0.125 0.35938,0 1.04688,-0.25 l 0.21875,2.01562 q -0.90625,0.39063 -2.0625,0.39063 -0.70313,0 -1.26563,-0.23438 -0.5625,-0.23437 -0.82812,-0.60937 -0.26563,-0.375 -0.375,-1.01563 -0.0781,-0.45312 -0.0781,-1.84375 v -4.29687 h -1.20312 v -2.07813 h 1.20312 v -1.95312 l 2.60938,-1.51563 v 3.46875 z"
       id="path179"
       inkscape:connector-curvature="0"
       style="fill:#000000;fill-rule:nonzero" />
    <path
       d="m 543.7014,214.16672 v -12 h -4.46875 v -1.59375 h 10.76563 v 1.59375 h -4.5 v 12 z m 7.09912,-4.92188 q 0,-2.73437 1.53125,-4.0625 1.26563,-1.09375 3.09375,-1.09375 2.03125,0 3.3125,1.34375 1.29688,1.32813 1.29688,3.67188 0,1.90625 -0.57813,3 -0.5625,1.07812 -1.65625,1.6875 -1.07812,0.59375 -2.375,0.59375 -2.0625,0 -3.34375,-1.32813 -1.28125,-1.32812 -1.28125,-3.8125 z m 1.71875,0 q 0,1.89063 0.82813,2.82813 0.82812,0.9375 2.07812,0.9375 1.25,0 2.0625,-0.9375 0.82813,-0.95313 0.82813,-2.89063 0,-1.82812 -0.82813,-2.76562 -0.82812,-0.9375 -2.0625,-0.9375 -1.25,0 -2.07812,0.9375 -0.82813,0.9375 -0.82813,2.82812 z m 20.90277,3.70313 q -0.9375,0.79687 -1.79687,1.125 -0.85938,0.3125 -1.84375,0.3125 -1.60938,0 -2.48438,-0.78125 -0.875,-0.79688 -0.875,-2.03125 0,-0.73438 0.32813,-1.32813 0.32812,-0.59375 0.85937,-0.95312 0.53125,-0.35938 1.20313,-0.54688 0.5,-0.14062 1.48437,-0.25 2.03125,-0.25 2.98438,-0.57812 0,-0.34375 0,-0.4375 0,-1.01563 -0.46875,-1.4375 -0.64063,-0.5625 -1.90625,-0.5625 -1.17188,0 -1.73438,0.40625 -0.5625,0.40625 -0.82812,1.46875 l -1.64063,-0.23438 q 0.23438,-1.04687 0.73438,-1.6875 0.51562,-0.64062 1.46875,-0.98437 0.96875,-0.35938 2.25,-0.35938 1.26562,0 2.04687,0.29688 0.78125,0.29687 1.15625,0.75 0.375,0.45312 0.51563,1.14062 0.0937,0.42188 0.0937,1.53125 v 2.23438 q 0,2.32812 0.0937,2.95312 0.10937,0.60938 0.4375,1.17188 h -1.75 q -0.26563,-0.51563 -0.32813,-1.21875 z m -0.14062,-3.71875 q -0.90625,0.35937 -2.73438,0.625 -1.03125,0.14062 -1.45312,0.32812 -0.42188,0.1875 -0.65625,0.54688 -0.23438,0.35937 -0.23438,0.79687 0,0.67188 0.5,1.125 0.51563,0.4375 1.48438,0.4375 0.96875,0 1.71875,-0.42187 0.75,-0.4375 1.10937,-1.15625 0.26563,-0.57813 0.26563,-1.67188 z m 10.46942,4.9375 v -1.25 q -0.9375,1.46875 -2.75,1.46875 -1.17188,0 -2.17188,-0.64063 -0.98437,-0.65625 -1.53125,-1.8125 -0.53125,-1.17187 -0.53125,-2.6875 0,-1.46875 0.48438,-2.67187 0.5,-1.20313 1.46875,-1.84375 0.98437,-0.64063 2.20312,-0.64063 0.89063,0 1.57813,0.375 0.70312,0.375 1.14062,0.98438 v -4.875 h 1.65625 v 13.59375 z m -5.28125,-4.92188 q 0,1.89063 0.79687,2.82813 0.8125,0.9375 1.89063,0.9375 1.09375,0 1.85937,-0.89063 0.76563,-0.89062 0.76563,-2.73437 0,-2.01563 -0.78125,-2.95313 -0.78125,-0.95312 -1.92188,-0.95312 -1.10937,0 -1.85937,0.90625 -0.75,0.90625 -0.75,2.85937 z m 15.65698,4.92188 v -1.25 q -0.9375,1.46875 -2.75,1.46875 -1.17187,0 -2.17187,-0.64063 -0.98438,-0.65625 -1.53125,-1.8125 -0.53125,-1.17187 -0.53125,-2.6875 0,-1.46875 0.48437,-2.67187 0.5,-1.20313 1.46875,-1.84375 0.98438,-0.64063 2.20313,-0.64063 0.89062,0 1.57812,0.375 0.70313,0.375 1.14063,0.98438 v -4.875 h 1.65625 v 13.59375 z m -5.28125,-4.92188 q 0,1.89063 0.79688,2.82813 0.8125,0.9375 1.89062,0.9375 1.09375,0 1.85938,-0.89063 0.76562,-0.89062 0.76562,-2.73437 0,-2.01563 -0.78125,-2.95313 -0.78125,-0.95312 -1.92187,-0.95312 -1.10938,0 -1.85938,0.90625 -0.75,0.90625 -0.75,2.85937 z m 21.19965,1.75 1.71875,0.21875 q -0.40625,1.5 -1.51563,2.34375 -1.09375,0.82813 -2.8125,0.82813 -2.15625,0 -3.42187,-1.32813 -1.26563,-1.32812 -1.26563,-3.73437 0,-2.48438 1.26563,-3.85938 1.28125,-1.375 3.32812,-1.375 1.98438,0 3.23438,1.34375 1.25,1.34375 1.25,3.79688 0,0.14062 -0.0156,0.4375 h -7.34375 q 0.0937,1.625 0.92188,2.48437 0.82812,0.85938 2.0625,0.85938 0.90625,0 1.54687,-0.46875 0.65625,-0.48438 1.04688,-1.54688 z m -5.48438,-2.70312 h 5.5 q -0.10937,-1.23438 -0.625,-1.85938 -0.79687,-0.96875 -2.07812,-0.96875 -1.14063,0 -1.9375,0.78125 -0.78125,0.76563 -0.85938,2.04688 z m 9.11011,5.875 v -9.85938 h 1.5 v 1.40625 q 1.09375,-1.625 3.14062,-1.625 0.89063,0 1.64063,0.32813 0.75,0.3125 1.10937,0.84375 0.375,0.51562 0.53125,1.21875 0.0937,0.46875 0.0937,1.625 v 6.0625 h -1.67187 v -6 q 0,-1.01563 -0.20313,-1.51563 -0.1875,-0.51562 -0.6875,-0.8125 -0.5,-0.29687 -1.17187,-0.29687 -1.0625,0 -1.84375,0.67187 -0.76563,0.67188 -0.76563,2.57813 v 5.375 z m 10.37573,-11.65625 v -1.9375 h 1.65625 v 1.9375 z m -2.125,15.48437 0.3125,-1.42187 q 0.5,0.125 0.79687,0.125 0.51563,0 0.76563,-0.34375 0.25,-0.32813 0.25,-1.6875 v -10.35938 h 1.65625 v 10.39063 q 0,1.82812 -0.46875,2.54687 -0.59375,0.92188 -2,0.92188 -0.67188,0 -1.3125,-0.17188 z m 5.64478,-8.75 q 0,-2.73437 1.53125,-4.0625 1.26562,-1.09375 3.09375,-1.09375 2.03125,0 3.3125,1.34375 1.29687,1.32813 1.29687,3.67188 0,1.90625 -0.57812,3 -0.5625,1.07812 -1.65625,1.6875 -1.07813,0.59375 -2.375,0.59375 -2.0625,0 -3.34375,-1.32813 -1.28125,-1.32812 -1.28125,-3.8125 z m 1.71875,0 q 0,1.89063 0.82812,2.82813 0.82813,0.9375 2.07813,0.9375 1.25,0 2.0625,-0.9375 0.82812,-0.95313 0.82812,-2.89063 0,-1.82812 -0.82812,-2.76562 -0.82813,-0.9375 -2.0625,-0.9375 -1.25,0 -2.07813,0.9375 -0.82812,0.9375 -0.82812,2.82812 z m 9.20385,8.71875 -0.17187,-1.5625 q 0.54687,0.14063 0.95312,0.14063 0.54688,0 0.875,-0.1875 0.34375,-0.1875 0.5625,-0.51563 0.15625,-0.25 0.5,-1.25 0.0469,-0.14062 0.15625,-0.40625 l -3.73437,-9.875 h 1.79687 l 2.04688,5.71875 q 0.40625,1.07813 0.71875,2.28125 0.28125,-1.15625 0.6875,-2.25 l 2.09375,-5.75 h 1.67187 l -3.75,10.03125 q -0.59375,1.625 -0.9375,2.23438 -0.4375,0.82812 -1.01562,1.20312 -0.57813,0.39063 -1.375,0.39063 -0.48438,0 -1.07813,-0.20313 z"
       id="path181"
       inkscape:connector-curvature="0"
       style="fill:#000000;fill-rule:nonzero" />
    <path
       d="m 136.65092,235.05624 h 133.07085 v 37.25983 H 136.65092 Z"
       id="path183"
       inkscape:connector-curvature="0"
       style="fill:#000000;fill-opacity:0;fill-rule:evenodd" />
    <path
       d="m 136.65092,235.05624 h 133.07085 v 37.25983 H 136.65092 Z"
       id="path185"
       inkscape:connector-curvature="0"
       style="fill-rule:evenodd;stroke:#0000ff;stroke-width:3;stroke-linecap:butt;stroke-linejoin:round" />
    <path
       d="m 176.94308,253.7624 -2.35938,-0.4375 q 0.39063,-1.42187 1.35938,-2.10937 0.98437,-0.6875 2.90625,-0.6875 1.73437,0 2.59375,0.42187 0.85937,0.40625 1.20312,1.04688 0.34375,0.625 0.34375,2.32812 l -0.0312,3.04689 q 0,1.29688 0.125,1.92188 0.125,0.60937 0.46875,1.3125 h -2.57812 q -0.0937,-0.26563 -0.25,-0.76563 -0.0625,-0.23437 -0.0937,-0.3125 -0.65625,0.65625 -1.42188,0.98438 -0.76562,0.3125 -1.625,0.3125 -1.51562,0 -2.40625,-0.8125 -0.875,-0.82813 -0.875,-2.09375 0,-0.84375 0.39063,-1.48438 0.40625,-0.65626 1.125,-1.00002 0.71875,-0.35937 2.07812,-0.625 1.82813,-0.32812 2.53125,-0.625 v -0.26562 q 0,-0.75 -0.375,-1.0625 -0.35937,-0.32813 -1.39062,-0.32813 -0.70313,0 -1.09375,0.28125 -0.39063,0.26563 -0.625,0.95313 z m 3.48437,2.10938 q -0.5,0.17189 -1.59375,0.40626 -1.07812,0.23438 -1.40625,0.45313 -0.51562,0.35937 -0.51562,0.92187 0,0.54688 0.40625,0.95313 0.40625,0.39062 1.04687,0.39062 0.70313,0 1.34375,-0.46875 0.46875,-0.35937 0.625,-0.85937 0.0937,-0.34375 0.0937,-1.28125 z m 4.39135,-6.26563 v -2.42187 h 8.90625 v 1.90625 q -1.09375,1.07812 -2.23438,3.10937 -1.14062,2.03125 -1.75,4.32814 -0.59375,2.28125 -0.57812,4.07813 h -2.51563 q 0.0625,-2.82813 1.15625,-5.75002 1.10938,-2.9375 2.9375,-5.25 z m 19.96948,11.00002 h -2.42188 v -1.45313 q -0.60937,0.84375 -1.4375,1.26563 -0.81251,0.40625 -1.64064,0.40625 -1.70312,0 -2.92187,-1.35938 -1.20313,-1.375 -1.20313,-3.82814 0,-2.5 1.17188,-3.79688 1.1875,-1.3125 2.98437,-1.3125 1.65627,0 2.85939,1.375 v -4.89062 h 2.60938 z m -6.96877,-5.14065 q 0,1.57815 0.4375,2.28127 0.64063,1.01563 1.76563,1.01563 0.90626,0 1.53126,-0.76563 0.625,-0.76562 0.625,-2.28127 0,-1.70312 -0.60937,-2.4375 -0.60938,-0.75 -1.56252,-0.75 -0.9375,0 -1.5625,0.73438 -0.625,0.73437 -0.625,2.20312 z m 8.17725,-4.71875 h 1.45312 v -0.73437 q 0,-1.25 0.26563,-1.85938 0.26562,-0.60937 0.96875,-0.98437 0.71875,-0.39063 1.79687,-0.39063 1.10938,0 2.1875,0.32813 l -0.35937,1.8125 q -0.625,-0.14063 -1.20313,-0.14063 -0.5625,0 -0.8125,0.26563 -0.23437,0.26562 -0.23437,1.01562 v 0.6875 h 1.9375 v 2.0625 h -1.9375 v 7.7969 h -2.60938 v -7.7969 h -1.45312 z m 13.05643,6.71877 2.60937,0.4375 q -0.5,1.4375 -1.59375,2.1875 -1.07812,0.73438 -2.70312,0.73438 -2.5625,0 -3.79688,-1.67188 -0.96875,-1.34375 -0.96875,-3.40627 0,-2.4375 1.26563,-3.82812 1.28125,-1.39063 3.25,-1.39063 2.1875,0 3.45312,1.45313 1.28125,1.45312 1.23438,4.45314 h -6.53125 q 0.0156,1.15625 0.625,1.8125 0.60937,0.64063 1.5,0.64063 0.60937,0 1.03125,-0.32813 0.42187,-0.34375 0.625,-1.09375 z m 0.15625,-2.62502 q -0.0312,-1.14062 -0.59375,-1.71875 -0.54688,-0.59375 -1.34375,-0.59375 -0.85938,0 -1.40625,0.625 -0.5625,0.60938 -0.54688,1.6875 z m 4.00071,2.26565 2.59375,-0.26563 q 0.10938,0.875 0.65625,1.39063 0.54688,0.51562 1.26563,0.51562 0.8125,0 1.375,-0.65625 0.57812,-0.67187 0.57812,-2 0,-1.25002 -0.5625,-1.87502 -0.5625,-0.625 -1.46875,-0.625 -1.10937,0 -2,0.98438 l -2.125,-0.3125 1.34375,-7.07813 h 6.89063 v 2.45313 h -4.92188 l -0.40625,2.29687 q 0.875,-0.42187 1.78125,-0.42187 1.73438,0 2.9375,1.26562 1.20313,1.25 1.20313,3.26565 0,1.67187 -0.96875,3 -1.32813,1.79687 -3.6875,1.79687 -1.875,0 -3.0625,-1.01562 -1.1875,-1.01563 -1.42188,-2.71875 z"
       id="path187"
       inkscape:connector-curvature="0"
       style="fill:#0000ff;fill-rule:nonzero" />
    <path
       d="m 358.97113,235.4552 h 133.07086 v 37.25983 H 358.97113 Z"
       id="path189"
       inkscape:connector-curvature="0"
       style="fill:#000000;fill-opacity:0;fill-rule:evenodd" />
    <path
       d="m 358.97113,235.4552 h 133.07086 v 37.25983 H 358.97113 Z"
       id="path191"
       inkscape:connector-curvature="0"
       style="fill-rule:evenodd;stroke:#0000ff;stroke-width:3;stroke-linecap:butt;stroke-linejoin:round" />
    <path
       d="m 397.4263,253.66136 q -1.01562,-0.42188 -1.48437,-1.17188 -0.45313,-0.75 -0.45313,-1.64062 0,-1.51563 1.0625,-2.5 1.0625,-1 3.03125,-1 1.9375,0 3,1 1.07813,0.98437 1.07813,2.5 0,0.95312 -0.5,1.6875 -0.48438,0.73437 -1.375,1.125 1.125,0.45312 1.71875,1.32812 0.59375,0.875 0.59375,2.01565 0,1.89062 -1.20313,3.0625 -1.20312,1.17187 -3.20312,1.17187 -1.85938,0 -3.07813,-0.96875 -1.46875,-1.15625 -1.46875,-3.15625 0,-1.09375 0.54688,-2.01564 0.54687,-0.9375 1.73437,-1.4375 z m 0.53125,-2.625 q 0,0.78125 0.4375,1.21875 0.45313,0.4375 1.1875,0.4375 0.73438,0 1.17188,-0.4375 0.45312,-0.4375 0.45312,-1.21875 0,-0.73438 -0.4375,-1.17188 -0.4375,-0.45312 -1.17187,-0.45312 -0.75,0 -1.20313,0.45312 -0.4375,0.4375 -0.4375,1.17188 z m -0.23437,5.82814 q 0,1.07813 0.54687,1.6875 0.54688,0.59375 1.375,0.59375 0.8125,0 1.34375,-0.57812 0.53125,-0.57813 0.53125,-1.67188 0,-0.95314 -0.54687,-1.53127 -0.53125,-0.57812 -1.35938,-0.57812 -0.95312,0 -1.42187,0.65625 -0.46875,0.65627 -0.46875,1.42189 z m 16.64132,1.71875 v 2.42188 h -9.14062 q 0.15625,-1.375 0.89062,-2.59375 0.75,-1.23438 2.9375,-3.26565 1.76563,-1.64062 2.15625,-2.23437 0.54688,-0.79688 0.54688,-1.59375 0,-0.875 -0.46875,-1.34375 -0.46875,-0.46875 -1.29688,-0.46875 -0.8125,0 -1.29687,0.5 -0.48438,0.48437 -0.5625,1.625 l -2.59375,-0.25 q 0.23437,-2.15625 1.45312,-3.09375 1.21875,-0.9375 3.0625,-0.9375 2.01563,0 3.15625,1.09375 1.15625,1.07812 1.15625,2.6875 0,0.92187 -0.32812,1.75 -0.32813,0.82812 -1.04688,1.73437 -0.46875,0.60938 -1.70312,1.75002 -1.23438,1.125 -1.5625,1.5 -0.32813,0.35938 -0.53125,0.71875 z m 1.62573,-0.71875 2.53125,-0.28125 q 0.0937,0.76563 0.48438,1.14063 0.39062,0.375 1.03125,0.375 0.79687,0 1.35937,-0.73438 0.57813,-0.75 0.73438,-3.09377 -0.98438,1.14065 -2.46875,1.14065 -1.59375,0 -2.76563,-1.2344 -1.15625,-1.23437 -1.15625,-3.23437 0,-2.0625 1.21875,-3.32813 1.23438,-1.26562 3.14063,-1.26562 2.0625,0 3.39059,1.60937 1.32813,1.59375 1.32813,5.25 0,3.7344 -1.39063,5.39065 -1.37497,1.64062 -3.59372,1.64062 -1.59375,0 -2.57812,-0.84375 -0.98438,-0.84375 -1.26563,-2.53125 z m 5.90625,-5.70314 q 0,-1.26563 -0.57812,-1.95313 -0.57813,-0.70312 -1.34375,-0.70312 -0.71875,0 -1.20313,0.57812 -0.48437,0.5625 -0.48437,1.85938 0,1.32812 0.51562,1.95312 0.53125,0.60938 1.3125,0.60938 0.75,0 1.26563,-0.59375 0.51562,-0.59375 0.51562,-1.75 z m 6.65696,1.5 q -1.01563,-0.42188 -1.48438,-1.17188 -0.45312,-0.75 -0.45312,-1.64062 0,-1.51563 1.0625,-2.5 1.0625,-1 3.03125,-1 1.9375,0 3,1 1.07812,0.98437 1.07812,2.5 0,0.95312 -0.5,1.6875 -0.48437,0.73437 -1.375,1.125 1.125,0.45312 1.71875,1.32812 0.59375,0.875 0.59375,2.01565 0,1.89062 -1.20312,3.0625 -1.20313,1.17187 -3.20313,1.17187 -1.85937,0 -3.07812,-0.96875 -1.46875,-1.15625 -1.46875,-3.15625 0,-1.09375 0.54687,-2.01564 0.54688,-0.9375 1.73438,-1.4375 z m 0.53125,-2.625 q 0,0.78125 0.4375,1.21875 0.45312,0.4375 1.1875,0.4375 0.73437,0 1.17187,-0.4375 0.45313,-0.4375 0.45313,-1.21875 0,-0.73438 -0.4375,-1.17188 -0.4375,-0.45312 -1.17188,-0.45312 -0.75,0 -1.20312,0.45312 -0.4375,0.4375 -0.4375,1.17188 z m -0.23438,5.82814 q 0,1.07813 0.54688,1.6875 0.54687,0.59375 1.375,0.59375 0.8125,0 1.34375,-0.57812 0.53125,-0.57813 0.53125,-1.67188 0,-0.95314 -0.54688,-1.53127 -0.53125,-0.57812 -1.35937,-0.57812 -0.95313,0 -1.42188,0.65625 -0.46875,0.65627 -0.46875,1.42189 z m 14.51633,4.14063 h -2.60938 v -9.82814 q -1.4375,1.34375 -3.375,1.98437 v -2.375 q 1.03125,-0.32812 2.21875,-1.25 1.20313,-0.9375 1.64063,-2.1875 h 2.125 z m 9.95386,-3.14063 2.60937,0.4375 q -0.5,1.4375 -1.59375,2.1875 -1.07812,0.73438 -2.70312,0.73438 -2.5625,0 -3.79688,-1.67188 -0.96875,-1.34375 -0.96875,-3.40625 0,-2.43752 1.26563,-3.82814 1.28125,-1.39063 3.25,-1.39063 2.1875,0 3.45312,1.45313 1.28125,1.45312 1.23438,4.45314 h -6.53125 q 0.0156,1.15625 0.625,1.8125 0.60937,0.64063 1.5,0.64063 0.60937,0 1.03125,-0.32813 0.42187,-0.34375 0.625,-1.09375 z m 0.15625,-2.62502 q -0.0312,-1.14062 -0.59375,-1.71875 -0.54688,-0.59375 -1.34375,-0.59375 -0.85938,0 -1.40625,0.625 -0.5625,0.60938 -0.54688,1.6875 z"
       id="path193"
       inkscape:connector-curvature="0"
       style="fill:#0000ff;fill-rule:nonzero" />
    <path
       d="m 541.46454,238.65991 h 133.07092 v 37.25986 H 541.46454 Z"
       id="path195"
       inkscape:connector-curvature="0"
       style="fill:#000000;fill-opacity:0;fill-rule:evenodd" />
    <path
       d="m 541.46454,238.65991 h 133.07092 v 37.25986 H 541.46454 Z"
       id="path197"
       inkscape:connector-curvature="0"
       style="fill-rule:evenodd;stroke:#0000ff;stroke-width:3;stroke-linecap:butt;stroke-linejoin:round" />
    <path
       d="m 577.17523,253.20984 v -2.42187 h 8.90625 v 1.90625 q -1.09375,1.07812 -2.23437,3.10937 -1.14063,2.03125 -1.75,4.32812 -0.59375,2.28125 -0.57813,4.07813 h -2.51562 q 0.0625,-2.82813 1.15625,-5.75 1.10937,-2.9375 2.9375,-5.25 z m 10.28198,7.39062 2.51563,-0.3125 q 0.125,0.96875 0.65625,1.48438 0.53125,0.5 1.28125,0.5 0.79687,0 1.34375,-0.60938 0.5625,-0.60937 0.5625,-1.64062 0,-0.98438 -0.53125,-1.5625 -0.53125,-0.57813 -1.28125,-0.57813 -0.5,0 -1.20313,0.20313 l 0.28125,-2.125 q 1.0625,0.0156 1.60938,-0.46875 0.5625,-0.48438 0.5625,-1.29688 0,-0.6875 -0.40625,-1.09375 -0.40625,-0.40625 -1.07813,-0.40625 -0.67187,0 -1.14062,0.46875 -0.46875,0.46875 -0.57813,1.35938 l -2.40625,-0.42188 q 0.25,-1.23437 0.75,-1.96875 0.51563,-0.73437 1.42188,-1.15625 0.90625,-0.42187 2.03125,-0.42187 1.90625,0 3.07812,1.21875 0.95313,1 0.95313,2.26562 0,1.79688 -1.95313,2.85938 1.15625,0.25 1.85938,1.125 0.70312,0.875 0.70312,2.10937 0,1.78125 -1.3125,3.04688 -1.29687,1.26562 -3.25,1.26562 -1.84375,0 -3.0625,-1.0625 -1.21875,-1.0625 -1.40625,-2.78125 z m 19.61005,-3.32812 -2.5625,0.46875 q -0.14063,-0.78125 -0.59375,-1.17188 -0.45313,-0.39062 -1.1875,-0.39062 -0.98438,0 -1.5625,0.67187 -0.57813,0.67188 -0.57813,2.25 0,1.76563 0.57813,2.48438 0.59375,0.71875 1.59375,0.71875 0.75,0 1.21875,-0.42188 0.46875,-0.42187 0.67187,-1.45312 l 2.54688,0.4375 q -0.39063,1.76562 -1.53125,2.67187 -1.125,0.89063 -3.03125,0.89063 -2.15625,0 -3.45313,-1.35938 -1.28125,-1.35937 -1.28125,-3.78125 0,-2.4375 1.29688,-3.79687 1.29687,-1.35938 3.48437,-1.35938 1.79688,0 2.85938,0.78125 1.0625,0.76563 1.53125,2.35938 z m 1.23511,-4.0625 v -2.42188 h 8.90625 v 1.90625 q -1.09375,1.07813 -2.23438,3.10938 -1.14062,2.03125 -1.75,4.32812 -0.59375,2.28125 -0.57812,4.07813 h -2.51563 q 0.0625,-2.82813 1.15625,-5.75 1.10938,-2.9375 2.9375,-5.25 z m 19.1726,8.57812 v 2.42188 h -9.14062 q 0.15625,-1.375 0.89062,-2.59375 0.75,-1.23438 2.9375,-3.26563 1.76563,-1.64062 2.15625,-2.23437 0.54688,-0.79688 0.54688,-1.59375 0,-0.875 -0.46875,-1.34375 -0.46875,-0.46875 -1.29688,-0.46875 -0.8125,0 -1.29687,0.5 -0.48438,0.48437 -0.5625,1.625 l -2.59375,-0.25 q 0.23437,-2.15625 1.45312,-3.09375 1.21875,-0.9375 3.0625,-0.9375 2.01563,0 3.15625,1.09375 1.15625,1.07812 1.15625,2.6875 0,0.92187 -0.32812,1.75 -0.32813,0.82812 -1.04688,1.73437 -0.46875,0.60938 -1.70312,1.75 -1.23438,1.125 -1.5625,1.5 -0.32813,0.35938 -0.53125,0.71875 z m 2.0163,2.42188 v -13.59375 h 2.60937 v 4.89062 q 1.20313,-1.375 2.85938,-1.375 1.79687,0 2.96875,1.3125 1.1875,1.29688 1.1875,3.73438 0,2.53125 -1.20313,3.89062 -1.20312,1.35938 -2.92187,1.35938 -0.84375,0 -1.67188,-0.42188 -0.8125,-0.42187 -1.40625,-1.25 v 1.45313 z m 2.59375,-5.14063 q 0,1.53125 0.48437,2.26563 0.67188,1.03125 1.79688,1.03125 0.85937,0 1.46875,-0.73438 0.60937,-0.73437 0.60937,-2.32812 0,-1.6875 -0.60937,-2.42188 -0.60938,-0.75 -1.57813,-0.75 -0.9375,0 -1.5625,0.73438 -0.60937,0.71875 -0.60937,2.20312 z"
       id="path199"
       inkscape:connector-curvature="0"
       style="fill:#0000ff;fill-rule:nonzero" />
  </g>
</svg>
