<?xml version="1.0" standalone="yes"?>

<svg version="1.1" viewBox="0.0 0.0 960.0 540.0" fill="none" stroke="none" stroke-linecap="square" stroke-miterlimit="10" xmlns="http://www.w3.org/2000/svg" xmlns:xlink="http://www.w3.org/1999/xlink"><clipPath id="g2721dab237_0_0.0"><path d="m0 0l960.0 0l0 540.0l-960.0 0l0 -540.0z" clip-rule="nonzero"></path></clipPath><g clip-path="url(#g2721dab237_0_0.0)"><path fill="#ffffff" d="m0 0l960.0 0l0 540.0l-960.0 0z" fill-rule="evenodd"></path><defs><radialGradient id="g2721dab237_0_0.1" gradientUnits="userSpaceOnUse" gradientTransform="matrix(8.324223510661291 0.0 0.0 8.324223510661291 0.0 0.0)" spreadMethod="pad" cx="12.994513909183558" cy="35.043161162496425" fx="12.994513909183558" fy="35.043161162496425" r="8.324223518371582"><stop offset="0.0" stop-color="#dddddd"></stop><stop offset="1.0" stop-color="#919191"></stop></radialGradient></defs><path fill="url(#g2721dab237_0_0.1)" d="m42.994255 276.0199l0 0c0 -4.331909 29.179832 -7.8435974 65.17498 -7.8435974c35.995148 0 65.17499 3.5116882 65.17499 7.8435974l0 31.37442c0 4.331909 -29.17984 7.8435974 -65.17499 7.8435974c-35.995148 0 -65.17498 -3.5116882 -65.17498 -7.8435974z" fill-rule="evenodd"></path><path fill="#000000" fill-opacity="0.0" d="m173.34422 276.0199l0 0c0 4.331909 -29.17984 7.8435974 -65.17499 7.8435974c-35.995148 0 -65.17498 -3.5116882 -65.17498 -7.8435974" fill-rule="evenodd"></path><path fill="#000000" fill-opacity="0.0" d="m42.994255 276.0199l0 0c0 -4.331909 29.179832 -7.8435974 65.17498 -7.8435974c35.995148 0 65.17499 3.5116882 65.17499 7.8435974l0 31.37442c0 4.331909 -29.17984 7.8435974 -65.17499 7.8435974c-35.995148 0 -65.17498 -3.5116882 -65.17498 -7.8435974z" fill-rule="evenodd"></path><path stroke="#595959" stroke-width="16.0" stroke-linejoin="round" stroke-linecap="butt" d="m173.34422 276.0199l0 0c0 4.331909 -29.17984 7.8435974 -65.17499 7.8435974c-35.995148 0 -65.17498 -3.5116882 -65.17498 -7.8435974" fill-rule="evenodd"></path><path stroke="#595959" stroke-width="16.0" stroke-linejoin="round" stroke-linecap="butt" d="m42.994255 276.0199l0 0c0 -4.331909 29.179832 -7.8435974 65.17498 -7.8435974c35.995148 0 65.17499 3.5116882 65.17499 7.8435974l0 31.37442c0 4.331909 -29.17984 7.8435974 -65.17499 7.8435974c-35.995148 0 -65.17498 -3.5116882 -65.17498 -7.8435974z" fill-rule="evenodd"></path><defs><radialGradient id="g2721dab237_0_0.2" gradientUnits="userSpaceOnUse" gradientTransform="matrix(7.934122535095037 0.0 0.0 7.934122535095037 0.0 0.0)" spreadMethod="pad" cx="13.887957067544432" cy="35.249808766710174" fx="13.887957067544432" fy="35.249808766710174" r="7.934122562408447"><stop offset="0.0" stop-color="#dcecd5"></stop><stop offset="1.0" stop-color="#93bc81"></stop></radialGradient></defs><path fill="url(#g2721dab237_0_0.2)" d="m60.701607 273.73282l0 0c-0.97426987 -2.80661 2.224453 -5.585022 8.238838 -7.156189c6.0143814 -1.5711975 13.789635 -1.6596069 20.02642 -0.22775269l0 0c2.209259 -1.631897 6.2528534 -2.7585754 10.907669 -3.0393066c4.6548157 -0.2807312 9.37413 0.3175354 12.730446 1.6137695l0 0c1.8820038 -1.4795837 5.5773544 -2.4736633 9.77475 -2.6295166c4.1973953 -0.15582275 8.302795 0.5486145 10.8594055 1.8634033l0 0c3.400116 -1.5683594 8.809799 -2.2286987 13.888229 -1.695282c5.07843 0.53338623 8.913498 2.164734 9.845734 4.1881104l0 0c4.1657257 0.44543457 7.635681 1.5777283 9.513351 3.1044006c1.8776703 1.5266418 1.9788513 3.297882 0.27742004 4.8560486l0 0c4.1020203 2.092804 5.0615845 4.881439 2.5205994 7.325226c-2.540985 2.4438171 -8.20076 4.1756287 -14.867203 4.549164c-0.04699707 2.293579 -3.2558746 4.398163 -8.389801 5.502533c-5.1339264 1.1043396 -11.39122 1.0360413 -16.360046 -0.17858887c-2.1164627 2.7469482 -8.0735855 4.768158 -15.297676 5.190338c-7.2240906 0.4222107 -14.42009 -0.83029175 -18.479057 -3.2163696c-4.975441 1.1760864 -10.945564 1.5148926 -16.563622 0.9399719c-5.6180573 -0.5749512 -10.410812 -2.0151672 -13.2971115 -3.995819l0 0c-5.084282 0.23321533 -10.00008 -0.79937744 -12.307697 -2.5853271c-2.307621 -1.7859497 -1.515831 -3.9450378 1.9824142 -5.4057617l0 0c-4.5353127 -1.0463867 -6.8494987 -3.1227722 -5.7358093 -5.1463623c1.1136932 -2.0236206 5.402897 -3.5359192 10.630962 -3.7483215z" fill-rule="evenodd"></path><path fill="#000000" fill-opacity="0.0" d="m55.70595 282.7357l0 0c2.1402283 0.4937744 4.61269 0.71777344 7.0854225 0.64190674m3.2387466 7.3493347c1.0633621 -0.04876709 2.105667 -0.15206909 3.1000214 -0.30722046m26.759232 3.3629456c-0.7479019 -0.43966675 -1.3740845 -0.90948486 -1.8678818 -1.4014282m35.645897 -0.57263184l0 0c0.38586426 -0.500824 0.63586426 -1.0162659 0.7458496 -1.5377502m24.003067 -3.7860107c0.05001831 -2.441864 -3.488083 -4.6776733 -9.0946045 -5.7470703m21.441086 -6.1270447c-0.907959 0.83151245 -2.2940521 1.5691223 -4.0496216 2.1550293m-5.7402954 -10.115692l0 0c0.15470886 0.3357849 0.2263031 0.67663574 0.21380615 1.0177612m-23.947372 -3.510498l0 0c-0.8481598 0.39123535 -1.5469208 0.8284302 -2.0745544 1.2979736m-18.559792 -0.53201294l0 0c-0.45199585 0.35534668 -0.78952026 0.73135376 -1.0047913 1.1193848m-22.633667 0.30618286l0 0c1.3197021 0.30297852 2.5406036 0.6676636 3.6358871 1.0859985m-31.90078 6.2979736l0 0c0.13428116 0.38684082 0.3464508 0.7688904 0.6345215 1.1426086" fill-rule="evenodd"></path><path stroke="#595959" stroke-width="1.0" stroke-linejoin="round" stroke-linecap="butt" d="m60.701607 273.73282l0 0c-0.97426987 -2.80661 2.224453 -5.585022 8.238838 -7.156189c6.0143814 -1.5711975 13.789635 -1.6596069 20.02642 -0.22775269l0 0c2.209259 -1.631897 6.2528534 -2.7585754 10.907669 -3.0393066c4.6548157 -0.2807312 9.37413 0.3175354 12.730446 1.6137695l0 0c1.8820038 -1.4795837 5.5773544 -2.4736633 9.77475 -2.6295166c4.1973953 -0.15582275 8.302795 0.5486145 10.8594055 1.8634033l0 0c3.400116 -1.5683594 8.809799 -2.2286987 13.888229 -1.695282c5.07843 0.53338623 8.913498 2.164734 9.845734 4.1881104l0 0c4.1657257 0.44543457 7.635681 1.5777283 9.513351 3.1044006c1.8776703 1.5266418 1.9788513 3.297882 0.27742004 4.8560486l0 0c4.1020203 2.092804 5.0615845 4.881439 2.5205994 7.325226c-2.540985 2.4438171 -8.20076 4.1756287 -14.867203 4.549164c-0.04699707 2.293579 -3.2558746 4.398163 -8.389801 5.502533c-5.1339264 1.1043396 -11.39122 1.0360413 -16.360046 -0.17858887c-2.1164627 2.7469482 -8.0735855 4.768158 -15.297676 5.190338c-7.2240906 0.4222107 -14.42009 -0.83029175 -18.479057 -3.2163696c-4.975441 1.1760864 -10.945564 1.5148926 -16.563622 0.9399719c-5.6180573 -0.5749512 -10.410812 -2.0151672 -13.2971115 -3.995819l0 0c-5.084282 0.23321533 -10.00008 -0.79937744 -12.307697 -2.5853271c-2.307621 -1.7859497 -1.515831 -3.9450378 1.9824142 -5.4057617l0 0c-4.5353127 -1.0463867 -6.8494987 -3.1227722 -5.7358093 -5.1463623c1.1136932 -2.0236206 5.402897 -3.5359192 10.630962 -3.7483215z" fill-rule="evenodd"></path><path stroke="#595959" stroke-width="1.0" stroke-linejoin="round" stroke-linecap="butt" d="m55.70595 282.7357l0 0c2.1402283 0.4937744 4.61269 0.71777344 7.0854225 0.64190674m3.2387466 7.3493347c1.0633621 -0.04876709 2.105667 -0.15206909 3.1000214 -0.30722046m26.759232 3.3629456c-0.7479019 -0.43966675 -1.3740845 -0.90948486 -1.8678818 -1.4014282m35.645897 -0.57263184l0 0c0.38586426 -0.500824 0.63586426 -1.0162659 0.7458496 -1.5377502m24.003067 -3.7860107c0.05001831 -2.441864 -3.488083 -4.6776733 -9.0946045 -5.7470703m21.441086 -6.1270447c-0.907959 0.83151245 -2.2940521 1.5691223 -4.0496216 2.1550293m-5.7402954 -10.115692l0 0c0.15470886 0.3357849 0.2263031 0.67663574 0.21380615 1.0177612m-23.947372 -3.510498l0 0c-0.8481598 0.39123535 -1.5469208 0.8284302 -2.0745544 1.2979736m-18.559792 -0.53201294l0 0c-0.45199585 0.35534668 -0.78952026 0.73135376 -1.0047913 1.1193848m-22.633667 0.30618286l0 0c1.3197021 0.30297852 2.5406036 0.6676636 3.6358871 1.0859985m-31.90078 6.2979736l0 0c0.13428116 0.38684082 0.3464508 0.7688904 0.6345215 1.1426086" fill-rule="evenodd"></path><path fill="#000000" fill-opacity="0.0" d="m167.03972 280.09238l0 0c-8.478287 8.840973 -30.658646 15.028748 -56.49385 15.760345c-25.835213 0.7316284 -50.416645 -4.131897 -62.609467 -12.387482l57.512634 -11.071259z" fill-rule="evenodd"></path><path fill="#000000" fill-opacity="0.0" d="m167.03972 280.09238l0 0c-8.478287 8.840973 -30.658646 15.028748 -56.49385 15.760345c-25.835213 0.7316284 -50.416645 -4.131897 -62.609467 -12.387482" fill-rule="evenodd"></path><path stroke="#595959" stroke-width="8.0" stroke-linejoin="round" stroke-linecap="butt" d="m167.03972 280.09238l0 0c-8.478287 8.840973 -30.658646 15.028748 -56.49385 15.760345c-25.835213 0.7316284 -50.416645 -4.131897 -62.609467 -12.387482" fill-rule="evenodd"></path><defs><radialGradient id="g2721dab237_0_0.3" gradientUnits="userSpaceOnUse" gradientTransform="matrix(8.324223510661291 0.0 0.0 8.324223510661291 0.0 0.0)" spreadMethod="pad" cx="39.95595608798834" cy="34.08226821508846" fx="39.95595608798834" fy="34.08226821508846" r="8.324223518371582"><stop offset="0.0" stop-color="#dddddd"></stop><stop offset="1.0" stop-color="#919191"></stop></radialGradient></defs><path fill="url(#g2721dab237_0_0.3)" d="m267.42734 268.0212l0 0c0 -4.331909 29.17981 -7.8435974 65.17496 -7.8435974c35.995148 0 65.17499 3.5116882 65.17499 7.8435974l0 31.37442c0 4.331909 -29.17984 7.8435974 -65.17499 7.8435974c-35.995148 0 -65.17496 -3.5116882 -65.17496 -7.8435974z" fill-rule="evenodd"></path><path fill="#000000" fill-opacity="0.0" d="m397.77728 268.0212l0 0c0 4.331909 -29.17984 7.8435974 -65.17499 7.8435974c-35.995148 0 -65.17496 -3.5116882 -65.17496 -7.8435974" fill-rule="evenodd"></path><path fill="#000000" fill-opacity="0.0" d="m267.42734 268.0212l0 0c0 -4.331909 29.17981 -7.8435974 65.17496 -7.8435974c35.995148 0 65.17499 3.5116882 65.17499 7.8435974l0 31.37442c0 4.331909 -29.17984 7.8435974 -65.17499 7.8435974c-35.995148 0 -65.17496 -3.5116882 -65.17496 -7.8435974z" fill-rule="evenodd"></path><path stroke="#595959" stroke-width="16.0" stroke-linejoin="round" stroke-linecap="butt" d="m397.77728 268.0212l0 0c0 4.331909 -29.17984 7.8435974 -65.17499 7.8435974c-35.995148 0 -65.17496 -3.5116882 -65.17496 -7.8435974" fill-rule="evenodd"></path><path stroke="#595959" stroke-width="16.0" stroke-linejoin="round" stroke-linecap="butt" d="m267.42734 268.0212l0 0c0 -4.331909 29.17981 -7.8435974 65.17496 -7.8435974c35.995148 0 65.17499 3.5116882 65.17499 7.8435974l0 31.37442c0 4.331909 -29.17984 7.8435974 -65.17499 7.8435974c-35.995148 0 -65.17496 -3.5116882 -65.17496 -7.8435974z" fill-rule="evenodd"></path><defs><radialGradient id="g2721dab237_0_0.4" gradientUnits="userSpaceOnUse" gradientTransform="matrix(7.934122535095037 0.0 0.0 7.934122535095037 0.0 0.0)" spreadMethod="pad" cx="42.17502597445961" cy="34.24167111460544" fx="42.17502597445961" fy="34.24167111460544" r="7.934122562408447"><stop offset="0.0" stop-color="#dcecd5"></stop><stop offset="1.0" stop-color="#93bc81"></stop></radialGradient></defs><path fill="url(#g2721dab237_0_0.4)" d="m285.13467 265.73413l0 0c-0.9742737 -2.80661 2.2244568 -5.585022 8.238831 -7.156189c6.0144043 -1.5711975 13.789642 -1.6596069 20.026428 -0.22775269l0 0c2.209259 -1.6318665 6.2528687 -2.7585907 10.907684 -3.0393066c4.6548157 -0.28071594 9.374115 0.31752014 12.730438 1.6137695l0 0c1.8819885 -1.4795685 5.577362 -2.4736633 9.77475 -2.6295013c4.1973877 -0.15583801 8.302795 0.5486145 10.8594055 1.8633881l0 0c3.400116 -1.5683441 8.809784 -2.2286835 13.888214 -1.695282c5.0784607 0.5334015 8.913513 2.164734 9.845734 4.1881104l0 0c4.165741 0.44543457 7.635681 1.5777283 9.513367 3.1044006c1.877655 1.5266418 1.9788513 3.297882 0.2774048 4.8560486l0 0c4.1020203 2.092804 5.0615845 4.881439 2.5205994 7.325226c-2.540985 2.4438171 -8.200745 4.1756287 -14.8671875 4.549164c-0.04699707 2.293579 -3.25589 4.398163 -8.389801 5.502533c-5.1339417 1.1043396 -11.391235 1.0360413 -16.360046 -0.17858887c-2.116455 2.7469482 -8.073578 4.768158 -15.297668 5.190338c-7.2240906 0.4222107 -14.420105 -0.83029175 -18.479065 -3.2163696c-4.9754333 1.1760864 -10.945557 1.5148926 -16.56363 0.9399719c-5.618042 -0.5749512 -10.410797 -2.0151672 -13.297119 -3.995819l0 0c-5.084259 0.23321533 -10.000061 -0.79937744 -12.307678 -2.5853271c-2.3076172 -1.7859497 -1.5158386 -3.9450378 1.9823914 -5.4057617l0 0c-4.535309 -1.0463867 -6.8494873 -3.1227722 -5.735779 -5.1463623c1.113678 -2.0236206 5.402893 -3.5359192 10.630951 -3.7483215z" fill-rule="evenodd"></path><path fill="#000000" fill-opacity="0.0" d="m280.13904 274.737l0 0c2.1401978 0.4937744 4.612671 0.71777344 7.0854187 0.64190674m3.238739 7.3493347c1.0633545 -0.04876709 2.1056519 -0.15206909 3.100006 -0.30722046m26.759247 3.3629456c-0.7478943 -0.43966675 -1.3740845 -0.90948486 -1.8678894 -1.4014282m35.645905 -0.57263184l0 0c0.38586426 -0.500824 0.63586426 -1.0162659 0.7458496 -1.5377502m24.003052 -3.7860107c0.050048828 -2.441864 -3.4880676 -4.6776733 -9.0946045 -5.7470703m21.441101 -6.1270447c-0.907959 0.83151245 -2.2940674 1.5691223 -4.0496216 2.1550293m-5.7402954 -10.115692l0 0c0.1546936 0.3357849 0.22628784 0.67663574 0.21380615 1.0177612m-23.947357 -3.510498l0 0c-0.84817505 0.39123535 -1.546936 0.8284302 -2.074585 1.2979736m-18.559784 -0.53201294l0 0c-0.45199585 0.35534668 -0.78952026 0.73135376 -1.0047913 1.1193848m-22.633667 0.30618286l0 0c1.3197021 0.30297852 2.540619 0.6676636 3.6358948 1.0859985m-31.900787 6.2979736l0 0c0.13427734 0.38684082 0.34646606 0.7688904 0.6345215 1.1426086" fill-rule="evenodd"></path><path stroke="#595959" stroke-width="1.0" stroke-linejoin="round" stroke-linecap="butt" d="m285.13467 265.73413l0 0c-0.9742737 -2.80661 2.2244568 -5.585022 8.238831 -7.156189c6.0144043 -1.5711975 13.789642 -1.6596069 20.026428 -0.22775269l0 0c2.209259 -1.6318665 6.2528687 -2.7585907 10.907684 -3.0393066c4.6548157 -0.28071594 9.374115 0.31752014 12.730438 1.6137695l0 0c1.8819885 -1.4795685 5.577362 -2.4736633 9.77475 -2.6295013c4.1973877 -0.15583801 8.302795 0.5486145 10.8594055 1.8633881l0 0c3.400116 -1.5683441 8.809784 -2.2286835 13.888214 -1.695282c5.0784607 0.5334015 8.913513 2.164734 9.845734 4.1881104l0 0c4.165741 0.44543457 7.635681 1.5777283 9.513367 3.1044006c1.877655 1.5266418 1.9788513 3.297882 0.2774048 4.8560486l0 0c4.1020203 2.092804 5.0615845 4.881439 2.5205994 7.325226c-2.540985 2.4438171 -8.200745 4.1756287 -14.8671875 4.549164c-0.04699707 2.293579 -3.25589 4.398163 -8.389801 5.502533c-5.1339417 1.1043396 -11.391235 1.0360413 -16.360046 -0.17858887c-2.116455 2.7469482 -8.073578 4.768158 -15.297668 5.190338c-7.2240906 0.4222107 -14.420105 -0.83029175 -18.479065 -3.2163696c-4.9754333 1.1760864 -10.945557 1.5148926 -16.56363 0.9399719c-5.618042 -0.5749512 -10.410797 -2.0151672 -13.297119 -3.995819l0 0c-5.084259 0.23321533 -10.000061 -0.79937744 -12.307678 -2.5853271c-2.3076172 -1.7859497 -1.5158386 -3.9450378 1.9823914 -5.4057617l0 0c-4.535309 -1.0463867 -6.8494873 -3.1227722 -5.735779 -5.1463623c1.113678 -2.0236206 5.402893 -3.5359192 10.630951 -3.7483215z" fill-rule="evenodd"></path><path stroke="#595959" stroke-width="1.0" stroke-linejoin="round" stroke-linecap="butt" d="m280.13904 274.737l0 0c2.1401978 0.4937744 4.612671 0.71777344 7.0854187 0.64190674m3.238739 7.3493347c1.0633545 -0.04876709 2.1056519 -0.15206909 3.100006 -0.30722046m26.759247 3.3629456c-0.7478943 -0.43966675 -1.3740845 -0.90948486 -1.8678894 -1.4014282m35.645905 -0.57263184l0 0c0.38586426 -0.500824 0.63586426 -1.0162659 0.7458496 -1.5377502m24.003052 -3.7860107c0.050048828 -2.441864 -3.4880676 -4.6776733 -9.0946045 -5.7470703m21.441101 -6.1270447c-0.907959 0.83151245 -2.2940674 1.5691223 -4.0496216 2.1550293m-5.7402954 -10.115692l0 0c0.1546936 0.3357849 0.22628784 0.67663574 0.21380615 1.0177612m-23.947357 -3.510498l0 0c-0.84817505 0.39123535 -1.546936 0.8284302 -2.074585 1.2979736m-18.559784 -0.53201294l0 0c-0.45199585 0.35534668 -0.78952026 0.73135376 -1.0047913 1.1193848m-22.633667 0.30618286l0 0c1.3197021 0.30297852 2.540619 0.6676636 3.6358948 1.0859985m-31.900787 6.2979736l0 0c0.13427734 0.38684082 0.34646606 0.7688904 0.6345215 1.1426086" fill-rule="evenodd"></path><path fill="#000000" fill-opacity="0.0" d="m391.47278 272.0937l0 0c-8.4782715 8.840973 -30.65863 15.028748 -56.493835 15.760345c-25.835205 0.7316284 -50.416656 -4.131897 -62.609467 -12.387482l57.512634 -11.071259z" fill-rule="evenodd"></path><path fill="#000000" fill-opacity="0.0" d="m391.47278 272.0937l0 0c-8.4782715 8.840973 -30.65863 15.028748 -56.493835 15.760345c-25.835205 0.7316284 -50.416656 -4.131897 -62.609467 -12.387482" fill-rule="evenodd"></path><path stroke="#595959" stroke-width="8.0" stroke-linejoin="round" stroke-linecap="butt" d="m391.47278 272.0937l0 0c-8.4782715 8.840973 -30.65863 15.028748 -56.493835 15.760345c-25.835205 0.7316284 -50.416656 -4.131897 -62.609467 -12.387482" fill-rule="evenodd"></path><defs><radialGradient id="g2721dab237_0_0.5" gradientUnits="userSpaceOnUse" gradientTransform="matrix(8.324223510661291 0.0 0.0 8.324223510661291 0.0 0.0)" spreadMethod="pad" cx="69.20951025405552" cy="33.77831389144571" fx="69.20951025405552" fy="33.77831389144571" r="8.324223518371582"><stop offset="0.0" stop-color="#dddddd"></stop><stop offset="1.0" stop-color="#919191"></stop></radialGradient></defs><path fill="url(#g2721dab237_0_0.5)" d="m510.94046 265.49103l0 0c0 -4.331909 29.17984 -7.8435974 65.17496 -7.8435974c35.99518 0 65.17499 3.5116882 65.17499 7.8435974l0 31.37442c0 4.331909 -29.17981 7.8435974 -65.17499 7.8435974c-35.995117 0 -65.17496 -3.5116882 -65.17496 -7.8435974z" fill-rule="evenodd"></path><path fill="#000000" fill-opacity="0.0" d="m641.2904 265.49103l0 0c0 4.331909 -29.17981 7.8435974 -65.17499 7.8435974c-35.995117 0 -65.17496 -3.5116882 -65.17496 -7.8435974" fill-rule="evenodd"></path><path fill="#000000" fill-opacity="0.0" d="m510.94046 265.49103l0 0c0 -4.331909 29.17984 -7.8435974 65.17496 -7.8435974c35.99518 0 65.17499 3.5116882 65.17499 7.8435974l0 31.37442c0 4.331909 -29.17981 7.8435974 -65.17499 7.8435974c-35.995117 0 -65.17496 -3.5116882 -65.17496 -7.8435974z" fill-rule="evenodd"></path><path stroke="#595959" stroke-width="16.0" stroke-linejoin="round" stroke-linecap="butt" d="m641.2904 265.49103l0 0c0 4.331909 -29.17981 7.8435974 -65.17499 7.8435974c-35.995117 0 -65.17496 -3.5116882 -65.17496 -7.8435974" fill-rule="evenodd"></path><path stroke="#595959" stroke-width="16.0" stroke-linejoin="round" stroke-linecap="butt" d="m510.94046 265.49103l0 0c0 -4.331909 29.17984 -7.8435974 65.17496 -7.8435974c35.99518 0 65.17499 3.5116882 65.17499 7.8435974l0 31.37442c0 4.331909 -29.17981 7.8435974 -65.17499 7.8435974c-35.995117 0 -65.17496 -3.5116882 -65.17496 -7.8435974z" fill-rule="evenodd"></path><defs><radialGradient id="g2721dab237_0_0.6" gradientUnits="userSpaceOnUse" gradientTransform="matrix(7.934122535095037 0.0 0.0 7.934122535095037 0.0 0.0)" spreadMethod="pad" cx="72.86690428645282" cy="33.922772116531945" fx="72.86690428645282" fy="33.922772116531945" r="7.934122562408447"><stop offset="0.0" stop-color="#dcecd5"></stop><stop offset="1.0" stop-color="#93bc81"></stop></radialGradient></defs><path fill="url(#g2721dab237_0_0.6)" d="m528.6478 263.20395l0 0c-0.9743042 -2.80661 2.2244263 -5.585022 8.238831 -7.156189c6.0143433 -1.5711823 13.789612 -1.6596069 20.026428 -0.22775269l0 0c2.2092285 -1.6318817 6.2528076 -2.7585907 10.907654 -3.0393066c4.654785 -0.28071594 9.3741455 0.31752014 12.730408 1.6137695l0 0c1.882019 -1.4795685 5.5773926 -2.4736633 9.77478 -2.6295013c4.1973877 -0.15585327 8.302795 0.5486145 10.859375 1.8633881l0 0c3.4001465 -1.5683441 8.809814 -2.2286835 13.888245 -1.695282c5.07843 0.5334015 8.913513 2.164734 9.845764 4.1881104l0 0c4.1657104 0.44543457 7.635681 1.5777283 9.513306 3.1044006c1.8776855 1.5266418 1.9788818 3.2978516 0.27746582 4.8560486l0 0c4.1019897 2.092804 5.0615845 4.881439 2.5205688 7.325226c-2.5409546 2.4438171 -8.200745 4.1756287 -14.8671875 4.549164c-0.04699707 2.293579 -3.2558594 4.398163 -8.389832 5.5025024c-5.133911 1.1043701 -11.391174 1.0360718 -16.360046 -0.17855835c-2.116455 2.7469482 -8.073547 4.768158 -15.297668 5.190338c-7.22406 0.4222107 -14.420044 -0.83032227 -18.479065 -3.2163696c-4.975403 1.1760864 -10.945557 1.5148926 -16.563599 0.9399719c-5.618042 -0.5749512 -10.410828 -2.0151672 -13.297119 -3.995819l0 0c-5.0842896 0.23321533 -10.000061 -0.79937744 -12.307678 -2.5853271c-2.3076172 -1.7859497 -1.5158081 -3.9450378 1.9824219 -5.4057617l0 0c-4.5353394 -1.0463867 -6.8494873 -3.1227722 -5.73584 -5.146393c1.1137085 -2.02359 5.402893 -3.5359192 10.630981 -3.748291z" fill-rule="evenodd"></path><path fill="#000000" fill-opacity="0.0" d="m523.65216 272.20682l0 0c2.1401978 0.4937744 4.612671 0.71777344 7.085388 0.64190674m3.2387695 7.3493347c1.0633545 -0.04876709 2.1056519 -0.15206909 3.1000366 -0.30722046m26.759216 3.3629456c-0.7479248 -0.43966675 -1.3740845 -0.90948486 -1.8678589 -1.4014282m35.645874 -0.57263184l0 0c0.38586426 -0.500824 0.63586426 -1.0162659 0.7458496 -1.5377502m24.003052 -3.7860107c0.050048828 -2.441864 -3.4880981 -4.6776733 -9.0946045 -5.7470703m21.441101 -6.1270447c-0.907959 0.83151245 -2.2940674 1.5691223 -4.0496216 2.1550293m-5.7402954 -10.115692l0 0c0.15472412 0.3357849 0.22631836 0.67663574 0.21380615 1.0177612m-23.947388 -3.5104828l0 0c-0.84814453 0.3912201 -1.546936 0.8284149 -2.074524 1.2979431m-18.559814 -0.5319977l0 0c-0.45196533 0.35534668 -0.78948975 0.73135376 -1.0047607 1.1193848m-22.633667 0.30618286l0 0c1.3197021 0.30297852 2.5405884 0.6676636 3.6358643 1.0859985m-31.900757 6.2979736l0 0c0.13427734 0.38684082 0.34643555 0.7688904 0.6345215 1.1426086" fill-rule="evenodd"></path><path stroke="#595959" stroke-width="1.0" stroke-linejoin="round" stroke-linecap="butt" d="m528.6478 263.20395l0 0c-0.9743042 -2.80661 2.2244263 -5.585022 8.238831 -7.156189c6.0143433 -1.5711823 13.789612 -1.6596069 20.026428 -0.22775269l0 0c2.2092285 -1.6318817 6.2528076 -2.7585907 10.907654 -3.0393066c4.654785 -0.28071594 9.3741455 0.31752014 12.730408 1.6137695l0 0c1.882019 -1.4795685 5.5773926 -2.4736633 9.77478 -2.6295013c4.1973877 -0.15585327 8.302795 0.5486145 10.859375 1.8633881l0 0c3.4001465 -1.5683441 8.809814 -2.2286835 13.888245 -1.695282c5.07843 0.5334015 8.913513 2.164734 9.845764 4.1881104l0 0c4.1657104 0.44543457 7.635681 1.5777283 9.513306 3.1044006c1.8776855 1.5266418 1.9788818 3.2978516 0.27746582 4.8560486l0 0c4.1019897 2.092804 5.0615845 4.881439 2.5205688 7.325226c-2.5409546 2.4438171 -8.200745 4.1756287 -14.8671875 4.549164c-0.04699707 2.293579 -3.2558594 4.398163 -8.389832 5.5025024c-5.133911 1.1043701 -11.391174 1.0360718 -16.360046 -0.17855835c-2.116455 2.7469482 -8.073547 4.768158 -15.297668 5.190338c-7.22406 0.4222107 -14.420044 -0.83032227 -18.479065 -3.2163696c-4.975403 1.1760864 -10.945557 1.5148926 -16.563599 0.9399719c-5.618042 -0.5749512 -10.410828 -2.0151672 -13.297119 -3.995819l0 0c-5.0842896 0.23321533 -10.000061 -0.79937744 -12.307678 -2.5853271c-2.3076172 -1.7859497 -1.5158081 -3.9450378 1.9824219 -5.4057617l0 0c-4.5353394 -1.0463867 -6.8494873 -3.1227722 -5.73584 -5.146393c1.1137085 -2.02359 5.402893 -3.5359192 10.630981 -3.748291z" fill-rule="evenodd"></path><path stroke="#595959" stroke-width="1.0" stroke-linejoin="round" stroke-linecap="butt" d="m523.65216 272.20682l0 0c2.1401978 0.4937744 4.612671 0.71777344 7.085388 0.64190674m3.2387695 7.3493347c1.0633545 -0.04876709 2.1056519 -0.15206909 3.1000366 -0.30722046m26.759216 3.3629456c-0.7479248 -0.43966675 -1.3740845 -0.90948486 -1.8678589 -1.4014282m35.645874 -0.57263184l0 0c0.38586426 -0.500824 0.63586426 -1.0162659 0.7458496 -1.5377502m24.003052 -3.7860107c0.050048828 -2.441864 -3.4880981 -4.6776733 -9.0946045 -5.7470703m21.441101 -6.1270447c-0.907959 0.83151245 -2.2940674 1.5691223 -4.0496216 2.1550293m-5.7402954 -10.115692l0 0c0.15472412 0.3357849 0.22631836 0.67663574 0.21380615 1.0177612m-23.947388 -3.5104828l0 0c-0.84814453 0.3912201 -1.546936 0.8284149 -2.074524 1.2979431m-18.559814 -0.5319977l0 0c-0.45196533 0.35534668 -0.78948975 0.73135376 -1.0047607 1.1193848m-22.633667 0.30618286l0 0c1.3197021 0.30297852 2.5405884 0.6676636 3.6358643 1.0859985m-31.900757 6.2979736l0 0c0.13427734 0.38684082 0.34643555 0.7688904 0.6345215 1.1426086" fill-rule="evenodd"></path><path fill="#000000" fill-opacity="0.0" d="m634.9859 269.5635l0 0c-8.4782715 8.840973 -30.65863 15.028748 -56.493835 15.760345c-25.835205 0.7316284 -50.416626 -4.131897 -62.609497 -12.387482l57.512634 -11.071289z" fill-rule="evenodd"></path><path fill="#000000" fill-opacity="0.0" d="m634.9859 269.5635l0 0c-8.4782715 8.840973 -30.65863 15.028748 -56.493835 15.760345c-25.835205 0.7316284 -50.416626 -4.131897 -62.609497 -12.387482" fill-rule="evenodd"></path><path stroke="#595959" stroke-width="8.0" stroke-linejoin="round" stroke-linecap="butt" d="m634.9859 269.5635l0 0c-8.4782715 8.840973 -30.65863 15.028748 -56.493835 15.760345c-25.835205 0.7316284 -50.416626 -4.131897 -62.609497 -12.387482" fill-rule="evenodd"></path><defs><radialGradient id="g2721dab237_0_0.7" gradientUnits="userSpaceOnUse" gradientTransform="matrix(8.324223510661291 0.0 0.0 8.324223510661291 0.0 0.0)" spreadMethod="pad" cx="96.3457892300179" cy="33.121059962365514" fx="96.3457892300179" fy="33.121059962365514" r="8.324223518371582"><stop offset="0.0" stop-color="#dddddd"></stop><stop offset="1.0" stop-color="#919191"></stop></radialGradient></defs><path fill="url(#g2721dab237_0_0.7)" d="m736.8289 260.0199l0 0c0 -4.331909 29.17981 -7.8436127 65.17499 -7.8436127c35.995117 0 65.17499 3.5117035 65.17499 7.8436127l0 31.37442c0 4.331909 -29.17987 7.8435974 -65.17499 7.8435974c-35.99518 0 -65.17499 -3.5116882 -65.17499 -7.8435974z" fill-rule="evenodd"></path><path fill="#000000" fill-opacity="0.0" d="m867.1789 260.0199l0 0c0 4.331909 -29.17987 7.8435974 -65.17499 7.8435974c-35.99518 0 -65.17499 -3.5116882 -65.17499 -7.8435974" fill-rule="evenodd"></path><path fill="#000000" fill-opacity="0.0" d="m736.8289 260.0199l0 0c0 -4.331909 29.17981 -7.8436127 65.17499 -7.8436127c35.995117 0 65.17499 3.5117035 65.17499 7.8436127l0 31.37442c0 4.331909 -29.17987 7.8435974 -65.17499 7.8435974c-35.99518 0 -65.17499 -3.5116882 -65.17499 -7.8435974z" fill-rule="evenodd"></path><path stroke="#595959" stroke-width="16.0" stroke-linejoin="round" stroke-linecap="butt" d="m867.1789 260.0199l0 0c0 4.331909 -29.17987 7.8435974 -65.17499 7.8435974c-35.99518 0 -65.17499 -3.5116882 -65.17499 -7.8435974" fill-rule="evenodd"></path><path stroke="#595959" stroke-width="16.0" stroke-linejoin="round" stroke-linecap="butt" d="m736.8289 260.0199l0 0c0 -4.331909 29.17981 -7.8436127 65.17499 -7.8436127c35.995117 0 65.17499 3.5117035 65.17499 7.8436127l0 31.37442c0 4.331909 -29.17987 7.8435974 -65.17499 7.8435974c-35.99518 0 -65.17499 -3.5116882 -65.17499 -7.8435974z" fill-rule="evenodd"></path><defs><radialGradient id="g2721dab237_0_0.8" gradientUnits="userSpaceOnUse" gradientTransform="matrix(7.934122535095037 0.0 0.0 7.934122535095037 0.0 0.0)" spreadMethod="pad" cx="101.3374062788781" cy="33.233202654411414" fx="101.3374062788781" fy="33.233202654411414" r="7.934122562408447"><stop offset="0.0" stop-color="#dcecd5"></stop><stop offset="1.0" stop-color="#93bc81"></stop></radialGradient></defs><path fill="url(#g2721dab237_0_0.8)" d="m754.53625 257.73282l0 0c-0.97424316 -2.8066254 2.2244263 -5.5850067 8.238831 -7.156189c6.0144043 -1.5711823 13.789612 -1.6596069 20.026428 -0.22773743l0 0c2.2092285 -1.631897 6.2528687 -2.758606 10.907654 -3.039322c4.654846 -0.28071594 9.3741455 0.31752014 12.730469 1.6137695l0 0c1.882019 -1.4795685 5.5773315 -2.4736633 9.774719 -2.6295013c4.1974487 -0.15583801 8.302795 0.5486145 10.859436 1.8633881l0 0c3.4000854 -1.5683441 8.809814 -2.2286835 13.888245 -1.695282c5.07843 0.5334015 8.913452 2.164734 9.845703 4.1881256l0 0c4.1657104 0.4454193 7.635681 1.5777283 9.513367 3.10437c1.8776855 1.5266571 1.9788208 3.2978973 0.2774048 4.856064l0 0c4.102051 2.092804 5.0615845 4.881439 2.52063 7.325226c-2.5410156 2.4438171 -8.200806 4.1756287 -14.867249 4.549164c-0.04699707 2.293579 -3.2558594 4.398163 -8.3897705 5.502533c-5.133911 1.1043396 -11.391235 1.0360413 -16.360046 -0.17858887c-2.116455 2.7469482 -8.073608 4.768158 -15.297668 5.190338c-7.224121 0.4222107 -14.420105 -0.83029175 -18.479065 -3.2163696c-4.975464 1.1760864 -10.945557 1.5148926 -16.563599 0.9399719c-5.618103 -0.5749512 -10.410828 -2.0151672 -13.297119 -3.995819l0 0c-5.0842896 0.23321533 -10.000122 -0.79937744 -12.307739 -2.5853271c-2.3076172 -1.7859497 -1.5158081 -3.9450378 1.9824219 -5.4057617l0 0c-4.5352783 -1.0463867 -6.8494873 -3.1227722 -5.735779 -5.1463623c1.1136475 -2.0236206 5.402893 -3.5359192 10.63092 -3.7483215z" fill-rule="evenodd"></path><path fill="#000000" fill-opacity="0.0" d="m749.5406 266.7357l0 0c2.1402588 0.4937744 4.612671 0.71777344 7.085449 0.64190674m3.2387085 7.3493347c1.0634155 -0.04876709 2.105713 -0.15206909 3.1000366 -0.30722046m26.759216 3.3629456c-0.74786377 -0.43966675 -1.3740845 -0.90948486 -1.8678589 -1.4014282m35.645874 -0.57263184l0 0c0.38586426 -0.500824 0.63586426 -1.0162659 0.7458496 -1.5377502m24.003113 -3.7860107c0.049987793 -2.441864 -3.4880981 -4.6776733 -9.0946045 -5.7470703m21.44104 -6.1270447c-0.907959 0.83151245 -2.2940063 1.5691223 -4.0496216 2.1550293m-5.7402954 -10.115677l0 0c0.15472412 0.3357849 0.22631836 0.6766052 0.21380615 1.0177612m-23.947327 -3.510498l0 0c-0.84820557 0.3912201 -1.546936 0.8284149 -2.074585 1.2979431m-18.559814 -0.5319977l0 0c-0.45196533 0.35534668 -0.78948975 0.73135376 -1.0047607 1.1193848m-22.633667 0.30618286l0 0c1.3197021 0.30297852 2.5405884 0.6676483 3.6358643 1.0859985m-31.900757 6.2979736l0 0c0.13427734 0.38684082 0.34643555 0.7688904 0.6345215 1.1426086" fill-rule="evenodd"></path><path stroke="#595959" stroke-width="1.0" stroke-linejoin="round" stroke-linecap="butt" d="m754.53625 257.73282l0 0c-0.97424316 -2.8066254 2.2244263 -5.5850067 8.238831 -7.156189c6.0144043 -1.5711823 13.789612 -1.6596069 20.026428 -0.22773743l0 0c2.2092285 -1.631897 6.2528687 -2.758606 10.907654 -3.039322c4.654846 -0.28071594 9.3741455 0.31752014 12.730469 1.6137695l0 0c1.882019 -1.4795685 5.5773315 -2.4736633 9.774719 -2.6295013c4.1974487 -0.15583801 8.302795 0.5486145 10.859436 1.8633881l0 0c3.4000854 -1.5683441 8.809814 -2.2286835 13.888245 -1.695282c5.07843 0.5334015 8.913452 2.164734 9.845703 4.1881256l0 0c4.1657104 0.4454193 7.635681 1.5777283 9.513367 3.10437c1.8776855 1.5266571 1.9788208 3.2978973 0.2774048 4.856064l0 0c4.102051 2.092804 5.0615845 4.881439 2.52063 7.325226c-2.5410156 2.4438171 -8.200806 4.1756287 -14.867249 4.549164c-0.04699707 2.293579 -3.2558594 4.398163 -8.3897705 5.502533c-5.133911 1.1043396 -11.391235 1.0360413 -16.360046 -0.17858887c-2.116455 2.7469482 -8.073608 4.768158 -15.297668 5.190338c-7.224121 0.4222107 -14.420105 -0.83029175 -18.479065 -3.2163696c-4.975464 1.1760864 -10.945557 1.5148926 -16.563599 0.9399719c-5.618103 -0.5749512 -10.410828 -2.0151672 -13.297119 -3.995819l0 0c-5.0842896 0.23321533 -10.000122 -0.79937744 -12.307739 -2.5853271c-2.3076172 -1.7859497 -1.5158081 -3.9450378 1.9824219 -5.4057617l0 0c-4.5352783 -1.0463867 -6.8494873 -3.1227722 -5.735779 -5.1463623c1.1136475 -2.0236206 5.402893 -3.5359192 10.63092 -3.7483215z" fill-rule="evenodd"></path><path stroke="#595959" stroke-width="1.0" stroke-linejoin="round" stroke-linecap="butt" d="m749.5406 266.7357l0 0c2.1402588 0.4937744 4.612671 0.71777344 7.085449 0.64190674m3.2387085 7.3493347c1.0634155 -0.04876709 2.105713 -0.15206909 3.1000366 -0.30722046m26.759216 3.3629456c-0.74786377 -0.43966675 -1.3740845 -0.90948486 -1.8678589 -1.4014282m35.645874 -0.57263184l0 0c0.38586426 -0.500824 0.63586426 -1.0162659 0.7458496 -1.5377502m24.003113 -3.7860107c0.049987793 -2.441864 -3.4880981 -4.6776733 -9.0946045 -5.7470703m21.44104 -6.1270447c-0.907959 0.83151245 -2.2940063 1.5691223 -4.0496216 2.1550293m-5.7402954 -10.115677l0 0c0.15472412 0.3357849 0.22631836 0.6766052 0.21380615 1.0177612m-23.947327 -3.510498l0 0c-0.84820557 0.3912201 -1.546936 0.8284149 -2.074585 1.2979431m-18.559814 -0.5319977l0 0c-0.45196533 0.35534668 -0.78948975 0.73135376 -1.0047607 1.1193848m-22.633667 0.30618286l0 0c1.3197021 0.30297852 2.5405884 0.6676483 3.6358643 1.0859985m-31.900757 6.2979736l0 0c0.13427734 0.38684082 0.34643555 0.7688904 0.6345215 1.1426086" fill-rule="evenodd"></path><path fill="#000000" fill-opacity="0.0" d="m860.8744 264.09238l0 0c-8.4783325 8.840973 -30.658691 15.028748 -56.493896 15.760345c-25.835205 0.7316284 -50.416626 -4.131897 -62.609436 -12.387482l57.512634 -11.071259z" fill-rule="evenodd"></path><path fill="#000000" fill-opacity="0.0" d="m860.8744 264.09238l0 0c-8.4783325 8.840973 -30.658691 15.028748 -56.493896 15.760345c-25.835205 0.7316284 -50.416626 -4.131897 -62.609436 -12.387482" fill-rule="evenodd"></path><path stroke="#595959" stroke-width="8.0" stroke-linejoin="round" stroke-linecap="butt" d="m860.8744 264.09238l0 0c-8.4783325 8.840973 -30.658691 15.028748 -56.493896 15.760345c-25.835205 0.7316284 -50.416626 -4.131897 -62.609436 -12.387482" fill-rule="evenodd"></path><path fill="#000000" fill-opacity="0.0" d="m167.03972 280.09238l100.377945 3.6220703" fill-rule="evenodd"></path><path stroke="#0000ff" stroke-width="4.0" stroke-linejoin="round" stroke-linecap="butt" d="m167.03972 280.09238l100.377945 3.6220703" fill-rule="evenodd"></path><path fill="#000000" fill-opacity="0.0" d="m391.47278 272.0937l124.409485 0.85040283" fill-rule="evenodd"></path><path stroke="#0000ff" stroke-width="4.0" stroke-linejoin="round" stroke-linecap="butt" d="m391.47278 272.0937l124.409485 0.85040283" fill-rule="evenodd"></path><path fill="#000000" fill-opacity="0.0" d="m634.9859 269.5635l106.77167 -2.1102295" fill-rule="evenodd"></path><path stroke="#0000ff" stroke-width="4.0" stroke-linejoin="round" stroke-linecap="butt" d="m634.9859 269.5635l106.77167 -2.1102295" fill-rule="evenodd"></path><path fill="#000000" fill-opacity="0.0" d="m736.47614 157.3727l138.45667 0l0 37.259857l-138.45667 0z" fill-rule="evenodd"></path><path stroke="#000000" stroke-width="4.0" stroke-linejoin="round" stroke-linecap="butt" d="m736.47614 157.3727l138.45667 0l0 37.259857l-138.45667 0z" fill-rule="evenodd"></path><path fill="#000000" d="m756.39197 187.72263l0 -22.90625l6.921875 0l4.15625 15.625l4.109375 -15.625l6.9375 0l0 22.90625l-4.296875 0l0 -18.03125l-4.546875 18.03125l-4.453125 0l-4.53125 -18.03125l0 18.03125l-4.296875 0zm29.96875 -11.53125l-3.984375 -0.71875q0.671875 -2.40625 2.3125 -3.5625q1.640625 -1.15625 4.875 -1.15625q2.9375 0 4.375 0.703125q1.4375 0.6875 2.015625 1.765625q0.59375 1.0625 0.59375 3.921875l-0.046875 5.125q0 2.1875 0.203125 3.234375q0.21875 1.03125 0.796875 2.21875l-4.34375 0q-0.171875 -0.4375 -0.421875 -1.296875q-0.109375 -0.390625 -0.15625 -0.515625q-1.125 1.09375 -2.40625 1.640625q-1.28125 0.546875 -2.734375 0.546875q-2.5625 0 -4.046875 -1.390625q-1.46875 -1.390625 -1.46875 -3.515625q0 -1.40625 0.671875 -2.5q0.671875 -1.109375 1.875 -1.6875q1.21875 -0.59375 3.5 -1.03125q3.078125 -0.578125 4.265625 -1.078125l0 -0.4375q0 -1.265625 -0.625 -1.796875q-0.625 -0.546875 -2.359375 -0.546875q-1.171875 0 -1.828125 0.46875q-0.65625 0.453125 -1.0625 1.609375zm5.875 3.5625q-0.84375 0.28125 -2.671875 0.671875q-1.828125 0.390625 -2.390625 0.765625q-0.859375 0.609375 -0.859375 1.546875q0 0.921875 0.6875 1.59375q0.6875 0.671875 1.75 0.671875q1.1875 0 2.265625 -0.78125q0.796875 -0.59375 1.046875 -1.453125q0.171875 -0.5625 0.171875 -2.140625l0 -0.875zm7.09375 3.234375l4.40625 -0.671875q0.28125 1.28125 1.140625 1.953125q0.859375 0.65625 2.40625 0.65625q1.703125 0 2.5625 -0.625q0.578125 -0.4375 0.578125 -1.171875q0 -0.5 -0.3125 -0.828125q-0.328125 -0.3125 -1.46875 -0.578125q-5.3125 -1.171875 -6.734375 -2.140625q-1.96875 -1.34375 -1.96875 -3.734375q0 -2.15625 1.703125 -3.625q1.703125 -1.46875 5.28125 -1.46875q3.40625 0 5.0625 1.109375q1.65625 1.109375 2.28125 3.28125l-4.140625 0.765625q-0.265625 -0.96875 -1.015625 -1.484375q-0.734375 -0.515625 -2.109375 -0.515625q-1.734375 0 -2.484375 0.484375q-0.5 0.34375 -0.5 0.890625q0 0.46875 0.4375 0.796875q0.59375 0.4375 4.09375 1.234375q3.515625 0.796875 4.90625 1.953125q1.375 1.171875 1.375 3.265625q0 2.28125 -1.90625 3.921875q-1.90625 1.640625 -5.640625 1.640625q-3.390625 0 -5.375 -1.375q-1.96875 -1.375 -2.578125 -3.734375zm26.953125 -11.859375l0 3.5l-3.0 0l0 6.6875q0 2.03125 0.078125 2.375q0.09375 0.328125 0.390625 0.546875q0.3125 0.21875 0.75 0.21875q0.609375 0 1.765625 -0.421875l0.375 3.40625q-1.53125 0.65625 -3.46875 0.65625q-1.1875 0 -2.140625 -0.390625q-0.953125 -0.40625 -1.40625 -1.03125q-0.4375 -0.640625 -0.609375 -1.71875q-0.140625 -0.765625 -0.140625 -3.09375l0 -7.234375l-2.015625 0l0 -3.5l2.015625 0l0 -3.296875l4.40625 -2.5625l0 5.859375l3.0 0zm12.65625 11.3125l4.375 0.734375q-0.84375 2.40625 -2.671875 3.671875q-1.8125 1.25 -4.546875 1.25q-4.328125 0 -6.40625 -2.828125q-1.640625 -2.265625 -1.640625 -5.71875q0 -4.125 2.15625 -6.453125q2.15625 -2.34375 5.453125 -2.34375q3.703125 0 5.84375 2.453125q2.140625 2.4375 2.046875 7.484375l-11.0 0q0.046875 1.953125 1.0625 3.046875q1.015625 1.078125 2.53125 1.078125q1.03125 0 1.734375 -0.5625q0.703125 -0.5625 1.0625 -1.8125zm0.25 -4.4375q-0.046875 -1.90625 -0.984375 -2.890625q-0.9375 -1.0 -2.28125 -1.0q-1.4375 0 -2.375 1.046875q-0.9375 1.046875 -0.921875 2.84375l6.5625 0zm12.140625 9.71875l-4.390625 0l0 -16.59375l4.078125 0l0 2.359375q1.046875 -1.671875 1.875 -2.203125q0.84375 -0.53125 1.90625 -0.53125q1.5 0 2.890625 0.828125l-1.359375 3.828125q-1.109375 -0.71875 -2.0625 -0.71875q-0.921875 0 -1.5625 0.515625q-0.640625 0.5 -1.015625 1.828125q-0.359375 1.328125 -0.359375 5.5625l0 5.125z" fill-rule="nonzero"></path><path fill="#000000" fill-opacity="0.0" d="m805.70447 194.63255l-1.6693115 53.51181" fill-rule="evenodd"></path><path stroke="#595959" stroke-width="4.0" stroke-linejoin="round" stroke-linecap="butt" d="m805.70447 194.63255l-1.2418823 39.81012" fill-rule="evenodd"></path><path fill="#595959" stroke="#595959" stroke-width="4.0" stroke-linecap="butt" d="m804.4626 234.44267l-4.355896 -4.6363983l4.11084 12.493317l4.8814697 -12.212799z" fill-rule="evenodd"></path><path fill="#000000" fill-opacity="0.0" d="m807.36743 101.16273l-1.6692505 56.22048" fill-rule="evenodd"></path><path stroke="#595959" stroke-width="4.0" stroke-linejoin="round" stroke-linecap="butt" d="m807.36743 101.16273l-1.2624512 42.518166" fill-rule="evenodd"></path><path fill="#595959" stroke="#595959" stroke-width="4.0" stroke-linecap="butt" d="m806.105 143.6809l-4.362793 -4.6298523l4.1295166 12.487122l4.863159 -12.220108z" fill-rule="evenodd"></path><path fill="#000000" fill-opacity="0.0" d="m728.70605 65.09974l0 0c0 -19.917042 35.217896 -36.062996 78.66138 -36.062996l0 0c43.443542 0 78.66144 16.145952 78.66144 36.062996l0 0c0 19.917038 -35.217896 36.06299 -78.66144 36.06299l0 0c-43.44348 0 -78.66138 -16.14595 -78.66138 -36.06299z" fill-rule="evenodd"></path><path stroke="#595959" stroke-width="4.0" stroke-linejoin="round" stroke-linecap="butt" d="m728.70605 65.09974l0 0c0 -19.917042 35.217896 -36.062996 78.66138 -36.062996l0 0c43.443542 0 78.66144 16.145952 78.66144 36.062996l0 0c0 19.917038 -35.217896 36.06299 -78.66144 36.06299l0 0c-43.44348 0 -78.66138 -16.14595 -78.66138 -36.06299z" fill-rule="evenodd"></path><path fill="#000000" d="m764.37524 76.81974l0 -22.906254l4.625 0l0 9.015625l9.0625 0l0 -9.015625l4.625 0l0 22.906254l-4.625 0l0 -10.015625l-9.0625 0l0 10.015625l-4.625 0zm23.09375 0l0 -22.906254l16.984375 0l0 3.875l-12.359375 0l0 5.078125l11.5 0l0 3.8593788l-11.5 0l0 6.234375l12.796875 0l0 3.859375l-17.421875 0zm42.0 0l-5.03125 0l-2.0 -5.203125l-9.15625 0l-1.890625 5.203125l-4.90625 0l8.921875 -22.906254l4.890625 0l9.171875 22.906254zm-8.515625 -9.0625l-3.15625 -8.500004l-3.09375 8.500004l6.25 0zm10.953125 -13.843754l8.453125 0q2.859375 0 4.359375 0.4375q2.015625 0.59375 3.453125 2.109375q1.4375 1.515625 2.1875 3.71875q0.75 2.1875 0.75 5.406254q0 2.828125 -0.703125 4.875q-0.859375 2.5 -2.453125 4.046875q-1.203125 1.171875 -3.25 1.828125q-1.53125 0.484375 -4.09375 0.484375l-8.703125 0l0 -22.906254zm4.625 3.875l0 15.171879l3.453125 0q1.9375 0 2.796875 -0.21875q1.125 -0.28125 1.859375 -0.953125q0.75 -0.671875 1.21875 -2.203125q0.46875 -1.546875 0.46875 -4.203125q0 -2.6562538 -0.46875 -4.078129q-0.46875 -1.421875 -1.3125 -2.21875q-0.84375 -0.796875 -2.140625 -1.078125q-0.96875 -0.21875 -3.796875 -0.21875l-2.078125 0z" fill-rule="nonzero"></path></g></svg>

